<?xml version="1.0" encoding="utf-8"?>
<!-- Generator: Adobe Illustrator 21.0.2, SVG Export Plug-In . SVG Version: 6.00 Build 0)  -->
<svg version="1.1" id="Layer_1" xmlns="http://www.w3.org/2000/svg" xmlns:xlink="http://www.w3.org/1999/xlink" x="0px" y="0px"
	 width="142.7px" height="239.4px" viewBox="0 0 142.7 239.4" enable-background="new 0 0 142.7 239.4" xml:space="preserve">
<g>
	<g id="XMLID_7_">
		<g>
			<path fill="#B2B214" d="M139.2,139.2c0.9,12.3-0.3,24.5-2.6,36.7c-1.3,7.4-3.1,14.7-4.9,21.9c-1.4,5.4-2.9,10.8-5.7,15.6
				c-4.7,7.9-12.6,13.2-20.2,18.2c-2.7,1.8-5.5,3.5-8.7,4.4c-3.2,0.8-6.8,0.5-9.2-1.6c2.8-3.1,6.8-5.1,9.1-8.6
				c1.5-2.3,2.2-4.9,2.8-7.5c4.4-17.6,8.9-36,7.4-53.7c-0.5-5.6-1.5-11.2-3.3-16.6c-9.2-27.4-17.3-55.1-24.2-83.2
				c-1-4.2-2.1-8.7-1.4-12.9c0.1-0.9,0.3-1.8,0.7-2.7c1.8-5,7.7-8.9,12.4-6.6c2.7,1.3,5.7-0.8,8.1-2.6c2.3-1.9,5.7-3.7,8.1-1.9
				c6.2,4.5,8.8,12.4,11,19.8c3.3,11,6.7,22.1,10,33.1c0.6,2,1.2,4,1.8,5.9C134.4,110.7,138.2,124.7,139.2,139.2z"/>
			<path fill="#ACB744" d="M133,96c4.5,15.1,9,30.3,9.6,46.1c0.5,11.5-1.1,23-3.2,34.3l-2.8-0.5c2.2-12.1,3.4-24.4,2.6-36.7
				c-1-14.4-4.8-28.5-9-42.4L133,96z"/>
			<path fill="#ACB744" d="M131.7,197.7c1.9-7.2,3.6-14.5,4.9-21.9l2.8,0.5c-0.7,3.8-1.5,7.6-2.2,11.4c-2.3,11.5-4.8,23.5-12.3,32.4
				c-4,4.9-9.3,8.5-14.5,12.1c-6.2,4.3-13.7,8.8-20.9,6.5c-2-0.6-3.9-2-4.3-4c0-0.1,0-0.2-0.1-0.4l2.7,0c2.5,2.1,6.1,2.4,9.2,1.6
				c3.2-0.8,5.9-2.6,8.7-4.4c7.7-5,15.5-10.3,20.2-18.2C128.9,208.6,130.4,203.1,131.7,197.7z"/>
			<path fill="#ACB744" d="M98.5,6.5c4.2-4.3,10.1-7.3,16-6.4c-3.9,2.6-7.4,5.7-10.4,9.3c-1.9,2.3-3.6,5-4.6,7.8l-2.7-0.9
				c0.6-1.7,1.1-3.4,1.7-5.2c-0.8,0.8-1.5,1.6-2.1,2.6l-2.6-1.1C95.2,10.5,96.7,8.4,98.5,6.5z"/>
			<path fill="#ACB744" d="M96.4,17.8c0.2-0.4,0.3-0.9,0.4-1.4l2.7,0.9c-1.2,3.2-1.4,6.6,0,9.7c2.4,5.3,8.6,7.6,12.8,11.6
				c4.9,4.6,7,11.4,8.9,17.8c3.9,13.1,7.8,26.1,11.7,39.2c0,0.1,0.1,0.2,0.1,0.4l-2.7,0.8c-0.6-2-1.2-4-1.8-5.9
				c-3.3-11-6.7-22.1-10-33.1c-2.2-7.4-4.8-15.2-11-19.8c-2.4-1.8-5.8,0-8.1,1.9c-2.3,1.9-5.4,3.9-8.1,2.6
				c-4.7-2.4-10.6,1.6-12.4,6.6c-0.3,0.9-0.5,1.8-0.7,2.7l-2.1-0.2c0.4-3,1.3-5.9,2.6-8.6c3.4-7.1,6.9-14.2,10.4-21.3
				c1.5-3,3-6.1,4.7-8.9l2.6,1.1c-2.5,4-3.5,9.1-5.9,13.3c-0.7,1.3-1.6,2.5-2.4,3.7c-1.6,2.5-2.7,5.4-3.5,8.3c1.2-0.7,2.7-0.9,4-0.4
				c1.3,0.5,2.7,0.6,4.1,0.5c2.9-0.4,5.5-2.2,7.8-3.9c0.2-0.1,0.3-0.3,0.4-0.4c0.2-0.4,0-0.8-0.2-1.1c-1.1-1.9-3.3-3-4.6-4.7
				C94.1,25.8,95.2,21.5,96.4,17.8z"/>
			<path fill="#ACB744" d="M96.4,17.8c-1.2,3.7-2.3,8,0,11.2c1.3,1.8,3.4,2.8,4.6,4.7c0.2,0.4,0.3,0.8,0.2,1.1
				c-0.1,0.2-0.3,0.3-0.4,0.4c-2.4,1.8-4.9,3.5-7.8,3.9c-1.4,0.1-2.8,0-4.1-0.5c-1.3-0.5-2.8-0.3-4,0.4c0.7-2.9,1.9-5.8,3.5-8.3
				c0.8-1.3,1.6-2.5,2.4-3.7c2.4-4.2,3.3-9.3,5.9-13.3c0.6-0.9,1.3-1.8,2.1-2.6c-0.6,1.7-1.1,3.4-1.7,5.2
				C96.7,16.9,96.5,17.3,96.4,17.8z"/>
			<path fill="#ACB744" d="M107.2,164.5c1.5,17.7-3,36.2-7.4,53.7c-0.7,2.6-1.3,5.3-2.8,7.5c-2.3,3.5-6.3,5.5-9.1,8.6l-2.7,0
				c-0.3-3.7,4.6-5.6,7.4-8.3c2.6-2.4,3.6-6.1,4.5-9.6c3.1-12.5,5.4-25.1,7.1-37.9c0.5-4.3,1-8.7,0.7-13.1c0-0.3,0-0.6-0.1-0.9
				L107.2,164.5z"/>
			<path fill="#ACB744" d="M101.6,151.1c-7-23.2-14.1-46.3-21.1-69.5c-2.9-9.7-5.8-20.2-4.4-30l2.1,0.2c-0.6,4.2,0.4,8.7,1.4,12.9
				c6.9,28,15,55.8,24.2,83.2c1.8,5.4,2.9,11,3.3,16.6l-2.4,0.2C104.3,160,102.9,155.5,101.6,151.1z"/>
		</g>
		<g>
		</g>
	</g>
	<g id="XMLID_8_">
		<g>
			<path fill="#B2AF3D" d="M76.7,146.5c2.5,5.2,4.3,11,3.3,16.6c-1,5.7-5.4,11-11.1,11.5c-3.7,0.3-6.2,4.2-6.9,7.9
				c-0.7,3.7-0.5,7.6-1.7,11.1c-1.6,4.5-5.6,7.8-10,9.6c-4.4,1.8-9.3,2.4-14,2.8c-2.2,0.2-4.4,0.4-6.6-0.2c-3.9-0.9-7-3.9-9.5-7
				c-5.8-7.3-9.3-16.3-10.1-25.6c-0.5-6.1,0-12.4-2.7-17.8c-1.6-3.1-4.2-5.8-4.9-9.2c-0.1-0.5-0.2-1-0.2-1.5
				c-0.1-1.5,0.2-2.9,0.6-4.3c1.7-6.5,6.4-12.4,12.7-14.8c6.4-2.3,14.2-0.5,18.3,4.9c1.2,1.5,3.4,1.7,5.3,1.2
				c1.8-0.6,3.4-1.8,5.1-2.7c6.1-3.2,13.9-2.1,19.7,1.6C69.6,134.3,73.7,140.3,76.7,146.5z M67.7,158.5c1.9-0.3,3.6-2,3.3-3.9
				c-0.4-2.7-1-5.4-1.8-8c-0.5-1.7-1.2-3.4-2.6-4.5c-1.8-1.4-4.3-1.4-6-2.8c-1.9-1.6-2.4-4.5-4.4-5.8c-2.2-1.5-5.4-0.3-7.1,1.8
				c-1.7,2.1-2.2,4.9-2.6,7.6c-0.4,2.4-0.8,4.9-1.2,7.4c-0.2,1.1-2.7,0.7-2.6,1.9c2.5,0.2,5,0.4,7.5,0.6c2.5,0.2,5.1,0.4,7.4,1.4
				c1.8,0.8,3.2,2,4.8,3C63.9,158,65.8,158.8,67.7,158.5z M56,175.9c1.8-4.4-0.3-10.1-4.6-12.2c-4.3-2.1-10.1-0.4-12.5,3.7
				c-0.4,0.7-1.3,0.9-2.1,1.1c-3.4,0.9-6.4,2.8-9.3,4.8c-2,1.3-4.1,2.7-5.2,4.8c-1.9,3.3-0.9,7.5,0.7,11c0.7,1.5,1.7,3.1,3.3,3.5
				c1.5,0.4,3-0.3,4.4-0.8c4.6-1.4,9.9,0,13.1,3.5c1.2,1.4,3.6,1,5-0.3c1.3-1.3,1.9-3.2,2.3-4.9c0.5-2.3,0.9-4.6,0.9-6.9
				c0-1.6-0.1-3.4,1.1-4.5c0.6-0.5,1.4-0.8,2-1.3C55.5,177,55.7,176.4,56,175.9z M34,146c0.2-2.4,0.2-5.1-1.1-7.1
				c-0.9-1.4-2.3-2.3-3.6-3.1c-2.4-1.4-5.2-2.6-8-2.1c-0.8,0.2-1.5,0.4-2.2,0.7c-3.2,1.1-6.5,1.8-9.9,2.2c-1.1,5.1,1.5,10.2,4,14.8
				c0.8,1.5,1.6,3,2.9,4.1c1.1,1,2.6,1.6,4,2.1c1.4,0.5,2.9,1.1,4.5,0.9c2.2-0.2,4.1-1.6,5.6-3.1c0.8-0.8,1.6-1.7,2.2-2.7
				C33.6,150.6,33.9,148.3,34,146z"/>
			<path fill="#ACB744" d="M60.7,142.9c-2.2-0.9-4-2.9-4.6-5.2c-0.4-1.6-2.7-1.9-4.1-1c-1.3,1-1.9,2.7-2.3,4.3
				c-0.5,2.1-0.9,4.2-1.2,6.3c-0.1,1.1,0.2,2.6,1.2,2.5c3.8-0.2,7.6,0.7,10.8,2.7c2.2,1.4,4.5,3.3,7,2.6c0-2.5-0.3-5-1.2-7.4
				c-0.4-1.2-0.9-2.4-1.9-3.2C63.5,143.6,62,143.4,60.7,142.9z M50,152.6c-2.5-0.2-5-0.4-7.5-0.6c0-1.2,2.5-0.7,2.6-1.9
				c0.4-2.5,0.8-4.9,1.2-7.4c0.5-2.7,0.9-5.4,2.6-7.6c1.7-2.1,4.9-3.3,7.1-1.8c2.1,1.4,2.6,4.3,4.4,5.8c1.7,1.4,4.3,1.5,6,2.8
				c1.4,1.1,2.1,2.8,2.6,4.5c0.8,2.6,1.4,5.3,1.8,8c0.3,1.9-1.5,3.6-3.3,3.9c-1.9,0.3-3.8-0.4-5.4-1.4c-1.6-1-3.1-2.2-4.8-3
				C55.1,153,52.5,152.8,50,152.6z"/>
			<path fill="#ACB744" d="M22.3,178.1c1.1-2.1,3.2-3.5,5.2-4.8c2.9-1.9,5.9-3.9,9.3-4.8c0.8-0.2,1.7-0.4,2.1-1.1
				c2.4-4.1,8.2-5.8,12.5-3.7c4.3,2.1,6.4,7.7,4.6,12.2c-0.2,0.6-0.5,1.1-1,1.5c-0.6,0.5-1.4,0.8-2,1.3c-1.2,1.1-1.1,2.9-1.1,4.5
				c0,2.3-0.4,4.6-0.9,6.9c-0.4,1.8-1,3.7-2.3,4.9c-1.3,1.3-3.7,1.7-5,0.3c-3.2-3.5-8.6-4.9-13.1-3.5c-1.5,0.5-3,1.2-4.4,0.8
				c-1.6-0.4-2.6-2-3.3-3.5C21.3,185.6,20.4,181.4,22.3,178.1z M24.8,184.9c0.2,1.2,0.4,2.4,1.1,3.4c0.7,0.9,2.1,1.5,3.1,1
				c5.1-2.7,12-1.3,15.6,3.1c0.5,0.6,1.4,0.5,2,0.1c0.6-0.5,0.9-1.2,1.1-1.9c0.5-1.7,0.9-3.4,0.9-5.2c0.1-1.8-0.1-3.6,0.3-5.4
				c0.4-1.8,1.4-3.6,3.1-4.2c2-0.7,2.4-3.5,1.5-5.5c-1.2-2.8-4.2-4.7-7.3-4.5c-0.6,0-1.1,0.1-1.7,0.3c-2.6,1.2-3.4,5.1-6.2,5.5
				c-0.8,0.1-1.7-0.2-2.5,0c-1.4,0.3-2.3,1.7-3.3,2.7c-2.2,1.9-5.7,2.2-7.2,4.6C24.1,180.6,24.4,182.9,24.8,184.9z"/>
			<path fill="#ACB744" d="M13.3,151.3c-2.5-4.6-5.1-9.7-4-14.8c3.4-0.3,6.7-1.1,9.9-2.2c0.7-0.3,1.4-0.5,2.2-0.7
				c2.7-0.5,5.5,0.7,8,2.1c1.4,0.8,2.8,1.8,3.6,3.1c1.3,2,1.3,4.7,1.1,7.1c-0.2,2.3-0.4,4.7-1.6,6.6c-0.6,1-1.4,1.9-2.2,2.7
				c-1.6,1.5-3.5,3-5.6,3.1c-1.5,0.1-3-0.4-4.5-0.9c-1.4-0.5-2.8-1.1-4-2.1C14.9,154.3,14.1,152.8,13.3,151.3z M11.9,140.4
				c0.4,3.1,2,6,3.5,8.7c1,1.8,2,3.6,3.7,4.7c3.3,2.3,8.5,1,10.5-2.5c1.5-2.4,1.4-5.5,1.3-8.4c-0.1-1.1-0.2-2.4-0.9-3.2
				c-0.4-0.4-0.9-0.8-1.4-1.1c-1.5-0.9-3.1-1.8-4.8-2c-1.4-0.1-2.7,0.3-4,0.6c-2.3,0.6-4.6,1.2-6.8,1.8c-0.4,0.1-0.7,0.2-0.9,0.5
				C11.9,139.8,11.9,140.2,11.9,140.4z"/>
			<path fill="#ACB744" d="M8.1,181.8c-2.4-8.9,0.1-19.3-4.9-27.1c-1.9-2.9-2.9-6.3-3.1-9.8l2.1-0.1c0,0.5,0.1,1,0.2,1.5
				c0.7,3.4,3.3,6.1,4.9,9.2c2.7,5.4,2.2,11.8,2.7,17.8c0.8,9.3,4.4,18.2,10.1,25.6c2.5,3.1,5.6,6.1,9.5,7c2.2,0.5,4.4,0.4,6.6,0.2
				c4.8-0.4,9.6-1,14-2.8c4.4-1.8,8.4-5.2,10-9.6l2.5,0.7c-0.9,2.6-2.3,5.1-4.2,7.1c-4.7,4.8-11.7,6.2-18.2,7.3
				c-3.5,0.5-7.1,1.1-10.5,0.3c-8.3-1.8-13.5-9.9-17.5-17.4C10.6,188.4,9,185.2,8.1,181.8z"/>
			<path fill="#ACB744" d="M2.7,140.5c-0.4,1.4-0.6,2.9-0.6,4.3l-2.1,0.1c-0.4-6.6,2-13.4,7-17.7c7.6-6.7,20.1-6.7,27.8-0.2
				c0.7,0.6,1.4,1.3,2.3,1.6c2.1,0.7,4.2-1,6.1-2.2c7.5-4.7,17.7-1.7,24.7,3.9c7.6,6.1,12.8,14.9,14.5,24.4c0.9,4.6,0.8,9.6-1,13.9
				c-1.9,4.3-5.9,7.9-10.6,8.4c-2.6,0.3-4.6,2.5-5.5,4.9c-0.9,2.4-1,5-1.4,7.5c-0.3,1.6-0.7,3.3-1.2,4.9l-2.5-0.7
				c1.2-3.5,1-7.4,1.7-11.1c0.8-3.7,3.2-7.6,6.9-7.9c5.7-0.5,10.2-5.9,11.1-11.5c1-5.7-0.8-11.5-3.3-16.6c-3-6.2-7.1-12.1-12.9-15.9
				c-5.8-3.7-13.6-4.8-19.7-1.6c-1.7,0.9-3.2,2.1-5.1,2.7c-1.9,0.6-4.1,0.4-5.3-1.2c-4.1-5.4-11.9-7.2-18.3-4.9
				C9.1,128,4.4,134,2.7,140.5z"/>
		</g>
		<g>
		</g>
	</g>
	<path fill="#D6D621" d="M102.1,40.7c1,12,5,23,10,32c6,11,13,22,16,34c3.4,12.5,7.4,24.5,11.4,36.4c0-1.3-0.1-2.6-0.2-3.9
		c-1.1-16.5-6-32.5-10.8-48.3c-3.3-11-6.7-22.1-10-33.1c-2.2-7.4-4.8-15.3-11-19.8c-2.1-1.5-4.9-0.4-7.1,1.2
		C101.1,39.5,101.7,40,102.1,40.7z"/>
	<path opacity="0.58" fill="#D6D621" d="M128.1,106.1c-3-12-10-23-16-34c-5-9-9-20-10-32c-0.4-0.7-1-1.2-1.7-1.6
		c-0.4,0.2-0.7,0.5-1,0.8c-2.3,1.9-5.4,3.9-8.1,2.6c-1.7-0.8-3.5-0.9-5.3-0.4c-0.2,1.9-0.8,4.4,0.1,6.1c1,3,3,5,4,8c1,18,3,35,10,52
		c12,31,19,64,10,97c0,1-3,3-3,4c-5,10.8-10.1,19.5-18.1,25.8c2.4,1.4,5.4,1.5,8.1,0.8c3.2-0.8,6-2.6,8.7-4.4
		c7.7-5,15.5-10.4,20.2-18.2c2.9-4.8,4.4-10.2,5.7-15.6c4.6-17.9,8.3-36.2,7.7-54.6C135.5,130.6,131.4,118.6,128.1,106.1z"/>
	<path fill="#CAD318" d="M107.1,209.7c0-1,3-3,3-4c9-33,2-66-10-97c-7-17-9-34-10-52c-1-3-3-5-4-8c-0.9-1.7-0.2-4.2-0.1-6.1
		c-3.2,0.9-6,3.7-7.1,6.9c-1.7,5-0.5,10.5,0.8,15.6c6.9,28,15,55.8,24.2,83.2c7.6,22.6,1.8,47.2-4.1,70.3c-0.7,2.6-1.3,5.3-2.8,7.5
		c-2.3,3.5-6.3,5.5-9.1,8.6c0.3,0.3,0.7,0.5,1.1,0.8C97,229.2,102,220.5,107.1,209.7z"/>
	<path opacity="0.25" fill="#BCBC20" d="M91.1,68.7c-4.1-7.4-0.8-17.4,3.8-26.3c-1.2,0.4-2.4,0.5-3.6-0.1
		c-4.7-2.4-10.6,1.6-12.4,6.6c-1.7,5-0.5,10.5,0.8,15.6c6.9,28,15,55.8,24.2,83.2c3.8,11.3,4.2,23.2,3,35.1
		C119.1,146.2,112,103.6,91.1,68.7z"/>
	<path opacity="0.36" fill="#D6D621" d="M138.2,141.4c-1.1-16.5-6-32.5-10.8-48.3c-3.3-11-6.7-22.1-10-33.1
		c-2.2-7.4-4.8-15.3-11-19.8c-2.4-1.8-5.8,0-8.1,1.9c-1.3,1.1-2.9,2.2-4.5,2.7c-4.6,8.9-7.9,18.9-3.8,26.3
		c20.9,34.9,28,77.5,15.7,114.1c-1.2,11.8-4.1,23.7-7.1,35.3c-0.7,2.6-1.3,5.3-2.8,7.5c-2.3,3.5-6.3,5.5-9.1,8.6
		c2.5,2.1,6.1,2.4,9.2,1.6c3.2-0.8,6-2.6,8.7-4.4c7.7-5,15.5-10.4,20.2-18.2c2.9-4.8,4.4-10.2,5.7-15.6
		C135.6,180.8,139.5,161.1,138.2,141.4z"/>
	<g>
		<path fill="#B2AF3D" d="M102.3,55.3c0.6,0,1.2,0.1,1.8,0.1c0.2,0.2,0.2,0.5,0.2,0.8c-0.4,0.2-0.9,0.2-1.4,0.2
			c-0.2-0.3-0.3-0.5-0.5-0.8"/>
		<path fill="#B2AF3D" d="M97.6,103.9c-0.8-0.7-0.2-2.3,0.9-2.4c0,0.8-0.3,1.7-0.8,2.3"/>
		<path fill="#B2AF3D" d="M118.4,205.5c-0.8-0.6-0.3-2.2,0.7-2.2c0,0.2,0.1,0.5,0.2,0.7c-0.5,0.1-0.9,0.8-0.6,1.2"/>
		<path fill="#B2AF3D" d="M89.7,46.8c0.3,0,0.6,0,1,0c0.2,0.3,0.2,0.7,0.1,1c-0.8-0.3-1.7-0.6-2.5-0.9
			C88.8,46.8,89.2,46.7,89.7,46.8"/>
		<path fill="#B2AF3D" d="M89.6,73.4c-0.3,0.1-0.5,0.3-0.8,0.4c-0.4-0.3-0.7-0.6-0.9-1c-0.1-0.4,0.1-1,0.5-1.1
			c0.7-0.2,1.1,0.9,1,1.6"/>
		<path fill="#B2AF3D" d="M103.9,101.7c-0.1-0.5,0-1,0.2-1.5c0.5,0.4,1.2,0.3,1.7,0c0,0.6-0.3,1.2-0.8,1.6
			C104.6,101.9,104.2,101.9,103.9,101.7"/>
		<path fill="#B2AF3D" d="M93.7,82.8c-0.3,0.6-0.5,1.2-0.7,1.8c-0.6,0.1-1.2-0.5-1.1-1.1c0.5-0.3,1.1-0.5,1.8-0.7"/>
		<path fill="#B2AF3D" d="M103.6,126.4c-0.7-0.1-1.4-0.7-1.6-1.4c0.6,0,1.2,0,1.8-0.1C104.1,125.3,104,125.9,103.6,126.4"/>
		<path fill="#B2AF3D" d="M105.5,76.7c0.1-0.6,0.4-1.1,0.7-1.7c0.4,0.6,0.7,1.3,0.4,1.9c-0.4,0.6-1.6,0.2-1.3-0.4"/>
		<path fill="#B2AF3D" d="M127.5,192.1c0.6,0.3,0.8,1.1,0.6,1.7c-0.5,0.2-1.1,0.2-1.7,0.1c-0.4-0.8,0-1.8,0.8-2.2
			C127.3,191.8,127.4,192,127.5,192.1"/>
		<path fill="#B2AF3D" d="M111.3,217.9c-0.7-0.5-0.4-1.9,0.5-2.1c0.3,0.8,0.5,1.6,0.6,2.5c-0.3,0.4-1.1,0-1-0.5"/>
		<path fill="#B2AF3D" d="M117.5,199.7c-0.3,0.3-0.8,0.4-1.3,0.3c-0.4-0.6-0.4-1.5-0.1-2.2c0.8,0.3,1.3,1.1,1.5,1.8"/>
		<path fill="#B2AF3D" d="M93.8,97.8c-0.5-0.3-0.7-1.1-0.3-1.6c0.4-0.4,1.2-0.4,1.6,0c-0.3,0.5-0.5,1.1-0.4,1.7
			C94.4,97.9,94.1,97.8,93.8,97.8"/>
		<path fill="#B2AF3D" d="M99.9,95.2c0.6,0.7,0.9,1.6,0.8,2.5c-1.1-0.3-1.6-2-0.8-2.9"/>
		<path fill="#B2AF3D" d="M125,97.9c-0.2-0.6-0.2-1.6,0.4-1.8c0.1,1.1,0.3,2.1,0.4,3.2C125.1,99.3,124.7,98.5,125,97.9"/>
		<path fill="#B2AF3D" d="M115.5,110.8c-0.3-0.1-0.6,0-0.8,0.2c0.3,0.6,0.1,1.3-0.3,1.8c-0.3-0.7-0.5-1.5-0.2-2.1
			c0.4-0.6,1.6-0.6,1.6,0.2"/>
		<path fill="#B2AF3D" d="M95.9,55.6c0.3,0.6-0.2,1.4-0.8,1.4c-0.4-0.5-0.4-1.2,0-1.8c-0.4-0.1-0.7-0.3-1.1-0.4
			c0.6-0.2,1.2-0.2,1.8-0.1C95.9,55,96,55.3,95.9,55.6"/>
		<path fill="#B2AF3D" d="M112.8,173.1c0.7,0.5,1.2,1.2,1.6,1.9c-0.4,0.1-0.7,0.2-1.1,0.3C112.6,174.8,112.3,173.8,112.8,173.1"/>
		<path fill="#B2AF3D" d="M125.4,104.5c-1.1-0.4-1.9-1.6-1.8-2.8c0.6-0.2,1.2-0.2,1.8-0.1C125.6,102.5,125.6,103.5,125.4,104.5"/>
		<path fill="#B2AF3D" d="M113.5,51.9c-0.7,0-1.4-0.1-2.1-0.1c0-0.5,0.1-1.1,0.6-1.2c0.4,0,0.6,0.2,0.9,0.4c0.3,0.2,0.8,0.2,0.9-0.2
			c0.6,0.3,0.3,1.3-0.3,1.3"/>
		<path fill="#B2AF3D" d="M91.1,83.6c0.1,0.4,0.3,0.9,0.4,1.3c-0.7,0.3-1.6,0-1.9-0.7c0.2-0.3,0.5-0.5,0.9-0.6c-0.1-0.5,0-1,0.2-1.5
			C91.2,82.3,91.4,83,91.1,83.6"/>
		<path fill="#B2AF3D" d="M84.5,67c-0.5-0.6-0.7-1.4-0.6-2.1c0.7,0.4,1.3,0.9,1.8,1.5c-0.3,0.5-0.7,1-1.1,1.4
			C84.5,67.6,84.4,67.3,84.5,67"/>
		<path fill="#B2AF3D" d="M109.4,194.7c-0.1-0.5,0-1.3,0.5-1.1c0,0.7,0.1,1.4,0.1,2.1c0,0.4,0,0.9-0.3,1.2c-0.3,0.3-1,0.2-1-0.3
			C109.2,196.1,109.4,195.4,109.4,194.7"/>
		<path fill="#B2AF3D" d="M112.2,155.3c0.6-0.3,1.4-0.5,1.9-0.1c-1,0.8-2.3,1.1-3.4,0.8C111.2,155.8,111.7,155.6,112.2,155.3"/>
		<path fill="#B2AF3D" d="M133.9,134c-0.3-0.2-0.7-0.3-1-0.4c0.3-0.4,0.4-0.9,0.3-1.3c0.4-0.2,0.8-0.2,1.2-0.1
			c-0.1,0.6,0.2,1.2,0.8,1.5c-0.1,0.6-0.6,1.2-1.2,1.4c0-0.3-0.1-0.5-0.2-0.8"/>
		<path fill="#B2AF3D" d="M118,79.3c-0.5-0.4-0.2-1.5,0.4-1.3c0.8,0.5,1.3,1.2,1.6,2.1c-0.5,0.1-1-0.2-1.2-0.5
			c-0.1,0.4-0.4,0.6-0.7,0.7c0-0.3-0.1-0.5-0.2-0.8"/>
		<path fill="#B2AF3D" d="M114.7,199.6c-0.3-0.1-0.1-0.7,0.3-0.6c0.3,0.1,0.4,0.5,0.4,0.9c-0.1,1-1,1.8-1.9,1.9
			c0.5-0.8,1-1.5,1.4-2.2"/>
		<path fill="#B2AF3D" d="M123.8,214c-0.5,0.4-1.2,0.4-1.7,0c-0.4-0.4-0.6-1.1-0.3-1.7c0.7-0.2,1.5-0.4,2.3-0.5
			C124.5,212.5,124.4,213.4,123.8,214"/>
		<path fill="#B2AF3D" d="M110.3,150.1c-0.1,0.3,0,0.7,0.3,0.9c-0.5,0.3-1,0.6-1.4,0.9c-0.5-1.1-0.6-2.4-0.3-3.5
			c0.1,0.5,0.8,0.9,1.3,0.6C110.3,149.3,110.4,149.7,110.3,150.1"/>
		<path fill="#B2AF3D" d="M135.6,168.1c-0.4-1.4-0.3-2.9,0.1-4.3c0.3,0.5,0.5,1,0.8,1.5C136.2,166.3,135.9,167.2,135.6,168.1"/>
		<path fill="#B2AF3D" d="M113.4,65c-0.9,0.6-1.9,0.9-3,0.9c-0.3-0.6-0.3-1.2,0-1.8c0.4,0.4,0.6,0.9,0.6,1.5
			C111.6,65,112.6,64.7,113.4,65"/>
		<path fill="#B2AF3D" d="M118.8,186.5c-1.1-0.4-2.3,1.2-3.2,0.6c-0.4-0.3-0.4-1-0.1-1.3c0.9-0.7,2.2-0.7,3.1,0
			C118.9,185.8,119.1,186.3,118.8,186.5"/>
		<path fill="#B2AF3D" d="M110.7,73.9c-1-1.1-1.4-2.6-1-4c0.3-0.2,0.7-0.2,1.1-0.2c0.2,0.5,0.4,0.9,0.7,1.4
			C111,71.9,110.7,72.9,110.7,73.9"/>
		<path fill="#B2AF3D" d="M115.4,178.5c-0.2,0.9-1.1,1.5-2,1.4c0.4-0.3,0.7-0.8,0.7-1.4c-0.3-0.1-0.6-0.3-1-0.4c0.6,0,1.2-0.4,1.4-1
			c0.5,0.3,0.9,0.8,1,1.4"/>
		<path fill="#B2AF3D" d="M111,85.5c-0.3,0.7-0.1,1.6,0.5,2c-0.8,0-1.6,0.1-2.4,0.1c0-0.4,0.6-0.4,1-0.3c0.2-0.2,0.2-0.5,0.2-0.8
			c-0.4-0.1-0.8-0.2-1.2-0.3c0.6-0.3,1.2-0.5,1.8-0.8"/>
		<path fill="#B2AF3D" d="M120.8,188c-0.5-0.7-0.6-1.7-0.2-2.4c1.2,0.2,2.1,1.3,2.9,2.3c-0.5-0.2-1.2,0.2-1.4,0.7
			c-0.4-0.3-0.8-0.5-1.1-0.8"/>
		<path fill="#B2AF3D" d="M134.2,126.8c-0.4-0.4-1.1-0.4-1.5-0.1c0-1.1,0.8-2.3,1.9-2.6c0.3,1.3,0.3,2.6-0.2,3.9
			C134.2,127.8,134.1,127.3,134.2,126.8"/>
		<path fill="#B2AF3D" d="M96.9,72.1c-0.1,0.3,0,0.6,0.1,0.8c0.4-0.2,0.9-0.4,1.4-0.6c-0.1,0.8-0.3,1.7-0.4,2.5
			c-0.4-0.4-0.6-0.8-0.6-1.3c-0.3,0.1-0.6,0.2-0.9,0.3C96.3,73.5,96,73,96,72.6C96.1,72.2,96.6,71.8,96.9,72.1"/>
		<path fill="#B2AF3D" d="M89.7,53.7c-1-0.4-0.6-2.2,0.4-2.3c0.3,0.5,0,1.2-0.5,1.5c0.6,0.6,1.3,1.3,1.9,1.9
			c-0.6,0.2-1.2,0.3-1.8,0.2c-0.2-0.4-0.2-0.7-0.1-1.1"/>
		<path fill="#B2AF3D" d="M101.5,113.8c-0.8,0.3-1.7,0.4-2.5,0.2c-0.1-0.4-0.3-0.8-0.4-1.2c1.2,1,3.5,0.4,3.5-1.1
			c0.4,0.6,0,1.6-0.7,1.8"/>
		<path fill="#B2AF3D" d="M117.6,167.7c0.3,0-0.2,0.4-0.4,0.1c-0.5-0.5-0.8-1.3-0.8-2c1.1,0,2.2,0.2,3.3,0.4
			c-0.9,0.1-1.8,0.2-2.7,0.4C117.2,166.9,117.4,167.2,117.6,167.7"/>
		<path fill="#B2AF3D" d="M101.8,68.6c0.4,0.1,0.9-0.3,1-0.7c0.9,1.1,1.3,2.6,1.1,4c-0.7-0.1-1.5,0.2-2,0.7
			C101.8,71.2,101.8,69.9,101.8,68.6"/>
		<path fill="#B2AF3D" d="M100.1,48.5c0.4,0.3,1.1,0.2,1.4-0.2c0.1,0.4,0.4,0.8,0.7,1.1c-1.4,1.1-3.6,1.1-5,0c1,0,1.9-0.4,2.6-1.1"
			/>
		<path fill="#B2AF3D" d="M126.2,199.1c-0.1,0.4-0.7-0.1-0.7-0.5c0-1.2,0.2-2.4,0.5-3.5c0.3-0.3,0.7-0.3,1-0.1
			c0.5,0.3,0.1,1.1-0.4,1.6c-0.4,0.4-0.4,1.5,0.2,1.3C126.3,198.1,126.1,198.6,126.2,199.1"/>
		<path fill="#B2AF3D" d="M115,149.8c-0.3,0.2-0.4,0.6-0.3,1c0.3,0.2,0.5,0.2,0.8,0.2c0,0.7-1,1.3-1.6,0.9c0-0.4,0.1-0.7,0.1-1.1
			c-0.4-0.2-0.8-0.2-1.1-0.1c-0.4-1,0.2-2.1,0.9-3C114.1,148.5,114.5,149.2,115,149.8"/>
		<path fill="#B2AF3D" d="M114.9,96.1c0.5,0.1,0.5,0.8,0.5,1.3c0.8-0.4,1.6,0.7,1.6,1.6c-0.1,0.9-0.5,1.8-0.5,2.7
			c-0.9-0.4-0.3-1.7-0.5-2.6c-0.2-0.5-0.6-0.9-1-1.4C114.7,97.2,114.5,96.5,114.9,96.1"/>
		<path fill="#B2AF3D" d="M94.3,89.5c0.1,1,0.2,2,0.3,3.1c0.1,0.8,0.2,1.7,0.7,2.4c-0.4,0.2-0.9,0.3-1.3,0.4
			C94.1,93.5,94.2,91.5,94.3,89.5"/>
		<path fill="#B2AF3D" d="M113.7,193.5c0.4,0,0.7,0,1.1,0c-0.3-0.4-0.1-1,0.1-1.5c0.4-1,1-2.1,2.1-2.1c0,0.4-0.1,0.7-0.1,1.1
			c0,0.9-0.1,1.9-0.8,2.6C115.5,194.3,114.1,194.3,113.7,193.5"/>
		<path fill="#B2AF3D" d="M104,226.6c-0.1-0.4-0.4-0.8-0.7-1c0.6-0.4,1.4-0.1,1.8,0.5c0.3,0.6,0,1.5-0.7,1.7
			c-0.9,0.3-1.9,0.6-2.8,0.9c0.3-1,0.7-1.9,1.4-2.6C103.1,226.4,103.5,226.7,104,226.6"/>
		<path fill="#B2AF3D" d="M96.6,101.6c-0.4,0.4-0.7,1-0.8,1.5c-0.8-0.1-1.2-1.1-1.3-1.9c0-0.8,0.1-1.8-0.4-2.5
			c-0.1-0.4,0.5-0.5,0.8-0.3c0.3,0.3,0.3,0.7,0.4,1c0.1,0.4,0.2,0.8,0.6,0.9c-0.2,0.2-0.4,0.4-0.7,0.6
			C95.6,101.4,96.1,101.6,96.6,101.6"/>
		<path fill="#B2AF3D" d="M110.9,209.6c0-0.4-0.2-0.9-0.5-0.7c0.6-0.6,0.4-1.8-0.5-2.2c0.6-0.7,1.8-0.5,2.3,0.1
			c0.6,0.7,0.7,1.6,0.6,2.5c-0.1,0.5-0.3,1.1-0.7,1.5c-0.4,0.4-1.1,0.4-1.6,0C110.1,210.5,110.4,209.6,110.9,209.6"/>
		<path fill="#B2AF3D" d="M132.1,138.3c0.3-0.1,0.6-0.1,0.9-0.2c1,2,0.9,4.7-0.6,6.3c-0.8-0.4-0.8-1.4-0.7-2.3
			C131.8,141,131.9,139.6,132.1,138.3"/>
		<path fill="#B2AF3D" d="M92.7,64.4c0-0.5,0.2-1,0.5-1.4c0.6,0.5,1.1,1,1.7,1.5c-0.5,0-0.8,0.8-0.4,1.1c0.4-0.2,0.6-0.4,0.9-0.7
			c0.4,1.2,0.1,2.7-0.9,3.6c-0.3-1.2-0.6-2.5-1-3.7C93.3,64.7,93,64.5,92.7,64.4"/>
		<path fill="#B2AF3D" d="M128.9,105.9c0,0.5-0.2,1.3-0.7,1.3c-0.2-0.6-0.4-1.2-0.1-1.7c0.2-0.5,1.1-0.8,1.4-0.3
			c0.3,0.6,0.7,1.3,1,1.9c-0.6,0.5-0.4,1.6,0.3,1.9c-0.7,0-1.4,0-2.1,0.1C129.5,108.3,129.6,106.8,128.9,105.9"/>
		<path fill="#B2AF3D" d="M120.4,134.8c-0.3,1-1,1.9-1.9,2.5c-0.4-0.6-0.8-1.2-1.2-1.9c0-0.9,0.1-1.8,0.1-2.8c0-0.2,0.1-0.5,0.3-0.5
			c0.5-0.1,0.6,1.3,0.9,0.9c-0.1-0.4,0.2-0.9,0.6-1c0,0.6,0.3,1.1,0.8,1.5c-0.4,0-0.8,0.5-0.6,0.9
			C119.6,134.6,120,134.7,120.4,134.8"/>
		<path fill="#B2AF3D" d="M122,146.3c0.6-0.8,1.3-1.5,2-2.2c0.2,0.3,0.3,0.7,0.1,1c-0.3-0.3-0.6,0.5-0.4,0.8
			c0.3,0.4,0.6,0.9,0.3,1.2c-0.5,0.5-0.4,1.3-0.5,2.1c-0.1,0.7-0.7,1.6-1.4,1.3c0.4-1.2,0.3-2.5-0.3-3.6
			C121.8,146.7,121.9,146.5,122,146.3"/>
		<path fill="#B2AF3D" d="M105.6,59.4c1.9,1.6,3.1,4,3.1,6.5c-0.3-0.7-1-1.3-1.8-1.4c0.6-0.6-0.2-1.5-0.6-2.2
			C105.6,61.5,105.4,60.4,105.6,59.4"/>
		<path fill="#B2AF3D" d="M121.4,192.5c0.3-0.2,0.6-0.2,0.9-0.2c-0.1-1.2,0.9-2.4,2.1-2.5c-0.6,1.1-1.3,2.1-1.9,3.2
			c-0.1,0.3-0.3,0.5-0.2,0.8c0.4,0.9-0.2,2.1-1.1,2.4c-0.3,0-0.4-0.3-0.3-0.5C121.5,194.8,121.6,193.6,121.4,192.5"/>
		<path fill="#B2AF3D" d="M84.6,55.5c-0.2-1.2-0.3-2.5-0.4-3.8c-0.1-0.8-0.2-1.8,0.5-2.3c1.3,0.6,1.9,2.4,1.2,3.6
			c-0.4,0.7,0,1.4,0.3,2.1s0.1,1.7-0.6,1.8c0-0.6-0.1-1.2-0.1-1.8C85.1,55,84.7,55.2,84.6,55.5"/>
		<path fill="#B2AF3D" d="M108.5,47.7c-0.1,0.4-0.2,0.9-0.3,1.3c-0.6,0-0.8-0.9-0.7-1.5c0.1-1.4,0.2-2.7,0.2-4
			c-0.1-0.3,0.3-0.6,0.5-0.4c1,0.4,1.6,1.8,1.1,2.7c-0.2,0.5,0.1,1.1,0.5,1.3c0.4,0.3,1,0.4,1.5,0.4c-0.5,0.1-1,0.4-1.2,0.9
			C109.7,47.9,109.1,47.6,108.5,47.7"/>
		<path fill="#B2AF3D" d="M110.1,220c0.4-0.5,0.2-1.4-0.4-1.7c0.4-0.3,0.9-0.3,1.3,0c0.5,0.4,0.6,1.2,0.3,1.8
			c-0.3,0.6-0.8,1-1.4,1.3c-0.8,1.4-2.4,2-3.9,2.5c-0.2-0.4-0.5-0.8-0.9-1.1c1,0,2-0.4,2.7-1.2C108.5,221,109.2,219.8,110.1,220"/>
		<path fill="#B2AF3D" d="M128.1,146.5c-0.3,1,0,2.1,0.8,2.7c-0.1,0.3-0.1,0.6-0.2,1c0.7-0.1,0.7,1,0.5,1.6
			c-0.3,0.6-0.4,1.6,0.2,1.7c-0.5,0.5-1.5,0.1-1.8-0.6c-0.3-0.7-0.3-1.5-0.7-2.2c-0.2-0.4-0.5-0.7-0.7-1.1c-0.2-0.4-0.1-1,0.3-1.2
			c0.4-0.2,0.2-0.9-0.1-1.3c-0.3-0.4-0.4-1.1,0.1-1.2c0.2,0.4,0.3,0.7,0.5,1C127.4,146.7,127.8,146.6,128.1,146.5"/>
		<path fill="#B2AF3D" d="M102.7,96.4c0.9-1.1,0.5-2.7-0.1-4c-0.4-1-0.8-1.9-1.1-2.9c-0.3-0.7-0.9-1.6-1.7-1.3
			c0.7-0.9,2.2-0.4,3,0.4c1,1,1.5,2.5,1.4,3.9c-0.1,1.3-0.2,2.6-0.4,3.9C103.5,96.5,103.1,96.6,102.7,96.4"/>
		<path fill="#B2AF3D" d="M106.6,136.8c0.5,0.4,1.1,0.7,1.7,0.8c0.6,0.1,1.3-0.3,1.4-0.9c-0.4-0.4-1-0.6-1.5-0.5
			c0.3-0.6,1.3-0.4,1.8,0.1c0.5,0.5,0.8,1.2,1.5,1.4c0.7,0.2,0.9,1.1,0.8,1.9c-0.2,1.1-0.8,2.2-1.8,2.9c-0.3-1.5-0.1-3.1,0.7-4.4
			c-0.8-0.4-1.8,0-2.6,0.1C107.6,138.3,106.3,137.7,106.6,136.8"/>
		<path fill="#979944" d="M95.7,34c-0.8,0.4-1.7,0.5-2.6,0.5c0.6,1,1.9,1.5,3,1.1c0.2,0.3,0.3,0.7,0.1,1.1c-0.8,0.7-1.7,1.1-2.7,1.3
			c-0.9,0.1-1.8,0-2.6-0.5c-0.7-0.5-1.1-1.5-0.9-2.3c0.4,0.1,0.8,0.2,1.1,0.4c-0.4-1,0.1-2.3,1-2.9c0.1-1.5,0.5-2.9,1.1-4.2
			c0.6,0,1.1-0.1,1.7-0.1c-0.3,0.9,0.3,1.9,0.6,2.8c0.3,0.9-0.2,2.3-1.1,2.1C94.9,33.3,95.4,33.6,95.7,34"/>
		<path fill="#B2AF3D" d="M127,123.5c-0.2-0.3-0.2-0.6-0.1-0.9c0.6,0.1,1.2-0.4,1.3-1c-0.6-0.1-1.3-0.1-1.9,0.1
			c0.4-0.4-0.5-0.7-1-1.1c-0.4-0.4-0.4-1-0.4-1.6c0.4-2.6,0.7-5.1,1-7.7c0.5,2.2,1,4.4,1.5,6.5c0.1,0.5,0.2,1.1-0.2,1.4
			c-0.4,0.4-0.3,1,0.1,1.3c0.4,0.3,1,0.2,1.3-0.2c0.1,0.4,0.2,0.7,0.3,1.1c1.6-0.4,3.4,0.4,4.3,1.8c-0.6,0.2-1.3-0.1-1.5-0.6
			c-0.1,0.3-0.3,0.5-0.6,0.6c-0.6-0.4-1.3-0.7-1.9-1.1C128.4,122.7,127.7,123.1,127,123.5"/>
		<path fill="#B2AF3D" d="M122.6,204.9c0.2,0.5,0.7,0.8,1.2,0.8c0.2,0.6-0.3,1.1-0.8,1.5c-2,1.8-3.3,4.3-3.7,7
			c0.7,0.6,0.6,1.8,0,2.4c-0.5,0.4,1,1.2,0.4,1.6c-1.6,2.3-3.7,4.3-6.1,5.9c-0.7,0.4-1.7,0.8-2.2,0.1c2.4-1.5,4.9-3.3,5.5-6.1
			c0,0.5,0.7,0.7,1.1,0.4c0.4-0.3,0.5-0.9,0.5-1.3c0.1-0.6,0.2-1.2,0.3-1.8c-0.4,0-0.8,0-1.1,0.1c0.6-1.8,1-3.6,0.7-5.5
			c1,0.1,1.8-0.7,2.3-1.5C121.6,207.4,122.2,206.2,122.6,204.9"/>
	</g>
	<path opacity="0.74" fill="#D6D621" d="M4.3,146.8c-2.5-14.4,15.1-14.5,27.8-17.8c-4.3-4-11.1-5.1-16.7-3.1
		c-6.3,2.3-11,8.2-12.7,14.8c-0.5,1.9-0.8,3.9-0.4,5.8c0.7,3.4,3.3,6.1,4.9,9.2c1.2,2.4,1.8,5.1,2.1,7.8
		C10.1,156.6,5.3,151.7,4.3,146.8z"/>
	<path opacity="0.33" fill="#C9C12F" d="M31.3,169.8c10-6,16-17,18-30c1.2-4.8,5.6-7.8,10-10.9c-3.9-1.4-8.3-1.8-12.2-0.7
		c-5,7.3-6.7,19.2-10.8,26.6c-2,2-5,4-7,5c-6.3,1.3-14.7,2.5-20,6.4c0.2,2.5,0.2,5.1,0.4,7.6c0.2,2.6,0.7,5.2,1.3,7.8
		c1-0.1,2.1-0.3,3.2-0.7C20.3,176.8,25.3,172.8,31.3,169.8z"/>
	<path opacity="0.26" fill="#C1BC23" d="M57.3,176.8c0,0,0-0.1,0-0.1c0-0.3,0-0.6,0-0.9V176.8z"/>
	<path opacity="0.7" fill="#C1BC23" d="M79,153.9c-0.6-2.5-1.6-4.9-2.7-7.2c-0.3-0.6-0.6-1.3-1-1.9c-2.2,2.6-3.5,6.1-6.1,8
		c-2.5,1.9-5,3.8-7.8,4.9c-2.7,5.7-4.3,12.2-5.2,17c0.4,13.4-8.6,23-18.3,31.5c4.5-0.5,8.6-1.2,11.8-2.6c4.4-1.8,8.4-5.2,10-9.7
		c0.7-2.1,0.9-4.4,1.1-6.6c-1-2.3-1.4-4.5-0.5-6.7C64.4,170.5,73.6,162.8,79,153.9z"/>
	<path opacity="0.26" fill="#D6D621" d="M61.3,180.8c-0.9,2.2-0.5,4.4,0.5,6.7c0.1-1.5,0.3-3,0.6-4.5c0.8-3.7,3.2-7.5,6.9-7.9
		c5.7-0.5,10.2-5.9,11.1-11.5c0.6-3.2,0.2-6.4-0.6-9.5C74.4,163.1,65.1,170.7,61.3,180.8z"/>
	<path opacity="0.41" fill="#D6D621" d="M76.7,146.5c-3-6.2-7.1-12.1-12.9-15.9c-5.8-3.7-13.6-4.8-19.7-1.6
		c-1.7,0.9-3.2,2.1-5.1,2.7c-1.8,0.6-4.1,0.4-5.3-1.1c-4.1-5.4-11.9-7.2-18.3-4.9c-6.3,2.3-11,8.2-12.7,14.8
		c-0.5,1.9-0.8,3.9-0.4,5.8c0.7,3.4,3.3,6.1,4.9,9.2c2.7,5.4,2.2,11.8,2.7,17.8c0.8,9.3,4.4,18.2,10.1,25.6c2.5,3.2,5.6,6.1,9.6,7
		c2.2,0.5,4.4,0.4,6.6,0.2c4.7-0.4,9.6-1,14-2.8c4.4-1.8,8.4-5.2,10-9.7c1.2-3.5,1-7.4,1.7-11.1c0.8-3.7,3.2-7.5,6.9-7.9
		c5.7-0.5,10.2-5.9,11.1-11.5C80.9,157.5,79.1,151.7,76.7,146.5z M10.3,137.8c13-6,28-3,24,14c-1,2-3,4-5,5c-4,1-10,1-12-1
		C12.3,151.8,10.3,144.8,10.3,137.8z M42.3,194.8c-1,0-2-4-4-5c-4,0-8,5-12,4c-1-1-3-1-4-2c-7-11,4-18,12-22c2-2,7-3,10-6
		c7-3,13,4,13,7C54.3,179.8,55.3,198.8,42.3,194.8z M70.3,155.8c-5,4-11,3-17,0c-11-5-4-15,0-23c6,6,13,9,18,16
		C72.3,151.8,71.3,154.8,70.3,155.8z"/>
	<path fill="#B2AF3D" d="M12.6,168.9c0.1-0.4,0.1-0.7,0.1-1.1c0.5-0.1,1.1,0.4,1.1,0.9c0,0.5-0.5,1-1.1,1
		C12.7,169.4,12.6,169.2,12.6,168.9"/>
	<path fill="#B2AF3D" d="M36.7,154.1c0.2-0.2,0.7,0.1,0.5,0.4c0.8,0.4,0,1.8-0.8,1.5C35.7,155.7,36,154.3,36.7,154.1"/>
	<path fill="#B2AF3D" d="M23,167.8c0.8-0.6,2.1-0.3,2.6,0.5c-0.8,0.3-1.8,0.2-2.6-0.2"/>
	<path fill="#B2AF3D" d="M61.9,133.5c-0.6,0.3-1.5-0.3-1.5-1c0.7-0.2,1.4-0.2,2.1-0.1c-0.1,0.4-0.3,0.8-0.7,0.9"/>
	<path fill="#B2AF3D" d="M57.5,183.7c0,0.7,0,1.4,0.1,2.1c-0.6,0.2-1.3-0.4-1.3-1c0.4-0.4,0.7-0.7,1.1-1.1"/>
	<path fill="#B2AF3D" d="M42.2,139.3c-0.6,0.4-1.6,0-1.8-0.7c0.6-0.1,1.2-0.5,1.4-1.1c0.3,0.5,0.4,1.1,0.2,1.6"/>
	<path fill="#B2AF3D" d="M66.2,134.4c-0.9,0.5-2.1,0.4-2.9-0.3c-0.3-0.2-0.5-0.6-0.3-0.9C64.1,132.6,65.8,133.2,66.2,134.4"/>
	<path fill="#B2AF3D" d="M15.2,176.9c-0.3,0.4-0.6,0.7-0.9,1.1c-0.6-0.2-1.1-0.8-1.1-1.4c0.5,0.1,0.7-0.8,1.1-1.1
		c0.3-0.3,0.9-0.2,1.1,0.2c0.2,0.4,0.1,0.9-0.3,1.1"/>
	<path fill="#B2AF3D" d="M28.1,164.6c-0.3,0.5-1,0.8-1.5,0.6c-0.5-0.6-0.3-1.5,0.2-2c0.5-0.6,1.3-0.8,2-1.1
		C29.1,162.9,28.9,164.1,28.1,164.6"/>
	<path fill="#B2AF3D" d="M52.6,195.5c0.5-1.1,1.1-2.2,1.6-3.2c0.2-0.4,0.4-0.9,0.6-1.3C55.3,192.8,54.3,194.8,52.6,195.5"/>
	<path fill="#B2AF3D" d="M57.5,178.4c0.4-0.4,0.8-0.7,1.1-1.1c0.6,2,0.3,4.4-0.9,6.1c-0.5-1.4-0.4-3.1,0.4-4.4
		C57.9,178.9,57.7,178.6,57.5,178.4"/>
	<path fill="#B2AF3D" d="M65.1,137.8c0.2,0.2,0.4,0.4,0.7,0.7c0.8-0.9,2.5-0.7,3.2,0.3c-1.1,0-2,0.5-3,0.8c-1,0.2-2.4-0.2-2.5-1.2
		c0.4,0.3,0.9,0.5,1.4,0.8C64.8,138.7,64.9,138.2,65.1,137.8"/>
	<path fill="#B2AF3D" d="M30.6,194.2c-0.2-0.3-0.3-0.6-0.5-0.9c0.8,0.2,1.5-0.4,2.2-0.6c0.7-0.3,1.8-0.1,1.9,0.7
		c-0.6,1.3-1.2,2.6-1.8,3.9c-0.9-0.5-0.9-1.9-0.7-2.9C31.4,194.2,31,194.1,30.6,194.2"/>
	<path fill="#B2AF3D" d="M65,164.9c0.8,0.1,1.8,0.1,2-0.6c0.1,0.7,0.3,1.3,0.6,1.9c0.9,0.1,2.2,0,2.2-0.9c0.4,0.4,0.8,0.8,1.1,1.2
		c-1.8,0.1-3.7,0.2-5.5,0.1c-0.5-0.9-1.1-1.8-1.6-2.6C64.3,163.8,64.9,164.3,65,164.9"/>
	<path fill="#B2AF3D" d="M15.4,179.5c0.2,1.2,0.8,2.3,1.6,3.2c-0.6,0.2-0.5,1.1-0.1,1.7c0.4,0.5,0.8,1.1,0.6,1.7
		c-1.8-1.4-3-3.6-3.1-5.8c-0.1-0.9,0.2-2,1-2.4c0.1,0.2,0.3,0.4,0.4,0.7C15.4,178.5,15.3,179.1,15.4,179.5"/>
	<path fill="#B2AF3D" d="M42.4,198.1c0.2-0.5,0.2-1.1,0-1.5c2.4,1.1,5.3,1.2,7.8,0.2c0.6-0.2,1.1-0.5,1.7-0.6c-1,1-2.3,1.6-3.7,1.6
		c-2.8,0.1-5.7,0.4-8.5,1.1C40.3,198.1,41.5,197.7,42.4,198.1"/>
	<path fill="#B2AF3D" d="M10.9,154.4c-1-1.1-1.5-2.5-1.5-3.9c0-0.7-0.6-1.2-1.1-1.8c-1-1.1-1.6-2.7-1.7-4.2c1.1,0.4,1.7,1.6,2.2,2.7
		c1.2,2.6,2.7,5.1,4.6,7.4C12.6,154.5,11.7,154.4,10.9,154.4"/>
	<path fill="#B2AF3D" d="M31,198.2c0.9,0.8,1.9,1.4,3.1,1.8c-1.3,0.4-2.8,0.4-4.1,0c-3.5-0.9-6.6-3.2-8.4-6.4
		c-0.4-0.7-0.8-1.6-0.5-2.4c1.3,1,2.4,2.3,3.2,3.7c0.3,0.2,0.7,0.1,0.9-0.2c0.1,1.2,1.3,1.9,2.5,2.2C28.9,197.3,30.1,197.4,31,198.2
		"/>
	<path fill="#B2AF3D" d="M47.7,128.7c1.4-0.2,2.8-0.1,4.2,0c1.1,0.1,2.1,0.2,3.2,0.3c0.6,0,1.1,0.1,1.7,0.4c1.6,1,3.3,1.6,5.2,1.7
		c-1.2-0.4-2.6,0.3-3.2,1.4c-0.2,0.4-0.9,0.3-1.3,0c-0.4-0.3-0.7-0.8-1.2-0.8c-1.2-0.2-2.4-0.4-3.6-0.5c-0.4-0.1-0.7-0.1-1,0
		c-1.6-0.2-3.2-0.2-4.8,0c-0.2-0.4-0.4-0.9-0.7-1.3c-0.4,0.4-1.1,0.4-1.4-0.1C45.7,129.2,46.7,128.9,47.7,128.7"/>
	<path fill="#B2AF3D" d="M75.5,152.7c-0.4-2.1-1.5-4-3.1-5.3c-0.3-1.5-1.2-2.8-2.5-3.6c-0.8-0.4-1-1.5-0.8-2.3
		c0.2-0.9,0.7-1.6,1.3-2.3c0.5,1.4,1.1,2.7,1.9,3.9c1.4,2.1,3.2,4,4.1,6.3c0.7,1.7,0.8,3.5,0.5,5.3
		C75.9,154.7,75.6,153.6,75.5,152.7"/>
	<path fill="#B2AF3D" d="M16.3,126.3c0.1,0.3,0.3,0.5,0.4,0.8c1.1,0.2,2.3,0,3.3-0.5c0.4-0.2,0.9-0.4,1.1,0c0.4,0.6,1.3,0.3,1.9-0.1
		c0.6-0.4,1.4-0.9,1.9-0.4c0.8,0.7,1.9,0.9,3,1.1c1,0.3,2.1,1.1,2.2,2.1c-4.4-0.8-9.1-1.5-13.3,0.2c-1.7,0.7-3.7,0.4-5.2-0.6
		c1-0.1,2,0.2,2.8,0.7c0.7-0.5,1.1-1.3,1-2.2c-0.3-0.1-0.6-0.2-1-0.4C15,127.1,15.7,126.8,16.3,126.3"/>
</g>
</svg>
