<?xml version="1.0" encoding="utf-8"?>
<!-- Generator: Adobe Illustrator 21.0.2, SVG Export Plug-In . SVG Version: 6.00 Build 0)  -->
<svg version="1.1" id="Layer_1" xmlns="http://www.w3.org/2000/svg" xmlns:xlink="http://www.w3.org/1999/xlink" x="0px" y="0px"
	 width="405.9px" height="141.7px" viewBox="0 0 405.9 141.7" enable-background="new 0 0 405.9 141.7" xml:space="preserve">
<path fill="#6BA018" d="M27.3,47.4c13,4,26,5,39,2c15-4,26-18,42-14c12,3,24,5,36,5c32,2,63,0,95,4c10,1,20-1,30-4c33-8,63-20,98-15
	c6.2,0.6,11.7-2.7,17-6.7c-0.1-0.1-0.2-0.2-0.2-0.4c-0.7-1.3-2.2-1.1-3-0.3c-1.3-1.7-3-3.1-5-4c-0.8-0.4-1.6-0.7-2.4-0.9
	c-1.2-0.6-2.4-0.6-3.4,0c-0.7-0.4-1.4-0.8-2.1-1.1c-0.9-0.8-1.8-1.7-2.6-2.2c-7.9-5.6-17.4-7-26.8-8c-10.1-1-20.2-1.1-29.9,2.3
	c-0.7,0.2-1.3,0.5-1.9,0.9c-9-0.5-18.1,0.9-26.6,4.4c-3,1.2-5.1,3.5-6.2,6.1c-2.4,0-5.4-0.5-6.7-0.6c-4.5-0.2-9-0.4-13.5-0.1
	c-8.7,0.4-17.3,1.8-25.7,4c-0.8,0.2-1.4,0.5-2.1,0.8c-1.4-0.4-2.9-0.5-4.6-0.1c-3.1,0.6-6.3,1.1-9.4,1.6c-1.8-1.7-4.1-2.7-6.6-2.6
	c-1.2,0.1-2.2,0.2-3.3,0.4c-12.6,1.6-25.4,3.7-38.1,4c-13.3,0.3-26.2-4.4-39.6-3.8c-5.8,0.3-11.2,1.6-17,0.9
	c-6-0.7-11.8-2.4-17.9-2.9c-6.4-0.6-12.6,0.6-18.8,2.1c-2,0.5-4.9,1.5-7.6,1.8c-0.4-0.2-0.7-0.4-1.2-0.5c-3.2-1.1-6.4-2.2-9.5-3.3
	c-3.2-1.1-6.2-0.2-8.4,1.7c-2.9-0.8-5.9-1.5-8.7-1.6c-7.4-0.1-14.3,2.8-19.7,7.8c-1.8,1.6-3.2,3.4-4.5,5.3
	C14,38.2,19.1,44.7,27.3,47.4z"/>
<path fill="#8CC63F" d="M226.3,64.4c-12-1-22,10-34,14c-2,1-3-1-3-3c0,2-2,4-3,6c0-2,2-4,2-5c-4-6-11-1-16-3c-10-3-15-12-25-13
	c-33-3-66,1-97-13c-12.5-5.6-23.6-13.5-34.5-21.2C8.2,33.4,5.5,42.9,5.3,52.7c-0.4,1.1-0.7,2.2-0.7,3.6c-0.1,3.8,0.4,7.2,1.5,10.6
	c0.8,3.3,1.9,6.6,3.4,9.7c0.3,1.3,0.8,2.5,1.4,3.6c0.1,1.5,0.6,3,1.6,4.6c1.4,2.1,2.9,4,4.5,5.8c2.5,3.8,5.3,7.4,8.9,10.3
	c3.3,2.7,7,5,11.1,6.3c2.1,0.7,4.2,0.8,6.2,0.9c4.8,2.9,10.3,3.7,15.9,3.9c2.7,0.1,5.8-0.2,8.4,0.8c2.5,1,4.6,3.3,6.8,4.9
	c5.6,4.1,12.2,5.7,19.1,4.7c4.9-0.7,9.3-3.5,13.8-5.2c1.2,1,2.6,1.8,4.1,2.4c8.2,3.3,17.6,5,26.1,7.4c8.7,2.4,17.5,5,26.5,5.2
	c4.3,0.1,8.5-0.6,12.7-1.4c1.4-0.3,2.9-0.7,4.4-0.9c0.8,0.7,1.8,1.2,2.9,1.7c1.8,0.8,3.5,1,5.2,0.9c1.7,0.3,3.4,0.6,5.1,0.9
	c2.3,0.4,4.3,0.2,6-0.4c4.4,4.1,14.5,3.1,19.3,0c0.2,0,0.4-0.1,0.6-0.1c2.1-0.1,4.1-0.5,6-1.3c1.2,0,2.5-0.1,3.8-0.1
	c1.3-0.1,3.3-0.8,5.3-1.5c2.7,0.1,5.3,0.5,8.1,1.2c1.6,0.4,3.2,0.4,4.5,0.1c0.2,0.1,0.3,0.2,0.5,0.3c3.3,1.7,6.8,2.5,10,1.9
	c1,0.7,2.2,1.2,3.5,1.5c4.6,1.2,9.9,0.3,14.7-1.6c0.7,0.1,1.4,0.2,2.2,0.2c3.5,0,6-1.5,7.6-3.7c4.6,1.1,9.5,0.2,13.2-2.8
	c0.5-0.4,0.9-0.8,1.3-1.2c3.2,0.3,6.2,0.6,9.5,0.1c2.1-0.4,4-1.2,6-1.6c1.9-0.4,4-0.1,6-0.6c4.2-1.2,7.3-3.4,9.7-6.3
	c0.4-0.1,0.8-0.1,1.2-0.2c3.1-0.9,6.1-1.9,9.1-3.1c1,0.1,2.1,0,3.2-0.2c12.9-3,27.1-12.4,34-24.5c1.1-0.4,2-1.1,2.9-2
	c4.5-4.8,6.9-10.4,8.2-16.3c0.4-0.6,0.7-1.3,1-2.1c0.4-1.2,0.8-2.3,1-3.5c1.6-2.8,2.7-5.9,3-8.9C338.9,58.8,284.4,72,226.3,64.4z"/>
<linearGradient id="SVGID_1_" gradientUnits="userSpaceOnUse" x1="4.0624" y1="68.954" x2="396.3925" y2="68.954">
	<stop  offset="0" style="stop-color:#FFFFFF"/>
	<stop  offset="1" style="stop-color:#000000"/>
</linearGradient>
<path opacity="0.77" fill="#8CC63F" stroke="url(#SVGID_1_)" stroke-miterlimit="10" d="M392,42.9c-0.5-2.5-1.9-4.8-4-6.2
	c-0.2-0.7-0.5-1.3-0.8-2c-1.1-1.9-1.4-3.6-1.8-5.5c0.7-1.2,1.6-2.1,2.9-2.7c1.2-0.6,1.3-2.8,0-3.4c-1.8-0.9-3.2-2.1-4.2-3.9
	c-0.7-1.3-2.2-1.1-3-0.3c-1.3-1.7-3-3.1-5-4c-0.8-0.4-1.6-0.7-2.4-0.9c-1.2-0.6-2.4-0.6-3.4,0c-0.7-0.4-1.4-0.8-2.1-1.1
	c-0.9-0.8-1.8-1.7-2.6-2.2c-7.9-5.6-17.4-7-26.8-8c-10.1-1-20.2-1.1-29.9,2.3c-0.7,0.2-1.3,0.5-1.9,0.9c-9-0.5-18.1,0.9-26.6,4.4
	c-3,1.2-5.1,3.5-6.2,6.1c-2.4,0-5.4-0.5-6.7-0.6c-4.5-0.2-9-0.4-13.5-0.1c-8.7,0.4-17.3,1.8-25.7,4c-0.8,0.2-1.4,0.5-2.1,0.8
	c-1.4-0.4-2.9-0.5-4.6-0.1c-3.1,0.6-6.3,1.1-9.4,1.6c-1.8-1.7-4.1-2.7-6.6-2.6c-1.2,0.1-2.2,0.2-3.3,0.4c-12.6,1.6-25.4,3.7-38.1,4
	c-13.3,0.3-26.2-4.4-39.6-3.8c-5.8,0.3-11.2,1.6-17,0.9c-6-0.7-11.8-2.4-17.9-2.9c-6.4-0.6-12.6,0.6-18.8,2.1
	c-2,0.5-4.9,1.5-7.6,1.8c-0.4-0.2-0.7-0.4-1.2-0.5c-3.2-1.1-6.4-2.2-9.5-3.3c-3.2-1.1-6.2-0.2-8.4,1.7c-2.9-0.8-5.9-1.5-8.7-1.6
	c-7.4-0.1-14.3,2.8-19.7,7.8C8.1,33.3,5.4,42.8,5.3,52.7c-0.4,1.1-0.7,2.2-0.7,3.6C4.5,60,5,63.5,6,66.9c0.8,3.3,1.9,6.6,3.4,9.7
	c0.3,1.3,0.8,2.5,1.4,3.6c0.1,1.5,0.6,3,1.6,4.6c1.4,2.1,2.9,4,4.5,5.8c2.5,3.8,5.3,7.4,8.9,10.3c3.3,2.7,7,5,11.1,6.3
	c2.1,0.7,4.2,0.8,6.2,0.9c4.8,2.9,10.3,3.7,15.9,3.9c2.7,0.1,5.8-0.2,8.4,0.8c2.5,1,4.6,3.3,6.8,4.9c5.6,4.1,12.2,5.7,19.1,4.7
	c4.9-0.7,9.3-3.5,13.8-5.2c1.2,1,2.6,1.8,4.1,2.4c8.2,3.3,17.6,5,26.1,7.4c8.7,2.4,17.5,5,26.5,5.2c4.3,0.1,8.5-0.6,12.7-1.4
	c1.4-0.3,2.9-0.7,4.4-0.9c0.8,0.7,1.8,1.2,2.9,1.7c1.8,0.8,3.5,1,5.2,0.9c1.7,0.3,3.4,0.6,5.1,0.9c2.3,0.4,4.3,0.2,6-0.4
	c4.4,4.1,14.5,3.1,19.3,0c0.2,0,0.4-0.1,0.6-0.1c2.1-0.1,4.1-0.5,6-1.3c1.2,0,2.5-0.1,3.8-0.1c1.3-0.1,3.3-0.8,5.3-1.5
	c2.7,0.1,5.3,0.5,8.1,1.2c1.6,0.4,3.2,0.4,4.5,0.1c0.2,0.1,0.3,0.2,0.5,0.3c3.3,1.7,6.8,2.5,10,1.9c1,0.7,2.2,1.2,3.5,1.5
	c4.6,1.2,9.9,0.3,14.7-1.6c0.7,0.1,1.4,0.2,2.2,0.2c3.5,0,6-1.5,7.6-3.7c4.6,1.1,9.5,0.2,13.2-2.8c0.5-0.4,0.9-0.8,1.3-1.2
	c3.2,0.3,6.2,0.6,9.5,0.1c2.1-0.4,4-1.2,6-1.6c1.9-0.4,4-0.1,6-0.6c4.2-1.2,7.3-3.4,9.7-6.3c0.4-0.1,0.8-0.1,1.2-0.2
	c3.1-0.9,6.1-1.9,9.1-3.1c1,0.1,2.1,0,3.2-0.2c12.9-3,27.1-12.4,34-24.5c1.1-0.4,2-1.1,2.9-2c4.5-4.8,6.9-10.4,8.2-16.3
	c0.4-0.6,0.7-1.3,1-2.1c0.4-1.2,0.8-2.3,1-3.5C396.6,58.6,397.5,50.4,392,42.9z"/>
<path opacity="0.77" fill="#5E8221" d="M364.3,92.4c-42,16-89,22-132,27c-28,3-56-8-85-7c-9,1-17-1-26-4c-8-2-14,5-20,6
	c-11.3,2-22,1.4-32.2-0.9c1.9,1.2,3.6,2.9,5.3,4.1c5.6,4.1,12.2,5.7,19.1,4.7c4.9-0.7,9.3-3.5,13.8-5.2c1.2,1,2.6,1.8,4.1,2.4
	c4.5,1.8,13.7,3.9,26.1,7.4c8.7,2.4,17.5,5,26.5,5.2c4.3,0.1,8.5-0.6,12.7-1.4c1.4-0.3,2.9-0.7,4.4-0.9c0.8,0.7,1.8,1.2,2.9,1.7
	c1.8,0.8,3.5,1,5.2,0.9c1.7,0.3,3.4,0.6,5.1,0.9c2.3,0.4,4.3,0.2,6-0.4c4.4,4.1,14.5,3.1,19.3,0c0.2,0,0.4-0.1,0.6-0.1
	c2.1-0.1,4.1-0.5,6-1.3c1.2,0,2.5-0.1,3.8-0.1c1.3-0.1,3.3-0.8,5.3-1.5c2.7,0.1,5.3,0.5,8.1,1.2c1.6,0.4,3.2,0.4,4.5,0.1
	c0.2,0.1,0.3,0.2,0.5,0.3c3.3,1.7,6.8,2.5,10,1.9c1,0.7,2.2,1.2,3.5,1.5c4.6,1.2,9.9,0.3,14.7-1.6c0.7,0.1,1.4,0.2,2.2,0.2
	c3.5,0,6-1.5,7.6-3.7c4.6,1.1,9.5,0.2,13.2-2.8c0.5-0.4,0.9-0.8,1.3-1.2c3.2,0.3,6.2,0.6,9.5,0.1c2.1-0.4,4-1.2,6-1.6
	c1.9-0.4,4-0.1,6-0.6c4.2-1.2,7.3-3.4,9.7-6.3c0.4-0.1,0.8-0.1,1.2-0.2c3.1-0.9,6.1-1.9,9.1-3.1c1,0.1,2.1,0,3.2-0.2
	c12.9-3,27.1-12.4,34-24.5c1.1-0.4,2-1.1,2.9-2c0.4-0.4,0.7-0.8,1.1-1.3C377.3,88.4,371,90.6,364.3,92.4z"/>
<path d="M6,37.4c0.8-1.8,1.6-3.5,2.6-5.1C7.6,33.9,6.7,35.6,6,37.4z"/>
<path fill="#579318" d="M45.3,20.3c4.5-0.1,9.1,0.1,13.5,0.7c6.4,0.8,13.3,2.1,19-0.9c12.7-6.9,28.1,5.1,42.3,2.9
	c6-1,12.8-4.3,17.8-0.7c4.4,3.2,10.4,3.1,15.9,2.8c6-0.3,11.9-0.6,17.9-1c9.4-0.5,18.8-1,28.2-1.5c9-0.5,18-1,26.9-2.2
	c13.8-1.9,27.7-5.4,41.4-3c6.2,1.2,11.1-5,16.8-7.7c8.4-4,18.7-0.7,27.3-4.1c12.9-5,27.5-3.8,40.6,0.5c13.1,4.3,25,11.5,36.8,18.7
	c-3.7,0.7-4.9,5.7-3.5,9.2c0.2,0.5,0.4,0.9,0.7,1.4c1,0,2-0.1,2.9-0.1c-0.5-0.6-0.9-1.1-1.2-1.8c-0.7-1.7-0.2-4.2,1.6-4.8
	c1.9-0.6,2.4-3.2,1.5-5c-0.9-1.8-2.6-2.9-4.3-3.9C370,9.6,351.4-1,331.2,0.1c-7.8,0.4-15.3,2.6-23,3.6c-9.1,1.1-18.7,0.6-26.7,5
	c-3.7,2.1-7,5.2-11.2,6c-4.1,0.8-8.2-0.8-12.3-1.3c-5.9-0.7-11.9,0.9-17.7,2.1c-11.9,2.4-24.1,3.1-36.2,3.7
	c-12.6,0.7-25.2,1.4-37.8,2.1c-10.9,0.6-22.3,1.1-32.3-3.4c-3.6-1.6-7.6,0.5-11.4,1.5c-15.2,4-32.5-10-46.2-2.2
	c-4.6,2.6-10.3,1.7-15.6,1c-8.1-1.2-16.4-2-24.5-1.1c0.3,0.1,0.6,0.2,0.9,0.4C39.9,18.5,42.6,19.4,45.3,20.3z"/>
<path fill="#B2DB61" d="M152,121.8c-0.7,0.2-1.8,0-1.8-0.7c0.6-0.6,1.9-0.1,2,0.8"/>
<path fill="#B2DB61" d="M90.2,116.7c-0.8,0.1-1.8,0.1-2.2-0.5c0.6-0.5,1.5-0.6,2.2-0.4C90.5,116,90.5,116.5,90.2,116.7"/>
<path fill="#4A7500" d="M48.7,84.8c0.4-0.1,0.9,0.2,1,0.6c-0.6,0.1-1.3,0.2-1.9,0.1c-0.3-0.4-0.2-1,0-1.4c0.3,0.2,0.6,0.3,0.8,0.5"
	/>
<path fill="#B2DB61" d="M171,110.3c0.7-0.1,1.5,0,2.2,0.1c-0.5,0.8-1.6,1.2-2.5,0.8C170.4,111,170.6,110.3,171,110.3"/>
<path fill="#B2DB61" d="M314.4,112.5c-0.4,0.5-1.2,0.7-1.7,0.3c0.2-0.4,0.3-0.8,0.5-1.2c0.6,0,1.2,0,1.7,0
	C315,112,314.8,112.3,314.4,112.5"/>
<path fill="#99D346" d="M168.4,97.4c0.5-0.1,1.3,0,1.2,0.5c-0.9,0.1-1.8,0.3-2.7,0.4C167,97.8,167.7,97.3,168.4,97.4"/>
<path fill="#4A7500" d="M71.9,88.9c-0.5,0-1.1,0-1.7,0C70.1,88.6,70,88.3,70,88c0.9-0.6,2.3-0.2,2.7,0.7
	C72.5,88.8,72.2,88.9,71.9,88.9"/>
<path fill="#5FAA07" d="M219.9,45.5c-0.3,0.5-1.3,0.1-1.2-0.5c0.3-0.5,0.8-1,1.5-1.2c0.3,0.2,0.4,0.5,0.5,0.9
	C220.5,44.9,220.2,45.2,219.9,45.5"/>
<path fill="#B2DB61" d="M370.6,83.8c-0.2,0.8-1,1.5-1.8,1.7c0.1-0.5,0.2-1,0.4-1.5c0.4-0.3,1-0.4,1.5-0.5"/>
<path fill="#B2DB61" d="M216.9,122.2c-0.5-0.5,0.3-1.3,1.1-1.2c0.7,0.1,1.4,0.4,2,0.1c0.1,0.3,0.1,0.6,0.2,1
	C219,122.1,217.9,122.2,216.9,122.2"/>
<path fill="#4A7500" d="M253.2,62.1c-0.5,0-1-0.1-1.5-0.1c0.9-0.8,2.2-1.1,3.4-0.8C254.6,61.8,253.9,62.1,253.2,62.1"/>
<path fill="#4A7500" d="M255.9,71.2c0.3,0,0.6,0.1,0.8,0.1c-1.1,0.3-2.2,0.7-3.4,1.1c-0.2-0.5,0.2-1.1,0.8-1.2
	c0.5-0.1,1.1,0,1.7,0.2"/>
<path fill="#B2DB61" d="M185,127.3c-0.5-0.1-1-0.1-1.5-0.2c0.6-1.2,2.3-1.6,3.4-0.8C186.4,126.9,185.7,127.3,185,127.3"/>
<path fill="#99D346" d="M336,32.1c-0.4-0.1-0.8-0.3-1.2-0.4c0.9-0.8,2.2-1.1,3.4-0.7c0.1,0.3,0,0.6-0.1,0.8c-0.7,0.2-1.4,0.3-2,0.5"
	/>
<path fill="#B2DB61" d="M105.9,113.1c1.4,0,2.7,0,4.1,0C108.9,114,107,114.1,105.9,113.1"/>
<path fill="#B2DB61" d="M179.9,124.2c-0.2,0.4-0.8,0.4-1.2,0.4c-0.8,0-1.6-0.1-2.4-0.1c0.2-0.4,0.4-0.8,0.5-1.3
	c0.6,0.3,1.3,0,1.9-0.1C179.3,123.1,180.2,123.6,179.9,124.2"/>
<path fill="#5FAA07" d="M102.5,56.7c0.6-0.3,1.4-0.1,1.9,0.3c-0.7,0.6-1.7,1-2.6,1.1c-0.4,0-0.9,0-1.1-0.4c-0.2-0.4,0.1-0.8,0.5-1
	C101.6,56.5,102.1,56.6,102.5,56.7"/>
<path fill="#B2DB61" d="M304.3,117.7c-0.9,0.3-1.9,0.5-2.8,0.6c0.3-1.4,2-2.2,3.2-1.5c0,0.3-0.2,0.6-0.5,0.7"/>
<path fill="#5FAA07" d="M103.5,40.6c-1.1,0.3-2.3,0.1-3.3-0.3c1.5-0.4,3.1-0.4,4.5-0.1C104.6,40.7,103.9,40.9,103.5,40.6"/>
<path fill="#99D346" d="M324.1,6.8c-0.3,0-0.7,0-1.1-0.1c0.7-1.2,2.4-1.7,3.7-1c-0.9,0.3-1.8,0.5-2.7,0.8"/>
<path fill="#B2DB61" d="M248.1,112c-0.8,0-1.7-0.1-2.5-0.1c0.8-0.2,1.7-0.4,2.5-0.6c0.6-0.1,1.5,0,1.5,0.6
	C249.1,111.9,248.6,112,248.1,112"/>
<path fill="#99D346" d="M207.2,98.9c1.1,0,2.2-0.2,3.2-0.8c0.2,0.3,0.5,0.7,0.7,1C209.8,99.2,208.5,99.1,207.2,98.9"/>
<path fill="#4A7500" d="M302.9,51.6c0.2,0,0.5,0,0.7,0.1c0.2,0.2,0.3,0.4,0.3,0.7c-1.3,0.6-2.8,0.7-4.1,0.3
	C300.7,52,301.8,51.6,302.9,51.6"/>
<path fill="#B2DB61" d="M95.8,114.8c0.2-0.5,1.1-0.4,1.3,0.1c-0.5,0.6-1,1.2-1.7,1.4c-0.7,0.2-1.6-0.2-1.7-1
	c0.5-0.4,1.3-0.6,1.9-0.5"/>
<path fill="#B2DB61" d="M118.2,109.2c0.3,0.2,0.6,0.4,0.9,0.6c-0.8,0.9-2.3,0.4-3.4-0.1c0-0.4-0.1-0.8-0.1-1.2
	c0.8,0.3,1.7,0.5,2.5,0.8"/>
<path fill="#5FAA07" d="M174.9,48.3c-1.5,0.5-3.2,0.3-4.4-0.6C171.9,47.2,173.6,47.5,174.9,48.3"/>
<path fill="#B2DB61" d="M217.7,128.8c0.3-0.5,1.2-0.7,1.7-0.3c-1.1,0.6-2.2,1.2-3.3,1.9c-0.2-0.4-0.2-0.8-0.2-1.3
	C216.6,129,217.2,128.9,217.7,128.8"/>
<path fill="#B2DB61" d="M271,123c0-0.6,0.9-0.6,1.4-0.3c-1.1,1.1-2.9,1.4-4.2,0.7C269.1,123.3,270.1,123.2,271,123"/>
<path fill="#99D346" d="M383.8,36.8c0.6-0.6,1.5,0.1,1.8,0.9c0.3,0.8,0.3,1.8,0,2.7C384.2,39.9,383.3,38.2,383.8,36.8"/>
<path fill="#5FAA07" d="M77.2,46.4c-1.5,0.1-2.9-0.7-3.8-1.9C74.9,44.2,76.7,45,77.2,46.4"/>
<path fill="#4A7500" d="M28.3,93.6c0.5,0.2,1.4,0,1.1-0.5c-1.1-0.8-2.6-1.1-3.8-0.6c0.6,0.2,1.2,0.5,1.8,0.7
	C27.7,93.3,28,93.5,28.3,93.6z"/>
<path fill="#4A7500" d="M286.2,19.5c-0.6,0.7-1.5,1.2-2.5,1.2c-0.6,0-1.3-0.2-1.8-0.5C283,19.2,284.7,19.3,286.2,19.5"/>
<path fill="#99D346" d="M299.8,89.9c0,0.8-1,1.3-1.8,1.3c-1.1,0.1-2.2,0-3.3-0.2C296.2,90.2,298,89.8,299.8,89.9"/>
<path fill="#B2DB61" d="M310.4,103.2c0.4,0.1,0.8,0.2,1.2,0.3c0-0.3,0.3-0.6,0.6-0.7c0.3,0.4,0.6,0.8,0.9,1.2
	c-1.3,0.3-2.6,0.7-3.9,1.1c-0.5-0.6,0.3-1.8,1.1-1.5"/>
<path fill="#5FAA07" d="M219.1,60.6c1.6-0.9,3.5-1.2,5.3-0.8c0.2,0.2,0.3,0.6,0.2,0.9C222.7,60.8,220.9,60.8,219.1,60.6"/>
<path fill="#99D346" d="M220.5,90.4c-1.6,0.1-3.2,0-4.8-0.2c0.3-0.5,1-0.6,1.5-0.3C218,88.8,219.9,89.1,220.5,90.4"/>
<path fill="#99D346" d="M333.5,50.1c-0.8,0.7-2.1,0.5-2.7-0.3c1.2-1,2.6-1.6,4.2-1.7c0.2,0.5,0.3,1.1,0.2,1.6
	c-0.5,0.2-1,0.3-1.5,0.5"/>
<path fill="#5FAA07" d="M205.7,44c-1.5,0.9-3.4,1.4-5.2,1.2c0.2-0.5,0.4-1.1,0.8-1.5C202.7,43.6,204.2,43.7,205.7,44"/>
<path fill="#B2DB61" d="M215.5,129.5c-0.5,1.6-2.4,2.5-4,1.9c-0.2-0.3-0.4-0.6-0.6-0.9C212.4,130.2,214,129.8,215.5,129.5"/>
<path fill="#4A7500" d="M240,53.6c-0.9,0-1.7,0-2.6,0c-0.1,0-0.3,0-0.4,0c-0.6,0-1.2,0-1.8,0c1-0.3,1.9-0.7,2.9-1.1
	c0.5-0.2,1-0.4,1.5-0.2C240.1,52.6,240.4,53.3,240,53.6"/>
<path fill="#B2DB61" d="M362.6,84.3c-0.6,1-2.1,1.5-3.2,1c1.2-1.1,2.6-1.9,4.1-2.4C363.2,83.3,362.9,83.8,362.6,84.3"/>
<path fill="#99D346" d="M253.7,95.2c0.2-0.3,0.3-0.6,0.5-0.8c1.7,0,3.4,0,5.1,0c0.2,0.2,0.2,0.5,0.2,0.8
	C257.6,95.6,255.6,95.6,253.7,95.2"/>
<path fill="#99D346" d="M212.5,85.9c0.1-0.7,0.9-1,1.6-1.2c1.1-0.2,2.3-0.4,3.4-0.6c0.1,0.3,0.2,0.6,0.2,1
	C216,85.4,214.3,85.7,212.5,85.9"/>
<path fill="#4A7500" d="M276.8,35.5c0.7-0.5,1.5-0.9,2.4-1.1c1.1-0.2,2.2-0.1,3.3,0.4C280.7,35.6,278.7,35.9,276.8,35.5"/>
<path fill="#4A7500" d="M256.2,49.1c-1,0.3-2,0.6-3,0.9c-0.3-0.1-0.4-0.6-0.2-0.8c0.2-0.2,0.6-0.3,1-0.4c1.4-0.2,2.9-0.4,4.3-0.6
	c0.3,0.4-0.1,1-0.6,1.1c-0.5,0.1-1,0-1.4-0.2"/>
<path fill="#99D346" d="M336.3,5c-1.8,0.5-3.8,0.6-5.7,0.4c-0.3-0.1-0.8-0.3-0.7-0.6C332,4.6,334.2,4.7,336.3,5"/>
<path fill="#99D346" d="M235.9,80.4c1.3,0.1,2.5,0.3,3.7,0.6c0.4,0.1,0.8,0.3,1,0.7c-2,0.1-4,0.1-6,0.1c-0.4-0.3-0.2-0.8,0.1-1.1
	C235,80.4,235.5,80.4,235.9,80.4"/>
<path fill="#4A7500" d="M14.8,69c0.5,0.6,0.4,1.6,1,2.2c0.3,0.2,0.6,0.3,0.9,0.4c0.7,0.2,1.4,0.4,2.1,0.6c-0.3-0.5-0.6-0.9-0.9-1.4
	C16.9,70.1,15.8,69.5,14.8,69z"/>
<path fill="#B2DB61" d="M171.1,120.1c-0.6-0.4-1.2-0.7-1.7-1.2c1.9-0.2,3.8-0.2,5.7-0.1c0.4,0.8-0.4,1.9-1.3,2.1
	C172.9,121,171.9,120.6,171.1,120.1"/>
<path fill="#4A7500" d="M33.2,94.9l0-0.2c-0.8-0.6-2.1-0.4-2.7,0.3c1.2,1.6,4,1.7,5.3,0.2C35,95.1,34.1,95,33.2,94.9z"/>
<path fill="#4A7500" d="M245.7,52c-0.2-0.4,0.4-0.8,1-0.8c1.6-0.2,3.1-0.4,4.7-0.6c-0.5,0.5-1.1,1.1-1.6,1.6
	c-1.1,0.1-2.2,0.2-3.3,0.2C246.2,52.4,245.8,52.3,245.7,52"/>
<path fill="#5FAA07" d="M195.9,24.7c-1.4,0.4-2.7,0.8-4.1,1.2c-0.5-0.4-1.1-0.6-1.7-0.6C191.7,23.9,194.1,23.6,195.9,24.7"/>
<path fill="#B2DB61" d="M147.7,119.9c0.3,0.1,0.6,0.3,0.8,0.5c0.2,0.2,0.3,0.5,0.3,0.8c-1.7,1-4.2,0.6-5.5-0.9
	C144.6,119.6,146.3,119.4,147.7,119.9"/>
<path fill="#B2DB61" d="M140.6,119.1c-0.4,1.1-1.6,1.7-2.7,1.5c-1.2-0.2-2-1.3-2.7-2.3C137,118,138.9,118.3,140.6,119.1"/>
<path fill="#99D346" d="M385.6,41.5c1.4,1.7,1.7,4.2,0.7,6.2c-0.3,0.1-0.6,0.2-0.9,0.2C384.9,45.8,385,43.6,385.6,41.5"/>
<path fill="#5FAA07" d="M134.1,87.6c-1.7,0-3.4,0-5-0.2c-0.6-0.1-1.3-0.7-0.8-1.1c2.1-0.6,4.5-0.4,6.6,0.5
	C134.6,87.1,134.3,87.4,134.1,87.6"/>
<path fill="#B2DB61" d="M279.2,128.5c0.4-0.2,1-0.3,1.4-0.2c0.5,0.2,0.8,0.6,1.3,0.8c-2,1.3-4.7,1.6-7,0.7
	C276.4,129.5,277.8,129,279.2,128.5"/>
<path fill="#99D346" d="M243,95c0.6-0.7,1.8-0.9,2.5-0.4c0.4,0.2,0.7,0.6,0.7,1.1c-1.9,0.9-4.2,0.7-6-0.4
	C241,94.5,242.2,94.4,243,95"/>
<path fill="#5FAA07" d="M155.2,29c1.4-0.5,2.8-1.1,4.2-1.7c0.4-0.2,1,0.1,1.1,0.6c-1.7,1.1-3.7,1.8-5.8,2.1
	C154.7,29.6,154.8,29.2,155.2,29"/>
<path fill="#5FAA07" d="M111.2,59.3c-0.6-0.6-1.7-0.9-2.6-0.6c1.8-1.1,4.2-1.3,6.1-0.3c-0.6,0.2-1.2,0.5-1.5,1.1
	C112.9,58.6,111.5,58.6,111.2,59.3"/>
<path fill="#B2DB61" d="M235.2,111.6c2.1,0.1,4.2,0.1,6.2-0.1c0,0.6-0.7,1-1.3,1c-0.6,0-1.2-0.3-1.7-0.4c-1.2-0.3-2.5,0-3.5,0.8
	C234.8,112.4,234.9,112,235.2,111.6"/>
<path fill="#5FAA07" d="M176.7,38.3c-1.6,1.2-3.9,1.5-5.8,0.7c-0.4-0.1-0.8-0.5-0.6-0.9c0.7-0.9,2.3-1.2,3.3-0.5
	c0.5,0.3,1.2,0.1,1.7,0C175.8,37.5,176.6,37.7,176.7,38.3"/>
<path fill="#4A7500" d="M271.7,36.1c-0.4,0.3-0.7,0.6-1.1,1c0-0.5-0.6-0.7-1.1-0.6c-0.5,0.1-0.9,0.5-1.4,0.6c-1,0.2-1.9-0.5-2.6-1.2
	c1.2-0.3,2.3-0.5,3.5-0.8c0.5-0.1,1.1-0.3,1.7-0.1C271.2,35,271.7,35.5,271.7,36.1"/>
<path fill="#4A7500" d="M50.2,91.4c1.5,0.8,3.2,1.3,4.8,1.3c0.3,0.4,0,1.1-0.5,1.3c-0.5,0.2-1.1,0.1-1.6-0.1
	c0.3-0.7-0.8-1.2-1.7-1.1c-0.8,0.1-2-0.2-1.7-1C49.5,91.5,49.9,91.3,50.2,91.4"/>
<path fill="#B2DB61" d="M361.3,92.1c1.2-1.3,2.3-2.6,3.5-3.9c0.4-0.4,1.1-0.4,1.5-0.1C365.3,90,363.4,91.5,361.3,92.1"/>
<path fill="#5FAA07" d="M202,49.8c1.4-1.1,3.3-1.6,5.1-1.4c0.8,0.1,1.7,0.4,2.5,0.6c-0.2,0.2-0.3,0.4-0.5,0.7
	C206.7,50.3,204.3,50.3,202,49.8"/>
<path fill="#4A7500" d="M46.9,93.4c-2.6,0-5.1-0.1-7.7-0.2c0.8-0.2,1.6-0.7,1.9-1.5C43.1,91.2,45.4,91.8,46.9,93.4"/>
<path fill="#B2DB61" d="M261.4,121.3c-1.3,0.6-2.7,1.2-4.1,1.5c-1.1,0.2-2.1,0.2-3.2,0C256,120.9,258.9,120.3,261.4,121.3"/>
<path fill="#B2DB61" d="M214.4,122.6c-1.2,0.8-2.5,1.4-4,1.8c-1.2,0.3-2.5,0.3-3.7-0.1C208.9,122.6,211.8,122,214.4,122.6"/>
<path fill="#B2DB61" d="M187.6,125.6c1.4-1,3.2-0.9,4.9-0.7c0.5,0.1,1.1,0.1,1.7,0.2c-0.6,1.3-2.6,1.8-3.7,0.8
	C189.9,126.9,188.5,126.3,187.6,125.6"/>
<path fill="#4A7500" d="M233.9,72c-2.7,1.2-5.9,1.2-8.6,0c2.7-0.8,5.6-1,8.5-0.6C234,71.5,234.1,71.8,233.9,72"/>
<path fill="#B2DB61" d="M71.7,104.5c1.3,0.1,2.5,0.1,3.7,0.1c0.5,0,1.1,0.1,1.6,0.1c0.7,0,1.5,0.1,2.2,0.1c-0.6,1.1-2,1.6-3.3,1.6
	c-1.3,0-2.5-0.5-3.7-1C72.1,105,71.9,104.8,71.7,104.5"/>
<path fill="#5FAA07" d="M105.3,51.1c-2.1,0.7-4.5,0.8-6.7,0.1c-0.7-0.2-1.4-0.5-2-0.7c-0.1-0.7,0.9-0.9,1.6-0.8
	C100.6,50,103,50.3,105.3,51.1"/>
<path fill="#B2DB61" d="M320.7,92.9c0.3,0.2,0.3,0.7,0,1c-2.2,1-4.4,2-6.6,3.1c-0.4-0.3-0.4-1-0.1-1.4c0.3-0.4,0.8-0.6,1.4-0.8
	C317.1,94,318.9,93.4,320.7,92.9"/>
<path fill="#B2DB61" d="M267.7,129.8c-2.3,0.8-4.8,0.6-7.2,0.3c-0.9-0.1-2-0.4-2.3-1.3C261.3,129.3,264.5,129.7,267.7,129.8"/>
<path fill="#4A7500" d="M255.1,44.1c1.9-0.7,4-1.1,6.1-1.1c1.2,0,2.3,0.1,3.4,0.1C261.5,43.9,258.2,44.2,255.1,44.1"/>
<path fill="#4A7500" d="M43.9,101.5c-2.1,0.2-4.3-0.3-6.2-1.3c-0.7-0.4-1.4-0.8-2-1.4c2.6-0.4,5.3,0.1,7.6,1.4
	C43.5,100.7,43.7,101.1,43.9,101.5"/>
<path fill="#5FAA07" d="M215.8,61c-1.3,0.5-2.6,1-3.9,1.5c-1.6,0.6-3.7,1-4.7-0.4c1.7-0.3,3.3-0.7,5-1.1
	C213.4,60.8,214.7,60.6,215.8,61"/>
<path fill="#4A7500" d="M258.8,55.1c0.3,0.1,0.7,0.3,1.1,0.4c-2.8,1-5.7,1.4-8.7,1.4c-0.2-0.2-0.2-0.5-0.1-0.7
	c2.3-1.4,4.9-2.2,7.6-2.3C258.8,54.3,258.9,54.7,258.8,55.1"/>
<path fill="#5FAA07" d="M196.5,50.1c0,0.3,0.1,0.6,0.2,0.9c-3,1.1-6.4,0.8-9.3-0.5c1-0.1,1.9-0.4,2.7-1c-0.2,0.5,0.9,0.7,0.9,0.2
	C192.8,50.3,194.7,50.5,196.5,50.1"/>
<path fill="#4A7500" d="M303.7,11.7c-0.9,0.2-1.7,0.5-2.6,0.7c-0.5,0.1-1.1,0.3-1.7,0.4c-1.7,0.5-3.5,1-5.2,1.4
	c-0.3-0.7,0.2-1.5,0.8-1.9c0.6-0.4,1.4-0.4,2.1-0.5C299.3,11.7,301.5,11.7,303.7,11.7"/>
<path fill="#4A7500" d="M288.4,54.3c0-0.3-0.1-0.6-0.2-0.9c2.7-1.8,6.3-0.8,9.4,0.2c-1.5,0.1-3,0.2-4.4,0.3
	C291.7,54.1,290.1,54.2,288.4,54.3"/>
<path fill="#5FAA07" d="M136.1,30.4c3.5-0.4,7.1-0.5,10.7-0.2c-0.2,0.3-0.3,0.6-0.5,0.9C142.9,31.6,139.4,31.4,136.1,30.4"/>
<path fill="#5FAA07" d="M58.8,46.4c2.4-0.1,4.8,0.6,7.1,1.3c0.8,0.2,1.7,0.6,2,1.4C64.8,50,61.1,48.9,58.8,46.4"/>
<path fill="#5FAA07" d="M77.2,34.1c0.3-0.5,0.4-1.1,0.4-1.7c0.4-0.4,1.2-0.2,1.5,0.3c2.5-0.8,5.4-0.7,7.8,0.4c0.3,0.1,0.3,0.6,0,0.8
	c-0.2,0.2-0.6,0.3-1,0.3c-1.9,0.2-3.8,0-5.7-0.4C79.1,33.7,77.9,34.8,77.2,34.1"/>
<path fill="#5FAA07" d="M234.2,25c1.1-0.3,2.1-0.6,3.2-1c0.4-0.1,0.9-0.2,1.4-0.3c1.7-0.3,3.5,0.1,4.9,1.1c-3.2,0.4-6.3,0.8-9.5,1.3
	C233.9,25.7,233.9,25.2,234.2,25"/>
<path fill="#B2DB61" d="M347.4,107.4c1.2-0.6,2.3-1.2,3.5-1.7c1.2-1.5,3.1-2.4,5-2.5c-0.1,1-1.1,1.6-1.9,2c-1.3,0.7-2.5,1.4-3.7,2.1
	C349.4,107.8,348.1,108.2,347.4,107.4"/>
<path fill="#B2DB61" d="M319.3,98.9c0.3-0.7,1.2-1.1,1.9-1.4c1.2-0.4,2.4-0.9,3.6-1.3c1.4-0.5,3.2-0.9,4,0.3
	c-2.4,1.5-5.2,2.5-8.1,2.9C320.1,99.5,319.4,99.5,319.3,98.9"/>
<path fill="#4A7500" d="M236.6,59.3c-0.2-0.3-0.4-0.7-0.5-1c2.9-0.5,5.8-0.9,8.7-1.4c0.7-0.1,1.5-0.2,2.2,0.1
	c-0.2,0.3-0.4,0.6-0.5,1C243.1,58,239.8,60,236.6,59.3"/>
<path fill="#B2DB61" d="M281.5,119.5c0.3-0.6,1.1-0.9,1.8-0.6c-0.3,0.3-0.6,0.6-0.9,1c-2.6,0.7-5.3,1.5-7.9,2.2
	c-0.2-0.7,0.6-1.3,1.4-1.5c0.7-0.2,1.6-0.4,1.7-1.2c0.1,0.3,0.3,0.5,0.6,0.6c0.5-0.3,1.1-0.5,1.7-0.8
	C280.4,118.9,281.5,118.9,281.5,119.5"/>
<path fill="#5FAA07" d="M217.6,38.2c-2.6,1-5.4,1.5-8.2,1.5c-1,0-2.2-0.2-2.7-1c2.4-1.2,5.2-1.6,7.9-1.4c0.7,0.1,1.4-0.4,2.1-0.4
	C217.4,36.9,218.2,37.8,217.6,38.2"/>
<path fill="#5FAA07" d="M161.2,47.4c-1.9-0.1-3.8-0.3-5.7-0.4c-0.4,0-1-0.2-0.8-0.6c3.8,0.2,7.7,0.3,11.5,0.5
	C164.5,47.1,162.9,47.2,161.2,47.4"/>
<path fill="#99D346" d="M253.2,78.7c0.2,0.3,0.2,0.7,0.2,1c-1.8,0.5-3.7,0.9-5.6,1.1c-1.7,0.2-3.4,0.3-5.1,0.4
	c-0.3-0.3-0.1-0.8,0.2-1.1c0.4-0.2,0.8-0.2,1.2-0.2C247.2,79.9,250.3,79.4,253.2,78.7"/>
<path fill="#5FAA07" d="M261.8,20.7c-0.7,0.9-2.1,1.1-3.3,1.1c-2.7,0.2-5.5,0.2-8.3,0c0.5-0.9,1.6-1.1,2.6-1.2
	c3-0.3,5.9-0.5,8.8-0.8C261.7,20.1,261.8,20.4,261.8,20.7"/>
<path fill="#B2DB61" d="M276.5,115.4c-1.5,1.9-4.1,2.5-6.4,3c-1.6,0.3-3.3,0.6-4.7-0.1c2.4-1,5-1.6,7.5-2.3c0.4-0.1,0.9-0.2,1.3-0.3
	C274.9,115.4,275.7,115.2,276.5,115.4"/>
<path fill="#4A7500" d="M246.7,46c-1.9,1.2-4.3,1.6-6.4,1c1-1.1,2.6-1.6,4-1.2c0.3,0.1,0.5,0.2,0.8,0.1c1.6-0.7,3.3-1.1,5-1.2
	c0.6,0,1.3,0.2,1.3,0.8C249.9,46.2,248.2,46.3,246.7,46"/>
<path fill="#5FAA07" d="M161.1,41.2c-0.7,0.3-1.6,0.4-2.3,0.5c-2.1,0.3-4.2,0.5-6.3,0.8c-0.5,0.1-1.2,0-1.4-0.4
	c0,0.4-0.5,0.7-0.9,0.6c-0.4-0.6,0.4-1.1,1.1-1.3c3.8-1,7.6-1.7,11.5-2.1c0,0.7-1,1.2-1.5,0.7C161,40.3,161,40.8,161.1,41.2"/>
<path fill="#B2DB61" d="M208.9,112c0.2-0.4,0.4-0.9,0.5-1.3c2.4,0.7,5,1,7.5,0.8c0.8,0,1.6-0.1,2.3-0.2c1.2-0.1,2.3-0.2,3.4-0.3
	c-0.9,0.7-1.9,1.5-3.1,1.3c-0.6-0.1-1.4-0.5-1.9-0.1C215.3,113.9,211.9,111.2,208.9,112"/>
<path fill="#B2DB61" d="M161.2,124.9c0-0.3-0.1-0.6-0.1-0.8c4.7-0.6,9.5-0.3,14.1,0.9c-2.2,0.2-4.4,0.5-6.6,0.7
	c-0.5,0.1-1.1,0.1-1.6,0.1C165,125.6,162.9,124,161.2,124.9"/>
<path fill="#4A7500" d="M193.6,64.3c0,0.4,0,0.8,0,1.3c-1.9,1.5-4.5,2.7-6.7,1.6c-2.3-1.2-2.9-4.2-2.8-6.7c0.7,0,1.4-0.1,2-0.1
	c0.3,1.2,0.5,2.4,1.3,3.4c0.8,0.9,2.3,1.3,3.3,0.5C191.5,63.6,192.8,63.6,193.6,64.3"/>
<path fill="#B2DB61" d="M356.5,88.9c-0.5-0.3-1.3,0.1-1.6,0.7c-0.3,0.5-0.5,1.2-0.9,1.7c-0.3,0.3-0.7,0.6-1.1,0.8
	c-1.7,0.9-3.4,1.8-5.1,2.7c-0.9,0.5-2.4,0.7-2.6-0.3c1.3-0.5,2.6-1,3.8-1.5c0.5-0.2,1.2-0.5,1.3-1.1c2.1-1.4,4.1-2.9,6.2-4.2
	C356.4,88.1,356.5,88.5,356.5,88.9"/>
<path fill="#4A7500" d="M102.8,91.1c-2.3,0.7-4.8,1.5-7,0.8c-2.6-0.8-4.5-3.6-4.2-6.3c0-0.3,0.1-0.5,0.3-0.7c0.4-0.3,1,0.1,1.3,0.5
	c1.1,1.3,2.1,2.6,2.9,4c2.1-0.4,4.3-0.3,6.3,0.1c0.6,0.1,1.4,0.6,1.1,1.2C103.3,90.9,103,91,102.8,91.1"/>
<path fill="#99D346" d="M226.7,84.2c0.6,0.8,1.3,1.6,2,2.3c0.7,0.8,1.6,1.8,2.7,1.7c0.7,0,1.3-0.5,1.9-0.8c0.6-0.4,1.3-0.8,2-0.7
	c0.7,0.1,1.3,1,0.9,1.6c-1.8,2.5-5.6,4-8.1,2.1c-0.7-0.6-1.3-1.4-1.8-2.2c-0.4-0.6-0.8-1.4-0.8-2.1
	C225.4,85.3,225.9,84.4,226.7,84.2"/>
<path fill="#99D346" d="M339,59.4c0.1,0.3-0.2,0.6-0.4,0.6c-0.3,0-0.5-0.3-0.5-0.6c-0.4-0.1-0.6,0.3-0.7,0.7c-0.9-1-2.5-1-3.8-0.5
	c-1.3,0.4-2.5,1.1-3.8,1.2c1.4-1.8,3.7-2.6,5.9-3c2.3-0.4,4.8-0.6,7.1-0.4c0.5,0.6-0.2,1.5-0.9,1.8c-0.7,0.3-1.6,0.4-2.1,1
	C339.7,59.7,339.4,59.4,339,59.4"/>
<path fill="#5FAA07" d="M183.9,40.8c-1.4,0.8-3.2,0.9-4.7,0.2c3.2-1,6.6-1.7,9.9-2.1c0.8-0.1,1.6-0.2,2.3-0.1
	c1.2,0.1,2.3,0.4,3.3,1.1c-2.1-0.1-4.2,0.1-6.3,0.4c-1.4,0.2-2.9,0.6-4.2,1C184.2,41.1,184.1,40.9,183.9,40.8"/>
<path fill="#99D346" d="M172.8,88.6c0.6,0,1.2,0,1.7,0c0.1,1.2,0.2,2.4,0.7,3.5c0.5,1.1,1.6,2,2.8,2c0.3,0,0.5,0,0.7-0.1
	c1.3-0.2,2.5-0.3,3.8-0.5c0.6,0.4,0.2,1.5-0.3,2c-1.6,1.5-4.1,2-6.2,1.3c-2.1-0.7-3.7-2.7-4-4.9C171.9,90.7,172.1,89.5,172.8,88.6"
	/>
<path fill="#99D346" d="M246.6,63.4c-1,1.2-1.9,2.5-3.2,3.4c-1.3,1-2.9,1.5-4.4,1.2c-2.9-0.5-4.3-4-4-6.9c2.1,0.2,2.6,3.5,4.7,3.8
	c0.9,0.1,1.8-0.4,2.4-1c0.7-0.6,1.3-1.3,2.2-1.6C245.2,62.1,246.4,62.5,246.6,63.4"/>
<path fill="#4A7500" d="M243.7,36.5c-1.2,0.4-2.4,0.7-3.7,0.5c-1.5-0.3-2.6-1.4-3.7-2.4c-0.8-0.7-1.7-1.9-1.2-2.9
	c0.9-0.5,2-0.3,2.7,0.4c1.8,1.7,4.7,2.1,6.9,1c0.8-0.4,1.7-0.8,2.6-0.8c0.9,0,1.9,0.3,2.3,1.1C247.8,34.7,245.8,35.8,243.7,36.5"/>
<path fill="#99D346" d="M344.1,16.3c1.7,1.8,4.1,3.8,6.4,2.9c0.8-0.4,1-1.5,1.3-2.3c0.3-0.9,1.4-1.7,2-1.1c0.2,1.7,0.4,3.6-0.5,5.1
	c-1,1.5-3,2.1-4.7,1.7s-3.2-1.4-4.5-2.7c-0.9-1-1.7-2.5-0.9-3.6C343.5,16.3,343.8,16.3,344.1,16.3"/>
<path fill="#99D346" d="M138,65.8c1-0.4,2.2-0.2,3.1,0.5c0.5,0.5-0.2,1.3-0.9,1.7c-1.9,1.1-4.1,2.1-6.2,1.4c-2-0.7-3.1-2.8-3.8-4.8
	c-0.4-1.1-0.7-2.2-0.3-3.3c0.4-1,2-1.6,2.6-0.7c0.2,1.9,0.7,3.8,1.5,5.6C135.4,66.4,136.7,66.3,138,65.8"/>
<path fill="#99D346" d="M73.3,65.1c-0.5-0.3-1-0.7-1.6-0.7c-1.5-2.2-3-5-1.7-7.2c0.5-0.8,1.9-0.3,2.2,0.6c0.3,0.9,0.2,1.9,0.5,2.9
	c0.7,1.7,3,2.2,4.8,1.8c0.8-0.2,1.6-0.5,2.4-0.4c0.8,0.1,1.6,0.7,1.5,1.5C79,65,76,66.4,73.3,65.1"/>
<path fill="#5FAA07" d="M64.3,100.3c-2.7,0.7-5.5,1.5-8.2,0.7c-2.2-0.7-4.6-0.7-6.9-0.1c-1.1,0.3-2.3-0.7-2.2-1.9
	c2.3-0.4,4.7-0.5,7-0.4c0.9,0,1.7,0.1,2.6,0.2c2.5,0.2,5,0.4,7.5,0.7C64.2,99.7,64.2,99.9,64.3,100.3"/>
<path fill="#5FAA07" d="M137.3,36c-1.6,0.4-3.1,1.1-4.7,1.5c-1.6,0.4-3.3,0.4-4.7-0.5c-1.1-0.7-1.8-1.9-2.2-3.2
	c-0.5-1.3-0.7-2.8-0.7-4.2c0-0.4,0.1-0.8,0.4-1c0.5-0.2,1,0.2,1.3,0.7c0.8,1.3,1.5,2.7,1.9,4.2c0.3,1,1.5,1.5,2.6,1.5
	c1.1-0.1,2.1-0.5,3.1-0.8c0.7-0.2,1.5-0.2,2.1,0.1C137.1,34.6,137.5,35.3,137.3,36"/>
<path fill="#99D346" d="M325,35.6c0.7,1.2,1.5,2.4,2.7,3.2c1.2,0.8,2.9,0.8,3.9-0.2c0.6-0.7,0.7-1.6,1.1-2.5s0.9-1.8,1.8-1.9
	c1.4,2.6,0.1,6.3-2.6,7.5c-2.7,1.2-6.3-0.3-7.3-3.1c-0.3-0.8-0.6-1.7-1-2.5C324,36,324.5,35.8,325,35.6"/>
<path fill="#4A7500" d="M359.7,48.2c1.6,1.1,3.5,1.5,5.4,1.2c0.8-0.4,1-1.5,0.9-2.4c0-0.9-0.3-1.8,0-2.7c0.2-0.8,1.3-1.6,2.1-1.1
	c0.4,0.3,0.6,0.8,0.7,1.3c0.4,1.8,0.5,3.8-0.4,5.4c-1.2,1.9-3.7,2.6-5.9,2.2c-2.2-0.3-4.2-1.5-6.2-2.5c0.8-0.4,1.6-0.9,2.4-1.3
	C359,48.2,359.4,48,359.7,48.2"/>
<path fill="#99D346" d="M252.8,110.5c0.8-0.7,2-0.1,2.6,0.8s1,1.9,1.7,2.6c1,0.8,2.4,0.7,3.5,0.1c1.1-0.6,1.8-1.7,2.2-2.8
	c0.4-1,2.1-1.1,2.6-0.1c-0.8,1.7-1,3.8-2.5,5.1c-1.4,1.2-3.4,1.2-5.2,1.1c-1.5-0.1-2.8-1.2-3.6-2.4
	C253.4,113.5,253.1,112,252.8,110.5"/>
<path fill="#99D346" d="M125.9,43.1c-0.1,0.3-0.1,0.6-0.1,0.9c-0.2,0.1-0.5,0-0.7-0.2c-0.8-0.4-1.7-0.5-2.6-0.6
	c-2.1-0.2-4.2-0.4-6.3-0.7c2.5-1.5,5.8-1.7,8.6-0.7c3.3-0.9,7-0.4,9.9,1.3c0.2,0.5-0.5,0.8-1.1,0.7c-0.5-0.1-1.1-0.4-1.5-0.1
	c-0.3,0.3-0.9,0.3-1.3,0.3c-1.4-0.1-2.7-0.1-4.1-0.1C126.6,43.5,126.3,43.1,125.9,43.1"/>
<path fill="#4A7500" d="M278,26.6c2.4-0.6,4.8-1.1,7.3-1.4c3.9-0.6,7.9-0.9,11.9-1c1.1,0,2.1,0,3.1,0.3c-2.4,1.3-5.3,1-8.1,1
	c-2.6,0-5.3,0.5-7.8,1.3C282.3,27.4,279.6,28.2,278,26.6"/>
<path fill="#4A7500" d="M288.8,38.4c1,1.8,3.8,2.2,5.2,0.7c0.5-1.8,1.7-3.4,3.2-4.4c1.3,3-0.5,6.9-3.5,8c-3.1,1.1-6.9-0.9-7.7-4
	c-0.4,0.1-0.9,0.4-1.1,0.7c-0.1-0.4-0.8-0.4-1,0c-0.3,0-0.1-0.4,0.1-0.6c0.7-0.5,1.5-1.1,2.4-1.3C287.2,37.3,288.3,37.6,288.8,38.4"
	/>
<path fill="#4A7500" d="M51.7,40.1c-1.2,1-2.3,2-3.8,2.4c-0.7,0.2-1.4,0.3-2.2,0.2c-1.9-0.2-3.6-1.4-4.8-3c-0.7-0.8-1.2-1.8-1.3-2.9
	c0-1.1,0.5-2.2,1.5-2.6c1.1,0.8,1.3,2.4,2.1,3.5c1.4,2,4.5,2.4,6.3,0.8c0.7-0.6,1.5-1.3,2.4-1.5c0.9-0.3,2-0.2,2.6,0.5
	C53.6,38.4,52.6,39.2,51.7,40.1"/>
<path fill="#5FAA07" d="M38.4,77.6c-1.6,0.1-3.3,0.5-4.6-0.3c-1.1-0.6-1.7-2-2.1-3.2c-0.4-1.3-0.7-2.6-1.6-3.6s-2.5-1.4-3.5-0.5
	c1.1,0.7,1.5,2.1,1.8,3.3c0.7,2.6,1.6,5.6,4.1,6.8c1.2,0.5,2.5,0.5,3.8,0.5c1.1,0,2.3,0,3.4,0c1,0,2.1-0.1,2.6-0.9
	C41.9,78,40,77.5,38.4,77.6z"/>
<path fill="#4A7500" d="M298.1,80.9c1.2-0.4,1.5-1.8,1.9-3c0.4-1.2,1.9-2.3,2.7-1.5c0.1,1.8-0.3,3.7-1.3,5.3
	c-0.6,1.1-1.6,2.1-2.9,2.4c-1.5,0.4-3.1-0.3-4.3-1.3c-1.2-1-2.2-2.2-3.4-3.2c-0.8,0.9-2,1.5-3.3,1.4c-0.4,0-0.8-0.1-1-0.5
	c-0.2-0.5,0.4-1,1-1.2c2-0.9,4.3-1.7,6.2-0.6C295.3,79.6,296.5,81.5,298.1,80.9"/>
<path fill="#99D346" d="M334.8,74c2.4-2.7,6.3-3.9,9.8-3.2c-3.4,1.8-6.8,3.5-10.1,5.3c-1.3,0.7-2.7,1.4-3.5,2.7
	c-1,1.5-3.6,0.4-4.9,1.6c-0.3,0.3-0.7-0.2-0.7-0.5c0.1-0.4,0.4-0.6,0.7-0.8C329,77.2,332.6,76.5,334.8,74"/>
<path fill="#5FAA07" d="M312.8,56c1.2,0,2.3-0.5,3.4-1.1c4.5-2.1,9.4-3.7,14.3-4.7c-2.2,1.9-4.9,3.3-7.7,4.1
	c-2.4,0.7-4.5,2.3-6.8,3.5c-2.3,1.2-5.1,1.8-7.3,0.6C309.6,56.9,311.2,56,312.8,56"/>
<path fill="#4A7500" d="M303.4,105.9c0.3,0.2,0.3,0.7,0.1,1c-0.3,0.3-0.6,0.4-1,0.6c-1.8,1-2.9,2.9-4.5,4.1c-1.3,1-2.9,1.4-4.4,1.8
	c-2.2,0.6-4.4,1.3-6.7,2c-1.2,0.3-2.5,0.7-3.6,0.1c0.7-0.3,1.3-0.9,2-1.4c2-1.4,4.6-1.6,7-2.1s5-1.4,6.2-3.5c1,0.5,2.2-0.9,1.7-1.9
	C301.3,106.7,302.4,106.5,303.4,105.9"/>
<path fill="#4A7500" d="M193.9,33c1,0,2-0.1,3-0.1c0.4,1,0.7,2,1.4,2.7c0.7,0.8,1.8,1.3,2.8,0.9c1.5-0.5,1.9-2.3,3-3.4
	c1.8-1.2,4-1.6,6.1-1.8c1.4-0.2,3.2,0,3.6,1.3c-2.1,0.3-4.2,0.7-6.3,1.1c-1,0.1-2.1,0.5-2.4,1.4c-0.4,1.5-1.3,2.9-2.5,3.7
	s-3,1.1-4.3,0.4c-1.4-0.7-2.1-2.2-2.7-3.6c-0.2-0.5-0.5-1.1-0.7-1.6C194.5,33.6,194.2,33.3,193.9,33"/>
<path fill="#99D346" d="M202.4,119.2c1.8-1,3.7-1.8,5.7-2.2c1.8-0.4,3.7,0.2,5.5,0.8c-3.4,0.2-6.6,1.6-9.2,3.7
	c-2,1.7-5.2,0.7-6.9-1.3c-1.7-2-2.2-4.7-3.1-7.1c0.6-0.7,1.6-1,2.5-0.7c0.6,2,1.3,4.1,2.6,5.8C200.3,119,201.5,119.7,202.4,119.2"/>
<path fill="#4A7500" d="M346.6,85c-2,1.4-4.3,2.3-6.7,2.5c-0.8,0.1-1.8,0.3-1.8,1.1c0.1,1.8,0,3.6-0.8,5.1c-0.8,1.6-2.4,2.8-4.1,2.8
	c-0.8,0-1.6-0.3-2.3-0.7c-1.3-0.7-2.2-1.9-2.8-3.3c-0.3-0.7,0.5-1.4,1.3-1.3c0.7,0.1,1.3,0.6,1.9,1.1c0.6,0.5,1.2,1,2,0.9
	c1-0.1,1.6-1.2,1.8-2.1c0.2-1,0.3-2,0.8-2.9c0.6-0.8,1.6-1.2,2.5-1.5c2-0.7,3.9-1.3,5.9-1.9C345.1,84.6,345.9,84.6,346.6,85"/>
<path fill="#99D346" d="M251.3,90.8c-0.2-1,1.1-1.6,2.1-1.7c3-0.5,6.1-1,9.1-1.5c1.8-0.3,3.6-0.6,5.4-0.9c0.4-0.1,0.7-0.1,1.1-0.2
	c2.8-0.4,5.6-0.9,8.4-1.4c0.4-0.1,1,0.1,0.9,0.5c0,0.2-0.3,0.3-0.4,0.4c-2.5,1-4.9,1.9-7.4,2.9c-2.2,0.9-4.6,1.8-7,1.6
	c-1.9-0.2-3.8-1-5.7-0.5C255.7,90.5,253.4,90.8,251.3,90.8"/>
<path fill="#4A7500" d="M374.8,59.8c-0.1,1.8-2,3-3.1,4.5c-0.7,1.1-1.1,2.4-1,3.6c0.1,1.6,0.9,3.1,0.7,4.7c-0.4,2.7-3.8,4-6.4,3.4
	c-2.2-0.5-4.2-2-5.3-4c2.1-0.1,4.2,0.3,6.1,1.3c0.7,0.3,1.5,0,2-0.5c0.5-0.6,0.7-1.3,0.9-2c-0.6-0.4-0.6-1.4-0.3-2s0.7-1.5,0.5-2.2
	C371.4,64.8,371.8,60.6,374.8,59.8"/>
<path fill="#4A7500" d="M233,42.2c4.3-1,8.6-1.9,12.9-2.8c0.9-0.2,1.9-0.5,2.2-1.4c3.6,0.2,7.3,0.3,10.7-0.6c1-0.2,2-0.5,3-0.5
	c1,0.1,2.1,0.6,2.4,1.5c-3.3,0.5-6.5,1.1-9.8,1.6c-1.8,0.3-3.6,0.6-5.4,0.1c-0.7-0.2-1.5,0.1-2.1,0.3c-4.6,1.5-9.4,2.5-14.3,2.9
	c-1,0.1-2,0.1-3,0.5c-0.7,0.2-1.3,0.6-2,0.7c-1.5,0.4-3.1-0.2-4.5-0.7C226.5,43.6,229.8,42.9,233,42.2"/>
<path fill="#4A7500" d="M330.8,23.2c0.5,0,1.1-0.1,1.5,0.2c0.5,0.3,0.7,1,0.3,1.3c-4.1,0.6-8.1,1.8-11.9,3.5
	c-1.2-0.9-2.8-0.7-4.3-0.4c-1.7,0.3-3.4,0.6-5.1,1c-2,0.4-4,0.8-5.9,1.4c-2.7,0.9-5.5,1.3-8.2,1.7c-1.8,0.3-3.6,0.5-5.4,0.8
	c-0.5-0.9,0.8-1.7,1.9-1.9c2.6-0.5,5.1-1.1,7.7-1.6c3.5-0.7,7-1.4,10.5-2c2.3-0.3,4.7-0.6,7-0.5c1.6,0,3.5,0.2,4.6-1
	C325.3,23.7,328.2,23.4,330.8,23.2"/>
<path fill="#5FAA07" d="M288.5,64.6c-2.5,0.9-5.1,1.8-7.8,2c-1.1,0.1-2,0.8-2.9,1.3c-2.2,1.2-4.7,1.4-7.2,1.7
	c-2.9,0.3-5.7,0.6-8.5,0.8c3.7-2.5,8.5-2.9,13-3.4c0.9-0.1,1.8-0.2,2.6-0.6c1.3-0.6,2.5-1.9,4-1.6c1.1,0.2,2.1-0.4,3.1-0.9
	c2.9-1.5,6.2-2.3,9.5-2.2c3,0.1,5.9-1.2,7.9-3.5c0,0.6-0.1,1.2-0.1,1.8c-0.4,0-0.8,0-1.2,0.1c-0.3,2.6-4,4-5.9,2.2
	C292.9,63,290.7,63.8,288.5,64.6"/>
<path fill="#4A7500" d="M261.5,77c-3.6,0.6-7.6,2.2-10.7,0.3c10.3-3.5,21.5-2.9,32.3-4.7c9-1.5,17.7-4.6,26.3-7.7
	c5.5-2,11.1-4,15.8-7.5c1.1-0.7,2.4-1.6,3.5-1c-7.5,6.8-17.6,9.6-26.7,13.9c-9.3,4.3-19.5,6.6-29.8,6.4
	C268.6,76.7,265,76.4,261.5,77"/>
<path fill="#4A7500" d="M234.7,76.1c4.6-0.6,9.3-0.5,13.9,0.2c-8.6,1-17.2,2-25.8,3c-8.1,1-16.2,1.1-24.4,1.3
	c-12.1,0.2-24.2,0.5-36.4,0.2c-23.4-0.7-46.6-3.5-69.7-7c-3.7-0.5-7.8-1.3-10.2-4.2c17.7,2.2,35.4,4.4,53.2,6.6
	c3.7,0.4,7.4,0.9,11,1.2c11.3,1,22.7,0.9,34,0.8c5.5,0,11.1-0.1,16.6-0.2C209.6,77.8,222.2,77.7,234.7,76.1"/>
<path fill="#4A7500" d="M197.8,107.3c-5-0.2-10-0.3-15-0.5c-15.3-0.5-30.6-0.9-45.9-1.9c-3.2-0.2-6,2-9,3.2c-3,1.2-7.4,0.6-8-2.5
	c-0.2-1.2-1.5-1.7-2.6-2.1c-18.2-6-37.4-9-56.5-8.8c-1-0.9,1-2.1,2.3-2.1c4.2,0.1,8.5,0.2,12.7,0.3c-1,0-1.1-1.6-0.2-2.1
	c0.8-0.5,1.9-0.2,2.8,0c28.6,8.8,58.7,13,88.7,12.5c5.4-0.1,10.8-0.3,16.2-0.2c4.7,0.2,9.4,0.6,14.2,1.1c32.2,2.6,64.9,0,96.3-7.5
	c5.6-1.4,11.3-2.9,16.2-6c4-2.5,8.3-6.1,12.7-4.5c-6.2,1.4-10.9,6.4-16.4,9.5c-5.9,3.4-12.7,4.6-19.4,5.6c-21,3.4-42.2,6.1-63.4,6.4
	C215.1,107.9,206.4,107.6,197.8,107.3 M126,102.6c-1.5,0-3.1,0.4-4.4,1.1c0.5,0.7,1.1,1.4,1.6,2.1c1.7,0,3.4,0,5.1-0.1
	c1-0.2,1.1-1.6,0.4-2.3C128.1,102.7,127,102.6,126,102.6"/>
<path fill="#97D357" d="M20,40.5"/>
<path fill="#739E30" d="M17.6,91.5c2.3,3.5,5,6.7,8.3,9.4c3.3,2.7,7,5,11.1,6.3c2.1,0.7,4.2,0.8,6.2,0.9c4.8,2.9,10.3,3.7,15.9,3.9
	c1.3,0,2.6,0,4,0.1c-13-3.7-25.4-9.9-37.9-16.7C23,94.3,20.4,92.2,17.6,91.5z"/>
<path fill="#579318" d="M392.2,37.9c-0.8-0.9-1.7-1.7-2.4-2.6c-1,0-2,0.1-2.9,0.1c1.5,2.8,3.9,5.2,5.5,7.9c4,6.9,2.8,15.6,0.3,23.1
	c-8.5,25.5-32,45.3-58.6,49.4c-2.3,0.3-3.6,2.8-5.2,4.5c-5.2,5.4-14.1,3-21.6,3.2c-11.2,0.3-21,7.4-32.1,9.3
	c-16.9,3-34.7-6.4-51.1-1.4c-3.1,1-6.1,2.4-9.4,2.8c-3.4,0.4-6.8-0.5-10.1-1.3c-13.2-3-26.8-4.3-40.4-3.8c-6.3,0.2-12.8,0.8-18.8-1
	c-5.7-1.7-10.6-5.3-16.1-7.7c-10.4-4.7-22.6-4.9-33.2-0.7c-12,4.9-23.7-9.3-36.6-9.4c-16.2-0.1-32.2-8.1-42.1-20.9
	c-9.9-12.8-13.5-30.3-9.5-46c2.3-9.2,8.2-18.6,17.6-20.8c6.5-1.5,13.2-2.3,19.9-2.4c-2.7-0.8-5.4-1.8-8-2.9
	c-0.3-0.1-0.6-0.2-0.9-0.4c-2.5,0.3-5,0.7-7.5,1.4c-8,2.2-15.7,7-20.2,13.9c-1,1.6-1.9,3.3-2.6,5.1c-0.2,0.4-0.3,0.9-0.5,1.3
	C0.1,55.5,3,74.8,13.2,89.2c10.1,14.4,27.3,23.7,45,24.2c13.7,0.4,26.2,14.8,38.8,9.6c8.1-3.3,26.6-2.2,34.1,1.9
	c4,2.2,7.7,5.1,12.1,6.6c5.1,1.7,10.5,1.1,15.8,0.8c15.3-0.8,30.8,0.6,45.7,4.1c3.2,0.7,6.4,1.6,9.7,1.3c3.7-0.3,7-2.1,10.5-3.2
	c16.9-5.3,35.4,4.6,52.9,1.2c9.6-1.9,18.2-7.8,28-8.7c8.3-0.8,17.9,1.8,24.3-3.6c2.1-1.7,3.8-4.2,6.4-4.7
	c26.5-5,49.6-24.8,58.6-50.2C398.7,58.3,399.6,45.7,392.2,37.9z"/>
</svg>
