<?xml version="1.0" encoding="utf-8"?>
<!-- Generator: Adobe Illustrator 21.0.2, SVG Export Plug-In . SVG Version: 6.00 Build 0)  -->
<svg version="1.1" id="Layer_1" xmlns="http://www.w3.org/2000/svg" xmlns:xlink="http://www.w3.org/1999/xlink" x="0px" y="0px"
	 width="325.1px" height="231.6px" viewBox="0 0 325.1 231.6" enable-background="new 0 0 325.1 231.6" xml:space="preserve">
<path fill="#26750C" d="M311.3,72.1c6.9-9.5,12.5-19.8,11.8-31.8c-1-15.5-11.3-28.6-25.5-33.1c-2.2-1.5-4.4-3.1-6.9-4
	c-4.6-1.7-9.5-1.3-14.3-0.9c-0.7,0.1-1.5,0.1-2.2,0.2c-3.7-0.3-7.4,0.2-11,1c-0.7-0.3-1.5-0.4-2.3-0.4c-3.3,0.3-6.6,0.6-9.8,1
	c-1.6,0.2-3.1,0.9-4.2,2c-1-0.3-2.2-0.3-3.6,0.2c-25,8-49.4,17.7-73.1,29c-9.8,1.6-18.8,6.2-27.6,10.9c-1.5-0.5-3.2-0.4-4.8,0.5
	c-4.9,2.6-9.7,5.4-14.4,8.3c-2.5,0.9-5,1.7-7.4,2.6c-4.8,1.9-9.1,4-12.9,7.1c-0.9,0-1.9,0.2-2.8,0.7c-25.9,12.6-50.8,29.8-70.5,51.4
	c-19.2,21-32.5,49.1-25.9,78.4c0.4,1.6,1.1,2.8,2.1,3.6C9.8,210,21,217.8,31.8,223c0.7,2.6,3,4.5,6.1,4.8c2.9,0.3,5.9,0.5,8.8,0.7
	c1.5,2.3,3.9,3.3,7,2.8c6.1-1.1,12.3-2.2,18.4-3.3c1.2-0.2,2.1-0.8,2.9-1.5c1.7,0.1,3.5-0.3,5-1.5c1.9-1.5,3.7-3,5.5-4.6
	c20.9-6.5,43.7-11.4,61.1-25.5c0.2-0.1,0.3-0.3,0.5-0.4c1.1-0.6,1.7-0.4,3.5-0.6c2.2-0.3,4.1-1.8,5.9-2.9c3.5-2.1,7.1-4.2,10.6-6.3
	c7.7-4.5,15.4-9.1,23-13.6c15.3-9.1,30.6-18.1,45.7-27.4c15-9.2,29.9-18.6,44.3-28.8c11.8-8.3,23.3-17.5,28-31.9
	C309.9,79.4,310.9,75.8,311.3,72.1z"/>
<path fill="#73D335" d="M182.5,167.8c-7,5-13,9-19,11c-12,4-22,9-33,13c-6,2-13,1-18,5c-20,14.6-42.5,20.8-61.5,33.9
	c1,0.3,2.1,0.3,3.3,0.1c6.1-1.1,12.3-2.2,18.4-3.3c1.2-0.2,2.1-0.8,2.9-1.5c1.7,0.1,3.5-0.3,5-1.5c1.9-1.5,3.7-3,5.5-4.6
	c20.9-6.5,43.7-11.4,61.1-25.5c0.2-0.1,0.3-0.3,0.5-0.4c1.1-0.6,1.7-0.4,3.5-0.6c2.2-0.3,4.1-1.8,5.9-2.9c3.5-2.1,7.1-4.2,10.6-6.3
	c7.7-4.5,15.4-9.1,23-13.6c15.3-9.1,30.6-18.1,45.7-27.4c15-9.2,29.9-18.6,44.3-28.8c11.8-8.3,23.3-17.5,28-31.9
	c0.6-1.1,1-2.1,1.4-3.2c-13.1,8.9-23,22.2-37.7,27.6C237.5,118.8,211.5,145.8,182.5,167.8z"/>
<path fill="#73D335" d="M161.5,90.8c-2,2-4,5-7,6c-9,3-18,6-27,5c-21-1-29,30-45,40c-19,12-43,13-59,27
	c-9.9,9.1-10.3,23.7-12.4,37.5c5.3,7,13.4,12.3,21.3,16.1c0.7,2.6,3,4.5,6.1,4.8c2.9,0.3,5.9,0.5,8.8,0.7c0.9,1.4,2.1,2.3,3.6,2.7
	c19-13.1,41.5-19.3,61.5-33.9c5-4,12-3,18-5c11-4,21-9,33-13c6-2,12-6,19-11c29-22,55-49,90-61c14.7-5.4,24.7-18.7,37.7-27.6
	c0.9-2.5,1.5-5,1.8-7.6c6.9-9.5,12.5-19.8,11.8-31.8c-0.3-5.4-1.8-10.5-4.2-15c-3.4,1.9-6.6,4.3-11.1,3.1c-16-4-31-11-48-8
	c-9,1-18,4-24,10c-19,18-33,37-53,54"/>
<path fill="#72B746" d="M15.5,195.8c4-2,8-2,12-3c7-3,10-10,17-13c11-3,23-4,34-10c13-8,18-23,30-33c18-16,13-55,45-55
	c36,0,67-19,98-37c8-5,18-5,25-10c10.4-6.4,14.4-20.5,24.3-26.9c-1.4-0.6-2.8-1.2-4.2-1.7c-0.4-0.3-0.8-0.6-1.3-0.9
	c-13.9,3.1-27.9,7.1-42.6,7.1c-13-1-27,5-36,15c-25,29-63,33-97,44c-31,10-46,40-68,62c-8,8-20,14-32,19c-17.6,8-16.6,28.1-14.5,46
	c0.7,1.8,1.6,3.5,2.6,5.1C9.3,200.4,11.7,197.7,15.5,195.8z"/>
<g>
	<path fill="#5EAA31" d="M105.5,199.8c6-3,10-8,16-11c2-1,4,1,6,0c9-6,15-15,24-19c14-5,28-8,41-16c28-19,51-37,80-52
		c20-11,37-30,49-52c0.4-0.9,1-1.6,1.7-2.3c0.5-2.8,0.8-5.8,0.6-8.8c-0.3-5.4-1.8-10.5-4.2-15c-3.4,1.9-6.6,4.3-11.1,3.1
		c-16-4-31-11-48-8c-9,1-18,4-24,10c-19,18-33,37-53,54c-5,5-15,4-22,7c-2,2-4,5-7,6c-9,3-18,6-27,5c-21-1-29,30-45,40
		c-19,12-43,13-59,27c-9.9,9.1-10.3,23.7-12.4,37.5c5.3,7,13.4,12.3,21.3,16.1c0.7,2.4,2.7,4.2,5.5,4.7
		C51.7,205,82.5,208.6,105.5,199.8z"/>
	<path fill="#126606" d="M71.4,166.6c0.2,1.2-0.6,2.3-1.4,3.2c-3.7,4.3-7.4,8.6-11.1,12.9c1.4,0.3,2.9,0.3,4.4,0
		c-2,2-3.8,4.2-5.4,6.6c-0.8,0.1-1.7,0.1-2.5,0.2c1-1.2,1.5-2.9,1.4-4.5c-2.2,0.4-4,2.6-4,5c0-0.9,1.6-0.6,1.7,0.3
		c0,0.9-0.8,1.6-1.4,2.1c-2.6,1.9-5.2,3.8-7.7,5.7c1.2,1.4,3.6,0.7,5.2-0.2c5-2.7,10-5.4,15-8.1c5.1-2.8,10.3-5.5,15-8.9
		c4.4-3.1,8.5-6.6,12.6-10.2c1.2,1,1.7,2.8,1.2,4.3c-2.6,0.4-4,3.5-4.2,6.2c-0.1,2.7,0.3,5.6-0.9,8.1c0.8,0.1,1.5,0.1,2.3,0.2
		c-6.8,6.1-14.1,11.6-21.7,16.6c-0.8,0.5-1.7,1.1-2.7,1.2c-2.3,0.2-4.1-2-5.4-4c-2.5,1.9-4.4,4.5-5.4,7.6c-2.5-3.5,0.4-9.3,4.5-9.4
		c-0.2-0.9-0.4-1.8-0.6-2.7c0.9-1.7,3.2-2.5,5-1.8c-0.9,2.1-1.2,5.5,1,6c1,0.2,1.9-0.4,2.8-0.9c2.7-1.7,5.5-3.4,8.2-5.1
		c3.1-2,6.4-4,8.4-7.1s2.8-7.5,0.6-10.6c-3.9,4.4-8.6,8.1-13.9,10.7c-3.4,1.7-7,2.9-10.3,4.9c-3.2,2-6.2,5-7.1,8.7
		c-0.9-1.2-1.1-2.8-0.6-4.1c-4.3,1.3-7.7,5.4-8.3,9.9c2.6-1.9,5.3-3.6,8.1-5.1c-0.9,3.2-3.3,5.8-6.3,6.9c0.4,1.5,0.3,3.1-0.1,4.6
		c-0.9-0.8-1.5-1.8-1.8-3c-2.2,3.8-7.2,5.3-11,3.4c0.8-0.8,0.4-2.5-0.6-2.9c0,0.8-1.3,0.4-2.1,0.6c-1.2,0.4-0.6,2.2,0.3,3
		c0.9,0.8,2,2,1.3,3.1c-2.6-1.1-5.2-2.3-7.8-3.4c1.6-1.2,3.2-2.4,4.9-3.6c2.1,1.1,3.4-4.1,5.7-3.4c2.4,0.7,5.1-0.2,6.6-2.3
		c1.5-2,1.6-5,0.2-7.1c-0.8,2.4-3.5,3.3-5.6,4.4c-2.2,1.2-4.3,3.8-2.9,5.9c-1-0.4-1.9-0.8-2.9-1.3c-0.3-2.5,0.4-5.1,1.9-7.1
		c-1.3,0.1-2.6,0.3-3.9,0.5c1.8-0.9,3.3-2.5,4.1-4.4c0.3-0.9-0.5-2-1.4-2c-2.1,2.7-4.2,5.5-6.3,8.2c-1.5,2-3.5,4.2-6,4.1
		c-1.9-0.1-3.4-1.6-4.7-3c-3.3-3.5-6.6-7.8-5.8-12.6c0.2-1.2,0.6-2.5,0.5-3.7c-0.1-1.3-1.1-2.6-2.3-2.4c0.6-1.7,1.3-3.3,1.9-5
		c-0.8,0.1-1.7-0.4-2.1-1.2c3.1-4.2,6.2-8.4,9.3-12.6c1.3-1.7,2.6-3.9,1.8-5.9c-3.1,0.5-7,1.9-7.2,5.1c-0.2,4.6-2.8,9.1-6.6,11.5
		c-0.6-2.2-0.8-4.6-0.5-6.9c0.5,1.4,2.7,0.9,3.3-0.4c0.6-1.3,0.3-2.9,0.3-4.4c-0.1-2.1,0.5-4.2,1.6-5.9c0.7-1.2,1.8-2.3,3.2-2.3
		c1.3,0,2.6,1.7,1.8,2.8c3.9-4.3,7.6-8.9,11-13.6c0.5-0.8,0.5-1.8,0.6-2.7c0.1-3.1,0.4-6.4,2-9c1.5-2.7,4.6-4.7,7.6-4.1
		c-2.4,3.7-4.9,7.5-7.3,11.3c-0.7,1.1-0.9,3.2,0.4,3.1c2.4-1.9,4.6-4.2,6.5-6.7c-0.4,6.8-4.8,13.2-10.9,15.8
		c-1.6,2.8-1.5,6.3-1.8,9.6c-0.3,3.2-1.6,6.9-4.6,8c3.2-0.8,5.8-3.6,6.6-6.9c0.7-3.2,0.3-7.5,3.2-8.7c4.9-1.9,8.6-6.5,9.6-11.7
		c1-5.1-0.6-10.9,1.9-15.4c1.3-2.3,3.6-4.6,2.8-7.2c-0.9-2.8,0.5-5.8,2.4-8c2.6-3.1,6.4-5.1,10.4-5.6c-0.6,1.3-1.3,2.5-1.9,3.8
		c-2.8,0-5.5,1.7-6.9,4.2c-1.4,2.5-1.3,5.8,0.2,8.3c0.8-2,1.5-4.1,2.3-6.1c0.5-1.3,1-2.7,2.1-3.7c1.1-1.1,2.6-1.4,4-2.2
		c1.3-0.7,2.6-2.1,2.3-3.7c-0.6,0.2-1.4,0-1.9-0.5c8.4-8.8,17.6-16.6,27.6-23.4c-1-1.7-3.5-0.8-5.1,0.2c-3.4,2.1-6.8,4.3-10.2,6.4
		c-2.1,1.3-4.5,3.3-4,5.8c-1.6-0.4-2.2-2.6-1.5-4.1c0.6-1.5,2.1-2.5,3.5-3.4c8.5-5.5,16.9-10.9,25.4-16.4c0.9-0.6,2.4-0.8,2.5,0.2
		c-1.7,0.9-2.4,3.5-1.2,5.1c-0.9,1.2-2.1,2.1-3.3,2.9c-0.3-0.9-0.6-1.9-0.9-2.8c-2.8,0.4-4.7,3.9-3.7,6.6c3.9-1.9,7.7-3.8,11.6-5.7
		c-0.4-0.5-0.8-1-1.1-1.5c5.2-9.4,14.7-16,25.1-17.7c-3.9,2.2-7.3,5.1-10.8,8c-1.5,1.2-3.1,2.7-3.1,4.6c0,3.2-3,5.3-5.7,6.8
		c-3.3,1.9-6.6,3.9-9.9,5.8c-5.6,3.2-11.4,6.9-14.2,12.8c-0.6-0.3-1.2-0.6-1.8-0.9c0.8-0.7,1-2,0.5-2.9c-4.9,3.7-9.4,7.9-13.6,12.4
		c-0.9,0.9-1.6,2.7-0.5,3.3c2.2-1.2,4.2-2.9,5.9-4.8c0.2,1,0.3,2,0.5,3c0.9-0.1,1.8,0.2,2.4,0.9c-6.2,4.3-12,9-17.5,14.2
		c-0.4-2.2,0.9-4.6,3-5.3c-0.5-0.8-1.3-1.4-2.2-1.7c-2.7,3.3-4.1,7.6-3.9,11.8c-0.7-1.3-2.5-2-3.8-1.4c1.8,2.8,0.1,7.2-3,8.1
		c-1.1,0.3-2.4,0.2-3.3,1c2.4,2.5,3.1,6.5,1.8,9.7c-1.1,2.8-1,6,0.2,8.8c1.8,2.1,0.4,5.4-0.9,8c-1.2,2.5-2,6.2,0.3,7.7
		c0.5-3.6,2.1-8.2,5.7-8.3c0.3,6.5-4.7,12.9-11,13.9c0.1-2.1,1.1-4.2,2.7-5.5c-1.1-0.6-2.1-1.1-3.2-1.6c-0.9,3.3-2.7,6.3-5.1,8.6
		c0.9,0.7,1.7,1.3,2.6,2c0.8-1.4,2.2-2.5,3.7-3.1c0.5,0.5,0.9,1.2,0.8,2c2-2.5,5.2-3.9,8.4-3.8c0.7-2.6,1.4-5.2,3.1-7.1
		c1.7-2,4.6-3.1,6.9-1.9c1,1.3,1.3,3.2,0.6,4.7c-0.8,1.7,2.4,2.9,3.6,1.4c1.2-1.4,0.8-3.6,0.4-5.5c-0.4-1.9-0.6-4.1,0.7-5.3
		c1.3-1.2,3.9-1.9,3.2-3.5c-4.5,2.8-9.7,4.6-15,5c-2.3,0.2-3.2-3.1-3.2-5.5c0-2.4-1-5.7-3.3-5.4c0.2-3.3,2.9-6.3,6.1-6.7
		c0-0.7-0.1-1.3-0.1-2c-1.1-0.2-2.2-0.4-3.2-0.6c0.6,0.1,1.2-0.9,0.8-1.4c4.5,1.4,9.8-2,10.6-6.8c0.4-2.7,3-4.2,5.3-5.5
		c5.7-3.2,10.9-7.3,15.5-12c0.1,2.2-1.1,4.3-3,5.3c0.9,0.1,1.7,0.1,2.5,0.2c-0.5,2-2.6,3-4.3,4c-1.7,1.1-3.5,3.1-2.7,5
		c0.4,1-0.5,2.1-1.3,2.8c-5.8,5-11.7,10.1-18.5,13.5c-1.9,1-4.3,2.4-4.3,4.6c2.8,0.8,5.8-0.6,8.2-2.5c2.3-1.9,4.3-4.2,6.9-5.7
		c0.9-0.5,2.2-0.8,2.9-0.1c-3.2,4.3-7,8.1-11.2,11.4c-0.9-0.7-1.4-1.9-1.3-3c-1.7-0.1-2.2,2.4-2.1,4.2c0,0.6,0.1,1.3,0.5,1.7
		c0.7,0.8,1.9,0.5,2.9,0.2c3.9-1.5,7.4-3.7,10.5-6.5c0.9,1.2,2.6,0.1,3.6-1c3.8-4.3,7.5-8.5,11.3-12.8c-0.6-0.2-1.2-0.5-1.8-0.7
		c0.1-2.8,2.5-5.4,5.3-5.5c-3.7,1.9-1.2,8.3-3.9,11.6c-0.5,0.6-1.2,1.1-1.4,1.9c-0.1,0.8,0.9,1.7,1.4,1c-2.3,1.1-4.7,2.4-6.2,4.5
		c-1.5,2.1-1.6,5.5,0.4,7.1c2.6-4.1,6.3-7.5,10.5-9.9c-0.3,1.2,0.9,2.5,2.1,2.4c-0.3-3.7,3.3-6.3,6.5-7.9c3.2-1.5,7-3.2,8-6.8
		c0.4-1.5,2.3-1.8,3.8-1.7c1.5,0.2,3.1,0.6,4.3-0.4c1.2-0.9,1.4-2.6,1.9-4c0.5-1.4,2.4-2.7,3.4-1.6c-0.3,1.4-0.6,2.8-0.9,4.2
		c-0.3,1.5-0.6,3.1-1.6,4.3c-0.9,1.2-2.6,1.9-3.9,1.1c-0.4,0.9-0.9,1.9-1.3,2.8c0-1.1-0.5-2.3-1.4-2.9c-5.7,3.4-11.5,6.9-15.3,12.5
		C83.8,156.9,81.8,164,76,166c2.3-4,4.5-8,6.7-11.9c-4.2,1.9-7.9,5.1-10.4,9.1C71.7,164.3,71.2,165.4,71.4,166.6 M26.6,193.8
		c-0.3-0.9-1.1-1.7-1.9-2.1c-0.3,1.2-0.1,2.6,0.5,3.7c0.5,0.8-1.1,1.9-0.6,2.7c-2.2,0.8-3.7,3.1-3.7,5.5c-1-0.9-1.7-2.1-1.8-3.4
		c-0.8-0.1-1.5-0.7-1.5-1.4c0-0.8,0.9-1.4,1.5-1.1c1.4,0.8,3.4-0.4,3.3-2c-1.5-1.2-3.9-1.9-5.1-0.3c-0.6,0.9-0.6,2.3-1.5,3
		c-0.5,0.4-1.3,0.5-1.5,1.2c-0.1,0.3-0.1,0.6,0,0.8c0.4,1.7,1.6,3.2,3.2,3.8c0.1,0.3,0.2,0.6,0.2,0.8c1.4,1.3,3.5,1.7,5.2,1
		c0.4-1.1,0.9-2.2,1.3-3.3c0-1.3,0.4-2.6,1.2-3.8c1.8-0.7,3.3-2.3,3.8-4.2C28.4,195.3,27,194.8,26.6,193.8 M45.2,178.9
		c-0.2,0.4-0.2,0.9-0.1,1.3c-0.5,0-1-0.2-1.1-0.7c-0.7,2.7-1.2,5.6-1.4,8.5c-1-0.1-1.9,1.2-1.5,2.1c0.7-0.8,2.5,0.9,2.8-0.1
		c0.7-2.5,1.6-5,2.8-7.3c0.3-0.7,0.7-1.3,1.2-1.9c1.4-1.7,2.7-3.3,3.9-5.1c1.3-1.9,2.6-4.4,1.5-6.4c-1.9,0.9-3.5,2.5-4.3,4.5
		c-0.6,1.5-1,3.4-2.4,3.9C46.6,178.4,45.9,179,45.2,178.9 M15.6,195.7c0.9-2.3-1.4-5.1,0-7.1c0.7-1,2.3-1.8,1.8-3
		c0.4,0.2,0.9,0.1,1.2-0.1c-0.9-1.3-1.5-2.7-1.8-4.2c0.3-0.5,1-0.5,1.4-0.1c0.3-0.2,0.3-0.6,0.1-0.9c-0.3-0.6-0.6-1.1-1-1.7
		c-0.2,0.5-0.3,1-0.5,1.5c-0.3-0.2-0.6-0.5-0.9-0.7c-0.5,0.3-0.5,1.1-0.6,1.7c-0.2,0.6-1.3,0.9-1.3,0.2c0.1-0.6-0.5-1.2-1.2-1.1
		c-0.6,0.1-1,0.9-0.7,1.5s0.9,0.7,1.5,0.9c0.6,0.1,1.2,0.3,1.8,0.4c0-0.4,0.3-0.7,0.6-0.8c0.2,0.3,0.3,0.6,0.5,0.9
		c-0.2,0.2-0.5,0.5-0.7,0.7c0.2,0.2,0.4,0.5,0.7,0.7c-3.1,0.6-5.2,4.5-4,7.5c-0.2,0.2-0.3,0.4-0.5,0.6c0.2,0.2,0.4,0.5,0.7,0.7
		c-0.3,0.4-0.6,0.6-1.1,0.6c-0.8,0.9-0.4,2.6,0.8,3.1C13.8,197.6,15.2,196.9,15.6,195.7 M42.4,196.7c1.2-1.6,2.8-2.8,4.6-3.5
		c1.7-0.6,3.3-1.7,4.5-3.2c-1-0.3-0.8-2.5-1.7-2.1c-0.2,0-0.3,0.2-0.4,0.4c-1.2,1.5-2.3,3.1-3.5,4.6c-2.8,0.1-5.5,1.2-7.5,3.2
		c-1,0.9-0.9,2.5-0.8,3.9c0.1,1.4-0.1,3.1-1.3,3.7c1.2-0.2,2.4-0.4,3.3-1c1-0.6,1.7-1.9,1.4-3c0.3-0.2,0.6-0.4,1-0.6
		C41.5,198.2,41.9,197.3,42.4,196.7 M26.6,186.4c0.6-1.6,1.8-3.6,3.5-3.1c-0.3-0.6-0.5-1.2-0.8-1.8c-0.4-0.1-0.8-0.1-1.2-0.2
		c-1.3,2.5-4.1,3.9-6.8,3.7c-0.2-0.7,0.3-1.3,0.6-1.9c1.4-2,2.2-4.4,2.4-6.9c-0.3-0.4-0.9-0.3-1.3,0.1c-0.3,0.4-0.5,0.8-0.8,1.2
		c-0.9,1-2.4,0.8-3.6,0.6c-0.4,0.7,0.6,1.7,1.2,1.2c-0.5,1-0.8,2.2-0.8,3.3c0.4,0.1,0.7,0.3,1.1,0.4c-0.5,0.4-0.2,1.2,0.2,1.7
		c0.4,0.5,1,1.1,0.8,1.7C22.7,187.5,25,187.5,26.6,186.4 M65.9,165.1c0.6-0.7,1.3-1.5,1.6-2.4c0.7-1.5,0.6-3.4,0-4.9
		c-0.3-0.6-1.2-0.6-1.7-0.1c-0.4,0.5-0.6,1.2-0.7,1.9c-0.5,2.4-1.7,4.6-3.4,6.4c-0.5,0.5,0.1,1.5,0.9,1.6c0.8,0.1,1.4-0.5,1.9-1
		C65,166.2,65.5,165.6,65.9,165.1 M63.5,132.5c-1.5,1.2-3.6,1.5-5.4,0.9c0.2,0.3,0.4,0.6,0.6,0.9c-0.2,0.2-0.4,0.5-0.7,0.8
		c0.6,0.1,0.6,1,0.4,1.6c-0.2,0.6-0.3,1.5,0.2,1.7c0.4,0.2,0.8-0.1,1.1-0.4c1.6-1.2,3.2-2.4,4.8-3.6c0.8-0.6,1.7-1.3,1.9-2.3
		c0-0.7-0.8-1-1.4-0.8C64.5,131.6,64,132.1,63.5,132.5 M50.8,183.5c-0.4,0.7-0.7,1.6-0.9,2.4c0.9-1.2,2.3-1.8,3.4-2.7
		c1.7-1.2,3.1-2.8,4.1-4.6c0.9-0.1,1.7-0.8,1.9-1.7c-0.4-0.9-2.1,1.1-2.6,0.1c-0.1-0.3-0.6-0.2-0.9,0c-2.3,1.3-4,3.6-4.6,6.2
		C51.1,183.4,51,183.4,50.8,183.5 M38.4,158.8c-1.6,1.7-3.1,3.3-4.7,5c-0.3,0.3-0.5,0.6-0.7,1c-0.3,1,0.6,1.9,1.4,2.6
		c2.2-2.5,4-5.4,5.2-8.5C39.3,158.8,38.8,158.7,38.4,158.8 M31.5,165.6c-1-0.6-2.3,0.1-2.9,1.1c-0.6,1-0.6,2.2-0.6,3.3
		c0,1.2,0.2,2.7,1.3,2.9c1.3-1.7,2.3-3.7,2.8-5.8C31.5,166.9,31.2,166.2,31.5,165.6 M37.6,185.2c-0.4,1.9-3.5,1.7-4.4,3.3
		c-0.2,0.4-0.3,0.8-0.4,1.3c-0.2,1-0.4,1.9-0.5,2.9c1.8-1.6,3.8-3,5.9-4.3c0-0.8,0.2-1.7,0.8-2.4C38.6,185.6,38.1,185.3,37.6,185.2
		 M31.2,183.3c-0.5,0.7-1.5,1.1-2.4,0.8c-0.1,1-0.3,2-0.4,3c-0.2,1.2-0.3,2.6,0.4,3.6c0.1,0.1,0.2,0.3,0.4,0.4
		c0.5,0.2,0.9-0.4,1.1-0.9c0.8-1.7,1.3-3.4,1.5-5.2c-0.4-0.1-0.8-0.2-1.2-0.4C31.2,184.5,31.5,183.8,31.2,183.3 M29.6,162.7
		c0.5,0,1.1,0,1.7,0c0.9-1.2,1.8-2.3,2.8-3.4c0.1-0.8-1-1.3-1.8-0.9c-0.7,0.3-1.2,1.1-1.6,1.7c-0.5,0.7-1.1,1.3-1.9,1.3
		C29,161.8,29.3,162.2,29.6,162.7 M63.4,169.8c-0.9,0.3-1.4,1.4-1.1,2.4c0.6-0.2,1.2-0.5,1.6-1c0.3-0.6,0.1-1.5-0.5-1.6 M20,190.1
		c-0.5,0-1,0-1.4,0c-0.2,0.6,0.2,1.4,0.8,1.7c0.9,0.1,1.4-1.2,0.8-1.8"/>
	<path fill="#126606" d="M81.2,106.9c0-0.6,0.9-0.6,1.5-0.4c-0.2,0.9-1.2,1.5-2,1.2C80.9,107.4,81.1,107.2,81.2,106.9"/>
	<path fill="#398408" d="M138.8,85.3c0-0.3-0.1-0.6-0.1-0.9c0.6-0.3,1.2-0.6,1.9-0.9c0.2,0.2,0.2,0.6,0.1,0.8
		C140.1,84.7,139.5,85,138.8,85.3"/>
	<path fill="#67BA1E" d="M261,27.4c0.4-0.3,0.9-0.6,1.3-0.9c0,0.5-0.1,1.1-0.4,1.5c-0.3,0.5-1,0.7-1.4,0.4c-0.4-0.4-0.2-1.2,0.3-1.2
		"/>
	<path fill="#3C6606" d="M177.6,140.6c-0.6,0.6-1.2,1.1-1.7,1.7c-0.3-1.1,0.6-2.4,1.7-2.4c0.1,0.2,0.1,0.5,0.2,0.8"/>
	<path fill="#67BA1E" d="M239.2,52.3c-0.2-0.4,0.5-0.5,0.8-0.3c-0.2,1.1-1.4,1.5-2.5,1.8c0-0.8,0.8-1.5,1.6-1.4"/>
	<path fill="#126606" d="M169.8,85.5c0.3-0.3,0.5-0.6,0.8-0.8c0.5,0.3,1,0.4,1.5,0.5c-0.1,0.6-0.8,0.7-1.4,0.7c-0.4,0-0.8,0-1.2,0"
		/>
	<path fill="#126606" d="M198.2,115c0.4-0.7,1.2-1.3,2-1.5c-0.1,1.2-0.8,2.3-1.8,2.8C198.1,116,198.1,115.5,198.2,115"/>
	<path fill="#398408" d="M204.7,44.3c-0.1-0.2-0.2-0.4-0.3-0.6c0.4-1.1,1.2-2.3,2.3-2.1c0,1.1-0.9,2.1-1.9,2.2"/>
	<path fill="#3C6606" d="M153.4,160.4c0.3-0.3,0.8-0.1,0.9,0.2c-0.4,1-1.4,1.7-2.4,1.7C152,161.5,152.7,160.8,153.4,160.4"/>
	<path fill="#398408" d="M174.4,56.8c0-0.6-0.3-1.2-0.8-1.5c0.3-0.5,0.6-1.1,1-1.6c0.4,0.5,0.9,1.1,0.9,1.7
		C175.6,56,175.1,56.8,174.4,56.8"/>
	<path fill="#398408" d="M279.4,62.9c-0.1,0.4-0.6,0.6-1,0.4c-0.2-0.7,0.4-1.3,1.1-1.5c0.6-0.2,1.4,0,2,0.1c0,0.9-1.2,1.4-1.9,0.9"
		/>
	<path fill="#3C6606" d="M160,110.6c0.4-0.7,0.9-1.3,1.5-1.8c0.2-0.1,0.3-0.2,0.6-0.2c0.5,0,0.7,0.7,0.5,1.2
		c-0.2,0.5-0.8,0.7-1.2,0.9c-0.3,0.1-0.7,0.2-1,0.4"/>
	<path fill="#126606" d="M208.1,91.2c-0.2,0.6-0.5,1.3-0.7,1.9c-0.3-0.8-1.1-1.3-1.9-1.2c0.6-0.9,1.9-1.3,2.9-0.8"/>
	<path fill="#126606" d="M143.6,153.4c0.2-0.5,0.5-0.9,0.9-1.1c0.4-0.2,1.1,0.2,0.9,0.7c-0.1,0.2-0.2,0.3-0.4,0.4
		c-0.8,0.5-1.7,0.8-2.6,0.9c-0.3-0.5,0.5-0.8,1-0.8"/>
	<path fill="#398408" d="M315,61.5c-0.2,0.3-0.8,0-0.6-0.4c0.7-0.8,1.6-1.5,2.7-1.9C316.6,60.2,315.9,61,315,61.5"/>
	<path fill="#398408" d="M219.3,38c0,1.4-1.5,2.6-2.8,2.3c0.8-0.5,1.4-1.3,1.5-2.3C218.4,37.7,219,37.7,219.3,38"/>
	<path fill="#67BA1E" d="M86.4,115c0,0.6-0.1,1.3-0.5,1.7c-0.4,0.5-1.1,0.6-1.6,0.2c-0.7-0.6-0.2-1.7,0.4-2.4
		c0.3-0.4,0.9-0.8,1.3-0.5C86.4,114.1,86.4,114.6,86.4,115"/>
	<path fill="#3C6606" d="M184.9,138.6c-1,0.2-1.9,0.4-2.9,0.6c-0.2-0.2-0.3-0.6-0.2-0.9c1.1-0.8,2.5-1.1,3.9-0.9
		C186.3,137.7,185.5,138.4,184.9,138.6"/>
	<path fill="#126606" d="M131.3,172c-0.7,0.2-1.4,0.4-2.1,0.6c-0.4,0-0.8-0.5-0.7-0.9c0-0.5,0.4-0.8,0.7-1.1
		c0.6-0.5,1.4-0.8,2.1-0.5C132.1,170.6,132.1,171.9,131.3,172"/>
	<path fill="#3C6606" d="M120.1,133.5c0.5-0.5,0.9-1.1,1.4-1.6c0.6-0.4,1.4,0.5,1.3,1.2c-0.1,0.8-0.8,1.3-1.4,1.8
		c-0.2,0.2-0.4,0.3-0.6,0.5c-0.2-0.6-0.4-1.2-0.6-1.8"/>
	<path fill="#3C6606" d="M253.2,101.3c0.6-1.1,2.2-1.3,3.2-0.6c-0.3,0.4-0.7,0.7-1,1.1c-0.5,0.5-1,1.1-1.7,1c-0.7,0-1.1-1.2-0.4-1.4
		"/>
	<path fill="#398408" d="M239.8,17.1c-0.8,1.3-2.2,2.2-3.7,2.4C236.5,17.9,238.3,16.8,239.8,17.1"/>
	<path fill="#67BA1E" d="M132.6,54.7c0.7,0,1.1,0.9,0.9,1.7c-0.3,0.7-0.9,1.1-1.5,1.5c-0.6,0.4-1.4-0.4-1.3-1c0-0.7,0.5-1.3,1.1-1.7
		C131.9,55,132.2,54.7,132.6,54.7"/>
	<path fill="#126606" d="M151.3,99.5c-0.3,0.5-0.9,0.7-1.3,0.5c0.1-0.7,0.3-1.4,0.4-2.2c0.9-0.6,1.9-0.9,3-1c-0.1,1.2-1,2.3-2.1,2.5
		"/>
	<path fill="#398408" d="M127.7,86.5c0.1-1,1.2-1.8,2.1-1.5c0.1,1.7-0.9,3.4-2.3,4.2c-0.1-0.9,0-1.8,0.3-2.5"/>
	<path fill="#67BA1E" d="M44.3,140.1c0.2,0.4,0.2,0.9,0.1,1.3c-1-0.1-2,0.4-2.6,1.2c-0.5-0.4-0.6-1.2-0.2-1.7
		c0.4-0.5,1.2-0.5,1.6-0.1C43.5,140.5,43.8,140.2,44.3,140.1"/>
	<path fill="#3C6606" d="M132.9,134.4c-0.1-0.3-0.1-0.6,0.2-0.8c0.4-0.4,0.8,0.5,0.7,1c-0.1,0.8-0.3,1.8-0.9,2.4
		c-0.6,0.6-1.7,0.7-2.2-0.1C131.6,136.1,132.4,135.3,132.9,134.4"/>
	<path fill="#67BA1E" d="M72.2,208c0.5-0.7,1-1.4,1.5-2.1c0.4,1.6-0.6,3.4-2.2,3.9c-0.3-0.2-0.4-0.5-0.5-0.9
		C71.4,208.6,71.9,208.3,72.2,208"/>
	<path fill="#67BA1E" d="M87.9,203.8c0.8-1,2.2-1.5,3.4-1.2c-1.4,0.8-2.6,1.8-3.7,3C87.2,205.1,87.5,204.3,87.9,203.8"/>
	<path fill="#126606" d="M226.6,56c0.6,0.2,0.9,1.1,0.7,1.7c-0.2,0.7-0.8,1.1-1.5,1.3c-0.8,0.3-1.6,0.4-2.4,0.1
		c0.4-0.6,0.9-1.3,1.3-1.9C225.2,56.6,225.9,55.8,226.6,56"/>
	<path fill="#67BA1E" d="M27.8,210.2c-0.2-0.2-0.4-0.4-0.6-0.7c-1.1,0.8-2.8-0.3-2.6-1.6c1.7-0.6,3.7,0.2,4.5,1.8
		C28.7,209.7,28.2,209.9,27.8,210.2"/>
	<path fill="#67BA1E" d="M294.4,27.8c-0.1-0.3-0.1-0.7-0.2-1c1.6-1,3.7-1.3,5.5-0.7c0.1,0.2,0,0.6-0.1,0.8
		C297.8,27.1,296.1,27.4,294.4,27.8"/>
	<path fill="#3C6606" d="M126.7,148.7c-0.5,1.2-1.5,2.2-2.5,3.1c-0.3,0.3-0.9,0.6-1.3,0.4C123.1,150.2,124.8,148.6,126.7,148.7"/>
	<path fill="#3C6606" d="M192,135.5c-0.7,0.1-1.1-0.9-0.8-1.5c0.4-0.6,1.1-0.8,1.8-1c0.7-0.2,1.4-0.4,1.8-1c0,0.5-0.1,1.1-0.1,1.6
		c-0.8,0.5-1.5,1.1-2.2,1.6C192.4,135.3,192.2,135.4,192,135.5"/>
	<path fill="#398408" d="M217.8,31.1c0.1,0.3-0.1,0.6-0.4,0.8c-1.2,0.8-2.6,1.4-4.1,1.7c-0.2-0.4-0.2-0.8-0.1-1.2
		c1.2-0.5,2.5-0.9,3.7-1.4C217.2,30.9,217.7,30.8,217.8,31.1"/>
	<path fill="#3C6606" d="M206.7,131.2c-0.6-1.3-0.1-2.9,1-3.8c0.5-0.4,1.1-0.6,1.7-0.7c0.1,0.4,0.4,0.8,0.8,0.9
		C208.9,128.8,207.8,130,206.7,131.2"/>
	<path fill="#126606" d="M85.2,218.1c0.2,0.2,0.3,0.7,0.1,0.9c-1,1.4-2.6,2.3-4.3,2.4c0.4-0.2,0.7-0.4,1.1-0.6
		c-0.1-0.3-0.1-0.6-0.2-0.9C82.8,219.1,83.9,218.5,85.2,218.1"/>
	<path fill="#126606" d="M133.7,161.3c0.6,1.8,0.4,3.9-0.6,5.6c-0.6,0-1.2,0-1.9,0C131.4,164.8,132.3,162.8,133.7,161.3"/>
	<path fill="#3C6606" d="M119.5,157.3c-0.8-1.3-0.8-3.2,0-4.5c0.5,0.3,1.1-0.2,1.5-0.5c0.5-0.3,1.4-0.2,1.3,0.4
		c-0.4,0.1-0.9,0.2-1.3,0.3C121,154.5,120.4,156.1,119.5,157.3"/>
	<path fill="#3C6606" d="M223.9,146.2c-0.9-1.3,0.1-3.2,1.4-3.9c0.5-0.3,1.2-0.5,1.8-0.6c0.8,1.5-3,2.4-2.2,3.9
		C224.5,145.8,224.2,146,223.9,146.2"/>
	<path fill="#126606" d="M189.9,119.3c-0.8,1.1-1.6,2.3-2.9,2.8c-0.9,0.3-1.8,0.3-2.7-0.1C185.9,120.5,187.9,119.6,189.9,119.3"/>
	<path fill="#3C6606" d="M129.1,180.6c0.9-1.9,2.9-3.2,5-3.1C133.1,179.3,131.1,180.5,129.1,180.6"/>
	<path fill="#3C6606" d="M114.7,136.4c-1,0.5-2,0.9-3,1.3c1.1-1.8,2.9-3.1,4.9-3.7c0.1,1.1-0.8,2.2-1.8,2.5"/>
	<path fill="#3C6606" d="M124.4,138.6c0.9-0.5,1.8-0.9,2.7-1.3c0.3-0.1,0.5-0.3,0.9-0.3c0.6,0,1.1,0.6,1.5,1.2
		c-0.2,0.2-0.3,0.5-0.4,0.8c-1.6,1-3.7,1.9-5.2,0.7C124.3,139.5,124.5,139.1,124.4,138.6"/>
	<path fill="#3C6606" d="M226.9,113.2c0.6,0.3,0.2,1.2-0.3,1.7c-1.2,1.1-2.5,2.1-4,2.8c-0.8-0.8,0.3-2.1,1.3-2.7
		C224.9,114.5,225.9,113.8,226.9,113.2"/>
	<path fill="#126606" d="M184.2,82.7c0.2-0.4,0.9-0.7,0.9-0.3c0.7,0.8,1.4,1.7,2.2,2.6c-0.9-0.1-1.6,0.7-2.3,1.3
		c-0.6,0.6-1.8,1-2.4,0.4C183.1,85.3,183.6,84,184.2,82.7"/>
	<path fill="#126606" d="M164.5,87.1c1.2,1.9,1.1,4.6-0.4,6.3c-0.2,0.2-0.4,0.4-0.6,0.3c-0.3-0.1-0.3-0.5-0.3-0.8
		c0.1-1.9,0.3-3.8,0.4-5.7C163.9,87,164.2,87,164.5,87.1"/>
	<path fill="#67BA1E" d="M64.5,180.8c0.4-0.6-0.5-1.3-1.3-1.3c0.9-0.7,2.1-1.1,3.2-1c0,0.6,0.3,1.2,0.8,1.6c-1,1.3-2.6,2.1-4.2,1.9
		c0.5-0.4,1.1-0.7,1.6-1.1"/>
	<path fill="#126606" d="M187.9,76.7c0.1-2.4,1.8-4.4,3.8-5.6C192.5,73.6,190.4,76.6,187.9,76.7"/>
	<path fill="#67BA1E" d="M244.6,47.1c-1.1,0.4-2.1,1.1-2.8,2c-0.3,0.4-1,0.5-1.4,0.1c0.8-2.4,2.7-4.3,5-5
		C245.2,45.2,244.9,46.1,244.6,47.1"/>
	<path fill="#3C6606" d="M240,112.3c-1.3,1.5-2.6,2.9-3.9,4.4c-0.3,0.4-1,0.2-1.2-0.2C236,114.4,237.8,112.9,240,112.3"/>
	<path fill="#3C6606" d="M188.2,141.5c1.4-1.2,2.9-2.5,4.7-2.9c-0.8,2.5-2.9,4.6-5.5,5.1C186.9,143,187.5,142.1,188.2,141.5"/>
	<path fill="#126606" d="M173.9,112.6c0.2-0.1,0.4-0.2,0.6-0.2c0.3,0.1,0.2,0.6-0.1,0.6c-0.6,2.1-2.2,4-4.3,4.7
		C170.9,115.7,172.2,113.9,173.9,112.6"/>
	<path fill="#398408" d="M291.9,81.2c0.5,0.6-0.1,1.4-0.8,1.9c-1.2,0.9-2.4,1.8-3.7,2.3c-0.6,0.2-1.6,0.1-1.4-0.5
		c0.4-0.2,0.9-0.5,1.3-0.7C289,83.4,290.6,82.6,291.9,81.2"/>
	<path fill="#126606" d="M162.9,102.2c-0.2-0.9-0.5-1.8-0.7-2.7c-0.2-0.6-0.3-1.2-0.3-1.8c0.1-1.1,0.8-2.1,1.8-2.5
		c0.4,0.7,0.9,1.3,1.5,1.8c-1.1,1.2-1.6,3-1.3,4.6C163.7,101.8,163.3,102,162.9,102.2"/>
	<path fill="#67BA1E" d="M93.9,150.3c-0.1,1.9-0.5,3.7-1.2,5.5c-0.3,0.9-1.8,0-2.5,0.6c-0.2-2.5,1-5.1,3.1-6.4
		C93.7,149.8,94.3,150.1,93.9,150.3"/>
	<path fill="#398408" d="M145.7,71.9c-0.2,2-1.9,3.8-3.9,4.2c0.5-2.6,1.9-4.9,4-6.5c0,0.5,0,1.1,0,1.5
		C145.8,71.4,145.8,71.7,145.7,71.9"/>
	<path fill="#67BA1E" d="M242.7,54.5c0.9-1.6,2.3-3,4-3.7c0.6-0.3,1.5-0.5,2.1-0.1c-1.8,1.4-3.6,2.8-5.3,4.3
		C243.2,55.3,242.5,54.9,242.7,54.5"/>
	<path fill="#398408" d="M173.2,62c1.5-1.2,3.4-2.5,5.3-1.9c-1.8,1.8-3.8,3.4-6,4.7c-0.5-0.2-0.6-1-0.4-1.5
		C172.3,62.8,172.7,62.4,173.2,62"/>
	<path fill="#126606" d="M239.4,81.9c0.6-0.5,1.2-1.1,1.5-1.9c0.3-0.5,0.5-1.1,0.9-1.4c0.4-0.4,1.1-0.6,1.5-0.3
		c0,1.8-0.4,3.6-1.3,5.1c-0.6,1.1-1.9,2.1-2.8,1.3C239.7,83.9,239.8,82.8,239.4,81.9"/>
	<path fill="#126606" d="M198.8,64.3c0.6,1.8,0.3,3.9-0.8,5.5c-0.7,1.1-1.9,1.9-3,1.5c-0.4-0.4-0.1-1,0.2-1.5
		C196.3,68.1,197.6,66.2,198.8,64.3"/>
	<path fill="#126606" d="M209.3,88.1c-0.4-0.3-0.3-1,0-1.4c0.3-0.4,0.8-0.6,1.3-0.8c1.7-0.7,3.2-2,4.3-3.5c0.8,0.7,0.6,2.1-0.1,2.9
		c-0.7,0.8-1.7,1.2-2.7,1.6C211.2,87.4,210.2,87.7,209.3,88.1"/>
	<path fill="#126606" d="M118.2,193.9c-0.1,0.5-0.6,0.8-0.9,1.3c-0.6,0.8-0.5,1.9-0.6,3c-0.2,1-1,2.1-1.9,1.8
		c-0.4-2.7,0.3-5.6,1.8-7.8C117.4,192.4,118.4,193,118.2,193.9"/>
	<path fill="#3C6606" d="M235.8,119.5c-0.8,2.8-3.3,5.1-6.1,5.3c-0.6,0.1-0.5-1-0.1-1.5C231.1,121.4,233.3,120,235.8,119.5"/>
	<path fill="#398408" d="M161.6,67.1c-0.4,1.2-1.4,2.2-2.6,2.7c-0.4-0.6-0.9-1.2-1.4-1.8c-1,0.8-2.2,1.3-3.4,1.7
		c-0.6,0-0.4-1,0.1-1.3c0.5-0.4,1.2-1,0.8-1.4c1.8,0.2,3.6,0.1,5.4-0.5C160.7,66.9,161.1,67.1,161.6,67.1"/>
	<path fill="#398408" d="M168,57.1c-1.9,1.1-3.9,1.9-5.9,2.4c0.2-1.7,1.8-3.1,3.4-3.1c0.7,0,1.4,0.2,2.1,0.1
		c0.7-0.1,1.4-0.7,1.3-1.4c0.4,0,0.9,0,1.3,0c-0.1,0.5-0.3,0.9-0.4,1.4c-0.1,0.5-0.3,1.1-0.8,1.3C168.5,58,167.8,57.6,168,57.1"/>
	<path fill="#67BA1E" d="M70.4,104.9c0.4-1,1.1-1.8,1.9-2.4c0.2,0.3,0.4,0.7,0.7,1c1.6-1.3,4.1-1.1,5.5,0.4
		c-1.1,2.3-4.2,2.6-6.7,2.5c0-0.4-0.1-0.8-0.1-1.2C71.3,105,70.8,104.9,70.4,104.9"/>
	<path fill="#126606" d="M180.9,122.2c0.4,0.2,0.7,0.7,0.7,1.2c-0.8,2.6-2.7,4.9-5.2,6.1c-0.8,0-0.7-1.3-0.3-2
		C177.4,125.5,179,123.7,180.9,122.2"/>
	<path fill="#3C6606" d="M128.4,126.4c-0.1-0.9,0.9-1.7,1.6-1.3c0.2,0.1,0.4,0.4,0.2,0.6c-2.2,2.4-4.9,5-8.1,5
		C123.2,128.2,125.8,126.5,128.4,126.4"/>
	<path fill="#126606" d="M128,175.4c-1.7,0.8-2.7,3.1-2.2,5c0.3,0.9,0.9,1.7,0.9,2.7c0.1,0.9-0.8,2.1-1.6,1.7
		c-0.6-1.1-0.7-2.4-0.8-3.7c-0.1-1.4-0.2-2.8,0.4-4C125.3,175.8,126.8,174.9,128,175.4"/>
	<path fill="#126606" d="M195.5,95.7c0.3,0.5,0.7,0.9,1,1.4c-1.5,3-4.3,5.2-7.4,6.3c-0.4-0.7-0.1-1.7,0.5-2.2
		c0.5-0.6,1.3-0.9,1.9-1.4C193.2,98.8,194.6,97.4,195.5,95.7"/>
	<path fill="#3C6606" d="M203.2,130.6c0.3-0.1,0.7-0.2,1.1-0.2c0.7,0.2,1,1.2,0.6,1.7c-2.6,2-5.3,4-8.1,5.7
		C197.6,134.5,200.1,131.7,203.2,130.6"/>
	<path fill="#126606" d="M226.3,79.4c-1.4,0.9-2.8,1.9-4.4,2.1c2-3.3,5.3-5.7,9-6.5c-0.1,1.4-1.4,2.4-2.5,3.1
		C227.6,78.5,226.9,79,226.3,79.4"/>
	<path fill="#3C6606" d="M226,147.2c-2.4,1.5-4.8,3-7.2,4.5c-0.9,0.5-1.9,1.1-2.9,0.8c2.3-1.6,4.6-3.2,7-4.8
		C223.8,147.1,225.1,146.5,226,147.2"/>
	<path fill="#126606" d="M197.3,112c-0.4-0.5,0.1-1.2,0.6-1.7c1.9-1.8,3.9-3.5,6-5c0.2-0.1,0.4-0.3,0.6-0.2c0.6,0.1,0.5,1.1,0.1,1.7
		c-0.5,0.8-1,1.6-1.4,2.4c-0.8,1.4-1.8,2.9-3.4,3.1c-0.4,0-0.8,0-1.2-0.1C198.1,111.9,197.6,111.6,197.3,112"/>
	<path fill="#67BA1E" d="M58.8,210.1c1.4-1.2,3.1-2,4.9-2.5c0.5,1.8,2.7,2.8,4.3,2.1c0.5-0.2,1.1,0.5,1,1.1
		c-0.1,0.6-0.6,0.9-1.1,1.3c-1.5,0.8-3.2,1.3-5,1.2c-1.4-0.1-2.7-0.7-3.7-1.6C58.7,211.3,58.5,210.6,58.8,210.1"/>
	<path fill="#3C6606" d="M126.4,133.7c0.8-0.2,1.6-0.4,2.5-0.6c1.5-2.5,3.9-4.5,6.6-5.5c-0.4,2.1-1.6,4-3.3,5.1
		c-1,0.8-2.1,1.7-3.1,2.5C128.1,134.7,127.3,134.2,126.4,133.7"/>
	<path fill="#398408" d="M216.4,24.6c0.5-0.7,0.6-1.7,0.1-2.4c3-1.1,6.1-2.3,9.1-3.4c0.5-0.2,1.4-0.1,1.4,0.4c0,0.3-0.3,0.5-0.5,0.6
		c-3.2,2-6.4,3.9-9.6,5.7C216.7,25.2,216.5,24.9,216.4,24.6"/>
	<path fill="#67BA1E" d="M103.8,142.2c0,0.6,0,1.3-0.1,1.9c-2.8,2.4-5.7,4.8-8.5,7.2c-0.6-1.4,0.2-3,1.2-4
		C98.4,144.9,101,143.2,103.8,142.2"/>
	<path fill="#67BA1E" d="M91.8,189.4c1.6-3.1,3.8-6.6,7.3-6.8c0.8,0,1.7,0,2.2-0.6c0.4,0.6,0.2,1.4-0.3,1.9
		c-0.4,0.6-1.1,0.9-1.7,1.2c-2,1.2-3.8,2.7-5.3,4.5C93.4,190.3,92.2,190.2,91.8,189.4"/>
	<path fill="#67BA1E" d="M245.7,39.4c1.3-2.3,3.6-3.7,5.8-5.1c0.4-0.2,0.8-0.5,1.2-0.7c0.9-0.5,1.7-1.1,2.5-1.8
		c0.5,0.4,1.1,0.7,1.7,0.7c-3.6,1.5-6.9,3.9-9.4,7C246.9,39.5,246.3,39.5,245.7,39.4"/>
	<path fill="#126606" d="M139.1,162.8c2.5-1.5,5.1-2.8,7.7-4.2c1.6-0.8,3.2-1.7,5-2.1c-1.5,3.4-4.9,5.8-8.5,6.1
		C142,163.4,140.4,163.5,139.1,162.8"/>
	<path fill="#67BA1E" d="M101.6,191.9c-0.3,0-0.7,0-1.1,0c0-0.7-0.3-1.5-0.9-1.9c1-0.5,1.9-0.9,2.9-1.3c2.4-1.1,5-2.6,5.4-5.2
		c0.6,0,1.2,0,1.8,0c0.6,1.9-0.2,4.2-1.9,5.2c-0.4,0.2-0.8,0.5-1.3,0.6c-1.1,0.5-2.1,0.9-3.1,1.4c-0.3-0.2-0.5-0.4-0.8-0.6
		C102.4,190.7,102,191.3,101.6,191.9"/>
	<path fill="#67BA1E" d="M94.5,97.3c-0.5-0.5-0.2-1.4,0.3-1.8c0.5-0.4,1.2-0.5,1.9-0.6c1.5-0.3,2.9-1.1,4-2.2c1.2-1,2.5-2,3.7-2.9
		c0.4-0.4,1.3-0.6,1.5-0.1c-1.9,1.7-3.7,3.6-5.1,5.7C99.1,96.8,96.8,97.6,94.5,97.3"/>
	<path fill="#67BA1E" d="M110.6,73.3c1.1-0.5,2.2-1,3.3-1.5c0.7-0.9,0.8-2.1,1-3.3c0.2-1.2,0.9-2.4,1.9-2.6c1.1-0.2,2.1,0.9,1.9,2
		c-0.9,4.7-5.3,8.5-9.9,8.4c-0.4-0.5-0.3-1.4,0.1-1.9C109.4,73.9,110.1,73.6,110.6,73.3"/>
	<path fill="#67BA1E" d="M66.1,182.4c0.4,0,0.8,0,1.2,0c0.2-1.2,0.7-2.5,1.8-2.7c2.7-0.4,5.4-1.2,7.8-2.6c0.4,0.4,0.4,1.1,0.2,1.6
		c-0.3,0.5-0.8,0.8-1.2,1.2c-2.5,1.7-5,3.3-7.5,5c-0.7,0.5-1.5,1-2.4,1c-0.9,0-1.8-0.7-1.7-1.5C65.1,184.1,65.9,183.3,66.1,182.4"/>
	<path fill="#67BA1E" d="M57.6,101.1c-2.8,0.7-2.5,5.6-5.2,6.8c-0.8,0.4-1.8,0.3-2.7,0c1.1-5.1,5.5-8.6,9.6-11.7
		c0.1,0.9,0.2,1.9,0,2.8C59.1,100,58.5,100.9,57.6,101.1"/>
	<path fill="#126606" d="M174.6,94.2c-1,0.4-2.1,0.3-3,0.5c-1,0.2-2.1,0.8-2.3,1.8c-1.3,0-2.5,0-3.8,0c0-0.5,0.3-1,0.6-1.4
		c1.3-1.8,2.5-3.7,3.8-5.5c0.1-0.1,0.1-0.2,0.2-0.2c0.3-0.1,0.6,0.3,0.7,0.7c0.3,1.3,0.6,2.6,1,3.8c1-1.8,3.3-2.7,5.2-2.2
		C176.7,92.8,175.8,93.8,174.6,94.2"/>
	<path fill="#67BA1E" d="M181.1,34.7c1.3-0.4,2.4,1.5,1.9,2.8c-0.5,1.3-1.8,2-3,2.7c-2.7,1.3-5.5,2.6-8.3,3.8
		c-0.4,0.2-0.8-0.2-0.9-0.7c-0.1-0.4,0.2-0.8,0.4-1.2c1.1-1.3,2.6-1.9,4.1-2.5C177.8,38.7,180.8,37.4,181.1,34.7"/>
	<path fill="#126606" d="M152.4,155.5c1-1,2-2.1,2.9-3.2c1.3-0.6,2.5-1.1,3.7-1.7c0.1-0.3,0.1-0.7,0.2-1c1.3-0.8,2.7-1.5,4-2.4
		c0.5-0.3,1.5-0.2,1.3,0.4c0,0.2-0.2,0.3-0.3,0.4c-1.4,0.8-2.7,1.7-4.1,2.6c-1.7,1.6-3.5,3.2-5.2,4.8c-0.4,0.4-0.8,0.7-1.4,0.8
		C153.1,156.3,152.5,156,152.4,155.5"/>
	<path fill="#126606" d="M155.9,122.7c-0.4-2.8,2.3-5.6,5.1-5.3c0.9-1.9,3.7-1.6,5.1-3.1c0.5-0.6,1.4-1.4,1.9-0.8
		c-0.3,1.1-0.7,2.1-1.4,3c-0.7,0.8-1.8,1.4-2.9,1c-1.4-0.5-2.8,0.6-3.8,1.6C158.6,120.2,157.3,121.4,155.9,122.7"/>
	<path fill="#67BA1E" d="M68.9,122.8c-0.7,0.4-1.5-0.5-1.2-1.2c-0.4,0.1-0.9,0.2-1.3,0.3c-0.1-0.5,0.2-1,0.5-1.4
		c2.1-3.2,4.2-6.4,6.3-9.5c0.3-0.5,0.7-1,1.3-1.1c0-0.5,0.2-1,0.7-1.3c0.1,1.1,0.1,2.2,0.2,3.3c0,1.1-0.3,2.5-1.3,2.4
		c-0.5,1.2-0.8,2.6-0.7,3.9C71.1,118.5,69.2,120.5,68.9,122.8"/>
	<path fill="#67BA1E" d="M77.7,193.1c-2.7,1.2-5.3,2.5-8,3.7c-0.9,0.4-1.8,0.8-2.7,0.5c1.1-1,2.1-2.1,3-3.3c1.9,0.4,3.6-1.1,5.3-2.1
		c1.7-1.1,3.8-1.7,5.8-1.7c0.6,0,1.2,0,1.8,0c-0.6,1.2-2.1,1.7-3.3,1.2C79.3,192.3,78.4,192.7,77.7,193.1"/>
	<path fill="#67BA1E" d="M69,145.8c0.4-1.8,0.9-3.6,1.3-5.3c0.1-0.5-0.1-1.2-0.5-1c-0.2,0.4-0.2,0.8-0.1,1.3
		c-0.3,0.1-0.8,0.2-1.1,0.2c-1.2,2.3-3.9,3.7-6.5,3.4c2.5-2.4,5.2-4.5,8.1-6.3c0.1-0.1,0.2-0.1,0.4-0.1s0.2,0.2,0.3,0.4
		c0.2,0.8,0.5,1.6,0.7,2.4c-0.8,0.8-0.6,2-0.7,3.1C70.8,144.8,70,146.1,69,145.8"/>
	<path fill="#67BA1E" d="M118.8,76.9c0.1,0.1,0.2,0.2,0.3,0.4c0.5,0.7,0.9,1.5,1.1,2.4c-1.7,1.7-3.7,3-5.9,3.9
		c-0.1,0.3-0.2,0.6-0.3,0.8c-2.2,1.2-4.4,2.4-6.6,3.6c-0.3-0.8,0.5-1.6,1.3-1.9c0.8-0.4,1.6-0.8,1.8-1.6c0.4-2.1,2-3.9,4-4.4
		c0.2,0.2,0.5,0.3,0.8,0.5c0.8-1.2,1.8-2.2,2.8-3.2C118.3,77,118.5,76.8,118.8,76.9"/>
	<path fill="#67BA1E" d="M243.8,30.7c-0.9,0.3-1.6-0.6-2.1-1.4c-1.1,0.7-2.4,1.1-3.7,0.9c0.9-1.9,3.7-2.3,5-0.8
		c0.4-0.8,1.2-1.4,2-1.5c2.6-0.3,5-1.3,7-3c0.7-0.5,1.7,0.5,1.5,1.3c-0.2,0.9-1,1.4-1.7,1.9c-1,0.6-1.9,1.2-2.9,1.8
		c0-0.2-0.2-0.4-0.4-0.5C246.9,28.7,244.3,28.9,243.8,30.7"/>
	<path fill="#126606" d="M190.4,88.6c-0.1-1.2,1-2.3,2.1-2.3c3.5-3.8,8-6.4,13-7.5c0.6,0.5-0.1,1.5-0.9,1.9c-2.7,1.5-5.4,2.8-8.2,4
		C194.9,86.6,192.7,88,190.4,88.6"/>
	<path fill="#3C6606" d="M134.1,177.4c2.1-2.6,4.5-5.3,7.8-5.9c0.5-0.1,1-0.1,1.5-0.3c2.5-0.5,4.7-2.6,7.1-1.8
		c-1.5,1.4-3.1,2.5-4.9,3.5c-1.9,1-3.9,1.8-5.9,2.4C138.4,177.1,136.2,177.9,134.1,177.4"/>
	<path fill="#126606" d="M187.8,78.2c-0.1,1.4-1.3,2.5-2.7,2.5c0.4-0.4,0.1-1.3-0.5-1.5c-0.6-0.2-1.2,0.1-1.7,0.5s-1,0.8-1.6,1
		c-1.1,0.3-1.7,1.4-2.1,2.5c-0.4,1.1-0.8,2.3-1.7,2.9c-0.9,0.6-2.6,0.1-2.6-1c0-0.4,0.2-0.8,0.4-1.2c1.3-2.3,3-4.8,5.5-5.1
		c1.7-0.2,3.4-0.8,4.8-1.9c0.3-0.2,0.4-0.7,0.2-1.1c0.4-0.2,0.8-0.2,1.2-0.2C187.3,76.6,187.5,77.4,187.8,78.2"/>
	<path fill="#67BA1E" d="M254.8,59.8c-1.1-0.2-2.2-0.6-2.8-1.5c-0.7-0.8-0.8-2.3,0.1-3c1.2-0.1,1.7,1.4,2.6,2.1c1.2,0.9,3,0.2,4-0.9
		c0.9-1.2,1.2-2.8,1.5-4.3c0.4-1.5,0.9-3.1,2.1-4c1.4,1.4,0.8,3.8,0.2,5.7c-0.9,2.6-2.2,5.5-4.8,6.1C256.6,60.2,255.7,60,254.8,59.8
		"/>
	<path fill="#126606" d="M215.5,98.7c3.1-1.9,6.3-3.8,9.4-5.7c-0.6,2.1-1.8,4-3.5,5.4c-3,2.7-7.2,3.7-10.1,6.6
		c-0.5-0.5-0.4-1.3-0.1-1.9c0.4-1,1-1.9,1.7-2.6C213.7,99.8,214.5,99.2,215.5,98.7"/>
	<path fill="#3C6606" d="M109.2,178.7c-0.3-0.7-0.3-1.6-0.1-2.4c2.8-2.7,6.3-4.6,10-5.6c0.5-0.1,0.9-0.2,1.3-0.6
		c1.4-1.3,3.3-1.9,5.2-1.5c0.4,0.3,0.4,0.9,0.1,1.4c-0.3,0.5-0.8,0.7-1.2,0.9c-3.9,2-7.8,4-11.7,6
		C111.6,177.6,110.4,178.2,109.2,178.7"/>
	<path fill="#3C6606" d="M109.5,161.2c-0.9,2.7-3.4,4.8-6.2,5.1c-2.5,0.2-3.9,2.8-5.5,4.6c-0.2,0.3-0.6,0.6-1,0.5
		c-0.3-0.1-0.5-0.5-0.6-0.8c-0.4-1.9,0.7-3.8,2.2-5c1.5-1.2,3.3-1.7,5.1-2.3c2.4-0.7,4.5-2.6,5.5-4.9
		C109.9,159,109.8,160.2,109.5,161.2"/>
	<path fill="#126606" d="M178.7,99.1c-1.1,1.3-1.4,3.3-0.8,4.9c0.2,0.6,0.5,1.2,0.4,1.8c2.4,0.2,4.7-1.6,5.4-4
		c0.2-1,1.9-0.6,2.2,0.4c0.3,1-0.3,2-0.9,2.9c-1.4,2.1-3.5,4.5-5.9,4.2c-0.7-0.1-1.4-0.5-2-0.9c-1.7-1.3-2.9-3.4-2.7-5.5
		C174.7,100.6,176.6,98.7,178.7,99.1"/>
	<path fill="#126606" d="M168.1,134.1c-0.9,1.8-2.1,3.3-3.7,4.5c-3.6,2.6-7,5.5-10.1,8.7c-0.4,0.5-1.3-0.2-1.3-0.8
		c0-0.7,0.6-1.2,1.1-1.7c3.2-2.8,6.4-5.6,9.6-8.4C164.9,135.2,166.4,134,168.1,134.1"/>
	<path fill="#67BA1E" d="M105.5,193c1-0.7,2.2-1.7,3.1-1c-0.5,0.4-0.6,1.2-0.8,1.9c-0.2,0.7-0.6,1.5-1.3,1.4c-1.6-0.2-3,1.3-4,2.7
		c-1,1.3-2,2.6-3,4c-1.2,0.3-2.5,0.6-3.7,0.9c-0.6-1,0.2-2.3,1.1-3c0.9-0.7,2.1-1.3,2.6-2.3c0.5-1.1-0.3-2.7-1.4-2.4
		c0.8-1.5,1.5-3.5,0.3-4.6c0.3-0.4,0.8-0.6,1.3-0.5c-0.1,1.5,1.1,3.1,2.5,3.5C103.4,193.9,104.6,193.7,105.5,193"/>
	<path fill="#67BA1E" d="M50.9,135.4c-0.1-0.4-0.2-0.7-0.4-1.1c0.9,0.2,1.7-0.8,1.4-1.7c0.3-0.1,0.7-0.2,1.1-0.4
		c-0.8-0.3-0.8-1.5-0.5-2.3c0.3-0.8,0.8-1.7,0.5-2.6c1.5-0.5,2.8-1.6,3.6-3c0.6-0.8,1.6-1.2,2.6-1.2c0.1-0.8,0.9-1.5,1.7-1.5
		c0.8,0,1.6,0.7,1.7,1.5c-0.2,0.9-0.6,1.7-1.3,2.3c-1.1,1-2.7,1.3-3.9,2.1c-1.4,1.1-2.3,3-2,4.8c0.4,0.1,0.6,0.6,0.5,1
		c-0.5,0.2-1,0.3-1.6,0.2c0.1,0.3,0.1,0.6,0.2,0.9c-1,0.5-1.5,1.5-2.4,2.2c-0.9,0.6-2.5,0.2-2.4-0.8
		C50.3,135.6,50.6,135.5,50.9,135.4"/>
	<path fill="#126606" d="M206.4,66c0.8-1.5,2.2-3.3,3.8-2.7c0.8,0.4,1.7-0.1,2.5-0.6c2.7-1.7,5.2-3.8,7.2-6.3c0.4,0,0.5,0.7,0.4,1.1
		c-0.3,1.2-0.5,2.4-1.2,3.4c-0.7,1-1.7,1.7-2.8,2.4c-2.2,1.4-4.3,2.8-6.5,4.2c-1.7,1.1-3.3,2.2-5.2,2.8c0.1-0.7-0.1-1.5-0.5-2
		c0.5,0.2,1.1,0.4,1.6,0.6C205.4,68,205.9,67,206.4,66"/>
	<path fill="#3C6606" d="M136.2,128c-0.4-0.6-0.1-1.4,0.5-1.7c-0.2-0.2-0.4-0.5-0.6-0.7c1.1-1.2,2.6-2,4.2-2c1.7-0.1,3-1.5,4.2-2.8
		c2.8-2.7,6.2-4.7,9.8-5.9c-0.3,1.5-1.1,3-2.2,4.2c-0.8-0.2-1.6,0.2-2.4,0.6c-1.4,0.8-2.7,1.6-4.1,2.4c-1,0.6-2.1,1.2-3.1,1.8
		C140.4,125.1,138.2,126.4,136.2,128"/>
	<path fill="#67BA1E" d="M236.4,43.2c-1.5-0.4-2.8,0.9-3.9,2.1c-0.8,0.9-1.6,1.9-2.5,2.8c-1.1,1.2-2.2,2.5-3,3.9
		c-0.2,0.3-0.4,0.6-0.7,0.8c-0.3,0.1-0.8-0.1-0.8-0.4c0.1-1.8,0.7-3.5,1.6-5c0.9-1.4,2.2-2.5,3.4-3.4c3.5-2.7,7.6-4.6,11.8-5.6
		c0.6,0.6,0,1.6-0.6,2.2C240.3,42,238.4,43.6,236.4,43.2"/>
	<path fill="#3C6606" d="M173.2,170.1c0.1,0.4,0.6,0.2,1,0c1.2-1,2-2.4,3-3.5c1.1-1.1,2.6-2,4.1-1.6c-1,2.4-1.9,4.8-3,7.1
		c-3.5,2.3-7.1,4.6-10.6,7c-0.6,0.4-1.3,0.8-1.9,0.6c-0.7-0.2-1.1-1.3-0.5-1.6c-1,0.1-2-0.3-2.6-1.1
		C165.4,173.8,170.3,173.3,173.2,170.1"/>
	<path fill="#126606" d="M138,136.5c-0.5-2.3,1.5-5.1,0.1-6.9c1.1,1.1,3.1,0.9,3.9-0.4c0.5-0.7,1.7-0.2,2.5-0.4
		c0.9-0.3,1.2-1.4,1.9-2.1c0.8-0.7,2.1-0.7,3-1.4c0.6-0.5,1-1.2,1.6-1.8c0.6-0.6,1.6-0.8,2.1-0.1c0.5,0.8,1.8-1,2.5-0.3
		c0.4,0.5-0.3,1.2-1,1.2c-0.6,0-1.5,0.1-1.6,0.7c-0.6,2.1-3.7,1.8-5.3,3.2c-0.9,2.2-3.2,3.6-5.5,3.4c-0.6,1.3-1.6,2.5-2.7,3.4
		C139.5,135.9,138.8,136.6,138,136.5"/>
	<path fill="#67BA1E" d="M253.2,118.6c1.6-0.9,3.3-1.9,4.2-3.6c0.8-1.5,1-3.7,2.5-4.3c0.6,2.5-0.4,5.1-2,7c-1.6,1.9-3.9,3.2-6,4.5
		c-0.6,0.4-1.3,0.7-2.1,0.7c-1.3-0.1-2.3,0.9-3.2,1.9c-1.5,1.6-3,3.2-4.6,4.9c-1-0.5-0.8-2-0.3-3c1.3-2.5,3.8-3.9,6.3-5.2
		C249.7,120.5,251.5,119.5,253.2,118.6"/>
	<path fill="#67BA1E" d="M89.7,198.9c-2.2,0.5-4.1,1.8-6,3.1c-0.7,0.5-1.4,1-2.1,1.4c-0.4-0.9-1.7-0.3-2.4,0.4
		c-0.7,0.7-1.5,1.8-1,2.7c-0.3,0.1-0.6,0.1-1,0.2c0.3,0.8-0.8,1.6-1.4,1.2c-0.2-2.1,0.7-4.3,2.3-5.6c1.9-1,3.8-2,5.6-3
		c1.1-0.6,2.3-1.2,3.3-1.9c0.7-0.5,1.3-0.9,2-1.4c1.3-1,2.5-2.1,3.1-3.7c0.5-1.2,2.1-1.2,3.2-1c-0.4,0.8-0.9,1.7-1.3,2.5
		c-0.6,1.2-0.1,2.6,0.2,3.9c0.2,1.3-0.2,3.1-1.5,3.2c0.1,0.4,0.1,0.8-0.1,1.2c-0.4,0-0.8-0.1-1.2-0.1c1-1.1,0.1-3.2-1.4-3.2
		C90.1,198.8,89.9,198.9,89.7,198.9"/>
	<path fill="#126606" d="M221.1,68c0.8-0.5,1.3-1.3,2.1-1.8c1.2-0.9,2.7-1.1,4.1-1.6c1.4-0.5,2.8-1.4,3.1-2.8c0.9,0,1.7,0,2.6,0
		c-0.4,2.4-3,4.1-5.3,3.4c-1.8,3.2-5.1,5.6-8.6,6.2c-2.7,0.5-5,2-7.2,3.6c-1.9,1.3-3.8,2.6-5.7,4c0.3-2.7,2.4-5.2,5.1-5.8
		c1.6-0.3,2.4-2.1,3.7-3C216.7,68.8,219.3,69.2,221.1,68"/>
	<path fill="#398408" d="M268.2,83.1c0.4,1.2,0.6,2.5,0.4,3.8c1.1,0.1,2.1,1.1,2.2,2.2c0.9,0.5,2.1-0.2,2.6-1.1c0.5-0.9,0.6-2,1-3
		c1.5-3.8,6.5-4.4,9.2-7.3c0.8-0.8,1.8-1.3,2.9-1.8c1.8-0.7,3.6-1.5,5.4-2.3c0,1.4-1.3,2.4-2.4,3.2c-3.5,2.3-7,4.5-10.5,6.8
		c-1.6,1-1.8,3.2-2.7,4.9c-0.9,1.8-2.7,3.1-4.7,3.3c-0.5,0.1-1,0.1-1.4-0.1c-1.5-0.4-2.3-2-2.9-3.4c-0.4-0.9-0.8-1.9-0.7-2.9
		C266.5,84.4,267.2,83.3,268.2,83.1"/>
	<path fill="#126606" d="M275.3,59.4c0.6,0.8,0.1,2.1-0.8,2.7c-0.8,0.6-1.8,1-2.5,1.7c-0.7,0.7-0.9,2.2-0.1,2.7
		c-0.5,0.1-0.8,0.7-0.8,1.2c-1.6,1.6-3.9,2.4-6.1,2.1c-2.2-0.3-3.6,2.7-5.8,2.9c-1.8,0.1-3.1,1.7-4.5,2.9c-1.4,1.3-3.1,2.3-4.9,3
		c-0.5,0.2-1.2,0.3-1.5-0.2c-0.5-1-2.7,0.6-2.9-0.5c-0.4-0.1-0.6-0.6-0.5-1.1c0.1-0.4,0.5-0.7,0.9-0.9c3.2-2.2,7.6-3.2,9.2-6.8
		c0.4,0.1,0.8,0.1,1.2,0.2c-0.5,0.4-0.5,1.2,0,1.6c0.4-0.8,1.2-1.3,2.1-1.7c2.6-1.3,5.5-2.1,8.4-2.4c1.4-0.1,2-1.8,2.7-3
		C270.6,61.5,272.8,59.9,275.3,59.4"/>
	<path fill="#67BA1E" d="M109.8,79.6c0.1,0.5,0.5,0.9,1,0.9c-1.1,3.9-4.9,6.2-8.3,8.1c-5.1,2.7-10.3,5.5-14.1,10
		c-0.9,1.1-2.3,1.6-3.5,2.3c-1.2,0.7-2.4,1.8-2.4,3.2c-1.1,0.8-2.7-0.7-2.5-2.1c0.2-1.4,1.3-2.4,2.4-3.3c1.5-1.3,3.1-2.5,4.6-3.8
		c0.8-0.7,1.6-1.3,2.4-1.9c1.5-1.1,3-2.1,4.6-3.2C99.3,86.4,104.6,83,109.8,79.6"/>
	<path fill="#398408" d="M193.9,160.8c-1.9,1.3-3.7,2.9-5.4,4.5c-1.7,1.6-3.5,3.2-5.3,4.8c-0.4-1.4-0.2-2.9,0.4-4.2
		c-0.8-0.5-0.2-1.7,0.3-2.4c1.1-1.4,2.3-2.8,4-3.2c1.8-0.4,3.6-1.3,5.1-2.5c1.1-0.8,2-1.9,3.2-2.6c1.1-0.7,2.6-1.2,3.8-0.7
		c0.5,0.2,1-0.4,1.3-0.9c1.3-2,3-3.7,5.1-4.7c0.4-1.5,0.8-3.1,1.2-4.6c0.7-0.3,1.4-0.2,2.1,0c-1.9,4.1-4.1,8.1-6.8,11.7
		c-0.1-0.5-0.1-1.1-0.2-1.6c-2,0.3-4.1,1-5.1,2.8C197,158.8,195.4,159.7,193.9,160.8"/>
	<path fill="#67BA1E" d="M253.1,44.4c-0.4-0.5-0.9-0.8-1.4-1c2.3-3.2,6-4.8,9.5-6.3c2.1-0.9,4.3-1.8,6.5-1.8c3,0,5.9-1.3,7.9-3.6
		c0.9-1,2.2-1.4,3.4-1.8c2.9-0.9,5.8-1.8,8.7-2.7c0.6-0.2,1.3-0.3,1.6,0.2c-2.2,1.1-4.5,2.3-6.7,3.4c-0.8,0.4-1.5,0.8-2.3,1.2
		c-1.5,0.8-2.9,1.5-4.4,2.3c-4,1.8-8.2,3.3-12.4,4.3c-1.1,1.5-3.2,2.1-4.8,1.3c-1.1,1.2-2.3,2.3-3.4,3.5
		C254.4,43.4,253.6,43.8,253.1,44.4"/>
	<path fill="#67BA1E" d="M104.1,177.4c-2.6,1.7-5.6,2.7-8.6,3c0.4-0.4,0.9-0.7,1.5-0.7c0.8-1.6,1.7-3.2,2.5-4.7
		c0.5-0.9,1.2-1.9,2.2-1.8c-0.1,0.3-0.2,0.6-0.3,0.8c1.4,0.5,3.1-0.3,3.7-1.7c0.3-0.7,1.3-0.3,2.1-0.5c1.5-0.4,1.8-3.3,3.3-3.1
		c1.1,0.2,2.2-0.8,2.4-1.9c0.2-1.1-0.1-2.3-0.4-3.4c-0.2-0.7-0.5-1.4-0.5-2.2c0-0.8,0.5-1.6,1.2-1.7c1.1-0.3,1.9,0.9,2.4,2
		c0.4,1.1,0.9,2.4,2,2.6c1,0.1,1.9-0.8,2.6-1.5c1-1.1,2.2-2,3.5-2.7c0.5-0.3,1.3-0.6,1.8-0.1c0.6,0.6,0.2,1.5-0.2,2.2
		c-0.8,1.3-1.5,2.5-2.6,3.5c-2.2,2.1-5.5,2.8-8.3,1.8c-0.1,1.2-1.2,2-2.2,2.7c-1.5,1.1-3.1,2.1-4.6,3.1
		C107.1,174.9,105.6,176.4,104.1,177.4"/>
	<path fill="#3C6606" d="M156.1,184.1c1.7,0,2.9-1.5,4.2-2.6c1.3-1.2,3.2-2.1,4.5-1.1c-2.8,2.7-6,5-9.5,6.8c-1,0.5-1.8,1.4-2.7,2.1
		c-2.2,2-4.9,3.4-7.5,4.7c-4.1,2.2-8.2,4.3-12.3,6.5c-1.7,0.9-3.7,1.8-5.5,1.3c3.8-3.8,9.2-5.5,12.6-9.6c1.4-1.6,2.6-3.8,4.6-4.2
		c1.2-0.2,2.4,0.2,3.6,0C151.1,187.7,153.1,184.1,156.1,184.1"/>
	<path fill="#126606" d="M199.9,54.4c-1.1,1.3-2.5,2.4-4.1,2.9c-1.2,0.4-2.4,0.5-3.4,1.1c-1,0.6-1.8,1.9-1.4,3
		c-2.7-0.8-5.2,2.1-8,2.1c-1,0-1.6,1.1-2.2,1.9c-0.6,0.8-2,1.3-2.4,0.4c0.9-1.2,2.2-1.9,3.4-2.7c3.3-2,6.6-3.9,9.9-5.9
		c2.9-0.7,5.5-2.2,7.7-4.3c-0.2-1,0.9-1.7,1.7-2c4.9-2,9.7-4,14.5-5.9c-0.1,0.4,0.1,0.8,0.3,1.1c-1.1,1.2-2.2,2.4-3.3,3.7
		c0-0.3-0.3-0.6-0.6-0.5c0.2,0.6-0.3,1.2-0.9,1.4c-0.5,0.2-1.2,0.1-1.7,0.1c-3.1-0.2-6.4,0.8-8.9,2.8
		C200.3,53.7,200.1,54.1,199.9,54.4"/>
	<path fill="#126606" d="M108.6,94.1c0.3-1.8,1.5-3.4,3-4.4c1.5-1,3.2-1.6,4.9-2.2c0,0.4,0.1,0.8,0.1,1.2c-0.6,0-1.2,0.7-1.1,1.4
		c-1.1-0.3-2.3-0.1-3.2,0.6c-0.1,0.5-0.2,1-0.2,1.5c0.5,0.4,1.2,0,1.7-0.3c0.5-0.3,1.5-0.2,1.5,0.5c0.2-0.4,0.4-0.9,0.6-1.3
		c0.6-0.6,1.7-0.4,2.1,0.4c0.4,0.8-0.1,1.8-0.9,2.1c-5.1,1.8-9.2,5.9-13,9.8c-2.5,2.5-5,5.1-7.4,7.6c-1.1,1.1-2.3,2.3-3.8,2.9
		c-1-1.3-0.1-3.7,1.5-4c2.8-0.4,3.2-5.2,6-5.6c0.3-1.1,1-2,1.8-2.7c0.3,0.2,0.6,0.4,0.9,0.6c-0.4-1.1,0.5-2.5,1.6-2.6
		c-0.5-1.5,0-3.3,1.1-4.5c0.7,0.4,1.1,1.3,1.1,2.1C107.7,96.4,108.4,95.3,108.6,94.1"/>
	<path fill="#67BA1E" d="M131.4,60.1c1.5-0.4,3.5,0.2,4.1-1.2c2.5-5.7,8.8-9.5,14.9-8.8c6.2-3.9,12.6-7.3,19.2-10.3
		c0.4,2.2-1.1,4.4-3,5.6c-1.9,1.2-4.1,1.6-6.1,2.6c-3.6,1.7-6.6,4.9-10.5,5.3c-5.5,0.6-9,6-13.8,8.9c-5,3-12,3.6-14.7,8.8
		c-0.5-0.5-1.1-1.1-1.6-1.6c0-3.4,3.1-6.4,6.4-6.2C128.3,63.2,129.5,60.6,131.4,60.1"/>
	<path fill="#126606" d="M135.9,112.5c3.8-2.3,7.6-4.6,11.3-6.9c1.7-1,3.5-2.1,5.4-2.5c2.7-0.6,4.9-3.1,5.2-5.9
		c1.6,0.9,2.5,2.9,2.1,4.7c-3.3-0.7-5.2,5-8.5,4.5c-1.7-0.2-1.7,3.1-3.3,3.6c-6,2.1-10.4,8.2-16.5,9.8c-4.7,1.3-9.2,3.5-13.1,6.6
		c-0.8,1.7-1.6,3.4-2.5,5.1c-0.8,0.5-1.8,0-2.3-0.8c-0.4-0.8-0.3-1.8-0.1-2.7c1.6-5.7,7.8-8.3,13.2-10.2c0.3,0.4,0.6,0.8,0.9,1.1
		C129.8,116.2,132.9,114.3,135.9,112.5"/>
	<path fill="#67BA1E" d="M51.9,222.7c-0.5,1.3-1.9,2-3.3,2c-1.4,0-2.7-0.4-4-0.8c1.6-1.4,3.7-2.2,5.9-2.3c2.4-0.1,4.5-2.6,4.2-5.1
		c-1.2,0.4-2.3,1.2-3.4,1.7c-1.2,0.5-2.7,0.7-3.6-0.1c-0.4-0.3-0.6-0.9-0.4-1.4c0.2-0.4,0.5-0.5,0.9-0.6c1.2-0.5,2.5-1,3.7-1.5
		c1.2-0.5,2.4,0.9,3.7,0.7c0.9-0.1,1.6-0.9,2.4-1.4c0.8-0.5,2.1-0.3,2.2,0.7c-1.4,1.6-2.7,3.4-3.8,5.3c0,1.2,1.6,1.3,2.7,0.9
		c1.1-0.4,2.5-0.7,3,0.4c0.3,0.7,1.3,0.8,2,0.8c2.6-0.2,5-1.3,6.9-3.1c-3-0.8-6.3-0.4-9,1c-0.4,0.1-0.4-0.6-0.2-0.9
		c1.3-1.9,3.6-2.7,5.7-3.4c2.4-0.8,4.8-1.6,7.2-2.4c0.9-0.3,1.9-0.5,2.7-0.1c-0.1,0.6-0.8,1.1-1.4,0.9c-0.2,0.5,0.1,1.1,0.6,1.2
		c-0.6,0.4-0.9,1.2-0.6,1.9c0.4-0.1,0.8-0.1,1.2-0.1c0.1,1.1-1.1,1.7-2,2.1c-1.5,0.5-3.1,0.8-4.7,1c0.2,1.5-1.6,2.4-3,2.8
		c-1.1,0.3-2.3,0.7-3.4,1c-0.9,0.3-1.8,0.5-2.7,0.6c-2.5,0.2-4.9-1.2-7.3-2.1C53.2,222.1,52.2,222,51.9,222.7"/>
	<path fill="#3C6606" d="M208.7,28.1c-1.1,2.5-4.1,4-6.7,3.2c0.8-1.4,2.2-2.4,3.7-2.8c0-0.6,0-1.1,0-1.7c-1.4,0.2-3.2,0.7-3.6,2.1
		c-0.6-0.6-1.4-0.9-2.3-0.7c-0.2,0.3-0.2,0.7-0.1,1c0.4-0.2,1,0.2,0.9,0.7c-0.5,0.1-1,0.2-1.5,0.4c0.2-0.4-0.2-1-0.6-0.9
		c-0.3,0.7-0.6,1.4-0.9,2.2c0.6,0.1,1.2,0.3,1.8,0.4c-1.6,0.6-2.3,2.5-2.5,4.3c-0.2,1.7-0.1,3.5-0.8,5.1c-1.5,3.4-6,4.3-9.4,3
		c-0.3-0.1-0.6-0.5-0.4-0.7c0.6-0.7,0.4-1.9,0.3-2.9c-0.1-1,0.4-2.3,1.4-2.3c-0.3,1.2,0.4,2.6,1.4,3.1c1.1,0.5,2.5,0.3,3.4-0.6
		c0.7-0.7,1.1-1.8,1.4-2.8c0.6-1.9,1.2-3.7,1.8-5.6c0.2-0.1,0.5-0.1,0.8-0.2c0.6-0.6-0.3-1.7-1.2-1.6c-0.9,0.2-1.4,0.9-1.9,1.7
		c-0.9,1.2-1.8,2.4-2.8,3.5c-0.1-0.4-0.3-0.9-0.6-1.2c-0.4-0.2-1,0.1-0.9,0.6c-0.4-0.3-0.7-0.5-1.1-0.8c0,0.6-0.5,1.1-1.1,1
		c-0.6,0-1.1-0.6-1-1.2c0.8-1.9,2.8-2.8,4.6-3.5c2.4-1,4.9-2,7.3-3c2.4-0.9,4.9-1.9,7.3-2.9c2.8-1.1,5.6-2.2,8.6-2.2
		c-0.3,1-0.8,2.1-1.8,2.3c-0.1,0.2-0.1,0.5-0.2,0.7C210.7,26.6,209.7,27.4,208.7,28.1"/>
	<path fill="#3C6606" d="M121.8,83.4c-0.7,0.6-1.1,1.4-1.7,2c-0.6,0.6-1.6,1.1-2.3,0.6c1.3-1.8,2.9-3.5,4.6-4.8
		c-1.2-1.9-1.6-4.5-0.9-6.7c2-0.6,4-1.1,6-1.7c-0.2,1.2-1.4,1.9-2.4,2.7c-1,0.7-1.8,2.3-1,3.2c1,1.1,2.7-0.1,3.6-1.3
		c1.8-2.3,3.5-4.5,5.3-6.7c1.1-1.3,2.5-2.3,3.9-3.3c2.4-1.7,4.8-3.3,7.2-5c5.4-3.8,11-7.6,17.3-9.2c-5.2,6.6-14.7,8.5-19.8,15.2
		c-1.4,1.9-4.4,1.2-6.3,2.6c-1.4,1.1-1.7,3.1-2.4,4.8c-1.2,3.2-4,5.7-7.2,6.4C124.5,82.4,122.9,82.4,121.8,83.4"/>
	<path fill="#126606" d="M114.1,189c1,0.6,0.7,2.2,0,3.2c-0.7,1-1.7,1.8-1.8,3c-0.6,5.3-4.7,9.9-9.8,11.1c0.3,0.7,0.9,1.3,1.6,1.5
		c-0.9,0.4-1.5,1.4-1.5,2.4c-3.1,1-6.3,2-9.4,3c-1.4,0.5-3.1,1.2-3.5,2.6c-0.2-0.8-0.4-1.7-0.6-2.5c-3.3,2.9-7.9,4-12.1,3
		c1.4-1.5,3.5-2,5.3-3c1.8-1,3.5-2.8,3.1-4.9c1,1.7,3.5,1.1,5.1,0.2c1.6-0.9,3.7-2,5.3-1c0.8,0.6,1.9,0,2.8-0.6
		c5-3.3,10.2-7,12.3-12.7c0.6-1.8,1-3.6,1.8-5.3c0.7-1.3,1.7-2.5,2.7-3.6c0.5-0.6,1.1-1.2,1.6-1.8c1.3-1.4,2.7-3,4.5-3.4
		c0.7,1.1,1,2.4,0.8,3.7c-0.5-0.2-1.1-0.4-1.7-0.6c-1,1,0.4,3.1,1.7,2.5c0.3,1.7-2.1,2.4-3.7,2.1C117,187.8,114.9,187.5,114.1,189"
		/>
	<path fill="#398408" d="M246,111.4c5.6-3,11.2-5.9,16.7-8.8c4.5-2.4,9-4.7,12.5-8.5c0.4,0.4,0.8,0.8,1.1,1.3
		c-6.5,11-22.9,11.9-30,22.5c-1.7,2.6-6.2,2.7-6.8,5.8c-1.4,7.4-7.9,13.4-15.2,14c4.2-3.4,8.5-6.9,12.7-10.3
		c-0.6-3.4,1.2-7.1,4.3-8.7C243.9,117.2,243.3,112.4,246,111.4"/>
	<path fill="#398408" d="M185.5,155.5c-1.1,0.2-1.6,1.4-2.2,2.3c-0.9,1.1-2.2,1.9-3.5,2.6c-5,2.7-9.9,5.5-14.8,8.2
		c-0.3-1.6,1.5-2.8,3.1-3.2c1.6-0.4,3.5-0.9,3.9-2.5c0.7-2.4,2.8-4,4.8-5.5c10.3-7.5,20.6-14.9,31.1-22c2.5-1.6,6-3.1,8-0.9
		c1,1.1,2.8,0.4,3.5-0.9c0.7-1.2,0.8-2.7,1.3-4c0.8-2,2.5-3.5,4.5-3.9c-0.4,3.4-0.9,6.9-2.9,9.7s-6,4.3-8.7,2.4
		c-0.9-0.6-2.1,0-2.9,0.6c-4.6,3.1-9.2,6.2-13.8,9.3c0.8,0.4,1.5,0.7,2.3,1.1C195.2,151.9,190.5,154.3,185.5,155.5"/>
	<path fill="#398408" d="M282.5,95.3c0-2.2,2.1-3.8,4.1-4.5c2-0.7,4.2-0.9,6-2c3.5-2.2,4.5-7.1,7.9-9.4c1-0.6,2.1-1.1,2.9-1.8
		c1.6-1.4,2-3.8,2.9-5.8c0.9-2,2.9-4,4.9-3.2c-2.5,6.6-6.8,12.4-12.3,16.6c1.4,3,0.5,6.9-2.1,8.9c-1.7-1.5-4.4,0.2-5.6,2.3
		c-1.2,2-2.1,4.6-4.2,5.5c-1.9,0.8-4,0-6.1,0.1c-2.1,0.2-4.1,2.7-2.6,4.2c1.1,0,1.9-1.1,3-1.3c1.1-0.2,2.3,1.5,1.2,1.9
		c-4.4,1.4-8.3,4.4-11,8.2c-1.5,2.1-3,4.8-5.5,5c0.7-5.5,7-8.3,9.3-13.4c0.7-1.5,1-3.3,1.7-4.8c0.8-1.5,2.3-2.8,4-2.5
		c0.5,0.4,0.9,0.8,1.4,1.2c3.9-2.5,8.3-5.5,8.8-10.2C288.3,91.9,285.4,93.5,282.5,95.3"/>
	<path fill="#67BA1E" d="M83.8,170c0.5,2.8-1.7,5.7-4.4,6.1c-0.3-1.2-0.2-2.5,0.3-3.6c-3,2.6-6.7,4.4-10.7,5c2-2.9,4-5.8,5.9-8.7
		c0.2-0.3,0.5-0.7,0.8-0.7c5-0.3,9.6-3.5,11.9-8c0.2,0.4,0.5,0.8,0.8,1.1c2.7-2.1,5.3-4.2,8-6.3c3.4-2.7,6.8-5.4,10.5-7.6
		c2.8-1.7,5.9-3.2,8.9-4.6c1.9-0.9,3.9-1.8,5.8-2.7c0.4,1.3,0,2.7-0.3,4c-0.8,2.7-1.6,5.5-2.3,8.3c-1.7-0.6-2.4,2.1-3.4,3.6
		c-1.2,1.8-4,2.1-5.6,0.6c4.5-1.4,8-5.8,8.5-10.6c-0.8-0.5-1.8-1.4-1.4-2.3c-2.3,2.7-4.6,5.4-7.6,7.2c-1.9,1.2-4.1,1.9-6.2,3
		c-4.7,2.4-8.6,6.2-12.4,9.9c0.8,0.5,1.6,0.9,2.5,1.3C89.9,165.8,86.6,167.5,83.8,170"/>
	<path fill="#3C6606" d="M84,108.2c-0.7,0-0.3-1.1,0.2-1.5c2.8-1.9,5.7-3.9,8.5-5.8c1.4,0.2,2.8-0.2,3.9-1.1
		c0.6,0.6,1.3,1.1,1.9,1.7c-4,2.7-8.2,5.2-12.4,7.7c-1.4,0.9-2.9,1.7-4.3,2.6c0.1,2,0.3,3.9,0.4,5.9c0.1,1.2,0.2,2.5,0.8,3.6
		c0.6,1.1,1.8,1.8,3,1.5c3.2-2.5,6.5-5,9.7-7.4c6-4.6,12.2-9.3,19.3-11.5c-2.2,3.7-5.9,6.3-10,7.1c-1.9,0.4-3.2,2.3-3.9,4.2
		c-0.7,1.9-1,3.9-2,5.7c-1,1.7-3.1,3.1-4.9,2.4c1.2-1.4,2.6-2.7,4.3-3.6c-1.8-1.9-5-0.1-6.6,2c-1.6,2.1-3.2,4.9-5.8,4.9
		c-3.3,0.1-5.1,4.8-8.4,5c-1.5,0.1-2.5,1.5-3.7,2.5c-1.2,1-3.2,1.6-4,0.2c3.8-3,7.8-5.7,12.1-7.9c-2.8-3.6-3.7-8.7-2.2-13.1
		c-0.6-0.6-1.7,0-2.5,0.4c-0.9,0.4-2.2-0.5-1.6-1.1c1.6-0.1,3.1-1.3,3.6-2.8C81.1,110,82.9,109.4,84,108.2"/>
	<path fill="#3C6606" d="M139.2,89.2c2.2-0.3,3.9-2,5.6-3.6c5.1-4.9,11.2-8.7,17.2-12.4c1.3-0.8,3.6-1.1,3.7,0.4
		c2.3-2.7,5.6-4.5,9.1-4.9c-3,3.3-6.3,6.4-9.8,9.1c-0.5-0.9-1-1.8-1.6-2.7c0.3,2.6-2.6,4.2-4.9,5.2c-4.9,2.1-9.4,5-13.4,8.6
		c-1.8,1.7-4,3.6-6.4,3.2c-1.6-0.3-2.6,1.7-3.4,3.2c-3,5.4-9.7,7.1-14.6,10.7c-5,3.6-8.8,9.6-14.9,10.4c2.6-2.2,5.1-4.4,7.7-6.5
		c1-0.8,1.9-1.7,2.4-2.8c0.5-1.2,0.3-2.7-0.8-3.4c2.3,0.6,4-2,5.2-4.1c1.1-2.1,3.4-4.5,5.4-3.4c-1.9,0.8-3,3.3-2.3,5.3
		c3.1-1.4,6.5-3,7.9-6.2c-1.1-0.5-2.4-0.6-3.6-0.2C130.8,91.9,134.9,89.7,139.2,89.2"/>
	<path fill="#398408" d="M171.5,148.9c1.9-1.1,4.1-2.2,6.2-1.4c-4.4,3.1-9.2,5.6-14.4,7.2c0,1.5,0.1,3,0.1,4.6
		c0.8,1.4,3,0.6,4.1-0.6c1.1-1.2,2.3-2.9,3.9-2.7c1.1,2.7-1.6,5.5-4.2,6.8c-2.6,1.3-5.8,2.6-6.6,5.5c1.3,0.2,2.7,0.4,4,0.6
		c-3.8,0.8-5.9,4.9-8.9,7.4c-1.6,1.3-3.5,2.3-5.3,3.2c-8.1,3.9-16.3,7.8-24.4,11.7c-2.4,1.1-5.2,3.6-3.9,5.9c4-2.4,8.4-4.2,12.9-5.3
		c-2.7,2.3-5.5,4.5-8.2,6.8s-5.5,4.5-8.5,6.3c-3.9,2.3-8.1,3.7-12.5,4.1c2.8-3.2,7.1-4.3,10.6-6.6c3.6-2.3,6.5-7.1,4.3-10.7
		c11.5-7.5,23.7-14,35.8-20.5c-1.2-0.6-2.3-1.2-3.4-1.9c2.2-2.6,5.4-4.3,8.7-4.7c1.2-0.8,0.7-2.8-0.1-4c-0.8-1.2-1.9-2.6-1.5-4
		c0.3-1.1,1.3-1.7,2.3-2.3C165.4,152.4,168.5,150.7,171.5,148.9"/>
	<path fill="#67BA1E" d="M169.3,120.9c5.2-4.7,11.5-7.8,17.8-10.9c6.6-3.2,10.4-10.4,13.7-17.1c0.8,0.1,1.6,0.1,2.5,0.2
		c-1.2,1.7-2.5,3.3-3.9,4.9c1.4,1.1,3.5,0,5-1c8.8-6.3,18.2-11.7,28-16c0.9,0.6,0.2,1.9-0.4,2.8c-0.5,0.9-0.4,2.6,0.6,2.4
		c0.2-2.6,3.2-3.8,5.6-4.1c-0.5,1.7-1.2,3.4-2.4,4.6c-1.3,1.2-3.5,1.5-4.7,0.2c-0.9,0.9-1.9,1.9-3.2,2.1c-1.3,0.1-2.8-1-2.4-2.3
		c-6.4,3.2-12.4,7.2-17.8,12c-2.6,2.3-5.4,5-8.8,4.9c1.3-0.8,1.7-2.8,0.9-4.1c-1.5,0.7-2.8,1.9-3.5,3.4c1.7,0.8,0.4,3.4-1.1,4.6
		c-5.2,4.2-10.9,7.8-16.8,10.9c-1.7,0.9-3.3,2.2-4.9,3.4c-4.2,3.5-8.4,6.9-12.5,10.4c-1.4,1.2-2.8,2.3-4.4,3.2c0-1.1,0-2.2,0-3.3
		c-0.7-0.5-1.8-0.2-2.2,0.7c-0.3,0.8,0.2,1.9,1.1,2c-2.7,5.1-7.4,9-12.8,10.7c-2.4,0.7-3.7,3.4-6,4.2c-1.1,0.4-2.4,0.3-3.5,0.7
		c-3.6,1.2-4.4,5.9-4.7,9.8c-2.1-0.1-3-3-2.6-5.1c0.7-3.9,3.8-7.2,7.4-8.2c3.1-0.8,6-2.6,8.2-5c1-1,2.3-2.3,3.4-1.6
		c-0.7-3.2,2.1-6.8,5.3-6.8c3.1,0,4.7-4.5,7.8-4.9C162.6,128.2,165.9,124.1,169.3,120.9 M148.7,136c-0.9,0.9-1.4,2.1-1.4,3.3
		c0,0.4,0.1,0.9,0.4,1.1c0.9-0.2,1.5-1.1,2-1.9c0.4-0.6,0.8-1.4,0.6-2.1C150.1,135.8,149.1,135.4,148.7,136"/>
	<path fill="#3C6606" d="M144.8,94c1.9-1.4,3.9-2.8,5.4-4.7c0.8-1,2.1-1.5,3.2-2.1c5.7-2.5,11.1-5.5,16.3-8.9
		c3.6-2.4,7.3-5.4,8.5-9.7c0.3-0.9,0.7-2.1,1.6-2c0.1,0.8,0.2,1.6,0.3,2.4c9.5-5.2,19-10.4,28.4-15.6c1.1-0.6,2.3-1.5,2.2-2.7
		c3.1,1.7,7-1.3,7.7-4.9c0.1-0.6,0.2-1.2,0.6-1.7c0.4-0.4,1.2-0.5,1.4,0.1c-1.6,1.6-0.4,5,1.8,5.2c-2.3,3.4-7.6,2.3-10.9,4.5
		c-4.4,2.9-8.7,5.8-13.2,8.7c-1.1,0.7-2.1,1.4-3.1,2.1c-11.5,7.6-22.9,15.1-34.4,22.7c-4.4,2.9-8.9,5.9-13.3,8.8
		c-2.3,1.5-4.6,3-6,5.4c-0.8,1.4-1.2,3-2.3,4.2c-0.8,0.9-1.9,1.6-3.1,2.2c-4.5,2.5-9.1,4.9-13.6,7.4c-4.1,2.2-8.3,4.6-11.1,8.4
		c-3.8,5.3-10,8.8-16.4,9.2c0.4,4.7-4.5,7.9-8.6,9.9c-2.9,1.4-5.8,2.8-8.7,4.3c2-3.7,4.1-7.3,6.1-10.9c0.7-1.2,2.7-2.4,3.1-1
		c-0.6,1.3-1,2.8-1,4.3c2.9-1.8,5.4-4.2,7.3-7.1c-1.8,0.4-3.7,0.7-5.5,1c2.7-5.1,9.9-4.7,14.5-8c7.7-5.6,15.3-11.2,23-16.8
		C131.6,103.6,138.2,98.9,144.8,94 M137.7,106.3c0.8-0.5,1.3-1.6,1-2.5c-0.3-0.2-0.8-0.2-1.2-0.2c-0.3,0.6-0.7,1.2-1.2,1.6
		c0.4,0.2,0.9,0.5,1.2,0.9"/>
	<path fill="#3C6606" d="M283.4,0.4c12.2,1.4,24.1,7.3,32.1,17c8,9.7,11.6,23.3,8.6,35.6c-1.1,4.4-2.9,8.6-4.7,12.8
		c-6,13.6-12.2,27.4-22.1,38.2c-8.1,8.8-18.3,15.1-28.4,21.4c-27,16.6-53.9,33.3-80.8,50c-23.3,14.4-46.7,28.8-72.6,37.4
		c-8.5,2.8-17.5,5.1-25,10c-24.9,16.1-61,9.9-79.4-13.7C6.2,203,2.6,196.1,1,188.6c-3-13.9,1.2-28.4,7.3-41
		c12.1-24.7,31.9-44.9,54.1-60.5c22.2-15.7,46.8-27.3,71.6-38.3C169.5,32.9,205.6,18,242.7,6.5C255.9,2.5,269.6-1.2,283.4,0.4
		 M30.4,121.8c0.9,2.3,1,4.9,0.2,7.1c2.2,0.6,3.1-2.7,3.2-5c0.5-7.5,5.7-14.4,12.5-16.8c0.9,0.5,1.4,1.4,1.4,2.5
		c-4,2.4-7.5,5.8-10.1,9.9c3.3,2.4,0.5,8-3.1,10.1c-3.6,2-8.2,3.6-9.3,7.6c-1.8,7.1-5.9,13.5-11.5,17.9c-0.1-1.3-0.2-2.6-0.2-3.9
		C4,161.2,0.3,176.6,4.3,190c2.1,7.1,6.2,13.4,11,18.9C28.6,224,49.6,232.8,69,228.1c10.2-2.4,19.2-8.4,30-12.9
		c9.4-4,19.5-6.2,29-10c8.1-3.2,15.7-7.6,23.3-12c17.7-10.2,35.4-20.4,53.1-30.7c16.5-9.5,33.4-19.4,45.6-34.2
		c-0.9,1.2-1.7,2.4-2.6,3.6c24.1-10.7,50.2-23.5,60.8-48.1c2.7-6.2,4.2-13,7.2-19.1c1.7-3.6,4-6.9,5.5-10.7
		c5.5-13.6-0.4-30.1-11.4-39.5c-11.1-9.3-26.2-12.2-40.4-11c-14.2,1.2-27.9,6.2-41.4,11c-60.9,22-122.7,44.6-174.8,83.7
		c-17.3,12.9-34.3,29.3-38.1,50.9C19.8,140,25.1,130.9,30.4,121.8"/>
</g>
</svg>
