<?xml version="1.0" encoding="utf-8"?>
<!-- Generator: Adobe Illustrator 21.0.2, SVG Export Plug-In . SVG Version: 6.00 Build 0)  -->
<svg version="1.1" id="Layer_1" xmlns="http://www.w3.org/2000/svg" xmlns:xlink="http://www.w3.org/1999/xlink" x="0px" y="0px"
	 width="205.5px" height="232.3px" viewBox="0 0 205.5 232.3" enable-background="new 0 0 205.5 232.3" xml:space="preserve">
<g>
	<path fill="#4A5E2B" d="M130,43.7c1.6-0.6,3.5,0.6,3.9,2.2c-4.1-1.2-9.1-2.1-12.1,1c-1.2,1.3-3.4,0.9-5.2,0.9
		c-3.6,0-7.1,2.4-8.5,5.7c-0.4-2-0.7-4.1-1.1-6.1c-4.9,2.8-9.3,6.6-12.6,11.1c-7.9,10.7-9.8,24.8-7.8,38c2,13.1,7.7,25.4,14,37.1
		c10,18.5,21.7,35.9,33.5,53.4c3.9,5.8,7.7,11.5,11.6,17.3c5.6,8.3,11.3,16.7,19.2,22.7c1.4,1.1,3,2.1,4.7,2.6
		c1.9,0.5,3.9,0.4,5.8,0.2c6.4-0.5,12.9-1.1,18.6-4c5.7-2.9,10.4-8.6,10.1-15c-1.8-35.2-7.8-70.1-17.8-103.9
		c-1.1-3.7-2.3-7.4-2.4-11.3c-0.6-12.6-3.5-25.3-10.4-35.9c-6.9-10.6-18-18.7-30.5-20.1c-3.1-0.4-6.3-0.3-9.4-0.2
		c-7.9,0.2-16.3,0.9-22.3,6c-1.2,1-2.2,3-0.9,4c0-2,2.4-3.2,4.4-3.3c2-0.1,4.2,0.2,5.9-0.8c3.6-2.1,7.7-3.5,11.8-4
		C131,41.2,130,42.5,130,43.7L130,43.7z"/>
	<path fill="#637A3D" d="M127.2,153c-12.9-32.3-18.2-68.1-18.1-102.5c-1.2,1-2.2,2.2-2.8,3.6c-0.4-2-0.7-4.1-1.1-6.1
		c-4.9,2.8-9.3,6.6-12.6,11.1c-7.9,10.7-9.8,24.8-7.8,38c2,13.1,7.7,25.4,14,37.1c10,18.5,21.7,35.9,33.5,53.4
		c3.9,5.8,7.7,11.5,11.6,17.3c5.6,8.3,11.3,16.7,19.2,22.7c1.3,1,2.6,1.9,4.1,2.4c-13.4-21.6-32.8-39.5-39.9-65.9
		C126.2,160,128.2,156,127.2,153z"/>
	<path fill="#536D21" d="M201.9,210.7c-1.1-1.9-2.1-4-2.6-6.2c-5-20-9-39-14-58c-2-7-3-14-5-22c-4-18-9-33-13-51c-2-7-6-15-10-22
		c-0.7-2.1-1-4.3-1.2-6.6c-4.7-2.8-9.9-4.8-15.4-5.4c-3.1-0.4-6.3-0.3-9.4-0.2c-7.9,0.2-16.3,0.9-22.3,6c0,0-0.1,0.1-0.1,0.1
		c0,0.7,0,1.4,0,2c0.9-0.9,2.3-1.4,3.6-1.5c2-0.1,4.2,0.2,5.9-0.8c3.6-2.1,7.7-3.5,11.8-4c-1.3,0.1-2.3,1.3-2.2,2.5
		c1.6-0.6,3.5,0.6,3.9,2.2c-4.1-1.2-9.1-2.1-12.1,1c-1.2,1.3-3.4,0.9-5.2,0.9c-2.1,0-4.1,0.8-5.7,2.1c-0.1,34.4,5.2,70.2,18.1,102.5
		c1,3-1,7,0,11c7,26.4,26.5,44.3,39.9,65.9c0.2,0.1,0.4,0.2,0.6,0.2c1.9,0.5,3.9,0.4,5.8,0.2c6.4-0.5,12.9-1.1,18.6-4
		C197.5,222.9,202.2,217.1,201.9,210.7C201.9,210.7,201.9,210.7,201.9,210.7z"/>
	<g>
		<g id="XMLID_5_">
			<g>
				<path fill="#2A3F04" d="M199.4,202l0.1,0c0.1,0.2,0,0.4-0.1,0.6c-0.7-0.7-0.9-1.7-0.7-2.7C199.2,200.5,199.4,201.3,199.4,202z"
					/>
				<path fill="#2A3F04" d="M198.7,190.6c-1.4-0.6-0.7-3-1.9-3.9c-0.4-0.3-0.4-0.9-0.2-1.3c0.2-0.4,0.6-0.7,1-1
					c0.5,1.2,0.9,2.6,1.1,3.9C198.9,189,199,189.8,198.7,190.6z"/>
				<path fill="#2A3F04" d="M194.8,209.2c0.9,0.6,0.9,2.1,0.1,2.8c-0.6-0.4-0.9-1.1-0.8-1.8c0-0.2,0.1-0.5,0.3-0.7
					C194.5,209.4,194.7,209.3,194.8,209.2z"/>
				<path fill="#2A3F04" d="M195.8,207.6c-0.6-0.6-1.5-1-2.4-1c-0.3-0.1-0.4-0.5-0.2-0.8c0.2-0.3,0.5-0.4,0.8-0.4
					c1.1,0,1.9,1,2.3,2.1C196.1,207.6,196,207.6,195.8,207.6z"/>
				<path fill="#2A3F04" d="M193.9,196.4c-0.1-1.6-0.1-3.2-0.6-4.8c-0.7-2-2.1-4.1-1.3-6.1c0.1-0.1,0.1-0.2,0.3-0.3
					c0.1,0,0.3,0,0.4,0.1c0.9,0.5,1,1.7,1.1,2.7c0.1,1.3,0.2,2.6,0.3,3.9c1.5,2.4,0.3,5.5,0.5,8.3c0,0.4,0.1,0.8,0,1.2
					c-0.1,0.4-0.4,0.7-0.9,0.7c0-1.1,0.1-2.2,0.2-3.3C194,198,193.9,197.2,193.9,196.4z"/>
				<path fill="#647C39" d="M192.4,169.2c0.2,0.7,1.1,1,1.8,1.4c1,0.6,1.6,1.7,1.6,2.8c0.4,1.8,0.6,3.7,0.6,5.6
					c0,0.4-0.4,0.8-0.5,0.5c0.3-0.5-0.1-1.1-0.5-1.4c-0.4-0.3-0.8-0.7-0.8-1.2c0,0,0-0.1,0-0.1c0.4-1.9-0.6-3.7-1.6-5.4
					c-0.2-0.3-0.4-0.6-0.5-0.9c-0.2-0.4-0.5-0.8-0.9-0.9c-0.1-0.2-0.2-0.4-0.2-0.7c-0.2-0.9,0-1.9,0.5-2.7c0.2-0.4,0.5-0.7,0.4-1.1
					c0.3-0.2,0.7-0.4,1-0.7c0.8,0.4,0.5,1.7,0,2.4C192.8,167.6,192.1,168.4,192.4,169.2z"/>
				<path fill="#2A3F04" d="M191.8,177.2c-0.2-1.9-0.9-3.8-1.9-5.4c-0.3-0.5-0.6-0.9-0.9-1.4c-0.2-0.4-0.2-0.8-0.3-1.2l2.7-0.2
					c0,0.2,0.1,0.4,0.2,0.7c0.4,0.2,0.7,0.6,0.9,0.9c0.2,0.3,0.4,0.6,0.5,0.9c0.9,1.7,1.9,3.5,1.6,5.4c0,0,0,0.1,0,0.1L191.8,177.2z
					"/>
				<path fill="#647C39" d="M190.5,159.9c0.3,0.5,0.6,1.1,0.6,1.8c0,0.8-0.6,1.5-0.5,2.3c-0.9-1.1-1.2-2.5-1-3.8
					c0.1-0.3,0.3-0.7,0.6-0.6C190.3,159.6,190.4,159.7,190.5,159.9z"/>
				<path fill="#2A3F04" d="M189.6,141.6l0.4,0.2c-0.2,0.7-0.4,1.3-0.6,2c-0.7-1.1-0.9-2.3-0.7-3.5
					C189.4,140.2,190,141.1,189.6,141.6z"/>
				<path fill="#2A3F04" d="M189.7,195.9c-0.8-0.5-1.3-1.5-1.2-2.5c0.3,0,0.6,0.1,0.8,0.1c0.1,0.2,0.1,0.4,0.1,0.6l-0.1,0.1
					C189.8,194.6,190,195.4,189.7,195.9z"/>
				<path fill="#2A3F04" d="M188.7,173c-0.4-1.4-0.9-2.8-1.3-4.2c-0.2-0.7-0.5-1.4-0.9-2c0.8-0.3,1.6,0.4,2,1.2
					c0.2,0.4,0.2,0.8,0.3,1.2c0.1,0.4,0.2,0.8,0.3,1.2c0.2,0.5,0.6,0.9,0.9,1.4c1.1,1.6,1.7,3.5,1.9,5.4c0.1,0.8,0.1,1.5,0.1,2.3
					c-0.3,0.2-0.7,0.1-1-0.2c-0.4-0.4-0.6-0.9-0.7-1.5C189.7,176.2,189.2,174.6,188.7,173z"/>
				<path fill="#2A3F04" d="M188.4,136.8c0.1,0.2,0.2,0.4,0.3,0.6l0,0c0.1,0.5,0,1-0.1,1.5C188.1,138.3,188.1,137.5,188.4,136.8z"/>
				<path fill="#2A3F04" d="M188.5,156.4c-0.2-0.5,0.4-1.3-0.1-1.4h0c-0.1-0.3,0.3-0.5,0.6-0.6c0.4,0.3,0.7,0.6,0.8,1
					c-0.3,0.1-0.5,0.3-0.7,0.4c0.3,0.1,0.4,0.5,0.2,0.7C189,156.8,188.6,156.7,188.5,156.4z"/>
				<path fill="#2A3F04" d="M188,185.2c-0.8,0.3-1.7,0.4-2.5,0.1c-0.3-0.1-0.6-0.4-0.4-0.7C186.1,184.8,187.1,185,188,185.2z"/>
				<path fill="#2A3F04" d="M186.3,188.2c-0.1,0.4,0.1,0.9,0.5,1c-0.2,0.3-0.5,0.5-0.8,0.6c-0.1-0.3-0.3-0.6-0.4-0.9l-0.1,0.1
					c0-0.2-0.1-0.4-0.1-0.6C185.7,188.2,186,188.1,186.3,188.2z"/>
				<path fill="#2A3F04" d="M185.5,172.7c-0.6-0.4-1.2-0.8-1.8-1.2l-0.1,0.1c0-0.4-0.2-0.8-0.5-1c0.1-0.2,0.2-0.5,0.4-0.7
					C184.5,170.5,185.2,171.5,185.5,172.7z"/>
				<path fill="#2A3F04" d="M184.5,143.2c0.6,1.4,1.2,2.8,1.8,4.3c-1.1-0.2-2-1.1-2.1-2.2c0-0.4,0-0.9-0.4-1.1
					C184,143.8,184.2,143.4,184.5,143.2z"/>
				<path fill="#2A3F04" d="M184.5,213.7c-1.4,0.1-2.7-0.4-3.7-1.3c0.2-0.1,0.5-0.3,0.7-0.4C182.7,212.3,183.7,212.8,184.5,213.7z"
					/>
				<path fill="#2A3F04" d="M183.4,125.3c0.1-0.5,0.6-0.8,1.1-0.8l0,0.2c-0.3,0.1-0.2,0.7-0.1,1c0.1,0.4-0.1,0.9-0.5,0.8
					C183.5,126.3,183.3,125.8,183.4,125.3z"/>
				<path fill="#2A3F04" d="M183.6,138.8c0.1,0.9,0.2,1.9,0.7,2.8c-0.2,0.3-0.4,0.5-0.7,0.5c-0.2-0.2-0.4-0.4-0.6-0.6
					c0.1-0.1,0.3-0.3,0.4-0.4c-0.9-1.3-1.3-3-1.1-4.6C183,136.9,183.4,137.9,183.6,138.8z"/>
				<path fill="#2A3F04" d="M184,180.5c-0.2-0.1-0.4,0.2-0.4,0.4c0,0.2,0.1,0.5-0.1,0.6c-0.3,0.4-0.8-0.2-0.9-0.7
					c-0.2-1.1-0.5-2.2-0.2-3.3C182.8,178.6,183.3,179.6,184,180.5z"/>
				<path fill="#2A3F04" d="M181.3,174.2c-0.1-0.4-0.3-0.8-0.2-1.2c0.1-0.4,0.6-0.7,0.9-0.5c-0.1,0.2-0.2,0.4-0.3,0.6
					c0.5,0.6,0.9,1.2,1.1,2c-0.2,0.4-0.5,0.9-0.7,1.3C181.9,175.7,181.6,174.9,181.3,174.2z"/>
				<path fill="#2A3F04" d="M180.6,185.1c0.2,0.1,0.5,0.2,0.7,0.2c-0.3,0.2-0.6,0.4-1,0.6c-0.2,0.1-0.5,0.2-0.7,0.1
					c-0.2-0.1-0.3-0.4-0.2-0.7c0-0.5,0-1,0.1-1.6c0.6,0.2,1,0.7,1,1.3L180.6,185.1z"/>
				<path fill="#647C39" d="M178.5,156.6c-0.9-1.9-2-3.7-3.3-5.4c-0.3-0.4-0.5-1.2,0-1.2c1.4,0.9,2.6,2.1,3.3,3.6
					c0.1,0.3,0.4,0.6,0.7,0.6c0.7,1.9,1.2,3.7,1.6,5.6C179.5,159.2,179,157.8,178.5,156.6z"/>
				<path fill="#2A3F04" d="M175.3,221.9c0.7-0.9,2.2-0.9,2.8-0.1c0-0.4,0.6-0.7,1-0.5c0.4,0.2,0.5,0.7,0.4,1.2
					c-0.7-0.4-1.5-0.5-2.2-0.3C176.7,222.7,175.7,222.5,175.3,221.9z"/>
				<path fill="#2A3F04" d="M178.2,163.6c-0.1,0.5-0.9,0.6-1.3,0.3c-0.4-0.3-0.5-0.9-0.5-1.4l0.1-0.2
					C177.1,162.7,177.7,163.1,178.2,163.6z"/>
				<path fill="#2A3F04" d="M177.1,209.5c0.2-0.4-0.2-0.9-0.7-0.7l-0.2,0c0-0.4,0.3-0.7,0.7-0.8c0.3,0.2,0.5,0.5,0.6,0.8
					C177.7,209.1,177.5,209.5,177.1,209.5z"/>
				<path fill="#2A3F04" d="M174.3,195.5c-0.5-0.2-1-0.5-1.5-0.7c0.9-0.3,1.9-0.5,2.6,0c0.7,0.6,0.6,1.8,1.3,2.5
					c0.8,0.9,1.4,2,1.6,3.2c-0.1,0.1-0.3,0.2-0.5,0.1c-0.5-0.6-1-1.2-1.5-1.8c-0.6-0.7-1.1-1.3-1.5-2.1
					C174.6,196.4,174.4,196,174.3,195.5z"/>
				<path fill="#647C39" d="M175.6,90.9c-0.4-0.1-0.4,0.5-0.2,0.8c0.2,0.3,0.2,0.9-0.1,0.9c0.1,0.4,0.2,0.7,0.3,1.1
					c0.4,1.3,0.9,2.7,1.3,4c-0.3,0.4-0.4,1-0.3,1.6c-0.2,0.1-0.6,0.2-0.8,0.1c-0.3-1.3-0.7-2.6-1.1-3.9c-0.3-1.1-0.6-2.3-0.4-3.5
					c0.2-0.7,0.5-1.6-0.1-2C174.8,89.9,175.5,90.4,175.6,90.9z"/>
				<path fill="#2A3F04" d="M175.6,160.9c0.1-0.5-0.4-1-0.9-0.9c-0.4-1.1-0.6-2.3-0.6-3.4c0-0.3,0.2-0.7,0.4-0.6
					c0.1,0,0.1,0.1,0.2,0.2c0.8,1.4,1.4,3,1.7,4.6C176.1,160.9,175.8,160.9,175.6,160.9z"/>
				<path fill="#647C39" d="M173.5,88.1c-0.2-1-0.3-2-0.5-3c-0.1-0.7,0-1.8,0.8-1.8c0.8,1.4,0.6,3,0.6,4.6c0,0.3-0.2,0.8-0.5,0.7
					C173.6,88.5,173.5,88.3,173.5,88.1z"/>
				<path fill="#2A3F04" d="M173.1,215.1c-0.2-0.5-0.4-1.1-0.3-1.7c0-0.3,0.5-0.5,0.5-0.3c0.5,0.6,0.8,1.5,0.8,2.3
					C173.8,215.8,173.4,215.4,173.1,215.1z"/>
				<path fill="#2A3F04" d="M172.8,64c0.2,0.7,0.2,1.4,0,2.1c-0.4,0-0.4-0.5-0.3-0.8l0,0C172.4,64.9,172.4,64.2,172.8,64z"/>
				<path fill="#2A3F04" d="M172.7,174c-0.2-1.5-0.5-3.2-1.8-4.1c0.1-0.4,0.7-0.6,1-0.3c0.3,0.3,0.3,0.8,0,1.1c1,0,1.6,1.1,1.8,2
					c0.2,1,0.1,2,0.4,2.9c0.3,0.8,1,1.6,0.5,2.3C173.3,177.2,172.9,175.5,172.7,174z"/>
				<path fill="#2A3F04" d="M170.1,140.4c-0.2-0.8,0-1.6-0.2-2.4c0.8,0.2,1.5,0.9,1.7,1.6c0.2,0.6,0.2,1.3,0.1,1.9
					C171,141.9,170.3,141.1,170.1,140.4z"/>
				<path fill="#2A3F04" d="M171.1,211.9c-0.7,0.2-1.6,0.1-2.2-0.4c-0.3-0.5-0.3-1.1,0-1.6C169.4,210.8,170.2,211.5,171.1,211.9z"/>
				<path fill="#2A3F04" d="M170.2,87.3c0.4,0.4,0.6,1.1,0.4,1.6c-0.2,0.1-0.5,0.2-0.8,0.1c-0.2-0.6-0.3-1.3-0.5-1.9l0.2,0
					c-0.1-0.5,0.1-1,0.4-1.4c0.1,0.4,0.3,0.8,0.6,1.1C170.5,87,170.3,87.2,170.2,87.3z"/>
				<path fill="#2A3F04" d="M169.6,183.4c0.1,0.2,0.3,0.4,0.4,0.6c-0.7,0.1-1.5-0.3-1.8-1c0.2-0.1,0.3-0.1,0.5-0.1
					C168.7,183.2,169.2,183.5,169.6,183.4L169.6,183.4z"/>
				<path fill="#2A3F04" d="M168.5,153.2c0.1,0.5,0.3,1,0.4,1.6c0,0.4-0.8,0.2-0.9-0.2c-0.1-0.4,0.1-0.9,0-1.3
					C168.1,153.3,168.3,153.2,168.5,153.2z"/>
				<path fill="#2A3F04" d="M167.9,153.2C167.9,153.3,167.9,153.3,167.9,153.2C167.9,153.3,167.9,153.3,167.9,153.2L167.9,153.2z"/>
				<path fill="#2A3F04" d="M167,222.9c0.3-0.6,0.5-1.2,0.4-1.9c1.5,0.2,2.9,1.2,3.5,2.6c0.1,0.1,0.1,0.3,0.1,0.4
					c0,0.3-0.4,0.5-0.8,0.5c-0.3,0-0.6-0.3-0.9-0.5c-0.4-0.4-0.9-0.7-1.3-1.1C167.8,223,167.4,223,167,222.9z"/>
				<path fill="#2A3F04" d="M166.1,177.8c-0.3,0.4-1,0.4-1.4,0c-0.4-0.4-0.6-0.9-0.7-1.4c-0.1-0.2-0.1-0.4-0.2-0.6
					C164.8,176.2,165.6,176.9,166.1,177.8z"/>
				<path fill="#2A3F04" d="M163.7,130.2c0.9,0.5,1.5,1.6,1.6,2.7c-0.2-0.3-0.6,0-0.8,0.2c-0.4-0.7-0.9-1.5-1.3-2.2
					c-0.1-0.1-0.1-0.2-0.1-0.4C163,130.2,163.5,130,163.7,130.2z"/>
				<path fill="#2A3F04" d="M165.2,163.4c0.2-0.4-0.5-0.9-0.8-0.5c0.1-0.5-0.1-1-0.5-1.3c0.2-0.1,0.5-0.2,0.7,0
					c0.4,0.6,0.9,1.2,1.4,1.9C165.8,163.7,165.3,163.7,165.2,163.4L165.2,163.4z"/>
				<path fill="#2A3F04" d="M164.7,202.4c0-0.3,0.2-0.6,0.5-0.6c0.4,0.4,0.8,0.9,1.3,1.3c0.2,0.3,0.5,0.4,0.9,0.3
					c0.2,0.5-0.2,1.1-0.8,1.2c-0.1-0.2-0.1-0.5-0.1-0.8c-0.5-0.1-0.9-0.4-1.3-0.7C164.9,202.9,164.7,202.7,164.7,202.4z"/>
				<path fill="#2A3F04" d="M165.1,66.7c-0.3,0.2-0.5,0.4-0.8,0.6c-0.3-0.6-0.2-1.3,0.1-1.9C164.7,65.8,165,66.2,165.1,66.7z"/>
				<path fill="#647C39" d="M165,142.9c-1.8,0.3-3.3-1.5-3.3-3.3c0-0.1,0-0.2,0.1-0.2c0.1-0.3,0.6,0,0.7,0.2
					C163.3,140.7,164.1,141.8,165,142.9z"/>
				<path fill="#2A3F04" d="M164.3,188.6c0.4,0,0.7,0.5,0.4,0.7l0-0.1c-0.5,0.4-1.3,0.1-1.5-0.4C163.6,188.8,164,188.6,164.3,188.6z
					"/>
				<path fill="#2A3F04" d="M163.6,89.5c0.9,0.3,1.3,1.7,0.7,2.4C164.1,91.1,163.8,90.3,163.6,89.5z"/>
				<path fill="#2A3F04" d="M163.2,192c-0.4-0.1-0.6-0.5-0.6-0.8c0.7,0.1,1.3,1,0.9,1.7C163.2,192.9,163.2,192.4,163.2,192
					L163.2,192z"/>
				<path fill="#2A3F04" d="M162.9,120l0.1,0c0,0.7,0.1,1.3,0.1,2c-1.1-0.3-1.4-2.1-0.4-2.7C163,119.2,163.1,119.7,162.9,120z"/>
				<path fill="#2A3F04" d="M162.1,208.6c-0.1,0.3-0.7,0.2-0.7-0.1l0,0c-0.5-0.3-0.6-1.1-0.3-1.6C161.6,207.3,162,207.9,162.1,208.6
					z"/>
				<path fill="#2A3F04" d="M161,104.8c0.6,0.4,0.9,1.1,0.8,1.7c-0.6-0.3-0.9-0.9-0.9-1.6L161,104.8z"/>
				<path fill="#2A3F04" d="M160.6,100.9c0.2,0.3,0.4,0.7,0.3,1.1c-0.1,0.4-0.6,0.7-0.9,0.4c-0.1-0.1-0.1-0.2-0.2-0.3
					c-0.3-0.7-0.6-1.4-0.9-2.2c0.1-0.1,0.1-0.2,0.2-0.4C159.6,100,160.1,100.4,160.6,100.9z"/>
				<path fill="#2A3F04" d="M160,77.8c0.4,0.3,0.6,1,0.4,1.5c-0.3-0.2-0.7-0.4-0.8-0.8c-0.1-0.3,0.1-0.8,0.5-0.8L160,77.8z"/>
				<path fill="#2A3F04" d="M160.3,205.7c-0.7,0.2-1.6-0.5-1.6-1.2c0.2-0.2,0.4-0.4,0.6-0.6c0.1,0.2,0.1,0.4,0.2,0.6l-0.1,0
					C159.7,205,160,205.4,160.3,205.7z"/>
				<path fill="#2A3F04" d="M158.3,110.6c0.6,0.7,1.2,1.6,1,2.5c0,0.3-0.3,0.6-0.6,0.5C158.1,112.8,157.9,111.6,158.3,110.6z"/>
				<path fill="#2A3F04" d="M159,124c-0.2,0.2-0.5,0.2-0.7,0c-1.1-0.7-1.5-2.3-0.8-3.4C158,121.7,158.5,122.8,159,124z"/>
				<path fill="#2A3F04" d="M158.7,96c0.2,0.3,0.1,0.7,0,1l0,0c0.1,0.4-0.7,0.7-0.9,0.2c0.3-0.3,0.3-0.9,0-1.2
					C158,95.8,158.5,95.8,158.7,96z"/>
				<path fill="#2A3F04" d="M158.6,144.3c-0.2,0.3-0.6,0-0.7-0.3c-0.6-1.4-1.2-2.8-1.6-4.3c0.8,0.5,1.4,1.3,1.7,2.2
					C158.3,142.7,158.3,143.5,158.6,144.3z"/>
				<path fill="#2A3F04" d="M155.6,136.7L155.6,136.7c0.1,0.3-0.1,0.7-0.4,0.8c-0.4-0.6-0.5-1.4-0.5-2.1c0.2,0.2,0.5,0.3,0.8,0.2
					C155.6,136,155.6,136.3,155.6,136.7z"/>
				<path fill="#2A3F04" d="M154.9,113.3c0.4,0.3,0.6,1,0.4,1.5c-0.5,0-0.9-0.3-1.1-0.8c-0.2-0.5,0-1,0.5-1.2
					C154.7,112.9,154.8,113.1,154.9,113.3L154.9,113.3z"/>
				<path fill="#2A3F04" d="M155.1,82.2c0,0.4-0.6,0.7-0.8,0.3l0-0.1c0.1-0.4,0.2-0.8,0.2-1.2C154.9,81.5,155.1,81.8,155.1,82.2z"/>
				<path fill="#2A3F04" d="M153.4,78.5c0.1,0.2,0.1,0.4,0,0.6c-0.5-0.5-1-1.1-1.5-1.6c-0.3-0.3-0.6-0.7-0.7-1.2
					C152.2,76.6,153.1,77.5,153.4,78.5z"/>
				<path fill="#2A3F04" d="M159,216.4c-2.2-1.6-4.4-3.3-6.5-5.1c-0.2-0.2-0.5-0.4-0.6-0.7c-0.1-0.3,0.1-0.7,0.4-0.7
					c0.7,1.6,2.6,2.1,4.1,2.9c1.1,0.6,2.1,1.4,2.9,2.4c0.1-0.4,0.7-0.2,1,0c0.7,0.6,1.4,1.3,1.6,2.2c0.2,0.6,0.9,0.7,1.5,0.7
					c0.6,0.1,1.4,0.4,1.3,0.9c0.2-0.2,0.4-0.3,0.6-0.5c0.4,0.3,0.8,0.6,1.2,1c-0.3,0.1-0.7,0.2-1,0.3c0.8,0.1,1.1,0.9,1.4,1.7
					c-0.5,0-1,0.1-1.5,0.1c0-0.3-0.1-0.6-0.1-0.9c-1.1-0.7-2.2-1.1-3.4-1.3c0.2-0.2,0.3-0.5,0.3-0.9c-0.3,0-0.5,0-0.7,0
					c-0.1-0.4-0.4-0.6-0.7-0.9C160.2,217.3,159.6,216.8,159,216.4z"/>
				<path fill="#2A3F04" d="M152.4,108.9c0.3,0.7,0.6,1.7,0,2.2c-1.1-1.2-1.7-2.8-1.9-4.5c0-0.3,0.1-0.6,0.3-0.7
					c0.3,0,0.4,0.2,0.5,0.4C151.7,107.3,152.1,108.1,152.4,108.9z"/>
				<path fill="#2A3F04" d="M151.6,137.7c0.8,1.4,0.9,3.2,0.3,4.7c0.1-0.3-0.2-0.8-0.5-0.9c0.3,0,0.5-0.3,0.5-0.6
					c0-0.3-0.2-0.6-0.3-0.9C151.3,139.3,151.3,138.4,151.6,137.7z"/>
				<path fill="#2A3F04" d="M151.1,159.7c0.1,0.2,0.2,0.4,0.3,0.7c-0.4-0.2-0.9-0.4-1.3-0.5l0,0c-0.1-0.5-0.1-1.2,0.4-1.3
					c-0.1,0.4-0.1,0.7-0.2,1.1C150.5,159.7,150.8,159.8,151.1,159.7z"/>
				<path fill="#2A3F04" d="M151,137.2c-0.3,0.1-0.6,0.2-0.8,0.1c-0.2-0.4-0.2-0.9,0.1-1.3l0.1,0.2C150.7,136.3,151,136.7,151,137.2
					z"/>
				<path fill="#2A3F04" d="M150.6,58l-0.3,0.1c-0.2,0-0.3-0.1-0.5-0.1c-0.2-0.5-0.4-1-0.5-1.5C150,56.7,150.5,57.3,150.6,58z"/>
				<path fill="#2A3F04" d="M149,196.3c-0.2,0-0.5,0-0.7,0.1c-0.2-0.5-0.4-1-0.6-1.6l0.3-0.2C148.3,195.1,148.6,195.7,149,196.3z"/>
				<path fill="#647C39" d="M148.6,95.7c-0.1,0.2-0.2,0.3-0.3,0.5c-1.1-0.1-1.7-1.4-2.1-2.5c-0.2-0.7-0.2-1.6,0.4-1.8
					c0.7,0.8,1.1,1.8,1.2,2.8C148.1,95.1,148.3,95.4,148.6,95.7z"/>
				<path fill="#2A3F04" d="M146.7,68.9c-0.1-0.1-0.2-0.3-0.1-0.5c0.2-0.2,0.5-0.2,0.7,0l0,0c0.4,0.2,0.6,0.6,0.7,1
					C147.5,69.2,147.1,69,146.7,68.9z"/>
				<path fill="#2A3F04" d="M146.7,142.6c0.2,0.3,0.5,0.8,0.2,1.1c-1.4-0.4-2.5-1.8-2.5-3.2c0.2,0,0.5,0,0.7,0.1
					C145.7,141.3,146.2,141.9,146.7,142.6z"/>
				<path fill="#647C39" d="M147.4,174.7c-2.2-2.2-3.7-4.9-4.4-7.9c0.3-0.2,0.6-0.2,0.9,0c0,1.5,0.9,2.9,1.9,4.1
					c1,1.3,2.1,2.7,3.1,4c0.3,0.3,0.6,0.7,1.1,0.6c0.4,0.6,0.9,1.2,1.1,1.9c0.2,0.7,0.1,1.5-0.5,2c-0.8-0.9-1.2-2-1.3-3.1
					c-0.3-0.1-0.5-0.2-0.7-0.2c0-0.4,0-0.8-0.2-1.2C148.2,174.5,147.7,174.4,147.4,174.7z"/>
				<path fill="#2A3F04" d="M143.6,159.2c-0.3,0-0.6,0-0.9,0c-0.2-0.4-0.3-0.8-0.5-1.2c0.5,0.3,1.1,0.5,1.6,0.8
					C144.1,158.9,143.9,159.4,143.6,159.2L143.6,159.2z"/>
				<path fill="#2A3F04" d="M142,165c0.2,0.2,0.2,0.6-0.1,0.7c0.1-0.2-0.1-0.4-0.3-0.4c-0.2,0-0.4,0.2-0.3,0.4
					c-1.2-1-1.8-2.8-1.4-4.3c0.8,0.9,1.4,2.2,1.4,3.5C141.6,165,141.8,165.1,142,165z"/>
				<path fill="#2A3F04" d="M141.4,105.9c0.2,0.1,0.5,0.2,0.8,0.1c0.1,0.2,0.2,0.5,0.4,0.7c-0.8,0.2-1.6-0.1-2.1-0.6
					c-0.7-0.6-0.9-1.7-0.4-2.5c0.3,0.6,0.9,1.2,1.5,1.6C141.4,105.4,141.4,105.7,141.4,105.9z"/>
				<path fill="#647C39" d="M137.3,144.7c0.7,1.5,0.9,3.3,0.5,5c-1-2.2-2.1-4.5-3.2-6.7C135.7,142.6,136.8,143.6,137.3,144.7z"/>
				<path fill="#2A3F04" d="M137.6,78.8c0.2,0.5,0.4,1,0.5,1.5c-1-0.7-1.5-2-1.2-3.1c0.4,0.4,0.7,1,0.9,1.6L137.6,78.8z"/>
				<path fill="#2A3F04" d="M137.4,171.1c0.1,0.4,0.2,0.9,0.6,1c-0.5-0.1-0.9-0.2-1.3-0.5c-1.1-0.8-1.4-2.2-1.6-3.5
					C136.2,168.7,137.1,169.9,137.4,171.1z"/>
				<path fill="#2A3F04" d="M137.5,118.9c-0.2,0.1-0.6,0.2-0.8,0.1c-0.4-0.7-0.7-1.5-1.1-2.2c-0.3-0.7-0.7-1.5-1.3-2
					c0.9,0.2,1.6,0.6,2.1,1.3C136.8,117,137.1,117.9,137.5,118.9z"/>
				<path fill="#2A3F04" d="M132.9,177.3c0.8-0.3,1.6-0.7,2.4-1c-0.4,1.1-0.7,2.2-1.1,3.3C133.3,179.2,132.8,178.3,132.9,177.3z"/>
				<path fill="#2A3F04" d="M135.1,137.3c-0.6-0.3-1.1-0.8-1.4-1.4c-0.1-0.3-0.2-0.7,0.1-0.8C134.2,135.9,134.7,136.6,135.1,137.3z"
					/>
				<path fill="#2A3F04" d="M133.6,153.3c0.4,0.1,0.8,0.7,0.5,1c-0.9-0.2-1.7-0.7-2.2-1.5c0.2,0,0.4-0.1,0.6-0.1l-0.1,0.1
					C132.7,153.2,133.2,153.2,133.6,153.3z"/>
				<path fill="#2A3F04" d="M132.9,139.7c-0.8-0.6-1-1.8-0.6-2.6c0.3,0,0.4,0.5,0.2,0.8l0.1,0C133.2,138.2,133.3,139.1,132.9,139.7z
					"/>
				<path fill="#647C39" d="M130.7,81.5c0.6,1.3,0.9,2.8,0.8,4.2c0,0.4,0,0.9,0.3,1.1c1,0.7,1.5,2.1,1,3.2c-0.8-0.6-1.3-1.7-1.1-2.7
					c-0.6-0.1-0.8-0.8-0.8-1.4c0-0.6,0.2-1.2-0.1-1.7c-0.7-1.1-1.3-2.3-1.7-3.6C129.7,80.2,130.4,80.9,130.7,81.5z"/>
				<path fill="#2A3F04" d="M129.9,115.5c1,1.3,1.6,2.9,1.5,4.5C130.3,118.9,129.7,117.2,129.9,115.5z"/>
				<path fill="#2A3F04" d="M129.7,52.2c-0.5-0.2-0.7-1-0.3-1.3c0.2,0.4,0.5,0.8,0.7,1.2c0,0.4-0.2,0.7-0.5,1l0.1,0
					c0,0.2-0.4,0.4-0.5,0.2C129.2,52.9,129.4,52.5,129.7,52.2z"/>
				<path fill="#2A3F04" d="M129,133.5c0.5,0,1,0.4,1.2,0.8c-0.5-0.2-0.9-0.4-1.4-0.6c-0.4-1.2-0.8-2.3-1-3.5c0.2-0.2,0.6-0.2,0.8,0
					C128.7,131.3,128.9,132.4,129,133.5z"/>
				<path fill="#2A3F04" d="M128.9,89.7c0,0.3,0,0.6,0,1c-0.2,0.1-0.4,0.1-0.6,0.1c0.2-0.5-0.2-1-0.5-1.5c-0.3-0.5-0.1-1.3,0.4-1.2
					C128.4,88.5,128.7,89.1,128.9,89.7L128.9,89.7z"/>
				<path fill="#2A3F04" d="M128.2,79.3c-0.9-1-1.5-2.4-1.4-3.7c0.2-0.3,0.8-0.2,1,0c0.3,0.3,0.4,0.7,0.4,1c0.1,0.6,0.3,1.2,0.4,1.7
					C128.7,78.8,128.6,79.4,128.2,79.3z"/>
				<path fill="#2A3F04" d="M126.9,86.9c-0.2-0.3-0.2-0.7-0.2-1.1c0.3-0.2,0.8-0.2,1,0.1c0.3,0.3,0.3,0.8,0,1l0.1,0.1
					C127.7,87.2,127.1,87.2,126.9,86.9z"/>
				<path fill="#2A3F04" d="M125.7,154.9c0.4,0.2,0.8,0.6,0.9,1c0.2,0.5,0,1-0.4,1.2c-0.6,0.3-1.3-0.3-1.5-0.9c-0.2-0.6,0-1.3,0-2
					c0.2,0,0.5,0,0.7,0C125.7,154.4,125.7,154.6,125.7,154.9z"/>
				<path fill="#2A3F04" d="M125.9,71.6c0.3,0.3,0.6,0.6,0.9,0.9c0,0.5-0.3,1-0.8,1c-0.2-0.8-0.4-1.7-0.8-2.4c0.3-0.1,0.7-0.2,1-0.1
					C126.2,71.2,126,71.4,125.9,71.6z"/>
				<path fill="#647C39" d="M124.7,113c0,0.3,0.1,0.6,0.2,0.9c0.6-0.1,0.9,0.7,1.1,1.3c0.5,1.7,1.3,3.3,2.5,4.6
					c-0.4,0.4-1-0.1-1.2-0.6c-0.2-0.5-0.4-1.2-1-1.2c-1.5-1.1-2.3-3-2.2-4.9C124.2,113,124.4,112.9,124.7,113z"/>
				<path fill="#2A3F04" d="M124.6,79.6c-0.2,0-0.4,0-0.6,0c-0.7-1.1-1.1-2.4-1.2-3.8c0.4-0.3,0.9,0.3,1,0.8
					C124.1,77.6,124.4,78.6,124.6,79.6z"/>
				<path fill="#4A5E2B" d="M124.5,45.1c0,0,0.1,0.1,0.1,0.1c-0.5,0.2-1,0.3-1.5,0.4C123.5,45.3,124,45.2,124.5,45.1z"/>
				<path fill="#2A3F04" d="M124.4,139.4L124.4,139.4c-0.3,0.4-0.8,0.5-1.2,0.2c-0.3-0.2-0.4-0.8-0.2-1.2
					C123.5,138.6,124,139,124.4,139.4z"/>
				<path fill="#2A3F04" d="M123.1,164c1.1,0.7,2.2,1.5,2.6,2.7c0.2,0.6,0.8,0.8,1.4,1.1c0.5,0.3,1.1,0.8,0.9,1.4
					c1.1,0.4,1.2,2,1.1,3.2c0.7-0.1,1.4,0.2,1.9,0.6c-0.8,0.4-1.7,0.1-2.4-0.5c-0.7-0.6-1-1.4-1.3-2.2c-0.2-0.5-0.3-1.1-0.9-1.3
					c-0.9-0.3-1.3-1.2-1.8-2c-0.4-0.7-0.8-1.4-1.2-2.1c-0.1-0.2-0.4-0.2-0.6-0.1C122.8,164.6,122.9,164.2,123.1,164z"/>
				<path fill="#2A3F04" d="M122.9,45.4c0-0.2,0-0.4,0-0.7c0.5-0.3,1.3-0.2,1.6,0.3c-0.5,0.1-1,0.3-1.5,0.5c0,0-0.1,0-0.1,0
					L122.9,45.4z"/>
				<path fill="#2A3F04" d="M122.3,119.3c0.1,0.2,0.2,0.3,0.3,0.4c-0.2,0.2-0.4,0.4-0.6,0.6c-0.6-0.9-0.9-1.9-0.9-2.9
					C121.9,117.7,122.4,118.5,122.3,119.3z"/>
				<path fill="#2A3F04" d="M123.2,150.6c0.4,0.9,1,1.9,1.9,2.2c-0.4,0.7-1.5,1-2.2,0.5c-0.5-0.4-0.7-1-0.9-1.6
					c-0.2-0.9-0.4-1.8-0.6-2.6c-0.1-0.4,0.1-1.1,0.5-0.9C122.5,148.9,122.8,149.8,123.2,150.6z"/>
				<path fill="#2A3F04" d="M122.2,158.8c-0.5-0.8-0.9-1.6-1.4-2.4c0-0.2,0.5-0.2,0.6,0c0.1,0.2,0.1,0.5,0.2,0.7
					c0.2,0.3,0.5,0.5,0.7,0.8C122.5,158.2,122.5,158.7,122.2,158.8z"/>
				<path fill="#4A5E2B" d="M120.6,32.9c0.8,0.5,1.2,1.5,1,2.4c-0.1,0.6-0.4,1.2-1,1.3C120.4,35.3,120.4,34.1,120.6,32.9z"/>
				<path fill="#4A5E2B" d="M120.3,49.1c-0.2-0.5-0.4-0.9-0.6-1.4c0.3-0.1,0.5-0.2,0.7-0.3c0,0,0.1,0.1,0.1,0.1h0
					C120.7,48.1,120.6,48.6,120.3,49.1z"/>
				<path fill="#2A3F04" d="M120.5,47.4c-0.2,0.1-0.5,0.3-0.7,0.3c-0.1-0.1-0.1-0.2-0.2-0.4C119.8,47.1,120.3,47.1,120.5,47.4z"/>
				<path fill="#2A3F04" d="M117.3,130.9c0.8,0,1.6,0.8,1.5,1.7c-1.6-0.4-2.8-1.9-2.8-3.5c0-0.7,0.2-1.4,0.4-2.1
					C117.5,127.8,117.4,129.5,117.3,130.9z"/>
				<path fill="#2A3F04" d="M117.4,79.6c0.3-0.5,0.2-1.2-0.3-1.5c0.3-0.2,0.7,0,0.9,0.3c0.2,0.3,0.4,0.7,0.7,0.8
					c0.4,0.1,0.9-0.1,0.7-0.5c0.4-0.2,0.9,0.5,0.5,0.7c1.2,1.2,1.6,3,1.1,4.5c0-0.6-0.5-1-1-1.1C120.1,81.4,118.9,79.8,117.4,79.6z"
					/>
				<path fill="#2A3F04" d="M117.7,151.9c0.1,0.3,0.2,0.6,0.1,0.8c0.5,0,1,0.3,1.4,0.7c-0.7,0.3-1.7-0.2-1.8-1
					C117.3,152.2,117.5,151.8,117.7,151.9z"/>
				<path fill="#2A3F04" d="M118.3,76.5c-0.9,0.4-2.1-0.2-2.3-1.2c0.4-0.1,0.9,0,1.1,0.3h0c0.1,0.3,0.6,0.4,0.9,0.3
					C118,76.1,118.1,76.3,118.3,76.5z"/>
				<path fill="#2A3F04" d="M116.8,103.6c0.4,0.6,0.5,1.5,0.2,2.1c-0.4-0.2-0.5-0.7-0.2-1l-0.1,0C116.6,104.4,116.6,104,116.8,103.6
					z"/>
				<path fill="#2A3F04" d="M114.2,140.7c0.2-0.1,0.3,0.2,0.2,0.4c-0.1,0.2-0.4,0.1-0.5,0.1c-0.6-0.4-0.2-1.4,0.4-1.4
					C114.2,140.1,114.2,140.4,114.2,140.7L114.2,140.7z"/>
				<path fill="#647C39" d="M113.3,32.4c0.2,0.4,0.5,0.9,0.8,1.3c0.6,0.9,1,2.3,0.1,2.9c-0.8-1.3-1.4-2.7-1.8-4.2
					c-0.4,0-0.3-0.7,0.1-0.7C112.8,31.8,113.1,32.1,113.3,32.4z"/>
				<path fill="#647C39" d="M118.4,159.3c-2.4-3.2-4.6-6.6-6.7-10.1c-0.3-0.4-0.3-1.2,0.2-1.1c0.5,0.3,0.8,0.8,0.8,1.4
					c1.4,0.4,2.4,1.7,2.5,3.1c0.3,2.9,4,4.5,4.5,7.4C119.3,160.2,118.7,159.7,118.4,159.3z"/>
				<path fill="#2A3F04" d="M111.9,101.1c0.9,0.8-0.1,2.6,0.7,3.5c1.4,1.7,2.2,3.9,1.9,6.1c-0.7-0.2-1-1-1.2-1.7
					c-0.6-1.6-1.2-3.2-1.8-4.8C111.1,103.1,112.1,102.1,111.9,101.1z"/>
				<path fill="#2A3F04" d="M112.2,117.8c0.1,0.5,0.1,1,0.1,1.5c-0.1,0.2-0.5,0-0.4-0.2l0.1-0.1c-0.2-0.3-0.4-0.7-0.6-1.1
					C111.5,117.8,111.8,117.7,112.2,117.8z"/>
				<path fill="#2A3F04" d="M110.4,136.2c0.5-0.1,1,0.5,0.9,1l0,0.1c0.6,0.4,0.7,1.4,0.2,1.9C111.2,138.2,110.8,137.2,110.4,136.2z"
					/>
				<path fill="#4A5E2B" d="M110.3,51c-0.3-0.2-0.1-0.7,0.2-1.1c0.1-0.1,0.1-0.2,0.1-0.3c0.2-0.2,0.5-0.3,0.7-0.4
					c0.1,0.2,0.1,0.4,0.2,0.6c0,0.5-0.1,1.1-0.1,1.6c-0.2,1.7-0.4,3.3-0.5,5c0.1,0.1,0.2,0.3,0.3,0.5c-0.6,0.3-1.4-0.1-1.6-0.7
					c0.3-1.4,0.6-2.7,0.9-4.1C110.5,51.6,110.6,51.2,110.3,51z"/>
				<path fill="#2A3F04" d="M110,128.8c-0.2-0.3,0-0.8,0.4-0.8c0.4,0,0.7,0.4,0.5,0.7c0.3,0.1,0.6,0.3,0.9,0.4
					c-0.3,0.4-0.9,0.9-1.4,0.6C110.5,129.4,110.4,128.8,110,128.8z"/>
				<path fill="#2A3F04" d="M110.2,48.9c0.2-0.2,0.6-0.2,0.8,0c0.1,0.1,0.2,0.2,0.2,0.3c-0.2,0.1-0.5,0.3-0.7,0.4
					C110.6,49.3,110.5,48.9,110.2,48.9z"/>
				<path fill="#4A5E2B" d="M109.4,48.9c0.3-1.8,2.5-2.8,4.3-2.9c2-0.1,4.2,0.2,5.9-0.8c3.5-2,7.4-3.4,11.4-3.9
					c-1.1,0.3-1.9,1.4-1.8,2.5c1.6-0.5,3.5,0.6,3.9,2.2c-2.7-0.8-5.9-1.4-8.6-0.9c-0.3-0.5-1.1-0.6-1.6-0.3c0,0.2,0,0.5,0,0.7l0,0.1
					c0,0,0.1,0,0.1,0c-0.8,0.3-1.4,0.8-2.1,1.4c-0.2,0.2-0.3,0.3-0.5,0.4c-0.2-0.2-0.6-0.3-0.9,0c0.1,0.1,0.1,0.2,0.2,0.4
					c-1.2,0.4-2.6,0.2-3.9,0.2c-1.6,0-3.2,0.5-4.6,1.3c0-0.1-0.1-0.2-0.2-0.3c-0.2-0.2-0.6-0.2-0.8,0L109.4,48.9z"/>
				<path fill="#2A3F04" d="M109,124.6c-0.3-0.3-0.6-0.6-0.9-0.9c0.5-0.3,0.7-0.9,0.4-1.4c0.2-0.3,0.7,0.1,0.8,0.5
					c0.5,1.2,0.7,2.5,0.6,3.8c0,0.2,0,0.6-0.2,0.7c-0.2,0.2-0.6,0.1-0.6-0.1c0.6-0.5,0.3-1.7-0.5-1.8
					C108.7,125.2,108.9,124.9,109,124.6z"/>
				<path fill="#2A3F04" d="M109.9,114c-0.3,0.2-0.5,0.7-0.4,1.1c-0.7-0.1-1.1-1-0.8-1.7l-0.1-0.2
					C109.1,113.2,109.7,113.5,109.9,114z"/>
				<path fill="#4A5E2B" d="M109.3,49.3c-1.2-1-0.2-2.9,0.9-4c5.7-4.9,13.6-5.7,21.1-6l0.1,1.8c-0.1,0-0.2,0-0.4,0.1
					c0,0-0.1,0-0.1,0c-4,0.6-7.9,1.9-11.4,3.9c-1.8,1-3.9,0.6-5.9,0.8c-1.9,0.1-4.1,1.2-4.3,2.9C109.4,49,109.3,49.1,109.3,49.3z"/>
				<path fill="#2A3F04" d="M108.2,121.3c-0.2,0.3-0.6,0.3-0.8,0.2c-0.6-1.2-1.2-2.3-1.8-3.5c0.4-0.2,0.7-0.4,1.1-0.6
					c0.4,0.7,0.9,1.3,1.3,2C107.5,119.9,107.6,120.8,108.2,121.3z"/>
				<path fill="#2A3F04" d="M107.4,108.9c0.4,0.6,0.1,1.6-0.6,1.7c-0.1-0.3-0.4-0.5-0.7-0.6c0.4-0.4,0.6-1.1,0.3-1.6
					C106.8,108.3,107.2,108.6,107.4,108.9L107.4,108.9z"/>
				<path fill="#647C39" d="M106.4,95.5c-0.3-1.5-0.5-3.1-0.8-4.7c0.3-0.1,0.6-0.2,0.8-0.1c0.8,4,1.4,8,1.9,12
					c-0.4,0.4-0.3,1.1,0.2,1.4c-0.4,0-0.5,0.6-0.3,1c0.2,0.4,0.5,0.8,0.3,1.2c-0.7-0.4-1-1.4-1-2.2c-0.2-1.3-0.3-2.7-0.5-4
					c0.1-0.1,0.1-0.3,0.1-0.4c-0.2-1-0.3-2-0.5-3C106.5,96.3,106.5,95.9,106.4,95.5z"/>
				<path fill="#2A3F04" d="M107.4,63.8c-0.2,0-0.3,0-0.5,0c-0.5-0.3-0.4-1.2,0.2-1.3c0.5-0.1,0.8,0.9,0.3,1.1L107.4,63.8z"/>
				<path fill="#2A3F04" d="M106.6,73.4c-0.1-1.8-0.2-3.7-0.4-5.5c0-0.3,0.2-0.7,0.4-0.5c0,0.5,0.3,0.9,0.7,1.2
					c-0.2,3.1,0.3,6.3,1.4,9.2c0.4,0.9,0.3,2.1-0.2,3c-0.5,0.1-0.8-0.5-0.9-1c-0.3-1.5-0.6-2.9-0.9-4.4
					C106.8,74.7,106.7,74,106.6,73.4z"/>
				<path fill="#2A3F04" d="M106.5,87.7c0.1,0.2,0.1,0.5,0,0.7c-0.2,0.2-0.7,0.1-0.8-0.2c-0.2-0.3-0.1-0.7-0.1-1l-0.2,0
					c0-0.7,0.1-1.3,0.5-1.9C106,86.1,106.2,86.9,106.5,87.7z"/>
				<path fill="#4A5E2B" d="M104.4,15.7L104.4,15.7c0,0.2-0.2,0.5-0.5,0.7c-0.5-0.5-0.9-1.1-1.1-1.8
					C103.4,14.9,103.9,15.3,104.4,15.7z"/>
				<path fill="#2A3F04" d="M103.2,54c0.1-0.3-0.1-0.7-0.4-0.7c0.3-0.3,0.5-0.6,0.8-0.9c-0.1,1.8,0.4,3.7,1.3,5.3
					c-0.5-0.1-1.1-0.1-1.6,0c0.6-0.8-0.6-1.9-0.4-2.9C103,54.6,103.1,54.3,103.2,54z"/>
				<path fill="#647C39" d="M104,78.9c0.6,1.7,1.1,3.3,1.7,5c-1-0.8-1.8-1.8-2.3-2.9c-0.3-0.5-0.4-1.3,0.1-1.6c-1.4-2-0.7-4.7-0.9-7
					c-0.1-0.7-0.3-1.5-0.3-2.2c0.1-0.7,0.4-1.5,1.1-1.8c0.1,0.3,0.3,0.5,0.6,0.6c-0.3,0-0.4,0.3-0.4,0.6c0,0.9,0.3,1.8,0.3,2.7
					c0.1,1.5-0.6,3-0.4,4.6C103.5,77.6,103.7,78.3,104,78.9z"/>
				<path fill="#2A3F04" d="M102.3,82.8c0.9,1.5,1,3.5,0.2,5.1c-0.5-1.2-1.1-2.5-0.8-3.7C101.8,83.7,102.1,83.2,102.3,82.8z"/>
				<path fill="#2A3F04" d="M102.7,111.5c-1-0.7-0.3-2.4-0.7-3.6c-0.3-0.8-1-1.7-0.5-2.3c0.7,1.1,1.5,2.3,1.7,3.6
					C103.3,110,103.2,110.9,102.7,111.5z"/>
				<path fill="#2A3F04" d="M100.7,122.8c0.1-0.4-0.1-0.8-0.5-1c0.2-0.3,0.5-0.5,0.8-0.6c0.4,0.5,0.8,0.9,1.2,1.4
					c0.4,0.5,0.7,1.4,0.1,1.6C102.2,123.5,101.5,122.9,100.7,122.8z"/>
				<path fill="#2A3F04" d="M101.2,59L101.2,59c0.1,0.5,0,1.1-0.3,1.4c-0.4-0.5-0.4-1.2,0-1.7C101,58.8,101.1,59,101.2,59z"/>
				<path fill="#2A3F04" d="M100.5,92.3c0.5,1.2,0.7,2.4,0.7,3.7c0.2,0.1,0.5,0.2,0.8,0.1c0.4,0.6,0,1.5-0.6,1.7
					c-0.3-0.7-0.7-1.3-1-2c0.5,0,0.3-0.7,0.1-1.1C100,93.9,100,92.9,100.5,92.3z"/>
				<path fill="#2A3F04" d="M100,121.4c-0.3-0.4-0.3-1-0.1-1.5c0.3,0,0.7,0.2,0.7,0.6c0.1,0.3-0.2,0.7-0.5,0.8L100,121.4z"/>
				<path fill="#2A3F04" d="M97.3,98.5c-0.1,1,0.9,1.9,0.6,2.9c-0.1,0.4-0.4,0.7-0.7,0.8c-0.3-0.6-0.7-1.3-0.7-2
					C96.4,99.6,96.7,98.8,97.3,98.5z"/>
				<path fill="#2A3F04" d="M96.4,113.8c0.4-0.4,0.6-1,0.6-1.6c0-0.6-0.4-1.2-0.5-1.8c-0.1-0.6,0-1.4,0.5-1.7
					c0.4,0.1,0.6,0.7,0.6,1.2c0.3,2.2,0.6,4.4,0.8,6.7c-0.6,0.3-1.2-0.4-1.3-1.1C97,114.9,97,114.2,96.4,113.8z"/>
				<path fill="#2A3F04" d="M97.9,63.7c-0.3,0.4-0.9,0-1.2-0.5c-0.5-0.8-0.9-2-0.1-2.6c0.5,0.5,0.9,1.2,0.9,1.9l-0.1,0
					C97.7,62.9,97.9,63.3,97.9,63.7z"/>
				<path fill="#2A3F04" d="M96.6,89.3c1,0.7,1.2,2.1,0.6,3.1c-0.2-0.6-0.3-1.3-0.2-2h-0.1C96.8,90,96.7,89.6,96.6,89.3z"/>
				<path fill="#2A3F04" d="M97.4,103.8c0.4-0.1,0.6,0.7,0.2,0.9v-0.1c-0.9-0.4-0.7-1.9,0.3-2.1C97.9,103,97.7,103.5,97.4,103.8z"/>
				<path fill="#2A3F04" d="M97,97.1c0.1,0.4,0,0.9-0.2,1.3c-0.3-0.2-0.4-0.7-0.3-1v0c-0.1-0.3-0.3-0.6-0.5-0.7
					C96.4,96.4,96.9,96.7,97,97.1z"/>
				<path fill="#647C39" d="M93.1,114.6c2.8,1.8,3.1,5.7,5,8.5c2.2,3.2,4.1,6.7,5.4,10.4c0.1,0.4,0.5,0.6,0.8,0.6
					c0.3,0.9,0.6,1.8,0.9,2.6c-2.4-2.9-4.6-6.1-6.4-9.5c-1.2-2.2-2.2-4.4-3.2-6.7C94.9,118.5,94,116.6,93.1,114.6z"/>
				<path fill="#2A3F04" d="M95.1,65.9c0.2-0.3,0.3-0.7,0.5-1.1c0.9,1,0.2,2.8-1,3c0.2-0.4,0.2-0.8-0.1-1.2
					C94.7,66.5,94.9,66.2,95.1,65.9L95.1,65.9z"/>
				<path fill="#647C39" d="M98.2,14.3c-1.5-1.2-3.4-1.9-5.3-2.1c-0.2,0.1-0.3,0.2-0.5,0.3c-0.4-0.6,0-1.6,0.7-1.8
					c0.1,0.3,0.2,0.6,0.2,0.9c0.1-0.5,0.7-0.5,1.2-0.4c1.4,0.2,3.2,0.8,3.4,2.2c0.2-0.1,0.5-0.2,0.7-0.3c0.1,0.2,0.2,0.5,0.2,0.7
					c0.7-0.2,1.6,0.4,1.2,1C99.5,15.3,98.7,14.8,98.2,14.3z"/>
				<path fill="#2A3F04" d="M93,74.2c-0.1,0.2-0.3,0.3-0.6,0.3c-0.2-0.2-0.4-0.4-0.6-0.6c0-0.2,0-0.5,0-0.7
					C92.4,73.2,93,73.6,93,74.2z"/>
				<path fill="#2A3F04" d="M90.1,107.8c0.1-0.6,0-1.2-0.3-1.8c-1.1-1.9-1-4.5,0.2-6.4c-0.2-0.2-0.4-0.4-0.6-0.5
					c0.4,0,0.8-0.3,0.9-0.8c0.8,1.7,0.9,3.8,0.1,5.5c0.4,1.2,0.5,2.5,0.3,3.8C90.5,107.9,90.3,107.9,90.1,107.8z"/>
				<path fill="#2A3F04" d="M89.9,84.4c0,1,0.1,1.9,0,2.9c-0.1,0.4-0.7,0.4-0.9,0.1c-0.3-0.3-0.3-0.7-0.3-1.1
					c-0.1-3.2,0-6.5,0.4-9.8c0.2,0.1,0.5,0.2,0.7,0.3c0.2,0.5,0,1.2-0.4,1.6c0.3,0.8,0.3,1.5,0.4,2.3C89.8,82,89.9,83.2,89.9,84.4z"
					/>
				<path fill="#2A3F04" d="M89.5,67.3c-0.3-0.6-0.1-1.4,0.4-1.9c0.2,0.7,0.2,1.5,0.1,2.3C89.8,67.8,89.4,67.6,89.5,67.3L89.5,67.3z
					"/>
				<path fill="#536D21" d="M76,136.5c0,0.3,0.1,0.6,0.4,0.8l-0.1,0.3c-0.4-0.5-0.8-1.1-1.2-1.6c-0.1-0.3,0.4-0.5,0.7-0.3
					C75.9,135.9,76,136.2,76,136.5z"/>
				<path fill="#647C39" d="M75.3,14.1c0.9-0.7,2.4-0.6,3.3,0.2c-1.5,0.2-3,0.2-4.5,0c0.3-0.1,0.5-0.4,0.6-0.7
					C75,13.7,75.1,13.9,75.3,14.1z"/>
				<path fill="#4A5E2B" d="M120.6,36.6c0.6,0,0.8-0.7,1-1.3c0.3-0.9-0.2-2-1-2.4C120.4,34.1,120.4,35.3,120.6,36.6z M114.2,36.7
					c0.9-0.6,0.4-2-0.1-2.9c-0.3-0.4-0.5-0.9-0.8-1.3c-0.2-0.3-0.5-0.7-0.8-0.7c-0.4,0-0.5,0.7-0.1,0.7
					C112.8,33.9,113.4,35.3,114.2,36.7z M102.8,14.5c0.2,0.7,0.6,1.3,1.1,1.8c0.3-0.2,0.5-0.4,0.6-0.7l-0.1,0.1
					C103.9,15.3,103.4,14.9,102.8,14.5z M74.1,14.2c1.5,0.1,3,0.1,4.5,0c-0.9-0.8-2.3-0.9-3.3-0.2c-0.2-0.2-0.4-0.3-0.6-0.5
					C74.7,13.9,74.4,14.1,74.1,14.2z M72.3,13.8c-1,0.2-2,0.3-3,0.4c-0.4,0-0.8,0.1-1.2,0.1l-0.3-2.9c0.9-0.5,1.8-1.1,2.7-1.6
					c-0.4-0.3-0.8-0.3-1.3-0.2l-0.7-2.6c6.6-2,13.7-2.3,20.6-1.6c2.7,0.3,5.5,0.7,8,1.8c2.1,0.9,4,2.2,5.9,3.4
					c4.8,3.2,9.7,6.5,13.6,10.7c4,4.2,7,9.5,7.5,15.3c0.1,0.5,0,1-0.4,1.2c-2.9,1.1-5.9,2-9,2.7c-0.4,0.1-0.9,0.2-1.3,0
					c-0.6-0.2-0.8-0.8-1-1.4c-2.7-7-6.3-14.1-12.4-18.3c-4.3-3-9.6-4.4-14.8-4.6C79.9,16,74.7,16.9,69.5,18
					c-0.2,0.1-0.4,0.1-0.6,0.1l-0.6-2.6c1.5-0.4,3-0.8,4.5-1.3C72.6,14.2,72.4,14,72.3,13.8z M100.1,14.9c0.3-0.6-0.6-1.2-1.2-1
					c-0.1-0.2-0.2-0.5-0.2-0.7c-0.2,0.1-0.5,0.2-0.7,0.3c-0.2-1.4-2-2-3.4-2.2c-0.5-0.1-1.1-0.1-1.2,0.4c-0.1-0.3-0.2-0.6-0.2-0.9
					c-0.7,0.2-1.1,1.2-0.7,1.8c0.2-0.1,0.4-0.2,0.5-0.3c1.9,0.2,3.8,0.9,5.3,2.1C98.7,14.8,99.5,15.3,100.1,14.9z"/>
				<path fill="#647C39" d="M69.2,9.7c0.5-0.1,0.9-0.1,1.3,0.2c-0.9,0.5-1.8,1-2.7,1.6c-0.5-0.1-1-0.2-1.5-0.3c0.8,0,1.4-0.6,2-1
					C68.6,10,68.9,9.8,69.2,9.7z"/>
				<path fill="#4A5E2B" d="M63.8,8.8c1.5-0.7,3.1-1.2,4.6-1.7l0.7,2.6c-0.3,0.1-0.6,0.2-0.9,0.4c-0.6,0.5-1.2,1-2,1
					c0.5,0.1,1,0.2,1.5,0.3l0.3,2.9c-0.5,0.1-1.1,0.1-1.6,0.2c-0.4,0.4-0.8,1.2-0.2,1.5c0.2,0.1,0.4,0.1,0.6,0
					c0.5-0.1,1-0.2,1.5-0.4l0.6,2.6c-3.2,0.8-6.4,1.7-9.1,3.5c-2.9,1.9-5.3,5-5.5,8.5c-0.1,1.1,0,2.3-0.5,3.3
					c-0.5,1-1.9,1.7-2.7,0.9c-0.5-0.5-0.6-1.3-0.5-2.1c0.3-6.9,1.5-14.3,6.5-19.1C59,11.3,61.3,9.9,63.8,8.8z"/>
				<path fill="#647C39" d="M66.5,14.5c0.5,0,1.1-0.1,1.6-0.2c0.4,0,0.8-0.1,1.2-0.1c1-0.1,2-0.2,3-0.4c0.1,0.2,0.3,0.4,0.5,0.5
					c-1.5,0.5-3,0.9-4.5,1.3c-0.5,0.1-1,0.2-1.5,0.4c-0.2,0.1-0.4,0.1-0.6,0C65.7,15.7,66,14.9,66.5,14.5z"/>
				<path fill="#3F4F1A" d="M51.7,178.3c0.8-2.7,1.6-5.3,2.4-8c0.4-1.5,1-3.1,2.4-3.7c0.3-0.1,0.6-0.2,1-0.3c2.6-0.6,5.4-0.8,8-0.8
					c1.4,0,2.8,0.1,4,0.8c0.4,0.9,0.3,1.9-0.2,2.8c-0.5,0.8-1.2,1.5-1.9,2.1c-1,0.9-1.9,1.8-2.9,2.6c-1.1,1-2.3,2.1-3.6,2.8
					c-1.4,0.7-3,1.1-4.5,0.7c-0.2-0.1-0.5-0.2-0.7-0.4c-0.1-0.2-0.1-0.4,0-0.6c0.1-0.3,0.4-0.6,0.7-0.7c0.6-0.2,1.1,0,1.7,0
					c1.3-0.1,2.5-0.9,3.5-1.8c1.6-1.4,3.3-2.8,5-4.1c0.7-0.6,1.4-1.2,1.4-2.1c-2-0.1-4-0.1-6-0.1c-1.1,0-2.3,0-3.4,0.4
					c-1.1,0.4-2.1,1.2-2.4,2.2c-0.6,1.9-1.1,3.8-1.7,5.6c0,0.1-0.1,0.2-0.1,0.4c-0.3,0.9-0.6,1.8-1.3,2.3
					C52.7,178.8,51.9,178.8,51.7,178.3z"/>
				<path fill="#4A5E2B" d="M85.8,96.5c2,13.1,7.7,25.4,14,37.1c10,18.5,21.7,35.9,33.5,53.4c3.9,5.8,7.7,11.5,11.6,17.3
					c5.6,8.3,11.2,16.7,19.2,22.7c1.4,1.1,3,2.1,4.7,2.6c1.9,0.5,3.9,0.4,5.8,0.2c6.4-0.5,12.9-1.1,18.6-4c5.7-2.9,10.4-8.6,10.1-15
					c-1.8-35.2-7.8-70.2-17.8-103.9c-1.1-3.7-2.3-7.4-2.4-11.3c-0.6-12.6-3.5-25.3-10.4-35.9c-6.9-10.6-18-18.7-30.5-20.2
					c-3.1-0.4-6.3-0.3-9.4-0.2c-0.4,0-0.8,0-1.2,0c-7.5,0.3-15.5,1.1-21.1,6c-1.2,1-2.2,3-0.9,4c0-0.1,0-0.2,0-0.4l0.8,0
					c0.3-0.1,0.4,0.3,0.3,0.7c-1.4,1-2.5,2.4-3.2,3.9c-0.4-2-0.7-4.1-1.1-6.1c-4.9,2.8-9.3,6.6-12.6,11.1
					C85.8,69.3,83.8,83.4,85.8,96.5z M103,10.8c-1.9-1.3-3.8-2.6-5.9-3.4c-2.5-1.1-5.3-1.5-8-1.8c-6.9-0.7-14-0.4-20.6,1.6
					c-1.6,0.5-3.1,1-4.6,1.7c-2.5,1.1-4.9,2.4-6.8,4.3c-5,4.8-6.2,12.2-6.5,19.1c0,0.7,0,1.6,0.5,2.1c0.8,0.8,2.2,0.1,2.7-0.9
					c0.5-1,0.4-2.2,0.5-3.3c0.2-3.5,2.6-6.6,5.5-8.5c2.7-1.8,5.9-2.7,9.1-3.5c0.2,0,0.4-0.1,0.6-0.1c5.1-1.1,10.3-2,15.6-1.8
					c5.2,0.2,10.5,1.6,14.8,4.6c6.1,4.3,9.7,11.4,12.4,18.3c0.2,0.6,0.5,1.2,1,1.4c0.4,0.2,0.9,0.1,1.3,0c3.1-0.6,6-1.5,9-2.7
					c0.4-0.2,0.5-0.7,0.4-1.2c-0.5-5.7-3.5-11-7.5-15.3C112.6,17.2,107.8,14,103,10.8z M70.2,4.6c11.8-2.9,24.6-1.1,35.1,5
					s18.5,16.2,21.9,27.9c20-2.2,40.9,9.3,49.8,27.4c3.5,7.1,5.3,14.9,7,22.6c1.2,5.4,2.4,10.8,3.6,16.2c0.8,3.8,1.7,7.5,2.5,11.2
					c6.4,29.8,11.4,59.9,15,90.2c0.5,4.6,1,9.4-1.1,13.6c-1.6,3.2-4.6,5.5-7.7,7.4c-6.5,4-14,6.6-21.5,6.3
					c-7.6-0.3-15.2-3.7-19.7-9.8c-17.9-24.8-34.7-50.3-50.5-76.4c-6.7-11.2-13.3-22.6-17.5-34.9c-4.2-12.4-5.7-25.9-2.2-38.5
					c3.5-12.6,12.5-24,24.7-28.4c1.3-0.4,1.5-2.1,1.3-3.5c-0.9-8-6.4-15.1-13.5-18.9c-7.1-3.8-15.6-4.7-23.5-3.3
					c-4.7,0.8-9.3,2.3-12.9,5.4c-3.6,3-6.1,7.7-5.6,12.4c-1.6,1.4-4.4,0.4-5.5-1.5c-1.1-1.9-1-4.2-0.8-6.4c0.5-4.5,1.5-8.9,3.8-12.7
					C56.6,9.8,63.4,6.3,70.2,4.6z"/>
				<path fill="#536D21" d="M47.1,188.8c-0.2-0.4,0.1-0.9,0.6-1c0.5,0,0.8,0.4,0.8,0.9C48,188.8,47.6,188.9,47.1,188.8L47.1,188.8z"
					/>
				<path fill="#536D21" d="M40.1,186.5c-1.6,0.5-3.4,0.4-4.9-0.4c-0.3-0.2-0.8-0.2-1.1-0.3c-0.8-0.1-1.6-0.3-2.4-0.4
					c0-0.4,0.1-0.7,0.1-1C34.7,184.5,37.6,185.2,40.1,186.5z"/>
				<path fill="#3F4F1A" d="M39,180.4c-1.5-0.7-2.9-1.6-4.6-1.6c-0.4,0-0.9,0.1-1.3-0.1c-0.4-0.2-0.6-0.8-0.2-1.1
					c0.1-0.1,0.1-0.1,0.2-0.1c0.1,0,0.1,0,0.2,0c1.8-0.3,3.6-0.1,5.3,0.5c1.5,0.6,3.1,1.5,4.6,0.9c0.8-0.5,0.7-1.6,0.5-2.5
					c-0.2-1.2-0.4-2.5-0.6-3.7c-0.1-0.8-1-1.3-1.9-1.2c-0.8,0-1.5,0.5-2.2,0.9c-1.2,0.8-2.4,1.6-3.6,2.4c-0.9,0.7-1.9,1.3-2.8,2
					c0,0,0,0-0.1,0c-1.4,0.5-3.1,0.2-4.3-0.7c1.9-0.6,3.7-1.4,5.4-2.5c0.5-0.3,0.9-0.6,1.3-0.9c1-0.6,2-1.3,2.9-2
					c1.6-1,3.5-2.1,5.2-1.3c1.5,0.7,2,2.5,2.4,4.1c0.5,2.1,0.9,4.2,1.4,6.4c-1.1,0-2.2,0-3.1,0.6C42.3,181.5,40.5,181.1,39,180.4z"
					/>
				<path fill="#3F4F1A" d="M44.8,127.7c-4.2,1.6-8.3,3.7-12,6.3c-0.2,0.2-0.5,0.4-0.4,0.7c0,0.2,0.2,0.3,0.5,0.4
					c1.7,0.8,3.5,1.7,5.2,2.5c1.3,0.6,2.8,1.2,4.2,0.7c3-1.1,6.7,1.4,6.8,4.6c-0.2,0-0.5-0.1-0.7-0.2c-0.9-0.4-1.5-1.5-2.2-2.2
					c-0.9-1-2.8-1.4-3.2-0.1c1.3,1.6,3.1,2.6,5,3.4c1.1,0.4,2.1,0.8,3.2,1.2c5.9,1.9,11.8,3.9,17.6,5.9c-0.3-1-0.7-1.9-1.1-2.8
					c-2.8-6.1-5.7-12.3-10.4-17.2c-2.1-2.2-4.7-4.1-7.7-4.2C47.9,126.6,46.3,127.1,44.8,127.7z M26.7,134.5c2.5,0.4,4.6-1.4,6.6-3
					c3.9-3,8.4-5.1,13.1-6.3c1.5-0.4,3.1-0.6,4.6-0.4c3.2,0.4,5.8,2.9,7.9,5.4c5.8,6.8,10.1,14.9,12.5,23.5
					c-5.7-1.8-11.3-3.7-17-5.5c-3.3-1.1-6.7-2.2-9.6-4.3C39.3,140,33.1,136.8,26.7,134.5z"/>
				<path fill="#536D21" d="M24.6,126.1c0.7-0.7,1.6-1.3,2.5-1.7c0.3-0.1,0.7-0.1,0.6,0.2c-0.5,0.5-1,1-1.6,1.3
					C25.6,126.3,25,126.5,24.6,126.1z"/>
				<path fill="#536D21" d="M18.7,175.8c-0.3,0.2-0.7,0.4-1,0.4c-0.4,0-0.8-0.4-0.7-0.7l-0.2-0.1C17.3,174.9,18.2,175.4,18.7,175.8z
					"/>
				<path fill="#536D21" d="M18.1,137.5c-0.6,0.1-1.3,0.2-2,0.1c-0.2-0.2,0-0.6,0.2-0.6l-0.1-0.1C17,136.5,17.8,136.9,18.1,137.5z"
					/>
				<path fill="#536D21" d="M16,172.3c0.5,0.2,0.5,1,0,1.1c0.1,0.2,0.3,0.3,0.5,0.5c-0.2,0.3-0.5,0.5-0.9,0.6
					c-0.6-1.2-0.9-2.4-1-3.7c0.7-0.1,1.5,0.4,1.9,1C16.3,172,16.2,172.1,16,172.3z"/>
				<path fill="#3F4F1A" d="M25.8,158.2c0-1.3-0.4-2.7-1.1-3.8c-0.2-0.1-0.5-0.1-0.7,0.1c-0.3,1.3,0,2.7,0.6,3.9
					c0.2,0.4,0.7,0.7,1,0.5C25.7,158.7,25.8,158.4,25.8,158.2z M22.8,146c2,2.4,2.8,5.5,3.6,8.5c0.2,0.8,0.4,1.6,0.5,2.4
					c0.1,1.2,0,2.4-0.2,3.6c-0.1,0.6-0.3,1.2-0.6,1.8c-0.3,0.4-0.8,0.8-1.2,1.1c-2.1,1.5-4.3,2.9-6.6,4.1c-0.7,0.4-1.6,0.8-2.4,0.6
					c-1.1-0.2-1.7-1.3-2-2.3c-1.1-3.1-1.4-6.6-0.7-9.8c0.3-1.7,0.9-3.4,1.6-5.1c0.5-1.3,0.9-2.5,1.4-3.8c0.4-1.1,0.9-2.2,1.9-2.8
					C19.6,143.4,21.6,144.6,22.8,146z M22.2,147.8c-0.6,0.6-0.8,1.6-0.6,2.4c0.1,0.9,0.6,1.6,1,2.4c0.1,0.2,0.2,0.4,0.4,0.6
					c0.2,0.2,0.6,0.2,0.9,0c0.1-0.7,0-1.4-0.2-2.1C23.4,150,22.9,148.9,22.2,147.8z M21.6,156.4c0-1.2,0.3-2.7-0.6-3.5
					c-1.4-1.3-1.7-3.7-0.5-5.2c0.4,0.1,0.8-0.2,0.8-0.7c0-0.4-0.4-0.8-0.7-0.9c-0.6-0.2-1.4-0.1-1.9,0.3c-0.5,0.4-0.7,1.1-0.9,1.7
					c-0.9,2.8-1.9,5.7-2.7,8.6c-0.2,0.6-0.4,1.3-0.4,2c0,0.4,0.1,0.9,0.1,1.3c0.2,1.6,0.5,3.2,0.8,4.9c0.1,0.6,0.8,1,1.4,1
					c0.7-0.1,1.2-0.4,1.8-0.7c1.8-1.2,3.7-2.3,5.5-3.5c0.4-0.3,0.8-0.9,0.3-1C22.9,159.9,21.6,158.2,21.6,156.4z"/>
				<path fill="#536D21" d="M12.4,175.6c0.9,1,1.8,2,2.8,3c0.2,0.2,0.4,0.5,0.3,0.8c-0.2,0-0.5,0-0.7,0c-0.1-0.2-0.2-0.5-0.1-0.8
					c-0.3-0.1-0.6-0.2-0.9-0.1c0.4-1.3-2.3-1.8-2-3.1C12,175.2,12.2,175.4,12.4,175.6z"/>
				<path fill="#536D21" d="M13.9,141c-0.3,0.2-0.7,0.2-1.1,0.1c0.4-0.4,0.8-0.9,1.1-1.3c0.3-0.3,0.7-0.6,1-0.4
					C14.7,139.9,14.4,140.6,13.9,141z"/>
				<path fill="#536D21" d="M12.8,141.1c-0.4,0.5-0.8,1-1.3,1.5C11.2,141.9,12,140.9,12.8,141.1L12.8,141.1z"/>
				<path fill="#536D21" d="M15.6,174.5c0.4-0.1,0.7-0.3,0.9-0.6c-0.2-0.2-0.3-0.3-0.5-0.5c0.5-0.2,0.5-1,0-1.1
					c0.1-0.1,0.3-0.3,0.4-0.5c-0.3-0.7-1.1-1.1-1.9-1C14.6,172.1,15,173.3,15.6,174.5z M15.9,168.2c0.8,0.2,1.6-0.2,2.4-0.6
					c2.3-1.2,4.5-2.6,6.6-4.1c0.4-0.3,0.9-0.6,1.2-1.1c0.4-0.5,0.5-1.2,0.6-1.8c0.2-1.2,0.4-2.4,0.2-3.6c-0.1-0.8-0.3-1.6-0.5-2.4
					c-0.8-3-1.7-6.1-3.6-8.5c-1.2-1.5-3.3-2.7-4.9-1.7c-1,0.6-1.5,1.7-1.9,2.8c-0.5,1.3-0.9,2.5-1.4,3.8c-0.6,1.7-1.2,3.4-1.6,5.1
					c-0.7,3.3-0.4,6.7,0.7,9.8C14.3,166.9,14.9,167.9,15.9,168.2z M16.1,137.6c0.6,0.1,1.3,0,2-0.1c-0.3-0.6-1.1-1-1.8-0.7l0.1,0.1
					C16.1,137,16,137.4,16.1,137.6z M18.7,175.8c-0.6-0.4-1.4-0.9-1.9-0.4l0.2,0.1c-0.1,0.4,0.3,0.7,0.7,0.7
					C18.1,176.2,18.4,176,18.7,175.8z M13.7,178.4c0.3,0,0.6,0,0.9,0.1c0,0.3,0,0.6,0.1,0.8c0.2,0,0.5,0,0.7,0
					c0.1-0.2-0.1-0.5-0.3-0.8c-0.9-1-1.9-2-2.8-3c-0.2-0.2-0.4-0.4-0.7-0.3C11.4,176.5,14.1,177.1,13.7,178.4z M11.5,142.6
					c0.4-0.5,0.8-1,1.3-1.5h0C12,140.9,11.2,141.9,11.5,142.6z M8.7,171.4c-0.3,0.6,0.2,1.4,0.8,1.5c-0.1-0.6-0.4-1.2-0.7-1.7
					L8.7,171.4z M12.8,141.1c0.3,0.1,0.8,0.1,1.1-0.1c0.6-0.3,0.9-1.1,1.1-1.7c-0.3-0.2-0.8,0.1-1,0.4
					C13.5,140.2,13.1,140.6,12.8,141.1z M56.5,177.4c1.5,0.4,3.1,0,4.5-0.7c1.3-0.7,2.5-1.8,3.6-2.8c1-0.9,1.9-1.8,2.9-2.6
					c0.7-0.6,1.4-1.3,1.9-2.1c0.5-0.9,0.7-1.9,0.2-2.8c-1.2-0.8-2.6-0.8-4-0.8c-2.7,0-5.4,0.2-8,0.8c-0.3,0.1-0.6,0.1-1,0.3
					c-1.4,0.6-2,2.2-2.4,3.7c-0.8,2.7-1.6,5.3-2.4,8c0.2,0.5,1,0.5,1.5,0.1c0.7-0.5,1.1-1.4,1.3-2.3l1.2,0.2c-0.1,0.2-0.1,0.5,0,0.6
					C56,177.2,56.2,177.4,56.5,177.4z M47.2,188.8c0.4,0.1,0.9,0,1.3-0.1c0.1-0.4-0.3-0.9-0.8-0.9C47.2,187.9,46.9,188.4,47.2,188.8
					L47.2,188.8z M28.2,176.1c1.2,1,2.9,1.2,4.3,0.7c0,0,0,0,0.1,0l0.5,0.7c-0.1,0-0.1,0-0.2,0.1c-0.3,0.3-0.2,0.9,0.2,1.1
					c0.4,0.2,0.9,0.1,1.3,0.1c1.6,0,3.1,0.9,4.6,1.6c1.5,0.7,3.3,1.1,4.7,0.2c0.9-0.6,2-0.6,3.1-0.6c-0.5-2.1-1-4.3-1.4-6.4
					c-0.4-1.6-0.9-3.4-2.4-4.1c-1.7-0.8-3.6,0.3-5.2,1.3c-0.9,0.6-1.9,1.3-2.9,2c-0.4,0.3-0.9,0.6-1.3,0.9
					C31.9,174.7,30,175.5,28.2,176.1z M27.1,124.5c-0.9,0.4-1.8,0.9-2.5,1.7c0.4,0.3,1.1,0.1,1.5-0.1c0.6-0.3,1.1-0.8,1.6-1.3
					C27.8,124.4,27.3,124.4,27.1,124.5z M8.5,139.8c5.6-8,12.7-15.1,21.1-19.8c8.5-4.8,18.5-7.2,28.1-5.9c3.9,0.5,8,1.7,11,4.3
					c2,1.8,3.4,4.1,4.8,6.4c1.9,3.2,3.8,6.3,5.8,9.5c2.1,3.5,4.3,7.1,5.6,11c1.4,3.9,1.9,8.2,0.7,12.2c-0.9,3-2.7,5.7-4.6,8.2
					c-6.1,8.2-13.2,15.5-21,21.9c-1.3,1.1-2.6,2.1-4.1,2.9c-3.7,2-8.1,2.4-12.3,2.8c-1.5,0.1-3,0.2-4.6,0.1c-1.3-0.1-2.7-0.5-4-0.9
					c-6.2-1.8-12.2-4.3-17.5-8c-5.3-3.6-9.9-8.5-12.6-14.4c-3.6-8-3.4-17.6,0.6-25.3C6.4,143,7.4,141.4,8.5,139.8z M76.3,137.6
					l0.1-0.3c-0.3-0.1-0.3-0.5-0.4-0.8c0-0.3-0.1-0.6-0.3-0.8c-0.3-0.2-0.7,0-0.7,0.3C75.5,136.5,75.9,137.1,76.3,137.6z
					 M54.3,148.3c5.7,1.8,11.3,3.6,17,5.5c-2.4-8.6-6.6-16.7-12.5-23.5c-2.1-2.5-4.7-4.9-7.9-5.4c-1.5-0.2-3.1,0-4.6,0.4
					c-4.7,1.2-9.3,3.3-13.1,6.3c-1.9,1.5-4.1,3.4-6.6,3c6.5,2.2,12.6,5.4,18.1,9.5C47.6,146.1,51,147.2,54.3,148.3z M35.3,186.1
					c1.5,0.8,3.3,0.9,4.9,0.4c-2.6-1.3-5.4-2-8.3-2.1c-0.1,0.3-0.1,0.6-0.1,1c0.8,0.1,1.6,0.3,2.4,0.4
					C34.5,185.9,34.9,185.9,35.3,186.1z M8.9,163.1c0.9-0.7,0.9-2.4-0.2-3c-0.2,0.4-0.3,0.9-0.3,1.3l0.2,0c-0.2,0.3-0.4,0.7-0.5,1.1
					C8.4,162.7,8.6,162.9,8.9,163.1z"/>
				<path fill="#536D21" d="M8.6,161.4l-0.2,0c0-0.5,0.1-0.9,0.3-1.3c1,0.6,1.1,2.3,0.2,3c-0.3-0.2-0.5-0.4-0.8-0.6
					C8.2,162.1,8.4,161.7,8.6,161.4z"/>
				<path fill="#536D21" d="M8.8,171.2c0.4,0.5,0.6,1.1,0.7,1.7c-0.7-0.1-1.1-0.9-0.8-1.5L8.8,171.2z"/>
				<path fill="#4C5E1B" d="M22.6,122c10.7-8.3,24.9-11.8,38.3-9.6c2,0.3,4,0.8,5.7,1.8c3.6,1.9,5.9,5.5,8,9c2,3.3,4.1,6.6,6.1,9.8
					c4.2,6.8,8.6,14.5,7.4,22.4c-0.8,5.2-4,9.7-7.3,13.8c-4.1,5.1-8.6,10-13.3,14.6c-3.9,3.8-8.2,7.4-13.2,9.5
					c-9.6,4-20.8,1.8-30.1-2.8c-7-3.4-13.5-8.2-18-14.6c-4.5-6.4-7-14.4-5.8-22.1c1.3-8.4,6.6-15.6,12.2-22
					C15.6,128.2,18.9,124.8,22.6,122z M17.5,184.4c5.3,3.6,11.4,6.1,17.5,8c1.3,0.4,2.6,0.8,4,0.9c1.5,0.2,3.1,0,4.6-0.1
					c4.2-0.4,8.6-0.8,12.3-2.8c1.5-0.8,2.8-1.8,4.1-2.9c7.9-6.4,15-13.7,21-21.9c1.9-2.5,3.7-5.2,4.6-8.2c1.2-4,0.6-8.3-0.7-12.2
					c-1.4-3.9-3.5-7.4-5.6-11c-1.9-3.2-3.9-6.4-5.8-9.5c-1.4-2.3-2.8-4.6-4.8-6.4c-3-2.6-7-3.8-11-4.3c-9.7-1.2-19.6,1.2-28.1,5.9
					c-8.5,4.8-15.6,11.8-21.1,19.8c-1.1,1.6-2.1,3.2-3,4.9c-4,7.8-4.2,17.4-0.6,25.3C7.6,175.9,12.1,180.7,17.5,184.4z"/>
			</g>
			<g>
			</g>
		</g>
	</g>
	<path fill="#637A3D" d="M23.6,134.5c3-1,7-2,8-4c7.7-8.6,18.4-11.3,27.6-16.3c-0.5-0.1-1-0.2-1.5-0.2c-9.7-1.3-19.6,1.2-28.1,6
		c-8.5,4.8-15.6,11.8-21.1,19.8c-1.1,1.6-2.1,3.2-3,4.9c-4,7.8-4.2,17.4-0.6,25.4c0.7,1.5,1.5,2.9,2.4,4.3
		C10,159.7,11.9,144.6,23.6,134.5z"/>
	<path fill="#647C39" d="M44.6,163.5c3-1,4-6,8-9c3-2,6-1,9,0c-2-2-5-4-7-4c-7-1-12-9-14-6c-9.2,12.8-18.4,24.8-29.1,35.2
		c1.4,1.4,3,2.8,4.6,4C23,174.6,33.5,169.1,44.6,163.5z"/>
	<path opacity="0.58" fill="#788E3C" d="M80.5,142.1c-0.7-3-1.3-6-1.9-9.2c-1.7-2.7-3.3-5.5-5-8.2c-1.4-2.3-2.8-4.6-4.8-6.4
		c-2.6-2.3-6-3.5-9.5-4.1c-0.5,0.3-0.9,0.5-1.4,0.7c1.4,4.6,4.9,8.3,8.8,11.6c5,5,8,11,10,17c1,2,2.9,4.2,4.5,6.8
		C81.3,147.7,81.1,144.9,80.5,142.1z"/>
	<path fill="#667C3E" d="M85.2,145.6c-1.4-3.9-3.5-7.5-5.7-11c-0.3-0.4-0.5-0.9-0.8-1.3c0.6,3.1,1.2,6.2,1.9,9.2
		c5.1,23.7-15.9,37.4-38.3,51.2c0.5,0,1-0.1,1.4-0.1c4.2-0.4,8.6-0.8,12.3-2.8c1.5-0.8,2.8-1.8,4.1-2.9c7.9-6.4,15-13.7,21.1-21.9
		c1.9-2.5,3.7-5.2,4.6-8.2C87.1,153.8,86.5,149.5,85.2,145.6z"/>
	<path fill="#353F19" d="M9.4,156.9c0.1,0.2,0.2,0.5,0.2,0.7c0.4,0.2,0.8,0.6,0.9,1c0.2,0.5,0,1-0.4,1.3c-0.6,0.3-1.3-0.3-1.5-0.9
		c-0.2-0.6,0-1.3,0-2C8.9,156.9,9.1,156.9,9.4,156.9L9.4,156.9z"/>
	<path fill="#353F19" d="M6.8,156c-0.5-0.4-0.7-1-0.9-1.6c-0.2-0.9-0.4-1.8-0.6-2.6c-0.1-0.4,0.1-1,0.5-0.9c0.4,0.8,0.8,1.6,1.2,2.5
		c0.4,0.9,1,1.9,1.9,2.2C8.6,156.3,7.5,156.5,6.8,156L6.8,156z"/>
	<path fill="#353F19" d="M9.5,169.5L9.5,169.5c0.2,0.6,0.8,0.8,1.4,1.1"/>
	<path fill="#515E23" d="M73.8,153.4c-0.7-2-2.2-4.1-1.3-6.1c0.1-0.1,0.1-0.2,0.3-0.3"/>
	<path fill="#515E23" d="M75.1,138.6c0.3-1.9-0.6-3.7-1.6-5.3c-0.2-0.3-0.3-0.6-0.5-0.9"/>
</g>
</svg>
