<?xml version="1.0" encoding="utf-8"?>
<!-- Generator: Adobe Illustrator 21.0.2, SVG Export Plug-In . SVG Version: 6.00 Build 0)  -->
<svg version="1.1" id="Layer_1" xmlns="http://www.w3.org/2000/svg" xmlns:xlink="http://www.w3.org/1999/xlink" x="0px" y="0px"
	 width="367.8px" height="185.5px" viewBox="0 0 367.8 185.5" enable-background="new 0 0 367.8 185.5" xml:space="preserve">
<path fill="#BA1B06" d="M366.8,117.5c-0.8-0.7-2-0.7-3-0.8c-8.1-0.5-16.2-1-24.3-1.5c0.9-0.2,1.8-0.6,2.6-1
	c-74.2,5.6-149.2,7.2-224.2,7.6c1.5,0.3,2.9,0.7,4.4,1.2c-12.1,0.9-24.2,1.7-35.9,4.5c-10.1,2.4-19.8,6-29.4,9.8
	c0.5,4.9-0.1,9.6,2.8,12.6c1.9,4.1,2.1,6.3,3.7,10.1c6.7-0.1,13.4-0.7,19.7-2.8c9.3-3.1,19.2-3.5,29-3.9
	c83.4-3.6,166.1-15.9,248.6-28.3c2-0.3,4.2-0.6,5.7-2C368,121.5,368.4,118.8,366.8,117.5z"/>
<g id="XMLID_4_">
	<g>
		<path fill="#748730" d="M311.3,30.3c-2,0.6-4.5,0.1-5.6-1.7c-0.7-1-0.9-2.3-0.5-3.5c0.1-0.4,0.4-0.8,0.8-0.8
			c0.4,0,0.7,0.4,0.8,0.8c0.1,0.4,0,0.8,0,1.2c0.1,0.9,0.7,1.6,1.6,1.9c0.8,0.3,1.8,0.3,2.6,0.1c1.8-0.5,3.3-1.9,4-3.7
			c0.2-0.5,1-0.3,1.2,0.1c0.2,0.5,0,1-0.3,1.5C314.8,28,313.3,29.6,311.3,30.3z"/>
		<path fill="#466B11" d="M362.2,75.4c2-7,3.7-14.3,2.8-21.6c-2.3-18.3-20.2-30.4-37.5-37c-7.5-2.8-15.2-5.1-23.1-6.4
			c-1.4-0.2-2.8-0.4-4.2-0.6l0.1-1.1c1.6,0.2,3.2,0.4,4.8,0.6c9.6,1.5,19.1,4.1,28.1,7.8c12.8,5.2,25.4,13.4,30.8,26
			c6.6,15.6,0.9,33.3-4.9,49.2c-2.8,7.8-6.5,16.4-13.3,20.6c-4.6,0.7-9.1,1.2-13.7,1.8l0-0.3c6.1-0.6,12-2,16.3-6.1
			c3.5-3.4,5.4-8,7.1-12.6c0.8-2.2,1.6-4.5,2.3-6.7c1.3-4,2.6-8,3.8-12c0.1-0.3,0.2-0.6,0.3-0.8C362.1,76,362.2,75.7,362.2,75.4z"/>
		<path fill="#87A82D" d="M300.3,61.3c0.1,0.4-0.5,0.5-0.9,0.4h0c-0.7,0.2-1.4,0.1-2-0.3C298.3,61.1,299.3,61.1,300.3,61.3z"/>
		<path fill="#618227" d="M284.1,57.5c3.7,0.7,7.2,1.6,10.4,3.5c-5.4-1.2-10.9-2.2-16.3-3.1C280.1,57.7,282.1,57.6,284.1,57.5z"/>
		<path fill="#9EC62E" d="M291.9,91.8c1.2-0.7,2.5-1.5,3.7-2.3c0.2-0.3,0.7-0.1,0.8,0.3c0.1,0.3-0.1,0.7-0.3,0.9
			c-0.7,1-1.7,1.7-2.6,2.3c-2.1,1.3-4.6,2.6-6.9,1.8c-1.3-0.4-2.3-1.5-2.7-2.8c-0.4-1.3-0.1-2.8,0.8-3.9c0.3,0.2,0.6,0.3,0.9,0.5
			c-0.9,1.7,0.4,4.1,2.3,4.4C289.3,93.3,290.6,92.5,291.9,91.8z"/>
		<path fill="#67822B" d="M278.6,34c0.6-0.5,1.6-0.4,2.1,0.2l0.1-0.1c0.2-0.1,0.5,0.3,0.3,0.5C280.2,34.9,279.2,34.6,278.6,34z"/>
		<path fill="#618227" d="M278.3,17.4c0.5,0,1,0.1,1.5,0.1C279.2,17.4,278.8,17.4,278.3,17.4z"/>
		<path fill="#9EC62E" d="M289.6,78.8c1.6,0.2,3.2,0.5,4.7,0.9c1.4,0.4,2.8,0.7,4.2,1.1c-0.2,0.6-1,1-1.7,0.9
			c-0.7-0.1-1.3-0.3-2-0.6c-1.7-0.5-3.6-0.5-5.4-0.7c-1.7-0.1-3.5-0.5-5.2-0.8c-1.9-0.4-3.8-0.7-5.7-1.1c-0.4-0.1-0.9-0.2-0.9-0.7
			c0.3-0.2,0.7-0.3,1.1-0.3c2.1-0.3,4.3,0,6.5,0.4C286.6,78.3,288.1,78.6,289.6,78.8z"/>
		<path fill="#618227" d="M275.1,17c0.5,0.1,1,0.1,1.4,0.2C276.1,17.2,275.6,17.1,275.1,17z"/>
		<path fill="#67822B" d="M275.9,25.3c0.2,0.1,0.4,0.5,0.2,0.6c-1.1,0.1-2.1,0.1-3.2,0C273.5,25,275,24.7,275.9,25.3z"/>
		<path fill="#67822B" d="M274.9,32.6c0.8,0.1,1.7,0.9,1.3,1.6c-0.4-0.8-1.7-0.4-2.6-0.6c-0.5-0.1-0.9-0.5-1.2-0.9
			C273.3,32.9,274.1,32.5,274.9,32.6z"/>
		<path fill="#748730" d="M281.4,48.1c-0.8,0.9-1.5,1.8-2.6,2.3c-1.4,0.7-3.1,0.7-4.5,0c-1.4-0.8-2.3-2.2-2.5-3.7
			c-0.1-0.5,0-1,0.3-1.4c0.4-0.3,1.1-0.3,1.2,0.2c0.4,1.4,1,2.9,2.4,3.4c1.8,0.7,3.5-0.9,4.7-2.3c0.6-0.7,1.2-1.4,1.8-2
			C283,45.5,282.2,47.1,281.4,48.1z"/>
		<path fill="#67822B" d="M269.5,32.1c0.6-0.7,1.9-0.3,2.1,0.6l-0.1,0C270.8,32.8,269.7,32.8,269.5,32.1z"/>
		<path fill="#87A82D" d="M273.5,78.2c-1.1,0-2.2,0.1-3.4,0.1c-0.3,0-0.5,0-0.7-0.2c-0.3-0.5,0.5-0.8,1.1-0.8c0.6,0,1.2,0.1,1.8,0.1
			C272.9,77.4,273.6,77.7,273.5,78.2z"/>
		<path fill="#618227" d="M273.5,78.2c0.1-0.5-0.6-0.8-1.2-0.8c-0.6,0-1.2-0.1-1.8-0.1c-0.6,0-1.4,0.3-1.1,0.8
			c0.1,0.2,0.4,0.2,0.7,0.2C271.3,78.3,272.4,78.2,273.5,78.2z M296.7,81.8c0.7,0,1.5-0.3,1.7-0.9c-1.4-0.4-2.8-0.7-4.2-1.1
			c-1.5-0.4-3.1-0.7-4.7-0.9c-1.5-0.2-2.9-0.5-4.4-0.7c-2.2-0.4-4.3-0.7-6.5-0.4c-0.4,0.1-0.8,0.1-1.1,0.3c0,0.4,0.5,0.6,0.9,0.7
			c1.9,0.3,3.8,0.7,5.7,1.1c1.7,0.3,3.4,0.6,5.2,0.8c1.8,0.2,3.7,0.1,5.4,0.7C295.4,81.4,296.1,81.7,296.7,81.8z M299.4,61.6
			c0.4,0.1,1,0,0.9-0.4c-0.9-0.2-2-0.2-2.9,0.1C298,61.8,298.7,61.9,299.4,61.6L299.4,61.6z M361.7,77.1c-29.9,2.1-59.2,9-89.2,2.6
			c-3-0.7-5.9-1.5-8.8-2.5c-0.4-0.4-1.1-0.7-1.7-0.6c-8.7-3-17-6.9-25.7-9.7c1.4-0.4,2.8-0.8,4.3-1.2c3.5-0.9,7-1.9,10.6-2.8
			c1.8-0.5,3.5-0.9,5.3-1.4c7-1.8,14.3-3,21.6-3.7c0,0,0,0,0,0c5.5,0.9,10.9,1.9,16.3,3.1c-3.2-1.8-6.8-2.8-10.4-3.5
			c27.4-1.4,55.9,4.9,77.9,18.8C361.9,76.6,361.8,76.9,361.7,77.1z"/>
		<path fill="#87A82D" d="M263.7,77.3c0.1,0.1,0.1,0.1,0.1,0.1c-0.9,0.4-2.1,0.3-2.9-0.4c0.3-0.2,0.7-0.4,1-0.4
			C262.6,76.9,263.1,77.1,263.7,77.3z"/>
		<path fill="#87A82D" d="M263.7,77.3c-0.6-0.2-1.2-0.4-1.7-0.6C262.6,76.6,263.3,76.8,263.7,77.3z"/>
		<path fill="#67822B" d="M258.6,26.6c-0.1-0.3-0.2-0.6-0.1-0.9c2.1-0.2,4.2-0.2,6.3,0c-0.4,0.2-0.8,0.4-1.2,0.6
			c-1.4-0.2-2.8-0.3-4.2-0.1C259.1,26.2,258.7,26.3,258.6,26.6z"/>
		<path fill="#56662B" d="M269.3,32.1c-4.4-0.7-8.7-1.4-13.1-2.1c0.5-0.3,1-0.5,1.5-0.8c0.2,0.2,0.3,0.3,0.5,0.5
			c0.2-0.5,0.8-0.5,1.4-0.4c3,0.4,6,1.1,8.9,1.9C268.9,31.3,269.4,31.6,269.3,32.1z"/>
		<path fill="#67822B" d="M257.4,26.5c-1.2,0.4-2.6,0-3.3-0.9c1.1,0.2,2.2,0.4,3.3,0.6C257.5,26.2,257.5,26.5,257.4,26.5z"/>
		<path fill="#77A829" d="M253.7,77.4l0,0.2c-0.2,0.1-0.5,0-0.6-0.1c0-0.3,0-0.5,0-0.7c0.7-0.5,1.7-0.5,2.3,0
			C255,77.3,254.3,77.6,253.7,77.4z"/>
		<path fill="#67822B" d="M253.1,29.3c0.5-0.3,1.1-0.1,1.4,0.3c-0.7,0.2-1.4,0.2-2.1,0C252.3,29.4,252.7,29.2,253.1,29.3L253.1,29.3
			z"/>
		<path fill="#466B11" d="M251.2,63c-3.5,0.9-7.1,1.9-10.6,2.8C244.1,64.9,247.7,63.9,251.2,63z"/>
		<path fill="#77A829" d="M245.5,77.5c-0.8-0.1-1.9-0.3-2.3,0.4c-0.7-0.5-1.5-0.7-2.3-0.5c-0.1-0.7,0.9-1,1.6-1c1.6,0,3.2,0,4.7,0
			C247.5,77.2,246.3,77.6,245.5,77.5z"/>
		<path fill="#67822B" d="M239.3,24.3c0.4-0.1,0.9-0.2,1.4-0.1c0.2,0.3,0.2,0.6,0.1,0.9c-0.4,0.2-0.8,0.2-1.2,0.1v0.1
			C239.3,25.3,239.3,24.7,239.3,24.3z"/>
		<path fill="#6A8E25" d="M236.4,27.5c0.1,0.1,0.1,0.1,0.1,0.2c0.1,0.3-0.4,0.4-0.7,0.4c-1.4-0.2-2.7-0.3-4.1-0.5
			c0.5-0.1,0.9-0.2,1.4-0.4C234.2,26.9,235.6,26.7,236.4,27.5z"/>
		<path fill="#9EC62E" d="M232.7,87.4c0.1,0.5,0.6,0.9,1.2,0.9c0.5,0,1-0.2,1.5-0.5c1.7-0.9,3-2.5,3.6-4.3c0.7,0.2,1,1.1,0.9,1.9
			c-0.2,1.8-1.7,3.3-3.4,4.2c-1.4,0.8-3.2,1.2-4.5,0.3c-0.9-0.6-1.3-1.7-1.5-2.8c-0.1-1.1,0-2.2,0-3.3c0.3-0.4,1-0.3,1.3,0
			c0.3,0.4,0.4,0.9,0.5,1.4C232.5,86,232.6,86.7,232.7,87.4z"/>
		<path fill="#466B11" d="M254.2,9.7c-8.2-0.7-16.3-2.4-24.5-3.4c-2.6-0.3-5.3-0.5-7.9-0.7c-0.8-0.1-1.5-0.1-2.3-0.1l0.1-1.2
			c6.9,0.4,13.9,0.7,20.8,1.1c13.2,0.7,26.1,1.3,39.6,2c6.9,0.3,13.7,0.7,20.5,1.5l-0.1,1.1C285,8.3,269.5,11,254.2,9.7z"/>
		<path fill="#77A829" d="M228,77.2c-0.1,0.2-0.5,0.2-0.8,0.2c-1.1-0.1-2.2-0.4-3.2-0.8c0.9-0.6,2.1-0.5,3.2-0.5
			c2.7,0.3,5.5,0.5,8.2,0.8c0.4,0,0.9,0.1,1.2-0.2c1.2,0.2,2.4,0.4,3.6,0.6c-1.4,0.2-2.7,0.4-4,0.6c-1.5,0.2-3,0-4.3-0.7
			C230.7,77.8,229.2,77.8,228,77.2z"/>
		<path fill="#618227" d="M273.6,16.8c-17.7-3.5-34.8-5.4-51.8-6.1l0-1.1c0.4,0,0.8-0.1,1.1-0.5c-0.3-0.4-0.8-0.6-1.3-0.6l0.1-2.7
			c2.6,0.2,5.3,0.4,7.9,0.7c8.2,0.9,16.3,2.7,24.5,3.4c15.4,1.2,30.9-1.4,46.2,0.2c1.4,0.1,2.8,0.3,4.2,0.6
			c-7.8,3.6-15.6,7.2-24.8,7c-0.5,0-1,0-1.5-0.1c-0.6,0-1.1-0.1-1.7-0.1c-0.5-0.1-1-0.1-1.4-0.2C274.6,17,274.1,16.9,273.6,16.8z"/>
		<path fill="#77A829" d="M221.2,76.4c-0.6,0.9-2,0.9-2.7,0.1C219.2,75.8,220.3,76,221.2,76.4z"/>
		<path fill="#618227" d="M278.1,57.9c-24.2-4-48.8-5.4-73.4-4.3c-2.5,0.1-5.1,0.2-7.3-1c20-1.5,40.2-1.3,60.3,0.5
			c6.3,0.5,12.8,1.3,18.6,3.9c-0.1-0.5,0.6-0.6,1-0.5c2.3,0.3,4.5,0.5,6.8,0.9C282.1,57.6,280.1,57.7,278.1,57.9
			C278.1,57.9,278.1,57.9,278.1,57.9z"/>
		<path fill="#77A829" d="M220.9,8.5c0.2-0.1,0.4-0.1,0.7-0.1c0.5,0,1,0.2,1.3,0.6c-0.3,0.3-0.7,0.5-1.1,0.5c-0.6,0-1.3-0.3-1.5-0.9
			C220.4,8.5,220.7,8.4,220.9,8.5L220.9,8.5z"/>
		<path fill="#5D7725" d="M211.2,76.4c0,0.6-0.8,0.7-1.3,0.7c-4.2,0.1-8.3,0.2-12.4,0.2c1.4-0.4,2.9-0.7,4.3-1.1c0.8,0,1.6,0,2.3,0
			C206.4,76.3,208.8,76.3,211.2,76.4z"/>
		<path fill="#56662B" d="M207.1,36.6c1.4,0.8,3.5,1.1,4.5-0.3c0.5-0.7,0.7-1.8,1.5-1.9c0.7,0.4,0.9,1.4,0.6,2.2
			c-0.3,0.7-1,1.3-1.7,1.8c-1,0.7-2.3,1.2-3.6,1.1c-1.3-0.1-2.5-0.8-2.9-2c-0.3-0.8-0.5-1.7-0.5-2.5c0.1-0.9,0.6-1.8,1.4-2
			C207.1,34,207.3,35.3,207.1,36.6z"/>
		<path fill="#6A8E25" d="M204.9,25.9c1.6-0.2,3.2-0.5,4.8-0.9c1.5-0.4,3.2,0.8,4.7,0.3c0.4-0.2,0.8-0.4,1.2-0.5
			c0.4-0.1,0.9,0.1,1,0.5c0.4-0.5,1.1-0.6,1.8-0.5c1.8,0.1,3.7,0.6,5.3,1.5c-1.6,0-3.3,0-4.9,0c-1.5,0-3,0-4.5,0.5
			c-0.8,0.3-1.7-0.2-2.5-0.3c-2.3-0.5-4.8,0.9-7.1,0.5c-0.3,0-0.7-0.1-0.8-0.4c-1.5,0.5-3.5-0.7-4.6,0.4c-0.4-0.2-0.6-0.6-0.7-0.9
			c1.5-0.8,3.4-0.9,4.9-0.2C203.9,26.1,204.4,26,204.9,25.9z"/>
		<path fill="#56662B" d="M198.1,12.7c0.3-0.7,1.6-0.5,1.6,0.3c-0.8,0.5-1.9,0.3-2.6-0.4l0.2-0.3C197.6,12.2,198,12.4,198.1,12.7z"
			/>
		<path fill="#56662B" d="M192.6,52.3c0.8-0.1,1.6-0.2,2.5-0.3c0.4,0.1,0.5,0.7,0.2,0.9c-0.9-0.1-1.8-0.1-2.6,0.2
			C192.6,52.9,192.6,52.6,192.6,52.3z"/>
		<path fill="#5D7725" d="M184.8,76.9c5.6-0.7,11.3-0.7,17-0.6c-1.4,0.4-2.9,0.8-4.3,1.1h0c-2.2,0-4.3,0.1-6.5,0.1
			c-5.7,0.7-11.4,1.3-17.1,1.9c2.3-1,4.8-1.6,7.4-1.8C182.4,77.2,183.6,77,184.8,76.9z"/>
		<path fill="#466B11" d="M234.4,120.8c-4.6-0.2-9.3-0.5-13.9-0.3c-2.7,0.2-5.4,0.5-8.1,1c-2,0.1-4,0.1-5.9,0.2
			c0-0.2-0.1-0.5-0.3-0.7c-0.4-0.3-0.9-0.3-1.4-0.3c-5,0-10,0.1-15,0.1c-0.2,0-0.5,0-0.7,0l0-0.3c6.6-0.3,13.2-0.5,19.8-0.8
			c39.1-1.5,78.3-3,117.4-4.8c2-0.1,4-0.2,6-0.4l0,0.3c-32.5,3.8-65.1,5-97.7,6C234.5,120.8,234.4,120.8,234.4,120.8z"/>
		<path fill="#56662B" d="M187.7,38.8c0.2-0.3,0.5-0.4,0.9-0.4l0.1,0.1c0.3-0.2,0.9-0.1,1.1,0.2c-0.3,0.3-0.6,0.6-1.1,0.7
			C188.2,39.5,187.7,39.2,187.7,38.8z"/>
		<path fill="#77A829" d="M182.8,115.9c1-0.2,2-0.2,2.9,0c0,0.4-0.6,0.6-1,0.7c-0.3,0.1-0.7,0.1-1,0.2l0-0.1
			C183.3,116.5,183,116.2,182.8,115.9z"/>
		<path fill="#466B11" d="M177.3,82.4c5.2-1.2,10.4-2.5,15.6-3.9C187.7,79.8,182.5,81.1,177.3,82.4z"/>
		<path d="M206,122.3c0.2-0.1,0.3-0.3,0.3-0.5c2-0.1,3.9-0.1,5.9-0.2c-2,0.3-4,0.7-6,1c-13.7,2.1-27.6,2.2-41.4,2
			c-2.8,0-5.6-0.1-8.4-0.1c10.6-0.8,21.3-1.5,31.9-2c3.3,0.8,6.8,1,10.2,0.7c0.5-0.1,1-0.1,1.5-0.2
			C202.1,122.8,204.1,122.5,206,122.3z"/>
		<path fill="#466B11" d="M172,83.6c1.8-0.4,3.5-0.8,5.3-1.2C175.5,82.8,173.8,83.2,172,83.6z"/>
		<path fill="#466B11" d="M166.8,84.8c1.8-0.4,3.5-0.8,5.3-1.2C170.3,84,168.5,84.4,166.8,84.8z"/>
		<path fill="#56662B" d="M171.8,40.1c-0.2-0.1-0.3-0.5-0.1-0.6c0.6-0.1,1.2,0,1.7,0.1C173,40.1,172.4,40.3,171.8,40.1L171.8,40.1z"
			/>
		<path fill="#56662B" d="M172.4,15.1c-0.7,0.3-1.5,0.4-2.2,0.3c-0.3,0.1-0.5,0-0.7-0.1C170,14.3,171.7,14.2,172.4,15.1z"/>
		<path fill="#5D7725" d="M176.9,28.4c-2.2,0.4-4.5,0.5-6.7,0.3c-0.2-0.5,0.4-0.9,0.9-0.9c0.5,0,1.1,0.1,1.4-0.1
			c1.8,0,3.7,0.1,5.5,0.1C178.2,28.3,177.4,28.8,176.9,28.4z"/>
		<path fill="#56662B" d="M165.1,80.3c1.1-0.9,2.8-1.1,4.2-0.5c-0.6,0.8-1.7,1.3-2.7,1.2c-0.3,0-0.5-0.1-0.8-0.2
			C165.5,80.6,165.3,80.5,165.1,80.3z"/>
		<path fill="#87A82D" d="M165.3,86.7c0.3,0.8,1,1.5,1.8,1.7c1.7,0.4,3.3-1.7,5-1.1c0.2,0.9-0.8,1.6-1.6,2c-1.6,0.9-3.6,1.7-5.1,0.8
			c-1.5-0.8-1.9-2.7-2-4.5c0,0,0,0,0,0c0.5-0.1,1.1-0.2,1.6-0.4C165,85.7,165.1,86.2,165.3,86.7z"/>
		<path fill="#466B11" d="M165,85.2c-0.5,0.1-1.1,0.3-1.6,0.4C163.9,85.5,164.4,85.3,165,85.2z"/>
		<path fill="#709E1E" d="M164.9,84.1c0,0.4,0,0.7,0,1.1c-0.5,0.1-1.1,0.3-1.6,0.4c0-0.2,0-0.4,0-0.7c-0.1-1.4,0.2-3.2,1.6-3.5
			C164.9,82.3,164.9,83.2,164.9,84.1z"/>
		<path fill="#466B11" d="M162,85.9c0.4-0.1,0.9-0.2,1.4-0.3c0,0,0,0,0,0C162.9,85.7,162.4,85.8,162,85.9z"/>
		<path fill="#466B11" d="M156.2,87.1c1.8-0.4,3.5-0.7,5.3-1.1C159.7,86.4,157.9,86.7,156.2,87.1z"/>
		<path fill="#56662B" d="M159.5,26.4c-0.4-0.3-0.1-1.1,0.5-1.2c0.5-0.1,1,0.1,1.5,0.4c-0.5,0.1-0.9,0.2-1.4,0.3l0-0.1
			C159.9,26,159.7,26.2,159.5,26.4z"/>
		<path fill="#56662B" d="M158,49.9c-0.2,0-0.5-0.1-0.4-0.3c0.9-0.7,2.2-1,3.4-0.6C160.1,49.6,159,49.9,158,49.9z"/>
		<path fill="#466B11" d="M151.1,88.1c1.7-0.3,3.4-0.7,5-1C154.5,87.5,152.8,87.8,151.1,88.1z"/>
		<path fill="#77A829" d="M152.6,113.1L152.6,113.1c0,0.3-0.3,0.7-0.6,0.9c-0.3-0.3-0.8-0.6-1.3-0.7
			C151.2,112.8,152,112.7,152.6,113.1z"/>
		<path fill="#709E1E" d="M152.6,113.1c-0.6-0.3-1.4-0.2-1.9,0.2c0.5,0.1,0.9,0.3,1.3,0.7C152.3,113.7,152.5,113.4,152.6,113.1
			L152.6,113.1z M326.2,115c-39.1,1.9-78.3,3.4-117.4,4.8c-6.6,0.2-13.2,0.5-19.8,0.8c-3.3,0.1-6.6,0.2-9.8,0.4
			c-20.7,0.8-41.6,1.6-62.2-0.4c-0.7-0.1-1.3-0.1-2-0.2c26.2-6.8,53.1-11.1,80.7-16.1c35.2-7.5,69.4-2.1,103.5-3.2
			c19.8-1.8,39.6-6.6,58.8-12c-0.8,2.2-1.5,4.5-2.3,6.7c-1.7,4.6-3.6,9.3-7.1,12.6c-4.3,4.1-10.3,5.5-16.3,6.1
			C330.2,114.8,328.1,114.9,326.2,115z M185.7,115.9c-1-0.2-2-0.2-2.9,0c0.2,0.3,0.5,0.6,0.8,0.7l0,0.1c0.3-0.1,0.7-0.1,1-0.2
			C185.1,116.5,185.7,116.3,185.7,115.9z"/>
		<path fill="#56662B" d="M150.9,42.7c0.2,0.3,0.4,0.6,0.6,0.9c-1,0.4-2.1,0.3-3.1-0.1C149.3,43.3,150.1,43,150.9,42.7z"/>
		<path fill="#709E1E" d="M148.5,16.4c-0.4,0.2-0.8,0.4-1.2,0.4c-1.4,0.1-2.2-1.6-2.3-3c0,0,0,0,0,0c2-0.2,4-0.4,6.1-0.6l0.2,1.7
			C150.3,15.4,149.4,15.9,148.5,16.4z"/>
		<path fill="#56662B" d="M146.9,57.2c0.7-0.3,1.5-0.3,2.2,0c-1,1.2-2.9,1.7-4.4,1.2c0.4-0.2,0.8-0.5,1.2-0.7
			C146.2,57.6,146.5,57.4,146.9,57.2z"/>
		<path fill="#9EC62E" d="M143.6,89.6c1.2-0.2,2.4-0.4,3.6-0.7C146.1,89.2,144.8,89.4,143.6,89.6z"/>
		<path fill="#5D7725" d="M131.5,87.1c10.1-3.3,20.5-5.5,31.1-6.6c-0.7,1.2-2.2,1.4-3.5,1.6c-8.7,1.1-17.3,3-25.7,5.7
			c-0.6,0.2-1.5,0.1-1.8-0.3C131.5,87.4,131.4,87.2,131.5,87.1z"/>
		<path fill="#5D7725" d="M162.1,28.2c1.7-0.2,3.4-0.5,5.1-0.2c0.4,0,1,0.4,0.7,0.8c-4.8,0.3-9.6,1-14.3,1.9
			c-1.1,0.2-2.2,0.2-3.3,0.3c-2.7,0.1-5.5,0.4-8.2,0.9c-0.5,0.1-0.9-0.4-0.9-0.8c1.7-0.2,3.4-0.5,5.1-0.7c2.3-0.3,4.6-0.6,6.9-0.9
			C156.2,29,159.1,28.7,162.1,28.2z"/>
		<path fill="#56662B" d="M151.9,15.7c-1.4,2.7-5.2,3.9-7.8,2.4c-0.4-1.3-0.7-2.7-0.9-4.1c0.6-0.1,1.3-0.1,1.9-0.2c0,0,0,0,0,0
			c0.1,1.4,0.9,3.1,2.3,3c0.4,0,0.8-0.2,1.2-0.4c0.9-0.5,1.8-1,2.8-1.5C151.6,15,151.8,15.3,151.9,15.7z"/>
		<path fill="#6A8E25" d="M147.5,50.6c-0.7,0.2-1.4,0.5-2.1,0.4c-1.1,0-2.1-0.8-2.7-1.7c-0.6-0.9-0.8-2.1-0.9-3.2c0-0.5,0-1,0.3-1.4
			c0.3-0.4,0.8-0.7,1.3-0.4c0.2,0.9,0.3,1.8,0.4,2.8c0.1,0.3,0.1,0.7,0.3,0.9c0.4,0.7,1.5,0.9,2.3,0.8c0.9-0.2,1.7-0.5,2.5-0.6
			c0.9-0.1,1.9,0.3,2.1,1.1C149.9,49.8,148.7,50.2,147.5,50.6z"/>
		<path fill="#56662B" d="M144.7,12.5c0.2,0.4,0.3,0.9,0.3,1.3c-0.6,0.1-1.3,0.1-1.9,0.2c0,0,0,0,0,0c-0.1-0.6,0.1-1.2,0.4-1.7
			C143.8,11.9,144.4,12.1,144.7,12.5z"/>
		<path fill="#56662B" d="M142.5,59.5c-0.5,0.2-1,0.4-1.5,0.6l0.1,0.1c-0.4,0-0.7,0-1.1,0C140.2,59.2,141.7,58.8,142.5,59.5z"/>
		<path fill="#466B11" d="M136.7,90.9c1-0.2,2-0.4,3-0.5C138.6,90.5,137.6,90.7,136.7,90.9z"/>
		<path fill="#56662B" d="M137.1,60.3c0.5-0.1,1,0.4,1,0.8c-0.5,0-1,0-1.5,0.1c-0.1-0.3,0.1-0.7,0.5-0.8L137.1,60.3z"/>
		<path fill="#9EC62E" d="M134,91.3c0.9-0.1,1.8-0.3,2.6-0.5C135.8,91,134.9,91.2,134,91.3z"/>
		<path fill="#9EC62E" d="M165.1,80.3c0.2,0.2,0.4,0.3,0.7,0.4l-0.9,0.7c-1.4,0.3-1.6,2.1-1.6,3.5c0,0.2,0,0.4,0,0.7
			c-0.5,0.1-0.9,0.2-1.4,0.3c-0.2,0-0.3,0.1-0.5,0.1c-1.8,0.4-3.5,0.8-5.3,1.1c-1.7,0.4-3.4,0.7-5,1c-1.3,0.3-2.6,0.5-3.9,0.8
			c-1.2,0.2-2.4,0.5-3.6,0.7c-1.3,0.3-2.7,0.5-4,0.7c-1,0.2-2,0.4-3,0.5c-0.9,0.2-1.8,0.3-2.6,0.5c-2.3,0.4-4.5,0.8-6.8,1.1
			l-0.4-2.4c0.3-0.1,0.7-0.2,0.9-0.4c1-0.5,2-1,3-1.6c-0.2-0.1-0.5-0.1-0.7-0.1l1.5-0.6c0.3,0.5,1.2,0.5,1.8,0.3
			c8.4-2.7,17-4.6,25.7-5.7c1.3-0.2,2.8-0.5,3.5-1.6L165.1,80.3z"/>
		<path fill="#56662B" d="M126.1,90c-0.1-0.3,0.3-0.6,0.6-0.8c1.1-0.6,2.2-1.2,3.4-1.2c0.2,0,0.5,0,0.7,0.1c-1,0.5-2,1-3,1.6
			c-0.3,0.1-0.6,0.3-0.9,0.4C126.6,90.1,126.4,90.1,126.1,90z"/>
		<path fill="#56662B" d="M123.9,17.8c1.6-0.7,3.4-0.8,5-0.3c-0.9,0.6-2,0.9-3.1,0.9C125.1,18.4,124.4,18.3,123.9,17.8z"/>
		<path fill="#466B11" d="M124.3,92.9c0.9-0.1,1.7-0.3,2.6-0.4C126,92.6,125.2,92.8,124.3,92.9z"/>
		<path fill="#466B11" d="M124.3,92.9c-1,0.1-2,0.3-3,0.4C122.3,93.2,123.3,93,124.3,92.9z"/>
		<path fill="#56662B" d="M122.8,91c0.2,0.3,0.2,0.6,0.2,1c-0.6,0.3-1.3,0.2-1.9-0.1l0.1-0.1C121.8,91.5,122.3,91.3,122.8,91z"/>
		<path fill="#466B11" d="M119,93.7c0.8-0.1,1.6-0.2,2.3-0.3C120.5,93.4,119.8,93.5,119,93.7z"/>
		<path fill="#466B11" d="M114.2,94.3c1.6-0.2,3.2-0.4,4.8-0.6C117.4,93.9,115.8,94.1,114.2,94.3z"/>
		<path fill="#56662B" d="M132,33.8c-1.7,0.1-3.4,0.6-5,1c-1.2,0.3-2.3,0.6-3.5,0.9c-2.8,0.7-5.6,1.5-8.4,2
			c-0.4,0.1-0.8,0.1-1.1-0.1c0.1-0.9,1.2-1.3,2.1-1.4c1.4-0.3,2.8-0.6,4.2-0.9c4.6-0.9,9.3-1.9,13.9-2.8
			C134.2,33.4,132.9,33.7,132,33.8z"/>
		<path fill="#56662B" d="M114.2,17.6c0.1,0.3-0.3,0.4-0.6,0.3c-0.8,0.1-1.7,0.1-2.5,0.1C111.9,17.3,113.2,17.1,114.2,17.6z"/>
		<path fill="#68752F" d="M119.1,65.5c0.6-0.2,1.2-0.4,1.8-0.6c1.2-0.4,2.4-0.8,3.6-1.2c0.1,0.8-0.7,1.5-1.5,1.7
			c-0.8,0.2-1.6,0.1-2.4,0.3c-1.9,0.3-3.4,1.9-5.3,1.9c-0.6,0-1.4,0-1.7,0.5c-0.3,0.1-0.5-0.4-0.3-0.6c0.2-0.2,0.5-0.3,0.8-0.4
			C115.7,66.7,117.4,66.1,119.1,65.5z"/>
		<path fill="#466B11" d="M108.4,95c1.4-0.1,2.7-0.3,4.1-0.5C111.1,94.7,109.7,94.8,108.4,95z"/>
		<path fill="#68752F" d="M106,70.5c1.2-1.4,3.1-2.1,5-2.1c-1.2,0.9-2.4,1.6-3.8,2.2C106.9,70.7,106.3,70.8,106,70.5z"/>
		<path fill="#68752F" d="M112.8,79.5c-0.5,0.5-1.2,0.7-1.8,0.5v-0.1c-0.4,0.1-0.9,0-0.9-0.4C110.9,79.3,111.9,79.3,112.8,79.5z"/>
		<path fill="#68752F" d="M108.9,87.5c0.5,0.2,0.9,0.6,1.2,1.1c0.9,0.2,1.9-0.1,2.7-0.8c0.7-0.6,1.2-1.4,1.8-2.2
			c0.5-0.8,1-1.5,1.5-2.3c0.7,0.5,0.7,1.6,0.4,2.4c-0.5,1.6-1.5,3-2.8,3.9c-1.3,1-3.2,1.5-4.6,0.7c-0.7-0.5-1.2-1.2-1.5-2
			c-0.8-2-1-4.3-0.4-6.4c0.3,0.4,0.7,0.6,1.1,0.6C108.4,84.2,108.6,85.8,108.9,87.5z"/>
		<path fill="#466B11" d="M104.1,95.4c1.4-0.1,2.8-0.3,4.2-0.4C106.8,95.2,105.5,95.3,104.1,95.4z"/>
		<path fill="#56662B" d="M106,38.1c0.5-0.3,1.2,0.2,1.2,0.8c-0.8,0.2-1.6,0.2-2.3-0.1c0.3-0.3,0.7-0.5,1.2-0.4L106,38.1z"/>
		<path fill="#77A829" d="M107.8,15.1c-0.8,0.3-1.7,0.7-2.5,1c-0.2,0.1-0.4,0.1-0.6,0.2c-0.5-0.1-1.1-0.1-1.6-0.1c0,0,0,0,0,0
			c-0.2-0.1-0.4-0.3-0.6-0.4C104,14.6,106.1,14.3,107.8,15.1z"/>
		<path fill="#56662B" d="M106.2,19.2c-0.6,0.2-1.1,0.4-1.7,0.6V20c-0.4-0.1-0.3-0.7-0.1-1C105,19,105.6,19.1,106.2,19.2z"/>
		<path fill="#618227" d="M105.3,16.1c0.8-0.3,1.7-0.7,2.5-1c-1.7-0.8-3.9-0.5-5.4,0.7c0.2,0.1,0.4,0.3,0.6,0.4
			c-6.9-0.7-13.9-1.2-20.6,0.6C72.9,18.9,68.6,31.7,62.2,36c-9.5,5.6-20.8,9.3-31.6,14c0.5-4.5,1.4-8.8,2.9-13
			c0.9-2.5,2-4.9,3.3-7.3C44,16.9,57.8,8.9,72.1,5.3c14.2-3.5,29.2-3.1,43.9-2.7c12.1,0.3,24.3,0.7,36.4,1c18.9,0.5,37.8,1,56.8,1.5
			c3.4,0.1,6.8,0.2,10.2,0.4c0.8,0,1.5,0.1,2.3,0.1l-0.1,2.7c-0.2,0-0.5,0-0.7,0.1l0-0.1c-0.2,0-0.5,0-0.7,0.1
			c0.3,0.6,0.9,0.9,1.5,0.9l0,1.1c-23.7-1-47,0.3-70.6,2.6c-2,0.2-4,0.4-6.1,0.6c0-0.4-0.1-0.9-0.3-1.3c-0.3-0.4-0.9-0.6-1.2-0.2
			c-0.3,0.5-0.5,1.1-0.4,1.7c0,0,0,0,0,0c-8,0.8-16.1,1.8-24.3,2.8c-4.6,0.4-9.3,0-14.1-0.4C104.9,16.3,105.1,16.2,105.3,16.1z
			 M56.8,31.4c0.1-0.2,0.3-0.3,0.4-0.5c-3,0.9-6,1.9-8.9,2.9c0,0.5-0.3,1.1-0.8,1.3c0,0.3,0.4,0.3,0.7,0.2c1.2-0.4,2.5-0.9,3.8-1.3
			C53.7,33.3,55.5,32.7,56.8,31.4z"/>
		<path d="M104.7,16.3c-0.3,0.1-0.6,0.1-0.9,0.1c-0.2,0-0.5-0.1-0.7-0.2C103.6,16.2,104.2,16.3,104.7,16.3z"/>
		<path fill="#9EC62E" d="M101.8,95.7c0.8-0.1,1.5-0.1,2.3-0.2C103.3,95.5,102.5,95.6,101.8,95.7z"/>
		<path fill="#56662B" d="M101.8,20.3l-0.1,0.1c-0.5,0.4-1.1,0.6-1.7,0.7C100.1,20.2,101.2,19.8,101.8,20.3z"/>
		<path fill="#466B11" d="M99.2,95.9c0.8-0.1,1.7-0.1,2.5-0.2C100.9,95.8,100.1,95.8,99.2,95.9z"/>
		<path fill="#466B11" d="M93.9,96.3c1-0.1,2.1-0.1,3.1-0.2C96,96.2,94.9,96.3,93.9,96.3z"/>
		<path fill="#56662B" d="M96.9,16L96.9,16c0.4-0.2,0.8,0.1,0.7,0.4c-0.7-0.1-1.4,0.1-1.9,0.5c-0.4-0.1-0.3-0.8,0.1-1
			C96.1,15.8,96.5,15.9,96.9,16z"/>
		<path fill="#9EC62E" d="M172.4,15.1c-0.7-1-2.4-0.9-2.9,0.1c0.2,0.2,0.5,0.2,0.7,0.1C170.9,15.6,171.7,15.5,172.4,15.1z M199.7,13
			c0-0.8-1.3-1-1.6-0.3c-0.1-0.3-0.5-0.5-0.8-0.4l-0.2,0.3C197.8,13.3,198.9,13.5,199.7,13z M101.8,20.3c-0.6-0.5-1.7-0.1-1.8,0.7
			c0.6-0.1,1.2-0.3,1.7-0.7L101.8,20.3z M114.2,17.6c-1-0.5-2.3-0.3-3.1,0.4c0.9,0,1.7-0.1,2.5-0.1C113.9,18,114.3,17.8,114.2,17.6z
			 M128.9,17.5c-1.6-0.5-3.4-0.4-5,0.3c0.5,0.5,1.2,0.6,1.9,0.6C126.9,18.4,128,18.1,128.9,17.5z M104.4,18.9
			c-0.2,0.4-0.3,0.9,0.1,1v-0.2c0.6-0.2,1.1-0.4,1.7-0.6C105.6,19.1,105,19,104.4,18.9z M82.5,16.8c6.6-1.8,13.6-1.2,20.6-0.6
			c0,0,0,0,0,0c0.2,0.1,0.4,0.2,0.7,0.2c0.3,0,0.6,0,0.9-0.1c4.8,0.4,9.5,0.8,14.1,0.4c8.2-1,16.3-2,24.3-2.8
			c0.2,1.4,0.5,2.7,0.9,4.1c2.6,1.5,6.4,0.3,7.8-2.4c-0.1-0.3-0.3-0.6-0.6-0.8l-0.2-1.7c23.7-2.3,47-3.6,70.6-2.6
			c17,0.7,34.2,2.6,51.8,6.1c0.5,0.1,1.1,0.2,1.6,0.3c0.5,0.1,1,0.1,1.4,0.2c0.6,0.1,1.1,0.1,1.7,0.1c0.5,0,1,0.1,1.5,0.1
			c-3.4,1.5-6.9,2.5-10.4,2.5c-33.1,0-69.4-2.1-104.6,4.3c-23.5,3.2-45.9-1.1-68.3,1.1C82.5,26.4,72.9,39.2,58,43.4
			c-7.5,2.1-8.5,13.9-18.1,16c-1.2,0.2-2.3,0.4-3.4,0.4c-0.3-0.6-0.7-1.2-1.1-1.7c-0.9-0.9-1.4-2.1-1.9-3.3c-0.3-0.7-0.7-1.5-1-2.2
			c-0.8,2.4-0.4,5.2,1.2,7.2c-1.2,0-2.4-0.1-3.7-0.2c0.1-3.3,0.3-6.5,0.7-9.7c10.9-4.6,22.1-8.4,31.6-14
			C68.6,31.7,72.9,18.9,82.5,16.8z M97,16L97,16c-0.5-0.1-0.9-0.2-1.3,0c-0.4,0.2-0.4,0.9-0.1,1c0.5-0.5,1.2-0.6,1.9-0.5
			C97.7,16.1,97.3,15.8,97,16z M77.5,27.6c-0.6-0.4-1.4-0.3-1.9,0.2c-0.1,0.1-0.2,0.3-0.1,0.5c0.1,0.2,0.4,0.1,0.3-0.1l0.1-0.2
			C76.4,28,77,27.9,77.5,27.6z"/>
		<path fill="#56662B" d="M93.8,40l-0.1,0c-0.5,0.9-2.1,0.7-2.3-0.3c0.9-0.1,1.8-0.1,2.7-0.1C94.3,39.7,94.1,40.1,93.8,40z"/>
		<path fill="#466B11" d="M89,96.7c-0.4,0-0.7,0.1-1.1,0.1C88.3,96.7,88.6,96.7,89,96.7z"/>
		<path fill="#77A829" d="M90.5,100.4c-0.7-0.1-1.4-0.3-2.2-0.4c-0.3-0.1-0.8-0.3-0.7-0.6c0.1-0.1,0.2-0.2,0.3-0.2
			c0.8-0.3,1.8-0.2,2.5,0.1c0.5,0.2,0.9,0.9,0.4,1.2C90.9,100.5,90.7,100.4,90.5,100.4z"/>
		<path fill="#56662B" d="M84.3,97.9c-0.6,0.1-1.2-0.2-1.4-0.7c0.3,0,0.5-0.1,0.8-0.1C84,97.3,84.2,97.6,84.3,97.9z"/>
		<path fill="#56662B" d="M82.7,96.5c0.4,0.1,0.8,0.3,1.1,0.6c-0.3,0-0.5,0.1-0.8,0.1c0,0,0-0.1,0-0.1h-0.1
			C82.6,97,82.5,96.7,82.7,96.5z"/>
		<path fill="#56662B" d="M82.4,96.2c-1.3,0.4-2.7,0.6-4.1,0.5C78,96.5,78.6,96,79,96C80.2,95.9,81.3,96,82.4,96.2z"/>
		<path fill="#77A829" d="M80.7,99.1c0.5-0.1,1.2,0.3,1,0.8l-0.1,0c-0.8,0.1-1.7-0.1-2.4-0.5C79.7,99.5,80.2,99.2,80.7,99.1z"/>
		<path fill="#618227" d="M241,77.4c0.8-0.1,1.6,0.1,2.3,0.5c0.4-0.7,1.5-0.5,2.3-0.4c0.8,0.1,2-0.3,1.8-1.1c-1.6,0-3.1,0-4.7,0
			C241.8,76.4,240.9,76.7,241,77.4z M255.4,76.8c-0.7-0.5-1.7-0.5-2.3,0c0,0.3,0,0.5,0,0.7c0.2,0.1,0.4,0.2,0.6,0.1l0-0.2
			C254.3,77.6,255,77.3,255.4,76.8z M218.5,76.5c0.7,0.8,2.1,0.8,2.7-0.1C220.3,76,219.2,75.8,218.5,76.5z M67.8,105.2
			c-0.4-0.8-1.6-1.2-2.4-0.8c0.2,0.1,0.4,0.3,0.6,0.4l0.1-0.2C66.5,105.2,67.3,105.4,67.8,105.2z M81.7,99.9c0.3-0.5-0.5-0.9-1-0.8
			c-0.5,0.1-1,0.5-1.5,0.4C80,99.8,80.8,100,81.7,99.9L81.7,99.9z M233.8,88.4c-0.5-0.1-1.1-0.4-1.2-0.9c-0.1-0.7-0.2-1.4-0.3-2.1
			c-0.1-0.5-0.2-1-0.5-1.4c-0.3-0.4-1-0.5-1.3,0c0,1.1-0.1,2.2,0,3.3c0.1,1.1,0.6,2.2,1.5,2.8c1.3,0.9,3.1,0.5,4.5-0.3
			c1.7-0.9,3.2-2.3,3.4-4.2c0.1-0.8-0.2-1.7-0.9-1.9c-0.6,1.8-1.9,3.4-3.6,4.3C234.8,88.2,234.3,88.4,233.8,88.4z M224,76.6
			c1,0.4,2.1,0.6,3.2,0.8c0.3,0,0.6,0,0.8-0.2c1.2,0.6,2.7,0.6,3.9,0c1.3,0.7,2.8,0.9,4.3,0.7c1.3-0.2,2.7-0.4,4-0.6
			c-1.2-0.2-2.4-0.4-3.6-0.6c-0.3,0.3-0.8,0.3-1.2,0.2c-2.7-0.2-5.5-0.5-8.2-0.8C226.1,76,224.9,75.9,224,76.6z M87.9,96.7
			c0.4,0,0.8,0,1.1-0.1c1.6-0.1,3.3-0.2,4.9-0.3c1-0.1,2.1-0.1,3.1-0.2c0.7-0.1,1.5-0.1,2.2-0.2c0.8-0.1,1.7-0.1,2.5-0.2
			c0.8-0.1,1.5-0.1,2.3-0.2c1.4-0.1,2.8-0.3,4.2-0.4c0.1,0,0.1,0,0.2,0c1.4-0.1,2.7-0.3,4.1-0.5c0.6-0.1,1.2-0.1,1.8-0.2
			c1.6-0.2,3.2-0.4,4.8-0.6c0.8-0.1,1.6-0.2,2.3-0.3c1-0.1,2-0.3,3-0.4c0.9-0.1,1.7-0.3,2.6-0.4c0.1,0,0.2,0,0.3-0.1
			c2.3-0.3,4.5-0.7,6.8-1.1c0.9-0.1,1.8-0.3,2.6-0.5c1-0.2,2-0.3,3-0.5c1.3-0.2,2.7-0.5,4-0.7c1.2-0.2,2.4-0.5,3.6-0.7
			c1.3-0.2,2.6-0.5,3.9-0.8c1.7-0.3,3.4-0.7,5-1c1.8-0.4,3.5-0.7,5.3-1.1c0.2,0,0.3-0.1,0.5-0.1c0.5-0.1,0.9-0.2,1.4-0.3
			c0.1,1.8,0.5,3.6,2,4.5c1.6,0.9,3.5,0.1,5.1-0.8c0.8-0.4,1.8-1.1,1.6-2c-1.6-0.6-3.3,1.5-5,1.1c-0.8-0.1-1.5-0.9-1.8-1.7
			c-0.2-0.5-0.2-0.9-0.3-1.5c0.6-0.1,1.2-0.3,1.8-0.4c1.8-0.4,3.5-0.8,5.3-1.2c1.8-0.4,3.5-0.8,5.3-1.2c5.2-1.2,10.4-2.5,15.6-3.9
			c1.5-0.4,3-0.8,4.5-1.2h0c4.1-0.1,8.3-0.1,12.4-0.2c0.6,0,1.3-0.2,1.3-0.7c-2.4,0-4.8-0.1-7.1-0.1c-0.8,0-1.5,0-2.3,0
			c11.5-3,23-6.1,34.6-9.2c8.7,2.7,17,6.6,25.7,9.7c-0.4,0-0.7,0.1-1,0.4c0.8,0.7,2,0.8,2.9,0.4c0-0.1-0.1-0.1-0.1-0.1
			c2.9,0.9,5.8,1.8,8.8,2.5c30.1,6.4,59.4-0.5,89.2-2.6c-1.2,4-2.4,8-3.8,12c-19.2,5.3-39,10.2-58.8,12
			c-34.2,1.1-68.3-4.3-103.5,3.2c-27.5,5-54.4,9.4-80.7,16.1c-6.3-0.6-12.7-1.4-19-1.1c-10.6,0.5-21.5,0.5-31.8-2l0.7-2.8
			c0.5,0.1,1.1,0.3,1.6,0.3c0.5-0.2,0.9-0.4,1.4-0.6c-2.4-0.7-4.8-1.8-6.9-3.2c0,0-0.1,0-0.1,0l1-3c0.8,0.3,1.6,0.6,2.4,1
			c0.6,0.3,1.3,0.6,1.8,0.2c-1.1-1-2.5-1.4-3.9-1.9c-1.8-0.5-3.7-0.9-5.5-1.3c7.2-5.3,17.9-7.8,26.3-8.9c0.2,0.5,0.9,0.9,1.4,0.7
			c-0.1-0.3-0.4-0.6-0.6-0.8c1.1-0.1,2.1-0.2,3.1-0.3C87.1,96.8,87.5,96.8,87.9,96.7z M90.6,99.2c-0.8-0.3-1.7-0.4-2.5-0.1
			c-0.1,0.1-0.2,0.1-0.3,0.2c-0.1,0.3,0.3,0.6,0.7,0.6c0.7,0.1,1.5,0.3,2.2,0.4c0.2,0,0.3,0.1,0.5,0C91.5,100.2,91.1,99.4,90.6,99.2
			z M296.1,90.7c0.2-0.3,0.4-0.6,0.3-0.9c-0.1-0.3-0.6-0.5-0.8-0.3c-1.2,0.8-2.5,1.5-3.7,2.3c-1.2,0.8-2.6,1.5-4,1.3
			c-1.9-0.3-3.1-2.7-2.3-4.4c-0.3-0.1-0.6-0.3-0.9-0.5c-0.9,1.1-1.2,2.6-0.8,3.9c0.4,1.3,1.4,2.4,2.7,2.8c2.3,0.8,4.8-0.5,6.9-1.8
			C294.4,92.4,295.4,91.7,296.1,90.7z"/>
		<path fill="#56662B" d="M75.4,28.3c-0.1-0.1,0-0.3,0.1-0.5c0.5-0.5,1.4-0.6,1.9-0.2C77,27.9,76.4,28,75.8,28l-0.1,0.2
			C75.8,28.3,75.5,28.4,75.4,28.3z"/>
		<path fill="#77A829" d="M67.8,105.2c-0.6,0.2-1.3,0-1.6-0.5l-0.1,0.2c-0.2-0.2-0.4-0.3-0.6-0.4C66.2,104,67.4,104.4,67.8,105.2z"
			/>
		<path fill="#68752F" d="M68.8,92.6c-1,0-2.1,0-3.2-0.1c-0.2,0-0.4,0-0.5-0.1c-0.4-0.4,0.3-1,0.9-1C67,91.4,68,91.8,68.8,92.6z"/>
		<path fill="#77A829" d="M67.9,114.3c-0.5,0.2-1,0.4-1.4,0.6c-0.5-0.1-1.1-0.2-1.6-0.3c-1.6-0.5-3.1-1.2-4.3-2.3
			c-0.1-0.1-0.2-0.2-0.3-0.3c-0.2-0.4,0.2-0.9,0.6-0.9c0,0,0.1,0,0.1,0C63.1,112.5,65.4,113.6,67.9,114.3z"/>
		<path fill="#68752F" d="M67.2,77.4c-0.3,0.7-1.2,0.5-1.8,0.3c-1.7-0.6-3.5-0.9-5.3-0.9c-1.2,0-2.5,0-3.3-0.9
			C60.3,75.2,64,75.8,67.2,77.4z"/>
		<path fill="#77A829" d="M66.1,109.2c-0.5,0.4-1.2,0.1-1.8-0.2c-0.8-0.4-1.6-0.7-2.4-1c-1.4-0.5-2.8-0.8-4.3-0.9
			c-0.1,0.1-0.3,0.1-0.5,0.1c-0.5-0.1-1.1-0.2-1.6-0.4c0.3-0.3,0.7-0.5,1-0.8c1.9,0.3,3.7,0.8,5.5,1.3
			C63.5,107.8,65,108.3,66.1,109.2z"/>
		<path fill="#56662B" d="M65.6,62.7c-0.7,0.3-1.5,0.2-2.1-0.1l0.1-0.1C64,61.6,65.5,61.8,65.6,62.7z"/>
		<path fill="#618227" d="M64.8,114.5l-0.7,2.8c-1.8-0.4-3.5-0.9-5.2-1.5c-2.8-0.9-5.6-2.2-8.2-3.6c0.5-0.9,1.1-1.7,1.8-2.5
			c0.4,0.1,0.9,0.2,1.3,0.2c0-0.4-0.3-0.8-0.7-1c0.7-0.8,1.5-1.5,2.3-2.2c0.5,0.2,1,0.3,1.6,0.4c0.1,0,0.3-0.1,0.5-0.1
			c1.5,0.1,2.9,0.4,4.3,0.9l-1,3c-0.4,0-0.8,0.5-0.6,0.9c0.1,0.1,0.1,0.2,0.3,0.3C61.8,113.3,63.3,114.1,64.8,114.5z"/>
		<path fill="#68752F" d="M63.3,89.7c-0.4,0.5-0.9,1-1.5,1.3c-0.6-0.6-1.5-1-2.4-1c-0.2-0.6,0.8-0.9,1.5-0.7
			C61.7,89.4,62.5,89.5,63.3,89.7z"/>
		<path fill="#56662B" d="M56.6,106.1c-0.4,0.3-0.7,0.5-1,0.8c-0.8-0.3-1.5-0.8-2.2-1.3C54.5,105.7,55.6,105.9,56.6,106.1z"/>
		<path fill="#56662B" d="M53.9,110c-0.4,0-0.9-0.1-1.3-0.2c0.2-0.2,0.4-0.5,0.7-0.7C53.6,109.2,53.9,109.6,53.9,110z"/>
		<path fill="#56662B" d="M53.3,109.1c-0.2,0.2-0.4,0.5-0.7,0.7c-0.7-0.2-1.3-0.6-1.8-1.1c0.6-0.3,1.3-0.2,1.8,0.2l0,0.1
			C52.9,108.9,53.1,109,53.3,109.1z"/>
		<path fill="#7CA81B" d="M239.7,25.2c0.4,0.1,0.8,0,1.2-0.1c0-0.3,0-0.6-0.1-0.9c-0.5,0-0.9,0-1.4,0.1
			C239.3,24.7,239.3,25.3,239.7,25.2L239.7,25.2z M252.4,29.6c0.7,0.2,1.4,0.2,2.1,0c-0.3-0.4-0.9-0.5-1.4-0.3l0-0.1
			C252.7,29.2,252.3,29.4,252.4,29.6z M258.5,25.7c-0.1,0.3,0,0.7,0.1,0.9c0-0.3,0.4-0.4,0.8-0.5c1.4-0.1,2.8-0.1,4.2,0.1
			c0.4-0.2,0.8-0.4,1.2-0.6C262.7,25.5,260.6,25.5,258.5,25.7z M254.1,25.6c0.8,0.9,2.2,1.3,3.3,0.9c0.1-0.1,0.1-0.3-0.1-0.3
			C256.3,26,255.2,25.8,254.1,25.6z M161.5,25.6c-0.5-0.3-1-0.6-1.5-0.4c-0.5,0.1-0.9,0.9-0.5,1.2c0.2-0.2,0.4-0.4,0.6-0.6l0,0.1
			C160.5,25.8,161,25.7,161.5,25.6z M269.3,32.1c0.1-0.5-0.4-0.8-0.9-0.9c-2.9-0.8-5.9-1.5-8.9-1.9c-0.5-0.1-1.2,0-1.4,0.4
			c-0.2-0.2-0.3-0.3-0.5-0.5c-0.5,0.3-1,0.6-1.5,0.8C260.6,30.7,264.9,31.4,269.3,32.1z M271.6,32.7c-0.2-0.9-1.5-1.3-2.1-0.6
			c0.2,0.7,1.2,0.7,2,0.6L271.6,32.7z M276.2,34.2c0.4-0.7-0.5-1.6-1.3-1.6c-0.8-0.1-1.6,0.2-2.5,0.1c0.2,0.5,0.6,0.8,1.2,0.9
			C274.5,33.9,275.8,33.4,276.2,34.2z M280.7,34.2L280.7,34.2c-0.5-0.6-1.6-0.7-2.2-0.2c0.6,0.6,1.6,0.9,2.4,0.7
			C281.2,34.5,281,34.1,280.7,34.2z M172.6,27.7c-0.4,0.3-0.9,0.1-1.4,0.1c-0.5,0-1.1,0.4-0.9,0.9c2.2,0.3,4.5,0.2,6.7-0.3
			c0.5,0.3,1.2-0.1,1.2-0.7C176.3,27.7,174.4,27.7,172.6,27.7z M138.1,61.2c0-0.5-0.5-0.9-1-0.8l0,0.1c-0.3,0.1-0.5,0.4-0.5,0.8
			C137.2,61.2,137.6,61.2,138.1,61.2z M139.9,60.2c0.4,0,0.7,0,1.1,0l-0.1-0.1c0.5-0.2,1-0.4,1.5-0.6
			C141.7,58.8,140.2,59.2,139.9,60.2z M188.6,38.5L188.6,38.5c-0.4-0.1-0.8,0-0.9,0.3c0,0.4,0.5,0.7,0.9,0.6
			c0.4-0.1,0.8-0.4,1.1-0.7C189.5,38.3,189,38.2,188.6,38.5z M144.7,58.5c1.5,0.5,3.3,0,4.4-1.2c-0.7-0.3-1.5-0.3-2.2,0
			c-0.4,0.1-0.7,0.3-1,0.5C145.5,58,145.1,58.3,144.7,58.5z M195.3,53c0.3-0.3,0.1-0.8-0.2-0.9c-0.8,0.1-1.6,0.2-2.5,0.3
			c-0.1,0.3,0,0.7,0.1,0.9C193.6,52.9,194.5,52.9,195.3,53z M58.9,89.4c0.3-0.5-0.4-0.9-0.9-1.1c-0.8-0.3-1.7-0.6-2.5-0.9
			c-1.7-0.6-3.4-1.2-5.1-1.8c-1.8-0.7-3.7-1.3-5.6-1c-1.8,0.3-3.7-1.1-5.4-0.3c1.7,0.8,3.6,1.4,5.4,1.8c2.7,0.6,5.3,1.3,7.9,2.3
			C54.7,89,56.8,89.9,58.9,89.4z M60.9,89.2c-0.6-0.1-1.7,0.1-1.5,0.7c0.9,0.1,1.7,0.4,2.4,1c0.6-0.3,1.1-0.8,1.5-1.3
			C62.5,89.5,61.7,89.4,60.9,89.2z M65.9,91.4c-0.6,0-1.3,0.6-0.9,1c0.1,0.1,0.4,0.1,0.5,0.1c1.1,0,2.1,0,3.2,0.1
			C68,91.8,67,91.4,65.9,91.4z M78.3,96.8c1.4,0,2.7-0.2,4.1-0.5C81.3,96,80.2,95.9,79,96C78.6,96,78,96.5,78.3,96.8z M111,68.4
			c-1.9,0-3.7,0.7-5,2.1c0.3,0.3,0.8,0.2,1.2,0C108.6,70,109.9,69.3,111,68.4z M113.5,68.1c0.3-0.5,1.1-0.5,1.7-0.5
			c1.9-0.1,3.4-1.6,5.3-1.9c0.8-0.2,1.6-0.1,2.4-0.3c0.8-0.2,1.6-0.9,1.5-1.7c-1.2,0.4-2.3,0.8-3.6,1.2c-0.6,0.2-1.2,0.4-1.8,0.6
			c-1.7,0.6-3.4,1.2-5.2,1.5c-0.3,0.1-0.6,0.2-0.8,0.4C113,67.7,113.2,68.1,113.5,68.1z M111,79.9V80c0.6,0.2,1.3,0,1.8-0.5
			c-0.9-0.2-1.8-0.2-2.7,0C110,79.9,110.6,80,111,79.9z M121.1,91.9c0.5,0.3,1.3,0.4,1.9,0.1c0.1-0.3,0-0.7-0.2-1
			c-0.5,0.3-1.1,0.5-1.6,0.8L121.1,91.9z M167.9,28.8c0.2-0.4-0.3-0.7-0.7-0.8c-1.7-0.2-3.4,0-5.1,0.2c-2.9,0.4-5.9,0.8-8.8,1.2
			c-2.3,0.3-4.6,0.6-6.9,0.9c-1.7,0.2-3.4,0.5-5.1,0.7c0,0.4,0.4,0.8,0.9,0.8c2.7-0.5,5.4-0.8,8.2-0.9c1.1,0,2.2,0,3.3-0.3
			C158.3,29.7,163.1,29.1,167.9,28.8z M83.7,97.1c-0.3-0.3-0.7-0.5-1.1-0.6c-0.2,0.1-0.1,0.5,0.1,0.6h0.1c0,0,0,0.1,0,0.1
			c-8.4,1-19,3.5-26.3,8.9c-1.1-0.2-2.1-0.4-3.2-0.5c0.6,0.6,1.4,1,2.2,1.3c-0.8,0.7-1.6,1.4-2.3,2.2c-0.2-0.1-0.4-0.1-0.6-0.1
			l0-0.1c-0.5-0.4-1.2-0.5-1.8-0.2c0.5,0.5,1.1,0.9,1.8,1.1c-0.7,0.8-1.3,1.6-1.8,2.5c-6.5-3.6-12.3-8.7-15.9-15
			c-1-1.8-1.9-3.6-2.6-5.6c-2.1-6.1-2.3-12.6-2.4-19.1l2.6,0c0,0.1,0,0.1,0,0.2c0.1,1.3,1,2.5,2.2,3c-0.2-1.8,0.4-3.8,1.7-5.1
			c1.1-1.1,1.6-2.7,1.6-4.3c0-1.6-0.4-3.1-0.9-4.6c-0.2-0.6-0.4-1.2-0.7-1.8c1.1-0.1,2.2-0.2,3.4-0.4c9.6-2.1,10.7-13.9,18.1-16
			c14.9-4.3,24.5-17.1,38.4-18.1c22.4-2.1,44.8,2.1,68.3-1.1c35.2-6.4,71.5-4.3,104.6-4.3c3.6,0,7-1,10.4-2.5c9.2,0.2,17-3.3,24.8-7
			c7.9,1.2,15.6,3.5,23.1,6.4c17.3,6.6,35.2,18.7,37.5,37c0.9,7.2-0.8,14.5-2.8,21.6c-0.1,0.3-0.2,0.6-0.3,0.9
			c-22.1-13.9-50.5-20.2-77.9-18.8c-2.3-0.4-4.5-0.7-6.8-0.9c-0.5,0-1.1,0.1-1,0.5c-5.8-2.6-12.2-3.4-18.6-3.9
			c-20-1.8-40.2-2-60.3-0.5c2.2,1.2,4.8,1.1,7.3,1c24.5-1.1,49.1,0.3,73.4,4.3c-7.4,0.7-14.6,1.9-21.6,3.7c-1.8,0.5-3.5,0.9-5.3,1.4
			c-3.5,0.9-7.1,1.9-10.6,2.8c-1.4,0.4-2.8,0.8-4.3,1.2c-11.5,3.1-23,6.2-34.6,9.2c-5.7-0.1-11.4-0.1-17,0.6
			c-1.2,0.2-2.4,0.4-3.6,0.7c-2.5,0.1-5,0.7-7.4,1.8c5.7-0.6,11.4-1.3,17.1-1.9c2.2,0,4.3-0.1,6.5-0.1c-1.5,0.4-3,0.8-4.5,1.2
			c-5.2,1.3-10.4,2.6-15.6,3.9c-1.8,0.4-3.5,0.8-5.3,1.2c-1.8,0.4-3.5,0.8-5.3,1.2c-0.6,0.1-1.2,0.3-1.8,0.4c0-0.4,0-0.7,0-1.1
			c0-0.9,0-1.8-0.1-2.7l0.9-0.7c0.3,0.1,0.5,0.2,0.8,0.2c1,0.1,2.1-0.3,2.7-1.2c-1.3-0.6-3-0.4-4.2,0.5l-2.5,0.2
			c-10.6,1.1-21,3.3-31.1,6.6c0,0.2,0,0.3,0.1,0.4l-1.5,0.6c-1.2,0-2.3,0.6-3.4,1.2c-0.3,0.2-0.6,0.4-0.6,0.8c0.2,0.1,0.5,0.1,0.8,0
			l0.4,2.4c-0.1,0-0.2,0-0.3,0.1c-0.9,0.1-1.7,0.3-2.6,0.4c-1,0.1-2,0.3-3,0.4c-0.8,0.1-1.5,0.2-2.3,0.3c-1.6,0.2-3.2,0.4-4.8,0.6
			c-0.6,0.1-1.2,0.1-1.8,0.2c-1.4,0.2-2.7,0.3-4.1,0.5c-0.1,0-0.1,0-0.2,0c-1.4,0.2-2.8,0.3-4.2,0.4c-0.8,0.1-1.5,0.1-2.3,0.2
			c-0.8,0.1-1.7,0.2-2.5,0.2C98.5,96,97.7,96,97,96.1c-1,0.1-2.1,0.2-3.1,0.2c-1.6,0.1-3.3,0.2-4.9,0.3c-0.4,0-0.8,0.1-1.1,0.1
			c-0.4,0-0.7,0.1-1.1,0.1C85.8,96.9,84.8,97,83.7,97.1z M93.7,40l0.1,0c0.3,0.1,0.5-0.3,0.3-0.5c-0.9-0.1-1.8,0-2.7,0.1
			C91.6,40.6,93.2,40.9,93.7,40z M315.8,26.2c0.2-0.5,0.4-1,0.3-1.5c-0.2-0.5-1-0.6-1.2-0.1c-0.7,1.8-2.2,3.2-4,3.7
			c-0.8,0.2-1.8,0.3-2.6-0.1c-0.8-0.3-1.5-1.1-1.6-1.9c-0.1-0.4,0-0.8,0-1.2c-0.1-0.4-0.4-0.8-0.8-0.8c-0.4,0-0.6,0.4-0.8,0.8
			c-0.4,1.2-0.2,2.5,0.5,3.5c1.2,1.7,3.6,2.3,5.6,1.7C313.3,29.6,314.8,28,315.8,26.2z M281.4,48.1c0.9-1.1,1.7-2.6,0.8-3.7
			c-0.6,0.7-1.2,1.3-1.8,2c-1.2,1.4-3,3-4.7,2.3c-1.3-0.5-1.9-2-2.4-3.4c-0.1-0.5-0.8-0.5-1.2-0.2c-0.3,0.4-0.4,0.9-0.3,1.4
			c0.2,1.5,1.1,3,2.5,3.7c1.4,0.7,3.1,0.7,4.5,0C279.8,49.9,280.6,49,281.4,48.1z M276.1,26c0.3-0.1,0.1-0.5-0.2-0.6
			c-1-0.6-2.4-0.3-3.1,0.6C273.9,26,275,26.1,276.1,26z M235.9,28.1c0.3,0.1,0.8-0.1,0.7-0.4c0-0.1-0.1-0.1-0.1-0.2
			c-0.8-0.8-2.2-0.6-3.3-0.3c-0.5,0.1-0.9,0.3-1.4,0.4C233.1,27.8,234.5,27.9,235.9,28.1z M218.8,26.3c1.6,0,3.3,0,4.9,0
			c-1.6-0.9-3.5-1.4-5.3-1.5c-0.7,0-1.4,0-1.8,0.5c-0.1-0.4-0.6-0.6-1-0.5c-0.4,0.1-0.8,0.3-1.2,0.5c-1.5,0.5-3.2-0.7-4.7-0.3
			c-1.6,0.4-3.2,0.7-4.8,0.9c-0.5,0.1-1,0.1-1.4-0.1c-1.6-0.7-3.4-0.6-4.9,0.2c0.1,0.4,0.4,0.7,0.7,0.9c1.1-1.2,3.1,0.1,4.6-0.4
			c0.1,0.3,0.5,0.4,0.8,0.4c2.4,0.3,4.8-1.1,7.1-0.5c0.9,0.2,1.7,0.6,2.5,0.3C215.8,26.4,217.3,26.4,218.8,26.3z M213.7,36.6
			c0.3-0.8,0.1-1.8-0.6-2.2c-0.9,0.1-1.1,1.2-1.5,1.9c-1,1.4-3.1,1.1-4.5,0.3c0.3-1.3,0-2.6-0.6-3.7c-0.8,0.3-1.3,1.1-1.4,2
			c-0.1,0.8,0.2,1.7,0.5,2.5c0.4,1.2,1.7,2,2.9,2c1.3,0.1,2.5-0.4,3.6-1.1C212.7,37.9,213.4,37.3,213.7,36.6z M171.8,40.2
			c0.6,0.1,1.2-0.1,1.6-0.5c-0.5-0.2-1.2-0.2-1.7-0.1C171.5,39.7,171.6,40.1,171.8,40.2L171.8,40.2z M160.9,49
			c-1.1-0.4-2.4-0.2-3.4,0.6c-0.1,0.2,0.2,0.3,0.4,0.3C159,49.9,160.1,49.6,160.9,49z M151.6,43.7c-0.2-0.3-0.4-0.6-0.6-0.9
			c-0.8,0.3-1.7,0.6-2.5,0.8C149.4,44,150.6,44,151.6,43.7z M151.1,49.4c-0.3-0.8-1.3-1.2-2.1-1.1c-0.9,0.1-1.7,0.5-2.5,0.6
			c-0.8,0.1-1.9-0.1-2.3-0.8c-0.2-0.3-0.2-0.6-0.3-0.9c-0.2-0.9-0.3-1.8-0.4-2.8c-0.4-0.2-1,0-1.3,0.4c-0.3,0.4-0.3,0.9-0.3,1.4
			c0,1.1,0.3,2.2,0.9,3.2c0.6,0.9,1.6,1.6,2.7,1.7c0.7,0,1.4-0.2,2.1-0.4C148.7,50.2,149.9,49.8,151.1,49.4z M134.2,32.4
			c-4.6,0.9-9.3,1.9-13.9,2.8c-1.4,0.3-2.8,0.6-4.2,0.9c-0.9,0.2-2,0.5-2.1,1.4c0.3,0.3,0.7,0.2,1.1,0.1c2.8-0.5,5.6-1.2,8.4-2
			c1.2-0.3,2.3-0.6,3.5-0.9c1.7-0.4,3.3-0.9,5-1C132.9,33.7,134.2,33.4,134.2,32.4z M116.3,85.7c0.3-0.8,0.3-1.9-0.4-2.4
			c-0.5,0.8-1,1.5-1.5,2.3c-0.5,0.8-1,1.6-1.8,2.2c-0.7,0.6-1.7,1-2.7,0.8c-0.2-0.5-0.7-0.9-1.2-1.1c-0.2-1.7-0.5-3.3-0.7-5
			c-0.4,0-0.8-0.2-1.1-0.6c-0.6,2.1-0.5,4.4,0.4,6.4c0.3,0.8,0.8,1.5,1.5,2c1.4,0.9,3.3,0.3,4.6-0.7
			C114.8,88.7,115.8,87.3,116.3,85.7z M107.2,38.8c0-0.6-0.7-1-1.2-0.8l0.1,0.3c-0.5,0-0.9,0.1-1.2,0.4
			C105.6,39,106.4,39.1,107.2,38.8z M65.3,77.6c0.6,0.2,1.6,0.4,1.8-0.3c-3.2-1.6-6.9-2.1-10.4-1.6c0.8,0.9,2.1,0.9,3.3,0.9
			C61.8,76.8,63.6,77.1,65.3,77.6z M63.5,62.6c0.7,0.3,1.5,0.3,2.1,0.1c-0.1-0.9-1.7-1.1-2-0.2L63.5,62.6z M44.9,100.6
			c0.3-0.1,0.5-0.4,0.3-0.6c-0.6-0.4-1.3-0.5-2-0.3c0-0.4-0.4-0.8-0.9-0.7c0.2,0.8,0.9,1.5,1.7,1.7h0
			C44.3,100.6,44.6,100.7,44.9,100.6z"/>
		<path fill="#9EC62E" d="M52,34c-1.2,0.4-2.5,0.9-3.8,1.3c-0.3,0.1-0.7,0.1-0.7-0.2c0.5-0.2,0.8-0.8,0.8-1.3c3-1,5.9-2,8.9-2.9
			c-0.1,0.2-0.2,0.4-0.4,0.5C55.5,32.7,53.7,33.3,52,34z"/>
		<path fill="#68752F" d="M55.5,87.3c0.9,0.3,1.7,0.6,2.5,0.9c0.5,0.2,1.1,0.6,0.9,1.1c-2.1,0.6-4.2-0.4-6.2-1.1
			c-2.6-1-5.2-1.7-7.9-2.3c-1.9-0.4-3.7-1-5.4-1.8c1.7-0.8,3.6,0.6,5.4,0.3c1.9-0.3,3.8,0.4,5.6,1C52.1,86.1,53.8,86.7,55.5,87.3z"
			/>
		<path fill="#56662B" d="M43.2,99.6c0.7-0.1,1.4,0,2,0.3c0.1,0.2-0.1,0.6-0.3,0.6c-0.3,0.1-0.6,0-0.8,0h0c-0.8-0.2-1.5-0.8-1.7-1.7
			C42.8,98.8,43.2,99.2,43.2,99.6z"/>
		<path fill="#466B11" d="M95.9,119.4c6.4-0.3,12.7,0.4,19,1.1c0.7,0.1,1.3,0.1,2,0.2c20.7,1.9,41.5,1.1,62.2,0.4
			c3.3-0.1,6.6-0.3,9.8-0.4l0,0.3c-0.7,0-1.5,0.2-2,0.6c0,0.2,0.1,0.4,0.1,0.6c0.5,0.1,1,0.3,1.5,0.4c-10.7,0.5-21.3,1.1-31.9,2
			c-30.3-0.5-60.5-2.1-90.7-4.8c-13.4-1.2-25-10.3-31.7-22l0.7-0.4c3.7,6.3,9.4,11.4,15.9,15c2.6,1.4,5.4,2.6,8.2,3.6
			c1.7,0.6,3.4,1.1,5.2,1.5C74.5,119.9,85.3,119.9,95.9,119.4z"/>
		<path fill="#466B11" d="M116,2.6c-14.7-0.4-29.6-0.8-43.9,2.7C57.8,8.9,44,16.9,36.8,29.7c-1.3,2.3-2.4,4.8-3.3,7.3l-1-0.3
			c2.8-8.2,6.8-16,13.3-21.7c7.4-6.5,17.1-9.6,26.8-11.5C94-0.9,116.1-0.2,138,0.6c27.2,1,54.3,2.3,81.5,3.7l-0.1,1.2
			c-3.4-0.2-6.8-0.3-10.2-0.4c-18.9-0.5-37.8-1-56.8-1.5C140.3,3.2,128.1,2.9,116,2.6z"/>
		<path fill="#466B11" d="M37.2,61.7c0.5,1.5,0.9,3,0.9,4.6c0,1.6-0.5,3.2-1.6,4.3c-1.3,1.3-2,3.3-1.7,5.1c-1.2-0.4-2.1-1.6-2.2-3
			c0-0.1,0-0.1,0-0.2c0-1.2,0.7-2.4,1.8-3c1.4-0.7,1.7-2.4,1.6-3.9c-0.2-2-1-4-2.3-5.6c0,0-0.1-0.1-0.1-0.1c0.9,0,1.9,0,2.8,0
			C36.7,60.5,37,61.1,37.2,61.7z"/>
		<path fill="#618227" d="M33.6,59.9c-1.6-2-2.1-4.8-1.2-7.2c0.3,0.7,0.7,1.5,1,2.2c0.5,1.2,1,2.4,1.9,3.3c0.5,0.5,0.8,1,1.1,1.7
			C35.5,59.9,34.5,59.9,33.6,59.9z"/>
		<path fill="#618227" d="M34.4,69.6c-1.1,0.6-1.8,1.8-1.8,3l-2.6,0c0-0.1,0-0.2,0-0.4c-0.1-4.1-0.1-8.3,0-12.5
			c1.2,0.1,2.5,0.2,3.7,0.2c0,0,0.1,0.1,0.1,0.1c1.3,1.6,2.1,3.6,2.3,5.6C36.1,67.1,35.8,68.9,34.4,69.6z"/>
		<path fill="#466B11" d="M32.3,91.7c0.7,2,1.5,3.8,2.6,5.6l-0.7,0.4c-1.4-2.4-2.6-5-3.6-7.6c-5.6-15.2-4.2-32.2,0.1-47.8
			c0.5-1.9,1.1-3.8,1.7-5.7l1,0.3c-1.5,4.2-2.4,8.5-2.9,13c-0.4,3.2-0.6,6.5-0.7,9.7c-0.1,4.2-0.1,8.4,0,12.5c0,0.1,0,0.2,0,0.4
			C30.1,79,30.2,85.6,32.3,91.7z"/>
	</g>
	<g>
	</g>
</g>
<g id="XMLID_6_">
	<g>
		<path fill="#BC2222" d="M354.2,122.2c-2.5,0.4-5.1,0.8-7.6,0.3c-0.3,0.7-1.4,0.9-1.9,0.4c0-0.4,0.6-0.5,1-0.3
			c0.2-0.4,0.3-0.9,0.2-1.3c-0.4-0.2-0.9-0.3-1.3-0.3c1.1-0.3,2.4-0.4,3.6-0.5c0.5,0,1.1-0.1,1.6-0.1c3.7-0.2,7.5-0.4,11.2,0
			c-0.5,0.7-1.4,0.9-2.2,1.1C357.2,121.8,355.7,122,354.2,122.2z"/>
		<path fill="#ED0606" d="M305.5,121.1c-0.2-0.1-0.4-0.1-0.6-0.1c-0.8,0-1.6,0.4-2.3,0.8c0,0.4,0.6,0.5,1,0.3l0.1-0.1
			c0.5,0.2,1,0.4,1.5,0.2C305.7,122.2,306,121.5,305.5,121.1z M354.2,122.2c1.5-0.2,3-0.5,4.5-0.7c0.8-0.1,1.8-0.3,2.2-1.1
			c-3.7-0.4-7.4-0.2-11.2,0c-0.5,0-1.1,0-1.6,0.1c-1.2,0.1-2.4,0.1-3.6,0.5c0.4,0,0.9,0.1,1.3,0.3c0.1,0.4,0,0.9-0.2,1.3
			c-0.4-0.1-1-0.1-1,0.3c0.5,0.5,1.6,0.3,1.9-0.4C349.1,123,351.7,122.6,354.2,122.2z M321.1,117.8c15.1-0.3,30.2-0.5,45.2,1.5
			c-3.7,5.2-11.3,5-17.6,4.8c-12.1-0.3-24.2,1.2-35.9,4.4c-0.1,0-0.2,0.1-0.3,0.1l-0.3-1.2c0.1,0,0.1-0.1,0.2-0.1
			c-0.2,0-0.4,0.1-0.6,0.1c-0.6-0.2-1.1-1.4-0.7-2.2c0.7-1.6,2.6-2.4,4.4-2.5c1.8-0.1,3.5,0.3,5.3,0.5c6.9,0.8,13.8-2.1,20.7-1.2
			c0-0.7,0.4-1.3,1-1.7c-3.5-2.3-8.1,0.8-12.3,0.6c-4.9-0.2-9.9-0.5-14.8-0.8c-1,0-2.2,0.2-2.3,1.1c-0.1,1.4-1.9,1.8-3.2,2
			c-1.4,0.3-3,1.3-2.5,2.5c-1.5,1-3.5,0-5.1-1c-1.5-1-3.8-1.8-5-0.4l-0.6-0.3c-5.2-2.9-10.9-3.8-16.7-3.7l0-2
			C293.6,118.3,307.4,118,321.1,117.8z"/>
		<path fill="#BC2222" d="M311.8,127.4c0.2,0,0.4-0.1,0.6-0.1c-0.1,0.1-0.1,0.1-0.2,0.1C312.1,127.4,311.9,127.4,311.8,127.4z"/>
		<path fill="#DD0A0A" d="M304.9,121c0.2,0,0.4,0,0.6,0.1c0.4,0.3,0.2,1-0.3,1.2c-0.5,0.2-1,0-1.5-0.2l-0.1,0.1
			c-0.4,0.1-1,0.1-1-0.3C303.3,121.4,304.1,121.1,304.9,121z"/>
		<path fill="#CC1D1D" d="M330.1,121c4.2,0.2,8.7-2.9,12.3-0.6c-0.6,0.3-1,1-1,1.7c-6.9-0.9-13.8,2-20.7,1.2
			c-1.8-0.2-3.5-0.7-5.3-0.5c-1.7,0.1-3.6,0.9-4.4,2.5c-0.3,0.8,0.1,2,0.7,2.2c-8.9,1.8-18,2.7-27,2.9c-3,1.2-6.2,1.8-9.4,1.8
			c6.1-4.7,14.4-6.6,21.9-4.9c0.1-0.6,0.4-1.1,0.8-1.5c-0.3-0.3-0.6-0.7-0.9-1c1.2-1.4,3.5-0.6,5,0.4c1.6,1,3.6,2,5.1,1
			c-0.5-1.3,1.1-2.3,2.5-2.5c1.3-0.2,3.1-0.7,3.2-2c0.1-0.9,1.4-1.1,2.3-1.1C320.2,120.5,325.1,120.7,330.1,121z"/>
		<path fill="#BC2222" d="M296.7,124.2c-11.3-0.7-22.7-0.7-34-0.1l-0.2-1.1c5.9-1.2,11.8-2.4,17.6-2.5
			C285.8,120.4,291.5,121.3,296.7,124.2z"/>
		<path fill="#ED0606" d="M311.8,127.4c0.1,0,0.3,0.1,0.4,0l0.3,1.2c-10.4,2.9-21.2,4.5-32.1,4.8c-1.8,0-4-0.1-5.3-1.2l0.2-0.2
			c3.2,0,6.4-0.6,9.4-1.8C293.8,130.1,302.9,129.1,311.8,127.4z"/>
		<path fill="#BC2222" d="M275,126.1L275,126.1c0.9,0,2.2,0.1,2.4,1.1c-0.7-0.1-1.4-0.2-2.1-0.3c-0.2,0-0.5-0.1-0.6-0.3
			C274.6,126.3,274.8,126,275,126.1z"/>
		<path fill="#BC2222" d="M260.9,128.7c0.1,0.3,0.2,0.6,0.2,0.9C260.6,129.4,260.6,129,260.9,128.7z"/>
		<path fill="#BC2222" d="M257,128.3c0.9,0.5,0.9,1.3,0.8,2.3l-0.4-0.1c-6.2,0.4-12.3,0.9-18.5,1.3c3.6-0.8,7.2-1.6,10.8-2.3
			c1.8-0.4,3.6-0.8,5.3-1.2C255.6,128.2,256.4,128,257,128.3z"/>
		<path fill="#ED0606" d="M257.3,130.5c-2.9,2.5-6.6,4-10.4,4.5c-3.4,0.4-6.9,0-10.1-1.3c0-0.8,0.3-1.7,0.9-2.2l1,0.2
			C245,131.4,251.2,130.9,257.3,130.5z"/>
		<path fill="#ED0606" d="M275,126.1c-0.2-0.1-0.4,0.2-0.3,0.4c0.1,0.2,0.3,0.3,0.6,0.3c0.7,0.1,1.4,0.2,2.1,0.3
			C277.2,126.2,275.9,126,275,126.1L275,126.1z M262.6,124.1c11.3-0.6,22.7-0.6,34,0.1l0.6,0.3c0.3,0.3,0.6,0.7,0.9,1
			c-0.4,0.4-0.7,0.9-0.8,1.5c-7.6-1.7-15.8,0.2-21.9,4.9l-0.2,0.2c-0.3-0.2-0.5-0.5-0.7-0.8c-5.7,1.4-11.4,2.7-17,4.1
			c-0.9-1.3,0-3.3,0.3-4.9c0.2-1,0.1-1.8-0.8-2.3c-0.6-0.3-1.3-0.2-2,0c-1.8,0.4-3.6,0.8-5.3,1.2l-0.4-1.9c0.8-0.2,1.5-0.3,2.3-0.6
			c1.9-0.5,3.8-1.2,5.7-1c1.6,0.2,3.2,1.2,3.7,2.6c-0.3,0.4-0.3,0.7,0.2,0.9c0-0.3-0.1-0.6-0.2-0.9c0.4-0.5,1.3-1,2.1-1
			c2.5,0.2,5,0.3,7.5,0.5C267.9,126.8,265.3,125.4,262.6,124.1z"/>
		<path fill="#BC2222" d="M249.9,119.1c0.2,0,0.3,0,0.5,0c-2.8,0.1-5.7,0.2-8.5,0.3C244.6,119.3,247.3,119.2,249.9,119.1z"/>
		<path fill="#305617" d="M249.9,119.1c-2.7,0.1-5.3,0.2-8,0.3c-2.7,0.1-5.3,0.2-8,0.3c-2,0.1-4,0.1-6,0.2c-0.3,0-0.7,0-1,0
			s-0.7,0-1,0c-2.7,0.1-5.3,0.1-8,0.2c7.4-0.6,14.8-0.7,22.3-0.9C243.4,119.2,246.7,119.1,249.9,119.1z"/>
		<path fill="#BC2222" d="M366.4,122.7c-1.5,1.4-3.7,1.8-5.7,2c-36.2,5.5-72.5,10.9-108.8,15.5l-0.2-1.3c1.8-0.2,3.5-0.7,4.5-2.1
			c-2.8,0.2-5.5,0.3-8.3,0.4c0.6-0.5,0.8-1.5,0.4-2.1c-0.4-0.1-0.9-0.1-1.3-0.1l0-0.2c3.8-0.5,7.4-2,10.4-4.5l0.4,0.1
			c-0.3,1.6-1.2,3.6-0.3,4.9c5.7-1.4,11.4-2.7,17-4.1c0.2,0.3,0.4,0.6,0.7,0.8c1.3,1.1,3.4,1.3,5.3,1.2c10.8-0.3,21.6-1.9,32.1-4.8
			c0.1,0,0.2-0.1,0.3-0.1c11.6-3.2,23.8-4.7,35.9-4.4c6.4,0.2,13.9,0.3,17.6-4.8c-15-2-30.1-1.8-45.2-1.5
			c-13.7,0.2-27.4,0.5-41.2,0.7c-6.4,0.1-12.8,0.2-19.3,0.4c-3.4,0-6.8,0.1-10.2,0.2c30.6-1.1,61.2-2.8,91.6-5.1
			c-0.8,0.4-1.7,0.7-2.6,1c8.1,0.5,16.2,1,24.3,1.5c1.1,0.1,2.2,0.2,3,0.8C368.4,118.6,368,121.3,366.4,122.7z"/>
		<path fill="#E52828" d="M237.9,124.2c0.3,0.2,0.6,0.2,1,0.2l0.1,2.3c-2.3,0.1-4.6,0.2-6.9,0.2l0-1.7c1.4,0,2.9-1.1,4.5-1.3
			C237,123.8,237.5,123.8,237.9,124.2z"/>
		<path fill="#E52828" d="M280,120.5c-5.7,0.1-11.7,1.2-17.6,2.5c-4.3,0.9-8.5,1.8-12.7,2.5c-3.5,0.6-7.1,0.9-10.7,1.1l-0.1-2.3
			c0.1,0,0.2,0,0.3,0c3.1-0.6,6.1-1.1,9.2-1.7c-2.3-0.3-4.6-0.6-7-0.9c-0.8-0.1-1.7-0.1-2.4,0c-3,0.2-5.9,0.4-8.9,0.6
			c-1.1,0.1-2.3-0.4-3.4-0.3l-0.1-2.1c0.1,0,0.2,0,0.3,0c0.3,0,0.7,0,1,0c2-0.1,4-0.1,6-0.2c2.7-0.1,5.3-0.2,8-0.3
			c2.8-0.1,5.7-0.2,8.5-0.3c3.4,0,6.8-0.1,10.2-0.2c6.4-0.1,12.8-0.2,19.3-0.4L280,120.5z"/>
		<path fill="#BC2222" d="M238.9,124.4c-0.4,0-0.7,0-1-0.2c-0.4-0.3-0.9-0.4-1.4-0.3c-1.5,0.2-3.1,1.3-4.5,1.3c-0.3,0-0.7-0.1-1-0.3
			c-0.7-0.4-1.6-1.2-2.1-0.5c-0.9,1.2-2.9-0.9-4.2-0.1c-0.5-1,0.7-2.2,1.9-2.2c1.1-0.1,2.3,0.4,3.4,0.3c3-0.2,5.9-0.4,8.9-0.6
			c0.8,0,1.6-0.1,2.4,0c2.3,0.3,4.6,0.6,7,0.9c-3,0.6-6.1,1.1-9.2,1.7C239.1,124.3,239,124.3,238.9,124.4z"/>
		<path fill="#305617" d="M226.9,119.8c-0.1,0-0.2,0-0.3,0c-0.2,0-0.5,0-0.7,0C226.2,119.8,226.6,119.8,226.9,119.8z"/>
		<path fill="#ED0606" d="M223.2,128.4c8.7,0.1,17.5,1,26-0.9l0.4,1.9c-3.6,0.8-7.2,1.6-10.8,2.3l-1-0.2c0.1-0.1,0.2-0.1,0.3-0.2
			c-8.5,1.7-16.9,3.4-25.3,5.1c1.1-2.6,3.6-4.6,6.3-5.2c-16.2,1.8-32.3,3.6-48.5,5.5c9.1-3.1,18.4-5.3,27.8-6.7
			C206.7,128.8,214.9,128.3,223.2,128.4z"/>
		<path fill="#E52828" d="M217.9,120.1c-0.1,0-0.1,0-0.2,0C217.8,120.1,217.8,120.1,217.9,120.1
			C217.9,120.1,217.9,120.1,217.9,120.1z"/>
		<path fill="#BC2222" d="M211.3,122.1c3.5-0.9,7.2-1.9,10.8-1.5c0.2,0,0.5,0,0.6,0.2c0.4,0.4-0.3,1-0.8,1.2
			c-1.1,0.4-2.2,0.6-3.3,0.8c-2.6,0.4-5.3,0.6-8,0.4C210.1,122.9,210.8,122.2,211.3,122.1z"/>
		<path fill="#BC2222" d="M236.9,133.8c3.2,1.3,6.7,1.7,10.1,1.3l0,0.2c-1.3,0.2-2.5,1-3.1,2.2c-4.5-0.9-9.1-1.9-13.6-1.1
			c-7.1,1.3-14.1,2.6-21.2,3.9c-1,0.2-2,0.3-2.9,0.5l-0.2-1.1c0-0.4,0-0.7,0-1.1c1.9,0.1,3.9-0.1,5.7-0.7c0.6-0.1,0.5-1.1-0.1-1.4
			l1.2,0c8.4-1.7,16.9-3.4,25.3-5.1c-0.1,0.1-0.2,0.1-0.3,0.2C237.2,132.1,236.9,133,236.9,133.8z"/>
		<path fill="#E52828" d="M211.6,136.4c0.5,0.3,0.6,1.3,0.1,1.4c-1.8,0.6-3.8,0.8-5.7,0.7c0,0.4,0,0.7,0,1.1c-0.5,0-0.8-0.6-0.6-1.1
			c0.2-0.4,0.7-0.6,1.2-0.8c1.1-0.4,2.1-0.8,3.2-1.1C210.4,136.3,211.1,136.2,211.6,136.4z"/>
		<path fill="#BC2222" d="M250,139.1c0.6,0,1.2-0.1,1.7-0.1l0.2,1.3l0,0c-15.6,2-31.3,3.9-46.9,5.5c-0.5-0.1-1-0.2-1.5-0.2
			c-3.5-0.5-6.9-0.9-10.3-1.3c5.9-0.5,11.9-1.1,17.6-2.9c2.8-0.9,5.8-1,8.8-1.1C229.7,139.9,239.8,139.5,250,139.1z"/>
		<path fill="#BC2222" d="M202,120.5c0.3,0,0.5,0,0.8,0c-0.3,0.1-0.5,0.2-0.8,0.2c-3.8,0.7-7.7,0.7-11.6,0.1
			C194.2,120.7,198.1,120.6,202,120.5z"/>
		<path fill="#305617" d="M202,120.5c-3.9,0.1-7.7,0.2-11.6,0.3c0,0,0,0-0.1,0C194.2,120.6,198.1,120.6,202,120.5z"/>
		<path fill="#BC2222" d="M249.7,125.5c4.2-0.7,8.4-1.6,12.7-2.5l0.2,1.1c2.7,1.4,5.3,2.7,7.9,4.1c-2.5-0.2-5-0.4-7.5-0.5
			c-0.8,0-1.7,0.5-2.1,1c-0.5-1.4-2.2-2.5-3.7-2.6c-1.9-0.2-3.8,0.5-5.7,1c-0.7,0.2-1.5,0.4-2.3,0.6c-8.4,1.8-17.3,1-26,0.9
			c-8.3-0.1-16.6,0.4-24.7,1.6l-0.1-1c-1.6-1.9,2.1-3.8,4.6-3.6c9.7,0.7,19.4,1.5,29.1,1.5c2.3,0,4.6-0.1,6.9-0.2
			C242.6,126.4,246.2,126.1,249.7,125.5z"/>
		<path fill="#E52828" d="M203.6,138.5c0.2,0.4,0,1-0.4,1.3c-0.4,0.3-0.9,0.3-1.4,0.4c-3.8,0.4-7.6,0.9-11.4,0.1
			c1.9-1.7,4.7-2.4,7.2-1.8c1.7,0.4,3.4-1,5.1-1.1c0.7-0.1,1.5,0.1,2.1,0.5C204.6,138.3,204.1,138.5,203.6,138.5z"/>
		<path fill="#E52828" d="M247.9,137.4c2.8-0.1,5.5-0.2,8.3-0.4c-1,1.4-2.7,1.9-4.5,2.1c-0.6,0.1-1.2,0.1-1.7,0.1
			c-10.2,0.4-20.3,0.8-30.4,1.2c-3,0.1-6,0.2-8.8,1.1c-5.7,1.8-11.7,2.4-17.6,2.9c-5.8-0.6-11.5-0.9-17.1-1.1c1.9-0.3,3.7-1,5.1-2.3
			c0.6,0.3,1.1,0.8,1.4,1.4c7.9,0.9,15.8-0.2,23.7-1.6c1-0.2,2-0.3,2.9-0.5c7.1-1.3,14.2-2.6,21.2-3.9c4.5-0.8,9.1,0.1,13.6,1.1
			c0.5-1.2,1.8-2,3.1-2.2c0.4-0.1,0.9,0,1.3,0.1C248.7,135.9,248.5,136.8,247.9,137.4z"/>
		<path fill="#BC2222" d="M177.7,123.2c-6.1,1.3-12.2,2.6-18.3,4c-4.7,1-9.3,2-14,3c1-1,2-2,3-3c-0.3,0-0.6,0-0.9,0l0.1-1.5
			c8.1,1,16.6-3.7,24.6-3.6C174,122.2,175.9,122.5,177.7,123.2z"/>
		<path fill="#BC2222" d="M190.3,120.7c3.8,0.6,7.8,0.6,11.6-0.1c0.3,0,0.6-0.1,0.8-0.2c5-0.1,10-0.2,15-0.4c-3,0.2-6.1,0.6-9.1,1
			c-5.2,0.7-10.4,1.8-15.7,1.6c-3.6-0.1-7.1-0.6-10.6-1c-3.4-0.4-6.8-0.6-10.2-0.6c-0.3,0-0.6,0-1,0l0,0
			C177.6,121,184,120.9,190.3,120.7z"/>
		<path fill="#BC2222" d="M203.2,139.8c0.4-0.3,0.6-0.8,0.4-1.3c0.5,0,1-0.2,1.3-0.6c-0.6-0.4-1.4-0.6-2.1-0.5
			c-1.8,0.1-3.4,1.6-5.1,1.1c-2.5-0.6-5.2,0.1-7.2,1.8c3.8,0.8,7.6,0.3,11.4-0.1C202.3,140.1,202.8,140.1,203.2,139.8z M169.2,141
			c0.4,0.2,0.8,0.5,1.2,0.8c0.2-0.4,0.2-0.8,0-1.2l0,0c-0.1-0.7-0.6-1.4-1.2-1.8C169,139.6,169,140.3,169.2,141z M176.1,143.2
			c-6.2-0.2-12.3-0.2-18.4-0.1c0-0.2,0.1-0.3,0.1-0.5c-0.7,0.2-1.4,0.4-2.1,0.5c-7.2,0.1-14.3,0.3-21.5,0.4l0-1.7
			c10.4-1.5,20.9-3,31.3-4.6c-0.5-0.9-1.1-1.8-1.6-2.7c0,0,0,0,0,0c9.8-1.7,19.5-3.6,29.1-5.9c-3.8-1.1-7.7-2.1-11.5-3.2
			c5.8-0.8,11.9,0.5,16.9,3.6l0.1,1c-9.5,1.4-18.8,3.6-27.8,6.7c16.1-1.8,32.3-3.7,48.5-5.5c-2.8,0.6-5.2,2.6-6.3,5.2l-1.2,0
			c-0.5-0.3-1.2-0.1-1.8,0.1c-1.1,0.4-2.1,0.8-3.2,1.1c-0.4,0.2-1,0.4-1.2,0.8c-0.2,0.4,0.1,1.1,0.6,1.1l0.2,1.1
			c-7.8,1.4-15.8,2.5-23.7,1.6c-0.3-0.6-0.8-1.1-1.4-1.4C179.7,142.3,178,142.9,176.1,143.2z"/>
		<path fill="#E52828" d="M169.2,141c-0.1-0.7-0.1-1.5,0-2.2c0.6,0.4,1.1,1.1,1.2,1.8l0,0c0.2,0.4,0.2,0.9,0,1.2
			C170,141.6,169.6,141.3,169.2,141z"/>
		<path fill="#BC2222" d="M157.7,143.1c6.1-0.1,12.2-0.1,18.4,0.1c-2.9,0.5-6.2,0.1-9.2,0.2c-3.4,0.1-6.7,0.8-9.9,2.2
			C157.2,144.8,157.4,143.9,157.7,143.1z"/>
		<path fill="#BC2222" d="M166.9,129.3c1.2-0.2,2.5-0.3,3.7-0.5c0.2,0.3,0.2,0.7,0.1,1.1c-1.4,0.2-2.8,0.4-4.2,0.6
			c-0.2,0-0.5,0-0.6-0.1c-0.2-0.2-0.2-0.6,0.1-0.8C166.3,129.4,166.6,129.3,166.9,129.3z"/>
		<path fill="#BC2222" d="M160,129.8c1.5-0.5,3.3,0.1,4.8,1c-2.1,0.1-4.1,0.4-6.1,0.8c-0.4-0.3-0.1-0.9,0.3-1.2
			C159.2,130.1,159.6,129.9,160,129.8z"/>
		<path fill="#ED0606" d="M166.1,129.6c-0.2,0.2-0.3,0.6-0.1,0.8c0.2,0.1,0.4,0.1,0.6,0.1c1.4-0.2,2.8-0.4,4.2-0.6
			c0.1-0.4,0-0.7-0.1-1.1c-1.2,0.2-2.5,0.3-3.7,0.5C166.6,129.3,166.3,129.4,166.1,129.6z M221.9,122c0.5-0.2,1.2-0.8,0.8-1.2
			c-0.1-0.1-0.4-0.2-0.6-0.2c-3.6-0.3-7.3,0.6-10.8,1.5c-0.5,0.1-1.2,0.8-0.7,1.1c2.7,0.2,5.4,0.1,8-0.4
			C219.7,122.6,220.8,122.3,221.9,122z M162.3,135c-1.2-0.2-2.4-0.3-3.7-0.3l0-3.1c2-0.4,4.1-0.7,6.1-0.8c-1.4-0.9-3.3-1.4-4.8-1
			l-0.6-2.6c6.1-1.3,12.2-2.6,18.3-4c-1.8-0.7-3.7-1-5.5-1.1l0-1.1c3.4,0,6.8,0.2,10.2,0.6c3.5,0.4,7,1,10.6,1
			c5.3,0.1,10.5-0.9,15.7-1.6c3-0.4,6-0.7,9.1-1c0,0,0.1,0,0.2,0c2.7-0.1,5.3-0.1,8-0.2c0.2,0,0.5,0,0.7,0l0.1,2.1
			c-1.2,0.1-2.4,1.2-1.9,2.2c1.3-0.8,3.3,1.3,4.2,0.1c0.5-0.6,1.4,0.1,2.1,0.5c0.3,0.2,0.7,0.2,1,0.3l0,1.7
			c-9.7,0.1-19.4-0.8-29.1-1.5c-2.5-0.2-6.2,1.7-4.6,3.6c-5-3-11.1-4.3-16.9-3.6c3.8,1.1,7.7,2.1,11.5,3.2
			c-9.6,2.3-19.3,4.3-29.1,5.9c0,0,0,0,0,0l-1.4,0.9C162.6,135.3,162.5,135,162.3,135z"/>
		<path fill="#E52828" d="M157.8,142.6c0,0.2-0.1,0.3-0.1,0.5c-0.7,0-1.3,0-1.9,0C156.4,143,157.1,142.8,157.8,142.6z"/>
		<path fill="#BC2222" d="M151.7,135.7c2.2-0.7,4.5-1.1,6.9-1.1c1.2,0,2.5,0.1,3.7,0.3c0.2,0,0.3,0.3,0.1,0.4
			c-0.1,0.1-0.2,0.1-0.3,0.1c-2.1,0.3-4.2,0.7-6.4,1c-1.4,0.2-2.8,0.4-4.2,0.7c-0.5,0-0.9,0.1-1.4,0c-0.4-0.1-0.8-0.6-0.7-1
			C150.3,136.2,151,135.9,151.7,135.7z"/>
		<path fill="#E52828" d="M162.8,146.8c-2,0.2-4,0.3-6,0.5c-4.8,0.4-9.6,0.8-14.4,1.2c-5.4,0.5-10.8,1-16.2,1.6
			c-2.2,0.2-4.7,0.4-6.3-1.1c11.4-0.9,22.8-1.9,34.2-2.8c-1.6-0.8-3.3-1.5-4.9-2.3c2.2,0,4.4-0.2,6.5-0.7c0.6,0,1.3,0,1.9,0
			c-0.2,0.8-0.5,1.7-0.7,2.5c3.1-1.3,6.5-2.1,9.9-2.2c3-0.1,6.3,0.3,9.2-0.2c5.7,0.2,11.3,0.5,17.1,1.1c-0.6,0.1-1.3,0.1-1.9,0.2
			C181.7,145.2,172.3,146,162.8,146.8z"/>
		<path fill="#E52828" d="M129.7,130.1c-0.2,0-0.5,0-0.7,0.1C129.3,130,129.5,130,129.7,130.1z"/>
		<path fill="#E52828" d="M103.9,146.3c3.2-0.7,6.4-1.2,9.6-1.7c1.6-0.1,3.1-0.1,4.4,0.7c0.5,0.3,1,1,0.6,1.4
			c-2.1-0.1-4.1-0.1-6.2-0.2c-1.9-0.1-3.9-0.1-5.9-0.2C105.6,146.4,104.8,146.4,103.9,146.3z"/>
		<path fill="#BC2222" d="M97.2,135.8c1.4-0.7,3-0.9,4.5-0.6c-0.7,0.5-1.5,0.9-2.3,1.1c-0.3,0.1-0.7,0.2-1,0.1
			C98,136.3,97.6,136,97.2,135.8z"/>
		<path fill="#ED0606" d="M101.7,135.2c-1.5-0.3-3.1-0.1-4.5,0.6c0.3,0.2,0.8,0.5,1.2,0.6c0.3,0.1,0.7,0,1-0.1
			C100.2,136.1,101,135.7,101.7,135.2z M130.3,133.2c4.4,1.6,9.6,0.4,12.8-3c-3.4,1.6-7.7,1.1-10.7-1.2c4.9-1.4,10-2,15.1-1.8
			c0.3,0,0.6,0,0.9,0c-1,1-2,2-3,3c4.7-1,9.3-2,14-3l0.6,2.6c-0.4,0.1-0.8,0.3-1.1,0.6c-0.4,0.3-0.6,0.9-0.3,1.2l0,3.1
			c-2.3,0-4.7,0.3-6.9,1.1c-0.7,0.2-1.5,0.5-2.3,0.5c-0.1,0.4,0.3,0.9,0.7,1c0.4,0.2,0.9,0.1,1.4,0c1.4-0.2,2.8-0.5,4.2-0.7
			c2.1-0.3,4.3-0.7,6.4-1c0.1,0,0.2,0,0.3-0.1l1.4-0.9c0.6,0.9,1.1,1.8,1.6,2.7c-10.4,1.5-20.9,3.1-31.3,4.6
			c1.2-5.9,13.6-2,14.7-7.9c-12.6,3.8-25.7,6.4-38.8,7.7c4-4.9,11.1-5.6,17.4-6c-3.6-3.2-9.2-1-13.7,0.8c-10.9,4.3-23,5.5-34.5,3.5
			c16.1-5.3,32.8-8.6,49.7-9.8c-0.5,0.3-0.8,0.9-0.6,1.5C128.7,132.4,129.5,132.9,130.3,133.2z"/>
		<path fill="#E52828" d="M98.9,145.5c1.9-1.2,4.3-1.7,6.6-1.4c1.6,0.2,3.1,0.7,4.6,0.8c1.1,0.1,2.3-0.1,3.4-0.1
			c-3.2,0.4-6.4,1-9.6,1.7c-1.8,0-3.5-0.1-5.3-0.2C98.5,145.9,98.6,145.6,98.9,145.5z"/>
		<path fill="#E52828" d="M98.1,145.3c0,0.6-0.4,1.1-0.9,1.4c-0.6-0.5-1.4-0.8-2.2-0.7c0-0.6,0.5-1.2,1.1-1.4l-0.1,0.1
			C96.6,145.2,97.4,145.5,98.1,145.3z"/>
		<path fill="#E52828" d="M90.4,150c-5.6,1.9-11.1,4.2-16.3,7c-1.3,0.2-2.6,0.2-3.9-0.2C76.5,153.6,83.4,151.3,90.4,150z"/>
		<path fill="#D62316" d="M106.4,149.4c-1.1,0-2.1,0.2-3.2,0.4c-8.9,1.6-18.5,1.6-26.3,6.1c-0.9,0.5-1.8,0.8-2.8,1
			c5.2-2.8,10.7-5.1,16.3-7c8.9-1.7,18.1-1.7,27-0.2c-1.4,1.3-3.6,1.3-5.4,0.8C110.1,150.3,108.3,149.5,106.4,149.4z"/>
		<path fill="#EF0303" d="M145.7,125.4c-5-1.2-10.1-0.4-15.1,0.4c-17.7,2.8-35.4,5.5-53.1,8.2c-1,0.2-2.1,0.3-3.1,0.5l-0.2-1.1
			c6-1.3,12.1-2.5,18.1-3.8c17.7-3.7,35.7-7.4,53.8-6.4c2.2,0.1,4.4,0.3,6.5-0.1c6.2-1.3,12.4-2,18.7-2c0.3,0,0.7,0,1,0l0,1.1
			c-8-0.2-16.5,4.6-24.6,3.6C146.9,125.7,146.3,125.5,145.7,125.4z"/>
		<path fill="#E52828" d="M84.5,148.2c-2.1,0.5-4.2,1-6.3,1.4c-0.7,0.1-1.4,0.3-2,0c-0.6-0.2-1.2-0.9-0.9-1.6c0.3,0.1,0.7,0,1.1-0.1
			c-0.3-0.4-0.1-1.1,0.3-1.4c0.5,0.9,1.8,0.6,2.7,0.3c3.8-1.4,8-1.5,11.9-0.5c-0.4,0.5-1,0.6-1.6,0.8
			C87.8,147.4,86.1,147.8,84.5,148.2z"/>
		<path fill="#E52828" d="M73.2,150.2c0.3,1-1,1.7-2,1.8c-1,0-2.3-0.2-3,0.6c-1.2-0.9-1.9-2.5-1.6-4.1c0.3-0.3,0.9,0,1.1,0.4
			c0.2,0.4,0.3,0.9,0.6,1.2c0.3,0.2,0.6,0.2,1,0.2c1,0,2,0,3,0c-1.7-1.7-2.6-4.3-2.4-6.7c0.8-0.1,1.7,0.2,2.1,0.9
			c0.9,1.4-0.1,3.4,0.8,4.8C72.9,149.6,73.1,149.8,73.2,150.2z"/>
		<path fill="#54AF2E" d="M62.2,156.6c0.1,0.1,0.1,0.2,0.2,0.3c0,0-0.1,0-0.1,0c0,0,0,0,0,0C62.3,156.8,62.3,156.7,62.2,156.6z"/>
		<path fill="#54AF2E" d="M62.2,156.6C62.2,156.6,62.2,156.6,62.2,156.6c0.1,0.1,0.1,0.2,0.1,0.3C62.3,156.8,62.2,156.7,62.2,156.6z
			"/>
		<path fill="#DD0A0A" d="M62.2,140.3c0.3,5.7,1.9,11.2,4.6,16.2c-1.6,1-3.3-1.1-4-2.8c-0.3-0.8-0.7-1.6-1-2.5
			c-1.8-5-2.7-10.7,1-14.1c1.9-1.8,4.6-2.4,7.1-2.9c1.4-0.3,2.8-0.6,4.2-0.9l0.2,1.1c-3.1,0.6-6.2,1.7-8.4,3.9
			c2.6-2.1,6.8-1.5,8.7,1.3C70.5,139.9,66.3,140.1,62.2,140.3z"/>
		<path fill="#BC2222" d="M72.7,149.3c-0.9-1.4,0.1-3.4-0.8-4.8c-0.4-0.7-1.3-1.1-2.1-0.9c-0.2,2.4,0.7,5,2.4,6.7c-1,0-2,0-3,0
			c-0.3,0-0.7,0-1-0.2c-0.3-0.3-0.4-0.8-0.6-1.2c-0.2-0.4-0.8-0.8-1.1-0.4c-0.3,1.5,0.3,3.2,1.6,4.1c0.7-0.7,2-0.5,3-0.6
			c1.1,0,2.4-0.8,2-1.8C73.1,149.8,72.9,149.6,72.7,149.3z M89.5,147c0.6-0.1,1.2-0.3,1.6-0.8c-3.9-1-8.1-0.8-11.9,0.5
			c-0.9,0.3-2.2,0.6-2.7-0.3c-0.4,0.3-0.6,1-0.3,1.4c-0.3,0.1-0.7,0.2-1.1,0.1c-0.2,0.6,0.3,1.4,0.9,1.6c0.6,0.3,1.4,0.1,2,0
			c2.1-0.4,4.2-0.9,6.3-1.4C86.1,147.8,87.8,147.4,89.5,147z M97.2,146.7c0.5-0.3,0.8-0.8,0.9-1.4c-0.7,0.1-1.5-0.1-2.1-0.5l0.1-0.1
			c-0.6,0.2-1,0.8-1.1,1.4C95.8,146,96.7,146.2,97.2,146.7z M61.8,151.3c0.3,0.9,0.7,1.7,1,2.5c0.7,1.7,2.4,3.8,4,2.8
			c-2.7-5-4.2-10.5-4.6-16.2c4.2-0.2,8.3-0.4,12.4-0.7c-1.9-2.7-6.2-3.3-8.7-1.3c2.2-2.2,5.3-3.3,8.4-3.9c1-0.2,2.1-0.4,3.1-0.5
			c17.7-2.7,35.4-5.5,53.1-8.2c5-0.8,10.2-1.5,15.1-0.4c0.6,0.1,1.2,0.3,1.8,0.3l-0.1,1.5c-5.1-0.2-10.2,0.4-15.1,1.8
			c3,2.3,7.3,2.8,10.7,1.2c-3.2,3.4-8.4,4.6-12.8,3c-0.8-0.3-1.6-0.7-1.9-1.5c-0.2-0.5,0.1-1.2,0.6-1.5c0.2,0,0.5,0,0.7-0.1
			c-0.2-0.1-0.5-0.1-0.7,0.1c-16.9,1.1-33.7,4.4-49.7,9.8c11.5,2,23.6,0.8,34.5-3.5c4.5-1.8,10.1-3.9,13.7-0.8
			c-6.3,0.4-13.3,1.1-17.4,6c13.2-1.3,26.2-3.9,38.8-7.7c-1.1,5.9-13.5,2-14.7,7.9l0,1.7c-2.9,0-5.8,0.1-8.8,0.1
			c-3.9,0.2-7.9,0.6-11.9,1.1c-1.1,0.1-2.3,0.2-3.4,0.1c-1.6-0.1-3.1-0.6-4.6-0.8c-2.3-0.3-4.7,0.3-6.6,1.4
			c-0.3,0.1-0.4,0.5-0.3,0.7c1.8,0.1,3.5,0.1,5.3,0.2c-4.6,1-9.1,2.2-13.5,3.7c-7,1.3-13.8,3.6-20.2,6.8c1.3,0.4,2.6,0.4,3.9,0.2
			c-1.4,0.8-2.9,1.6-4.3,2.4c-2.1,0.2-4.3,0.3-6.5,0.3c-0.4-1-0.8-1.9-1.1-2.8c0,0,0.1,0,0.1,0c-0.1-0.1-0.1-0.2-0.2-0.3
			c-0.5-1.6-0.9-3.1-1.6-4.9L61.8,151.3z"/>
		<path fill="#BC2222" d="M146,123.2c-18.1-1-36.1,2.7-53.8,6.4c-6,1.3-12.1,2.5-18.1,3.8c-1.4,0.3-2.8,0.6-4.2,0.9
			c-2.6,0.5-5.2,1.1-7.1,2.9c-3.7,3.4-2.8,9.1-1,14.1l-1.2,0.5c-0.3-0.6-0.6-1.4-0.9-2.1c-0.7-0.7-1.1-1.5-1.5-2.3
			c-0.7-2.9-0.9-5.8-0.7-8.7c-0.1,0.2-0.3,0.3-0.4,0.4c0-0.7-0.1-1.3-0.2-2c9.6-3.8,19.3-7.4,29.4-9.8c11.7-2.7,23.9-3.6,35.9-4.5
			c-1.4-0.5-2.9-0.8-4.4-1.2c17.8-0.1,35.5-0.3,53.3-0.6l0,0c-6.3,0-12.6,0.7-18.7,2C150.3,123.5,148.1,123.3,146,123.2z"/>
		<path fill="#BC2222" d="M60.6,151.8c0.7,1.8,1.1,3.3,1.6,4.9c0,0,0,0,0,0c-1.9-2.8-3.2-6-4-9.3c0.3,0.9,0.8,1.6,1.5,2.3
			C60,150.4,60.3,151.1,60.6,151.8z"/>
		<path fill="#54AF2E" d="M58.2,147.3c-0.9-2.2-0.9-4.8-1.1-7.5c0-0.3,0-0.5,0-0.8c0.1-0.2,0.3-0.3,0.4-0.4
			C57.3,141.5,57.5,144.5,58.2,147.3z"/>
		<path fill="#54AF2E" d="M57.1,139.8c0.1,2.8,0.2,5.4,1.1,7.5C57.3,145.2,57.3,142.6,57.1,139.8z"/>
		<path fill="#81CC29" d="M53.4,148.9c-0.4,0.6,0,1.4,0.4,2c0.5,0.5,1.1,1,1.4,1.7c-0.3,0-0.7,0.1-1,0.1c-0.5-0.8-1.1-1.6-1.6-2.3
			c-0.3-0.4-0.6-0.8-1.1-1c-0.5-0.1-1.1,0.3-1,0.7c0.2,0.8,0.5,1.6,0.3,2.5c-0.2,0.8-1,1.5-1.8,1.3c-0.3-0.1-0.6-0.3-0.9-0.5
			c-1.4-1.1-2.8-2.1-4.3-3.2c0.3-0.9,1-1.7,1.9-2c0.6-0.2,1.2-0.2,1.8-0.3c2-0.2,4-0.7,5.9-1.6c0.5-0.2,1-0.5,1.5-0.5
			c0.6,0,1.1,0.4,1.2,0.9C56.1,148,54,147.9,53.4,148.9z"/>
		<path fill="#67AF1B" d="M48.6,145.1c3.2-1.4,6-3.7,8.5-6.1c0,0.3,0,0.5,0,0.8c0.1,2.8,0.2,5.4,1.1,7.5c0.8,3.3,2.1,6.5,4,9.3
			c0,0.1,0.1,0.2,0.1,0.3c0,0,0,0,0,0c-8.4-0.7-16.8-0.4-25.1,1.1l-0.5-2.5c1-0.1,1.9-0.5,2.8-0.9c1.1-0.4,2.3-0.6,3.5-0.6
			c0.1-0.3,0-0.6-0.2-0.8c-0.2,0.3-0.6,0.5-1,0.5c-0.2-0.4,0.2-0.9,0.6-1c0-0.2-0.1-0.4-0.1-0.6c-1.3-0.1-2.5,0.1-3.7,0.5
			c-0.3-0.2-0.6-0.3-0.9-0.4l-0.2-0.2c0.3-0.4,0.5-0.8,0.8-1.1c-0.8-0.5-1.8-0.7-2.8-0.5l-0.5-2.4c0.3-0.1,0.5-0.1,0.8-0.2
			C40.3,147.1,44.7,146.9,48.6,145.1z M50.8,152.6c0.2-0.8-0.1-1.7-0.3-2.5c-0.1-0.5,0.5-0.9,1-0.7c0.5,0.1,0.8,0.5,1.1,1
			c0.5,0.8,1.1,1.5,1.6,2.3c0.3,0,0.6-0.1,1-0.1c-0.3-0.7-0.9-1.1-1.4-1.7c-0.5-0.6-0.8-1.4-0.4-2c0.6-1,2.7-0.9,2.6-2
			c0-0.5-0.6-0.9-1.2-0.9c-0.5,0-1,0.2-1.5,0.5c-1.8,0.9-3.8,1.4-5.9,1.6c-0.6,0.1-1.2,0.1-1.8,0.3c-0.9,0.3-1.6,1.1-1.9,2
			c1.4,1.1,2.8,2.1,4.3,3.2c0.3,0.2,0.6,0.4,0.9,0.5C49.8,154.1,50.6,153.3,50.8,152.6z"/>
		<path fill="#81CC29" d="M37.1,154c0.3-0.5,0.6-1.1,0.8-1.7c0.3,0.1,0.6,0.3,0.9,0.4c1.2-0.4,2.4-0.6,3.7-0.5
			c0,0.2,0.1,0.4,0.1,0.6c-0.4,0-0.8,0.5-0.6,1c0.4,0,0.8-0.2,1-0.5c0.2,0.2,0.2,0.5,0.2,0.8c-1.2,0-2.3,0.2-3.5,0.6
			c-0.9,0.3-1.8,0.8-2.8,0.9c-1,0.1-2.1-0.3-2.5-1.2C35.1,153.9,36.1,153.8,37.1,154z"/>
		<path fill="#81CC29" d="M37.7,152.1c-0.8,0.6-2,0.6-2.8-0.1c-0.3-0.2-0.5-0.5-0.6-0.8c0.4-0.4,0.9-0.6,1.4-0.7
			c0.9-0.2,2-0.1,2.8,0.5C38.3,151.4,38,151.7,37.7,152.1z"/>
		<path fill="#599B1B" d="M57.1,139c-2.5,2.5-5.2,4.7-8.5,6.1c-3.9,1.7-8.3,2-12.5,2.8c-0.3,0-0.5,0.1-0.8,0.2c-2,0.4-4,1-6,1.8
			l-0.7-1.8c0.4-0.2,0.8-0.3,1.2-0.5c8.5-3.3,17-6.6,25.5-9.9c0.5-0.2,1.1-0.4,1.6-0.6C57,137.7,57,138.4,57.1,139z"/>
		<path fill="#81CC29" d="M30.4,156c-0.2,0.3-0.3,0.7-0.5,1c-1.5,0.2-3,0.4-4.6,0.6c0.6-0.9,1.6-1.5,2.7-1.7
			C28.8,155.8,29.6,155.9,30.4,156z"/>
		<path fill="#81CC29" d="M21.7,156c0.7-0.4,1.4-0.8,2.1-1.2c0.6-0.3,1.4-0.5,1.7,0.1c-1.2,0.8-2.3,1.6-3.5,2.4
			c-1.5,1-3,2.1-4.2,3.4c-0.3-0.3-0.5-0.7-0.8-1C18.4,158.3,20,157.1,21.7,156z"/>
		<path fill="#81CC29" d="M15.6,163.1c-0.4,1-1,2-1.7,2.9c-1.2,1.4-2.8,2.5-4.5,3.1c-0.4,1-1.2,1.7-2,2.3c-0.5-0.5-0.2-1.2,0.3-1.7
			c0.2-0.2,0.4-0.4,0.6-0.6C10.6,167.1,13.1,165.1,15.6,163.1z"/>
		<path fill="#54AF2E" d="M22.1,157.4c1.2-0.8,2.3-1.6,3.5-2.4c-0.3-0.6-1.2-0.4-1.7-0.1c-0.7,0.4-1.5,0.8-2.1,1.2
			c-1.7,1-3.3,2.2-4.6,3.6c0.3,0.4,0.5,0.7,0.8,1C19.1,159.4,20.6,158.4,22.1,157.4z M30,157c0.2-0.3,0.3-0.7,0.5-1
			c-0.8-0.1-1.6-0.3-2.4-0.1c-1.1,0.2-2,0.8-2.7,1.7C26.9,157.4,28.4,157.2,30,157z M5.6,168.8c5.5-8.7,14-15.4,23.6-19
			c2-0.7,4-1.3,6-1.8l0.5,2.4c-0.5,0.1-1,0.4-1.4,0.7c0.1,0.3,0.3,0.6,0.6,0.8c0.8,0.7,2,0.7,2.8,0.1l0.2,0.2
			c-0.3,0.6-0.6,1.1-0.8,1.7c-0.9-0.2-1.9-0.1-2.8,0.3c0.4,0.9,1.6,1.3,2.5,1.2l0.5,2.5c-3.7,0.6-7.3,1.5-10.9,2.6
			c-1.8,0.5-3.6,1.1-5.3,2c-2.1,1-4,2.3-5.7,3.9l-1.6-0.4c0.7-0.9,1.3-1.8,1.7-2.9c-2.5,2-4.9,4-7.4,6c-0.2,0.2-0.4,0.3-0.6,0.6
			L5.6,168.8z"/>
		<path fill="#54AF2E" d="M15.4,166.4c-3.7,3.4-6.5,7.9-8.2,12.7c-0.7,1.8-1.3,3.8-2.9,4.8c-0.8-5.1-1.5-10.7,1.3-15l2,0.8
			c-0.5,0.6-0.7,1.2-0.3,1.7c0.9-0.5,1.6-1.3,2-2.3c1.7-0.6,3.3-1.7,4.5-3.1L15.4,166.4z"/>
		<path fill="#599B1B" d="M9.1,182.8c-0.3,2.2-2.8,3-5,2.6l0.3-1.5c1.6-1,2.2-3,2.9-4.8c1.7-4.8,4.5-9.3,8.2-12.7
			c1.7-1.6,3.6-2.9,5.7-3.9c1.7-0.8,3.5-1.4,5.3-2c3.6-1.1,7.2-1.9,10.9-2.6c8.3-1.5,16.7-1.8,25.1-1.1c0.3,0.9,0.6,1.8,1.1,2.8
			c-7.4,0.2-14.9-0.2-22.3,0.5C27,161.4,11.3,168.9,9.1,182.8z"/>
		<path fill="#599B1B" d="M29.3,149.9c-9.6,3.6-18.1,10.3-23.6,19c-2.8,4.3-2.1,9.9-1.3,15l-0.3,1.5c-1-0.2-2-0.7-2.7-1.6
			c-2-2.6-1.6-6.2-0.7-9.3c2.4-8.1,7.7-15.3,14.7-20c4.1-2.7,8.6-4.6,13.1-6.4L29.3,149.9z"/>
	</g>
	<g>
	</g>
</g>
</svg>
